<svg xmlns="http://www.w3.org/2000/svg" width="40" height="40" viewBox="0 0 40 40"><defs><style>.a{fill:none;}.b{fill:#131220;}</style></defs><rect class="a" width="40" height="40"/><path class="b" d="M179.83,241.957H164.116a2.143,2.143,0,0,0-2.143,2.143v15.714a2.143,2.143,0,0,0,2.143,2.143H179.83a2.143,2.143,0,0,0,2.143-2.143V244.1A2.143,2.143,0,0,0,179.83,241.957Zm-.715,14.643a1.071,1.071,0,0,1-1.071,1.071H165.9a1.071,1.071,0,0,1-1.071-1.071V250.25c.623.482,1.488,1.127,4.255,3.135a5.286,5.286,0,0,0,2.888,1.429c1.2.006,2.279-.984,2.889-1.429,2.766-2.007,3.631-2.652,4.253-3.134Zm0-8.162c-1.088.847-1.046.853-5.094,3.791-.469.342-1.4,1.167-2.049,1.156-.647.01-1.579-.813-2.048-1.156-4.049-2.938-4.007-2.945-5.095-3.791v-1.124a1.071,1.071,0,0,1,1.071-1.071h12.143a1.071,1.071,0,0,1,1.071,1.071Z" transform="translate(-151.973 -231.957)"/></svg>