<svg id="Layer_1" data-name="Layer 1" xmlns="http://www.w3.org/2000/svg" viewBox="0 0 135 31.93"><defs><style>.cls-1{fill:#fff;}</style></defs><title>Psychics_FinalLogo white</title><path class="cls-1" d="M109.63,3.91V3a5.65,5.65,0,0,0,.88-.09,1.22,1.22,0,0,0,.65-.36,1.15,1.15,0,0,0,.26-.48,1.1,1.1,0,0,0,0-.27h1.11l0,6.73h-1.36l0-4.64Z"/><path class="cls-1" d="M131.43,3.91V3a5.62,5.62,0,0,0,.88-.09,1.23,1.23,0,0,0,.65-.36,1.16,1.16,0,0,0,.26-.48,1.12,1.12,0,0,0,.05-.27h1.1l0,6.73H133l0-4.64Z"/><path class="cls-1" d="M116.54,8.19A3.06,3.06,0,0,1,115.37,7a3.52,3.52,0,0,1,0-3.35,3,3,0,0,1,1.16-1.16,3.55,3.55,0,0,1,3.33,0A3,3,0,0,1,121,3.66,3.56,3.56,0,0,1,121,7a3,3,0,0,1-1.15,1.16,3.51,3.51,0,0,1-3.33,0Zm2.88-.67a2.17,2.17,0,0,0,.84-.88,2.93,2.93,0,0,0,0-2.6,2.16,2.16,0,0,0-.84-.88,2.56,2.56,0,0,0-2.44,0,2.21,2.21,0,0,0-.84.88,2.88,2.88,0,0,0,0,2.6,2.19,2.19,0,0,0,.85.88,2.56,2.56,0,0,0,2.44,0Z"/><path class="cls-1" d="M128.35,2.76a2.75,2.75,0,0,1,.72,2V8.5h-.86V4.88a2.11,2.11,0,0,0-.5-1.52,1.87,1.87,0,0,0-1.42-.52,2.16,2.16,0,0,0-1.63.62,2.33,2.33,0,0,0-.59,1.7V8.51h-.86l0-6.39H124V3.3a2.39,2.39,0,0,1,1-.91,3.13,3.13,0,0,1,1.45-.33A2.64,2.64,0,0,1,128.35,2.76Z"/><circle class="cls-1" cx="16.33" cy="18.19" r="9.91"/><path class="cls-1" d="M6.72,2.21A4.8,4.8,0,0,0,.41,8.56Z"/><path class="cls-1" d="M2.69,10.92A4.8,4.8,0,0,0,9.1,4.46Z"/><path class="cls-1" d="M8.51,3.56a4.81,4.81,0,0,0-.85-.81L1,9.5a4.9,4.9,0,0,0,.82.84Z"/><path class="cls-1" d="M43.41,15.37a5.11,5.11,0,0,1,2,2,6.47,6.47,0,0,1,0,5.95,5.13,5.13,0,0,1-2,2,5.74,5.74,0,0,1-2.86.72,5.3,5.3,0,0,1-2.46-.55,4.66,4.66,0,0,1-1.81-1.65l0,6.25H34.84l-.06-15.35h1.45V17A4.67,4.67,0,0,1,38,15.27a5.29,5.29,0,0,1,2.52-.6A5.75,5.75,0,0,1,43.41,15.37Zm-.8,8.81a3.86,3.86,0,0,0,1.5-1.55,4.7,4.7,0,0,0,.53-2.28,4.64,4.64,0,0,0-.55-2.27,3.93,3.93,0,0,0-1.51-1.54,4.39,4.39,0,0,0-4.27,0,4,4,0,0,0-1.49,1.55,4.63,4.63,0,0,0-.54,2.27,4.72,4.72,0,0,0,.55,2.28,3.86,3.86,0,0,0,1.5,1.54,4.47,4.47,0,0,0,4.27,0Z"/><path class="cls-1" d="M51.65,25.63a5.56,5.56,0,0,1-2-1l.68-1.2a5.75,5.75,0,0,0,1.77.9,7,7,0,0,0,2.22.34,4.15,4.15,0,0,0,2.27-.49,1.52,1.52,0,0,0,.73-1.36,1.21,1.21,0,0,0-.41-1,2.68,2.68,0,0,0-1-.53A14.8,14.8,0,0,0,54.28,21a19.06,19.06,0,0,1-2.2-.52,3.24,3.24,0,0,1-1.42-.9,2.53,2.53,0,0,1-.59-1.77,2.79,2.79,0,0,1,1.16-2.31,5.25,5.25,0,0,1,3.25-.91,8.47,8.47,0,0,1,2.17.28,6,6,0,0,1,1.8.75l-.66,1.22a5.66,5.66,0,0,0-3.31-.94,3.78,3.78,0,0,0-2.18.52,1.55,1.55,0,0,0-.72,1.35,1.33,1.33,0,0,0,.42,1,2.54,2.54,0,0,0,1,.56,16.68,16.68,0,0,0,1.71.36,19.36,19.36,0,0,1,2.15.5,3.16,3.16,0,0,1,1.38.87,2.4,2.4,0,0,1,.58,1.7,2.73,2.73,0,0,1-1.22,2.34,5.8,5.8,0,0,1-3.4.88A8.58,8.58,0,0,1,51.65,25.63Z"/><path class="cls-1" d="M73.71,14.62,68.16,27.19a5.37,5.37,0,0,1-1.57,2.24,3.52,3.52,0,0,1-2.15.67,4.38,4.38,0,0,1-1.51-.25,3.28,3.28,0,0,1-1.22-.76l.7-1.13a2.79,2.79,0,0,0,2,.84,2.06,2.06,0,0,0,1.31-.43,3.88,3.88,0,0,0,1-1.45l.48-1.08L62.21,14.67h1.58L68,24.17l4.18-9.54Z"/><path class="cls-1" d="M78.9,25.2a5.26,5.26,0,0,1-2.06-2,6.2,6.2,0,0,1,0-5.89,5.28,5.28,0,0,1,2-2,6.05,6.05,0,0,1,3-.74,5.76,5.76,0,0,1,2.59.56,4.29,4.29,0,0,1,1.81,1.64l-1.13.77a3.54,3.54,0,0,0-1.41-1.24,4.16,4.16,0,0,0-1.85-.41,4.39,4.39,0,0,0-2.18.55,3.82,3.82,0,0,0-1.51,1.55,5.08,5.08,0,0,0,0,4.57A3.84,3.84,0,0,0,79.69,24a4.4,4.4,0,0,0,2.19.54,4.26,4.26,0,0,0,1.85-.41,3.46,3.46,0,0,0,1.4-1.25l1.13.76a4.29,4.29,0,0,1-1.81,1.66,5.78,5.78,0,0,1-2.58.57A6.05,6.05,0,0,1,78.9,25.2Z"/><path class="cls-1" d="M99.86,15.66a4.79,4.79,0,0,1,1.26,3.56l0,6.5H99.63l0-6.35a3.72,3.72,0,0,0-.88-2.66,3.28,3.28,0,0,0-2.5-.91,3.84,3.84,0,0,0-2.86,1.08,4,4,0,0,0-1,3l0,5.88H90.83L90.77,9.94h1.51l0,6.56A4.11,4.11,0,0,1,94,15a5.59,5.59,0,0,1,2.49-.54A4.59,4.59,0,0,1,99.86,15.66Z"/><path class="cls-1" d="M105.74,11.72a1,1,0,0,1-.32-.77,1,1,0,0,1,.32-.75,1.07,1.07,0,0,1,.79-.32,1.09,1.09,0,0,1,.79.31,1,1,0,0,1,.32.73,1.12,1.12,0,0,1-1.89.8Zm0,2.77h1.51l0,11.21h-1.51Z"/><path class="cls-1" d="M114.52,25.05a5.24,5.24,0,0,1-2.06-2,6.2,6.2,0,0,1,0-5.89,5.27,5.27,0,0,1,2-2,6,6,0,0,1,3-.74,5.78,5.78,0,0,1,2.59.55,4.31,4.31,0,0,1,1.81,1.65l-1.13.77a3.53,3.53,0,0,0-1.41-1.24,4.18,4.18,0,0,0-1.86-.41,4.41,4.41,0,0,0-2.18.55,3.82,3.82,0,0,0-1.51,1.55,5.07,5.07,0,0,0,0,4.57,3.83,3.83,0,0,0,1.52,1.53,4.39,4.39,0,0,0,2.19.53,4.28,4.28,0,0,0,1.85-.41,3.46,3.46,0,0,0,1.4-1.24l1.13.76a4.29,4.29,0,0,1-1.81,1.66,5.77,5.77,0,0,1-2.58.57A6,6,0,0,1,114.52,25.05Z"/><path class="cls-1" d="M127.77,25.33a5.59,5.59,0,0,1-2-1l.68-1.2a5.73,5.73,0,0,0,1.77.9,7,7,0,0,0,2.22.34,4.16,4.16,0,0,0,2.27-.49,1.53,1.53,0,0,0,.72-1.36,1.21,1.21,0,0,0-.41-1,2.69,2.69,0,0,0-1-.53,14.5,14.5,0,0,0-1.64-.34,19,19,0,0,1-2.2-.51,3.23,3.23,0,0,1-1.42-.91,2.52,2.52,0,0,1-.59-1.77,2.79,2.79,0,0,1,1.16-2.31,5.25,5.25,0,0,1,3.25-.91,8.48,8.48,0,0,1,2.17.28,6,6,0,0,1,1.79.75l-.66,1.22a5.66,5.66,0,0,0-3.31-.95,3.78,3.78,0,0,0-2.18.52,1.56,1.56,0,0,0-.72,1.35,1.33,1.33,0,0,0,.42,1,2.55,2.55,0,0,0,1,.56,16.71,16.71,0,0,0,1.71.36,19.7,19.7,0,0,1,2.16.5,3.17,3.17,0,0,1,1.39.87,2.42,2.42,0,0,1,.58,1.7,2.73,2.73,0,0,1-1.22,2.34,5.8,5.8,0,0,1-3.4.88A8.58,8.58,0,0,1,127.77,25.33Z"/></svg>