<svg xmlns="http://www.w3.org/2000/svg" width="30" height="30" viewBox="0 0 30 30"><defs><style>.a{fill:none;}.b{fill:#1d1c2f;}</style></defs><rect class="a" width="30" height="30"/><path class="b" d="M5.946,11.571H4.339a.484.484,0,0,1-.482-.482V9.482A.484.484,0,0,1,4.339,9H5.946a.484.484,0,0,1,.482.482v1.607A.484.484,0,0,1,5.946,11.571Zm4.339-.482V9.482A.484.484,0,0,0,9.8,9H8.2a.484.484,0,0,0-.482.482v1.607a.484.484,0,0,0,.482.482H9.8A.484.484,0,0,0,10.286,11.089Zm3.857,0V9.482A.484.484,0,0,0,13.661,9H12.054a.484.484,0,0,0-.482.482v1.607a.484.484,0,0,0,.482.482h1.607A.484.484,0,0,0,14.143,11.089Zm-3.857,3.857V13.339a.484.484,0,0,0-.482-.482H8.2a.484.484,0,0,0-.482.482v1.607a.484.484,0,0,0,.482.482H9.8A.484.484,0,0,0,10.286,14.946Zm-3.857,0V13.339a.484.484,0,0,0-.482-.482H4.339a.484.484,0,0,0-.482.482v1.607a.484.484,0,0,0,.482.482H5.946A.484.484,0,0,0,6.429,14.946Zm7.714,0V13.339a.484.484,0,0,0-.482-.482H12.054a.484.484,0,0,0-.482.482v1.607a.484.484,0,0,0,.482.482h1.607A.484.484,0,0,0,14.143,14.946ZM18,4.5V18.643a1.929,1.929,0,0,1-1.929,1.929H1.929A1.929,1.929,0,0,1,0,18.643V4.5A1.929,1.929,0,0,1,1.929,2.571H3.857V.482A.484.484,0,0,1,4.339,0H5.946a.484.484,0,0,1,.482.482V2.571h5.143V.482A.484.484,0,0,1,12.054,0h1.607a.484.484,0,0,1,.482.482V2.571h1.929A1.929,1.929,0,0,1,18,4.5ZM16.071,18.4V6.429H1.929V18.4a.242.242,0,0,0,.241.241H15.83A.242.242,0,0,0,16.071,18.4Z" transform="translate(7 4)"/><rect class="a" width="30" height="30"/><path class="b" d="M5.946,11.571H4.339a.484.484,0,0,1-.482-.482V9.482A.484.484,0,0,1,4.339,9H5.946a.484.484,0,0,1,.482.482v1.607A.484.484,0,0,1,5.946,11.571Zm4.339-.482V9.482A.484.484,0,0,0,9.8,9H8.2a.484.484,0,0,0-.482.482v1.607a.484.484,0,0,0,.482.482H9.8A.484.484,0,0,0,10.286,11.089Zm3.857,0V9.482A.484.484,0,0,0,13.661,9H12.054a.484.484,0,0,0-.482.482v1.607a.484.484,0,0,0,.482.482h1.607A.484.484,0,0,0,14.143,11.089Zm-3.857,3.857V13.339a.484.484,0,0,0-.482-.482H8.2a.484.484,0,0,0-.482.482v1.607a.484.484,0,0,0,.482.482H9.8A.484.484,0,0,0,10.286,14.946Zm-3.857,0V13.339a.484.484,0,0,0-.482-.482H4.339a.484.484,0,0,0-.482.482v1.607a.484.484,0,0,0,.482.482H5.946A.484.484,0,0,0,6.429,14.946Zm7.714,0V13.339a.484.484,0,0,0-.482-.482H12.054a.484.484,0,0,0-.482.482v1.607a.484.484,0,0,0,.482.482h1.607A.484.484,0,0,0,14.143,14.946ZM18,4.5V18.643a1.929,1.929,0,0,1-1.929,1.929H1.929A1.929,1.929,0,0,1,0,18.643V4.5A1.929,1.929,0,0,1,1.929,2.571H3.857V.482A.484.484,0,0,1,4.339,0H5.946a.484.484,0,0,1,.482.482V2.571h5.143V.482A.484.484,0,0,1,12.054,0h1.607a.484.484,0,0,1,.482.482V2.571h1.929A1.929,1.929,0,0,1,18,4.5ZM16.071,18.4V6.429H1.929V18.4a.242.242,0,0,0,.241.241H15.83A.242.242,0,0,0,16.071,18.4Z" transform="translate(7 4)"/></svg>