<svg id="check_box_selected" data-name="check box selected" xmlns="http://www.w3.org/2000/svg" width="16" height="16" viewBox="0 0 16 16">
  <path id="Shape" d="M1.714,16A1.714,1.714,0,0,1,0,14.286V1.714A1.714,1.714,0,0,1,1.714,0H14.286A1.714,1.714,0,0,1,16,1.714V14.286A1.714,1.714,0,0,1,14.286,16Z" fill="#656b72"/>
  <path id="Path" d="M0,12.16V.64A.64.64,0,0,1,.64,0H12.16a.64.64,0,0,1,.64.64V12.16a.64.64,0,0,1-.64.64H.64A.64.64,0,0,1,0,12.16Z" transform="translate(1.6 1.6)" fill="#42424d"/>
  <path id="Icon_awesome-check" data-name="Icon awesome-check" d="M3.235,11.541l-3.1-3.1a.476.476,0,0,1,0-.674L.813,7.1a.476.476,0,0,1,.674,0L3.572,9.183,8.039,4.717a.476.476,0,0,1,.674,0l.674.674a.476.476,0,0,1,0,.674L3.909,11.541A.476.476,0,0,1,3.235,11.541Z" transform="translate(3.237 -0.129)" fill="#fff"/>
</svg>
