<?xml version="1.0" encoding="utf-8"?>
<!-- Generator: Adobe Illustrator 21.0.0, SVG Export Plug-In . SVG Version: 6.00 Build 0)  -->
<svg version="1.1" xmlns="http://www.w3.org/2000/svg" xmlns:xlink="http://www.w3.org/1999/xlink" x="0px" y="0px"
	 viewBox="0 0 512 512" style="enable-background:new 0 0 512 512;" xml:space="preserve">
<style type="text/css">
	.st0{display:none;}
	.st1{opacity:0.69;fill:#FF0000;}
	.st2{opacity:0.69;fill:#01A0C6;}
</style>
<g id="Layer_1" class="st0">
	
		<image style="display:inline;overflow:visible;" width="400" height="400" xlink:href="../logo.png"  transform="matrix(1.28 0 0 1.28 0 -0.5301)">
	</image>
</g>
<g id="Layer_4">
	<path class="st1" d="M1.4,404.7c0,0,80.4,15.5,143.5-40.2c0,0-60.3,0.9-88.6-68.5c0,0,36.2,1.8,41.2-2.2c0,0-76.8-20.3-76.8-98.2
		c0,0,25,10.6,42.5,10.6c0,0-69.8-51.1-28.8-131.5c0,0,72.8,94.1,204.3,103.2c0,0-15.7-68.8,44-107.2S406,74.8,408,86.9
		c0,0,52.7-10.4,64.2-24.4c0,0-4.8,28.9-39.7,53.6c0,0,10.6,4.2,52.3-14c0,0,2.3,9.9-47.4,50.8c0,0,18.6,148.8-129.3,253.8
		S1.4,404.7,1.4,404.7z"/>
</g>
<g id="Layer_3">
	<path class="st2" d="M28,411.5c0,0,80.4,15.5,143.5-40.2c0,0-60.3,0.9-88.6-68.5c0,0,36.2,1.8,41.2-2.2c0,0-76.8-20.3-76.8-98.2
		c0,0,25,10.6,42.5,10.6c0,0-69.8-51.1-28.8-131.5c0,0,72.8,94.1,204.3,103.2c0,0-15.7-68.8,44-107.2s123.4,4,125.4,16.2
		c0,0,52.7-10.4,64.2-24.4c0,0-4.8,28.9-39.7,53.6c0,0,10.6,4.2,52.3-14c0,0,2.3,9.9-47.4,50.8c0,0,18.6,148.8-129.3,253.8
		S28,411.5,28,411.5z"/>
</g>
<g id="Layer_2">
	<path d="M15.1,406.2c0,0,80.4,15.5,143.5-40.2c0,0-60.3,0.9-88.6-68.5c0,0,36.2,1.8,41.2-2.2c0,0-76.8-20.3-76.8-98.2
		c0,0,25,10.6,42.5,10.6c0,0-69.8-51.1-28.8-131.5c0,0,72.8,94.1,204.3,103.2c0,0-15.7-68.8,44-107.2s123.4,4,125.4,16.2
		c0,0,52.7-10.4,64.2-24.4c0,0-4.8,28.9-39.7,53.6c0,0,10.6,4.2,52.3-14c0,0,2.3,9.9-47.4,50.8c0,0,18.6,148.8-129.3,253.8
		S15.1,406.2,15.1,406.2z"/>
</g>
</svg>
