<svg xmlns="http://www.w3.org/2000/svg" xmlns:xlink="http://www.w3.org/1999/xlink" width="98" height="98" viewBox="0 0 98 98"><defs><style>.a{fill:#f4f4f4;}.b{fill:#f397d6;opacity:0.995;}.c{filter:url(#a);}</style><filter id="a" x="0" y="0" width="98" height="98" filterUnits="userSpaceOnUse"><feOffset dy="3" input="SourceAlpha"/><feGaussianBlur stdDeviation="3" result="b"/><feFlood flood-opacity="0.051"/><feComposite operator="in" in2="b"/><feComposite in="SourceGraphic"/></filter></defs><g transform="translate(9 6)"><g class="c" transform="matrix(1, 0, 0, 1, -9, -6)"><rect class="a" width="80" height="80" rx="10" transform="translate(9 6)"/></g><path class="b" d="M17.143,57.464a.959.959,0,0,1-1.345,0l-7-6.931H4.408l9.221,9.125a4.041,4.041,0,0,0,5.689,0l9.221-9.125H24.151ZM22.825,32a9.99,9.99,0,0,0-6.351,2.246A9.99,9.99,0,0,0,10.122,32,10.168,10.168,0,0,0,0,42.039a9.79,9.79,0,0,0,2.432,6.435H9.949l1.924-4.614,3.662,8.128a1.029,1.029,0,0,0,1.86.039l3.2-6.4,1.422,2.844h8.494a9.79,9.79,0,0,0,2.432-6.435A10.159,10.159,0,0,0,22.825,32Zm5.4,14.415H23.289l-1.776-3.552a1.028,1.028,0,0,0-1.84,0l-3.147,6.3L12.78,40.842a1.032,1.032,0,0,0-1.892.026l-2.31,5.547H4.723a6.932,6.932,0,0,1,5.4-11.326c1.995,0,3.282.4,6.351,3.436,3.288-3.25,4.447-3.436,6.351-3.436A6.927,6.927,0,0,1,28.224,46.415Z" transform="translate(23.529 -6.118)"/></g></svg>