<svg xmlns="http://www.w3.org/2000/svg" width="34" height="34" viewBox="0 0 34 34"><defs><style>.a{fill:#fff;}.b{fill:#43425d;opacity:0.5;}</style></defs><rect class="a" width="34" height="34" rx="10"/><path class="b" d="M7.006,7.875c-1.449,0-2.624,1.75-2.624,1.75s1.175,1.75,2.624,1.75,2.624-1.75,2.624-1.75S8.455,7.875,7.006,7.875Zm0,2.625a.875.875,0,1,1,.875-.875A.875.875,0,0,1,7.006,10.5ZM13.83,7.749a2.024,2.024,0,0,0-1.848-1.187h-.164V3.109A2.185,2.185,0,0,0,9.63.875a2.173,2.173,0,0,0-.79.148A2.173,2.173,0,0,0,7.364.029,2.223,2.223,0,0,0,7.006,0,2.188,2.188,0,0,0,5.158,1.018,2.072,2.072,0,0,0,4.739.9,2.222,2.222,0,0,0,4.381.875,2.19,2.19,0,0,0,2.194,3.063v3.5H2.031A2.025,2.025,0,0,0,.181,7.752,1.975,1.975,0,0,0,.566,9.943l2.281,2.364A5.78,5.78,0,0,0,7.006,14a5.78,5.78,0,0,0,4.158-1.693l2.281-2.364a1.975,1.975,0,0,0,.384-2.194ZM12.5,9.031,10.22,11.4a4.46,4.46,0,0,1-3.214,1.292A4.462,4.462,0,0,1,3.792,11.4L1.511,9.032a.67.67,0,0,1-.132-.743.711.711,0,0,1,.652-.414H3.507V3.063a.875.875,0,0,1,.875-.875.874.874,0,0,1,.875.922v2.8a.219.219,0,0,0,.219.219h.438a.219.219,0,0,0,.219-.219V2.188a.875.875,0,0,1,.875-.875.874.874,0,0,1,.875.922V5.906a.219.219,0,0,0,.219.219h.438a.219.219,0,0,0,.219-.219V3.063a.875.875,0,0,1,.875-.875.874.874,0,0,1,.875.922V7.875h1.476a.712.712,0,0,1,.652.413.669.669,0,0,1-.132.743Z" transform="translate(9.994 10)"/></svg>