<svg xmlns="http://www.w3.org/2000/svg" width="34" height="34" viewBox="0 0 34 34"><defs><style>.a{fill:#fff;}.b{fill:#43425d;opacity:0.5;}</style></defs><rect class="a" width="34" height="34" rx="10"/><path class="b" d="M5.25,2.516A2.738,2.738,0,0,0,2.516,5.25,1.861,1.861,0,0,0,4.375,7.109a.766.766,0,0,1,0,1.531H3.828a.329.329,0,0,0-.328.328v.438a.329.329,0,0,0,.328.328h.547a1.859,1.859,0,1,0,0-3.719.766.766,0,0,1-.766-.766,1.641,1.641,0,1,1,3.281,0V5.8a.329.329,0,0,0,.328.328h.438A.329.329,0,0,0,7.984,5.8V5.25A2.738,2.738,0,0,0,5.25,2.516ZM5.25,0A5.25,5.25,0,0,0,0,5.25v4.813a3.937,3.937,0,1,0,7.875,0V9.792A5.247,5.247,0,0,0,5.25,0ZM7.217,8.656l-.655.379v1.027a2.625,2.625,0,1,1-5.25,0V5.25a3.938,3.938,0,1,1,5.9,3.406Z" transform="translate(12 10)"/></svg>