<svg xmlns="http://www.w3.org/2000/svg" xmlns:xlink="http://www.w3.org/1999/xlink" width="98" height="98" viewBox="0 0 98 98"><defs><style>.a{fill:#f4f4f4;}.b{fill:#25d0a8;}.c{filter:url(#a);}</style><filter id="a" x="0" y="0" width="98" height="98" filterUnits="userSpaceOnUse"><feOffset dy="3" input="SourceAlpha"/><feGaussianBlur stdDeviation="3" result="b"/><feFlood flood-opacity="0.078"/><feComposite operator="in" in2="b"/><feComposite in="SourceGraphic"/></filter></defs><g transform="translate(9 6)"><g class="c" transform="matrix(1, 0, 0, 1, -9, -6)"><rect class="a" width="80" height="80" rx="10" transform="translate(9 6)"/></g><path class="b" d="M31,13.821a5.665,5.665,0,0,0,.176-1.393,5.814,5.814,0,0,0-2.647-4.882,4.986,4.986,0,0,0-4.088-4.833,4.993,4.993,0,0,0-7.97-1.254A4.99,4.99,0,0,0,8.5,2.719,4.986,4.986,0,0,0,4.415,7.552a5.8,5.8,0,0,0-2.647,4.882,5.739,5.739,0,0,0,.176,1.393,5.793,5.793,0,0,0,.7,9.194,5.434,5.434,0,0,0,5.2,5.348,5.408,5.408,0,0,0,8.624.9,5.408,5.408,0,0,0,8.624-.9,5.431,5.431,0,0,0,5.2-5.348,5.8,5.8,0,0,0,.709-9.2ZM15.014,25.607A2.5,2.5,0,0,1,12.5,28.1c-1.993,0-2.392-1.787-2.762-2.883l-1.229.206a2.562,2.562,0,0,1-2.937-2.453c0-.17.285-1.659.285-1.659l-1.1-.454a2.913,2.913,0,0,1-.333-5.245L5.6,14.935,5,13.718a2.921,2.921,0,0,1,1.52-4l1.145-.466A8.27,8.27,0,0,1,7.334,7.6,2.049,2.049,0,0,1,9.266,5.536l1.387.073.291-1.145a2.064,2.064,0,0,1,4.064.509ZM28.2,20.852l-1.108.454s.279,1.49.279,1.659a2.565,2.565,0,0,1-2.937,2.453L23.2,25.213c-.369,1.1-.769,2.883-2.762,2.883a2.507,2.507,0,0,1-2.513-2.5V4.966a2.064,2.064,0,0,1,4.064-.509L22.282,5.6l1.387-.073A2.057,2.057,0,0,1,25.6,7.595a7.739,7.739,0,0,1-.333,1.647l1.145.466a2.91,2.91,0,0,1,1.52,3.991l-.6,1.217,1.181.678A2.917,2.917,0,0,1,28.2,20.852Z" transform="translate(23.529 25.882)"/></g></svg>