<svg xmlns="http://www.w3.org/2000/svg" width="34" height="34" viewBox="0 0 34 34"><defs><style>.a{fill:#fff;}.b{fill:#43425d;opacity:0.5;}</style></defs><rect class="a" width="34" height="34" rx="10"/><path class="b" d="M11.048,10.876l-.023-.01L11,10.855a.882.882,0,0,1-.142-.1.744.744,0,0,1-.222.039H6.4a.757.757,0,0,1-.626-.335L3.1,6.43a.562.562,0,0,1,.921-.645l.886,1.275a.188.188,0,0,0,.342-.108v-4.6a.563.563,0,0,1,1.125,0V5.732a.187.187,0,0,0,.187.187h.375a.188.188,0,0,0,.188-.187V1.607a.563.563,0,0,1,1.125,0V5.732a.188.188,0,0,0,.188.187h.375A.188.188,0,0,0,9,5.732V2.357a.563.563,0,0,1,1.125,0V5.732a.187.187,0,0,0,.188.187h.375a.188.188,0,0,0,.187-.187v-1.5a.563.563,0,0,1,1.125,0V6.3a7.545,7.545,0,0,1-.145,1.472l-.24,1.2.311-.13.366-.879.01-.023.011-.022a.92.92,0,0,1,.727-.49,8.7,8.7,0,0,0,.085-1.13V4.232a1.686,1.686,0,0,0-1.687-1.687c-.063,0-.127,0-.187.01v-.2A1.689,1.689,0,0,0,9.563.669a1.659,1.659,0,0,0-.436.056,1.688,1.688,0,0,0-2.878,0A1.659,1.659,0,0,0,5.812.669,1.689,1.689,0,0,0,4.125,2.357V4.515A1.688,1.688,0,0,0,2.18,7.075l2.66,4.008a1.871,1.871,0,0,0,1.561.837h4.234a1.871,1.871,0,0,0,1.336-.57l-.045-.107ZM2.016,3.583,2.5,2.42h0l1.161-.484a.171.171,0,0,0,.087-.141h0a.171.171,0,0,0-.087-.141L2.5,1.17h0L2.016.006a.156.156,0,0,0-.281,0L1.25,1.169h0L.087,1.654A.171.171,0,0,0,0,1.794H0a.171.171,0,0,0,.087.141l1.162.484h0l.484,1.163a.156.156,0,0,0,.279,0ZM7.209,6.669a.094.094,0,0,0-.168,0l-.291.7-.7.291a.094.094,0,0,0,0,.168l.7.291.291.7a.094.094,0,0,0,.168,0l.291-.7.7-.291a.094.094,0,0,0,0-.168l-.7-.291ZM15,10.044a.171.171,0,0,0-.087-.141l-1.162-.484h0l-.484-1.163a.156.156,0,0,0-.279,0L12.5,9.419h0L11.337,9.9a.171.171,0,0,0-.087.141h0a.171.171,0,0,0,.087.141l1.162.484h0l.484,1.163a.156.156,0,0,0,.279,0l.485-1.163h0l1.162-.483A.171.171,0,0,0,15,10.044Z" transform="translate(10 11.082)"/></svg>