<svg xmlns="http://www.w3.org/2000/svg" width="34" height="34" viewBox="0 0 34 34"><defs><style>.a{fill:#fff;}.b{fill:#43425d;opacity:0.5;}</style></defs><rect class="a" width="34" height="34" rx="10"/><path class="b" d="M15.775,36.444h0a9.538,9.538,0,0,0-4.1,1,12.366,12.366,0,0,0-3.381-5.339.473.473,0,0,0-.6,0,12.373,12.373,0,0,0-3.383,5.34,9.533,9.533,0,0,0-4.1-1h0a.211.211,0,0,0-.214.217A7.692,7.692,0,0,0,2.455,42.2a7.363,7.363,0,0,0,5.475,2.247h.124A7.36,7.36,0,0,0,13.524,42.2a7.691,7.691,0,0,0,2.466-5.536A.211.211,0,0,0,15.775,36.444Zm-12.389,4.8-.02-.019L3.346,41.2a6.111,6.111,0,0,1-1.879-3.311A7.032,7.032,0,0,1,5.215,39.7l.02.02.021.019a5.77,5.77,0,0,1,1.5,2.151l.494,1.2a6.077,6.077,0,0,1-3.865-1.848Zm4.6.142A7.138,7.138,0,0,0,6.145,38.75a7.145,7.145,0,0,0-.685-.573,11.765,11.765,0,0,1,2.53-4.51,11.765,11.765,0,0,1,2.529,4.51,7.215,7.215,0,0,0-.684.572A7.141,7.141,0,0,0,7.99,41.385Zm4.644-.18-.021.018-.02.019A6.07,6.07,0,0,1,8.728,43.09l.494-1.2a5.772,5.772,0,0,1,1.5-2.151l.021-.019.02-.02a7.035,7.035,0,0,1,3.748-1.812A6.112,6.112,0,0,1,12.634,41.2Z" transform="translate(9.01 -21)"/></svg>