<svg id="atom_nav_nav_item_notification" data-name="atom/nav/nav_item/notification" xmlns="http://www.w3.org/2000/svg" width="24" height="24" viewBox="0 0 24 24">
  <rect id="container" width="24" height="24" fill="none"/>
  <g id="Group_26576" data-name="Group 26576" transform="translate(-9 -10)">
    <path id="Shape" d="M5.715,16h4.569a2.284,2.284,0,1,1-4.569,0ZM1.147,14.858A1.144,1.144,0,0,1,0,13.714a1.114,1.114,0,0,1,.308-.776C1,12.2,2.289,11.082,2.289,7.428A5.64,5.64,0,0,1,6.858,1.887V1.143a1.142,1.142,0,1,1,2.284,0v.744a5.64,5.64,0,0,1,4.57,5.541c0,3.654,1.291,4.769,1.981,5.51a1.117,1.117,0,0,1,.307.776,1.144,1.144,0,0,1-1.147,1.143Z" transform="translate(13 13)" fill="#a1a0a6"/>
    <rect id="Rectangle_3825" data-name="Rectangle 3825" width="20" height="20" transform="translate(11 12)" fill="none"/>
  </g>
</svg>
