<svg id="user_icon" data-name="user icon" xmlns="http://www.w3.org/2000/svg" width="24" height="24" viewBox="0 0 24 24">
  <rect id="container" width="24" height="24" fill="none"/>
  <g id="Group_26573" data-name="Group 26573" transform="translate(-7 -11)">
    <rect id="Rectangle_3822" data-name="Rectangle 3822" width="20" height="20" transform="translate(9 13)" fill="none"/>
    <path id="user-circle-regular" d="M9,3.871a3.484,3.484,0,1,0,3.484,3.484A3.485,3.485,0,0,0,9,3.871ZM9,9.1a1.742,1.742,0,1,1,1.742-1.742A1.742,1.742,0,0,1,9,9.1ZM9,.387a9,9,0,1,0,9,9A9,9,0,0,0,9,.387ZM9,16.645a7.217,7.217,0,0,1-4.721-1.756A3.126,3.126,0,0,1,6.8,13.455,7.383,7.383,0,0,0,9,13.8a7.268,7.268,0,0,0,2.2-.348,3.136,3.136,0,0,1,2.526,1.433A7.217,7.217,0,0,1,9,16.645Zm5.9-3.052A4.814,4.814,0,0,0,11.09,11.71,10.891,10.891,0,0,1,9,12.058a10.95,10.95,0,0,1-2.09-.348A4.824,4.824,0,0,0,3.1,13.593,7.254,7.254,0,1,1,16.258,9.387,7.206,7.206,0,0,1,14.9,13.593Z" transform="translate(10 13.613)" fill="#A1A0A6"/>
  </g>
</svg>
