<svg id="atom_nav_nav_item_home" data-name="atom/nav/nav_item/home" xmlns="http://www.w3.org/2000/svg" width="24" height="24" viewBox="0 0 24 24">
  <rect id="container" width="24" height="24" fill="none"/>
  <g id="Group_26580" data-name="Group 26580" transform="translate(-7 -12)">
    <path id="Shape" d="M12.778,17.778a.556.556,0,0,1-.556-.556V12.778a.555.555,0,0,0-.555-.556H8.333a.555.555,0,0,0-.555.556v4.445a.556.556,0,0,1-.556.556H2.778a.556.556,0,0,1-.556-.556V10.8a1.538,1.538,0,0,0,.191-.116L10,3.993l7.595,6.7a1.673,1.673,0,0,0,.183.111v6.42a.556.556,0,0,1-.556.556ZM1.27,10a.557.557,0,0,1-.384-.184L.143,8.989A.555.555,0,0,1,.185,8.2L9.073.357a1.384,1.384,0,0,1,1.856,0L19.816,8.2a.556.556,0,0,1,.042.785l-.743.827a.558.558,0,0,1-.785.042L10.368,2.835a.556.556,0,0,0-.735,0L1.67,9.858A.553.553,0,0,1,1.3,10Z" transform="translate(9 15)" fill="#a1a0a6"/>
    <rect id="Rectangle_3826" data-name="Rectangle 3826" width="20" height="20" transform="translate(9 14)" fill="none"/>
  </g>
</svg>
