<svg xmlns="http://www.w3.org/2000/svg" width="24" height="24" viewBox="0 0 24 24">
  <g id="attach_money-24px" transform="translate(-4 -4)">
    <path id="Path" d="M0,0H24V24H0Z" transform="translate(4 4)" fill="none"/>
    <g id="Group_26574" data-name="Group 26574" transform="translate(-5 -6)">
      <g id="sliders-h-solid" transform="translate(12 14)">
        <path id="Shape" d="M3.938,15.75a.564.564,0,0,1-.562-.562v-.562H.563A.564.564,0,0,1,0,14.063V12.938a.564.564,0,0,1,.563-.562H3.375v-.562a.564.564,0,0,1,.563-.562H5.063a.564.564,0,0,1,.563.563v.563H17.438a.564.564,0,0,1,.563.563v1.125a.564.564,0,0,1-.562.563H5.625v.563a.564.564,0,0,1-.562.563Zm9-5.625a.564.564,0,0,1-.562-.562V9H.563A.564.564,0,0,1,0,8.438V7.313A.564.564,0,0,1,.563,6.75H12.375V6.188a.564.564,0,0,1,.563-.562h1.125a.564.564,0,0,1,.563.563V6.75h2.813A.564.564,0,0,1,18,7.313V8.438A.564.564,0,0,1,17.438,9H14.625v.563a.564.564,0,0,1-.562.563ZM8.438,4.5a.564.564,0,0,1-.562-.562V3.375H.563A.564.564,0,0,1,0,2.813V1.688a.564.564,0,0,1,.563-.562H7.875V.563A.564.564,0,0,1,8.438,0H9.563a.564.564,0,0,1,.563.563v.563h7.313A.564.564,0,0,1,18,1.688V2.813a.564.564,0,0,1-.562.563H10.125v.563a.564.564,0,0,1-.562.563Z" fill="#1f1e34"/>
      </g>
      <rect id="Rectangle_3823" data-name="Rectangle 3823" width="20" height="20" transform="translate(11 12)" fill="none"/>
    </g>
  </g>
</svg>
