<svg xmlns="http://www.w3.org/2000/svg" xmlns:xlink="http://www.w3.org/1999/xlink" width="125" height="136" viewBox="0 0 125 136"><defs><style>.a{fill:none;}.b,.d{isolation:isolate;}.c{fill:url(#a);}.d{fill:#1f1e34;mix-blend-mode:soft-light;}</style><linearGradient id="a" y1="0.5" x2="1" y2="0.5" gradientUnits="objectBoundingBox"><stop offset="0" stop-color="#b85a67"/><stop offset="0.17" stop-color="#f7ad9d"/><stop offset="0.18" stop-color="#f9ae9d"/><stop offset="0.3" stop-color="#ffb39f"/><stop offset="0.45" stop-color="#d37472"/><stop offset="0.61" stop-color="#cd6b6e"/><stop offset="0.72" stop-color="#d97573"/><stop offset="0.84" stop-color="#e07b77"/><stop offset="0.89" stop-color="#d87478"/><stop offset="0.96" stop-color="#c16279"/><stop offset="0.99" stop-color="#b75a7a"/></linearGradient></defs><rect class="a" width="125" height="136"/><g class="b" transform="translate(0.5 2)"><circle class="c" cx="50" cy="50" r="50" transform="translate(12.5 18)"/><path class="d" d="M63.94,58.06l.22-.35-.13.4a2,2,0,0,1-.15.47l-.27.63a9.81,9.81,0,0,1-.93,1.6c-.1.15-.22.29-.33.44a4.42,4.42,0,0,1-.39.47l-.43.45c-.16.16-.33.31-.5.45a9.53,9.53,0,0,1-2.51,1.54,8.67,8.67,0,0,1-3.3.62,3.229,3.229,0,0,1-.44,0h-.9l-.44-.1a2.42,2.42,0,0,1-.45-.1h-.24l-.2-.07-.4-.13h-.22l-.24-.18a5.67,5.67,0,0,1-.8-.45,6.37,6.37,0,0,1-.8-.5,7.09,7.09,0,0,1-.74-.59,5.31,5.31,0,0,1-.69-.65,9.21,9.21,0,0,1-2-3.2,9,9,0,0,1-.6-3.52,3.64,3.64,0,0,1,.06-.87c.06-.28.1-.57.14-.84a8.016,8.016,0,0,1,.23-.8v-.2l.07-.18a.982.982,0,0,1,.14-.34,9,9,0,0,1,.72-1.38l.2-.31.22-.29a5.719,5.719,0,0,1,.45-.53,7.84,7.84,0,0,1,1.89-1.6,7.4,7.4,0,0,1,1.68-.8,5.53,5.53,0,0,1,.66-.2l.49-.1.41-.07-.38.17a9.779,9.779,0,0,0-1,.52,10.47,10.47,0,0,0-1.44,1A8.73,8.73,0,0,0,49.13,50c-.11.17-.23.34-.33.52a3,3,0,0,0-.15.28l-.15.28a9.07,9.07,0,0,0-.5,1.21,1.07,1.07,0,0,1-.1.36v.19h0v.08a3.622,3.622,0,0,1-.13.69c-.05.24,0,.48-.07.71a3,3,0,0,0,0,.73,9.2,9.2,0,0,0,.17,1.47,2.812,2.812,0,0,0,.19.73c.07.24.16.47.25.71a8.34,8.34,0,0,0,1.66,2.57,5.62,5.62,0,0,0,.55.54,7.16,7.16,0,0,0,.61.48,5.89,5.89,0,0,0,.64.42,4.48,4.48,0,0,0,.65.35l.16.08h.18l.4.15.19.07h.1l.36.1.36.1.37.06.36.06h.36a8,8,0,0,0,2.89-.05,9.56,9.56,0,0,0,2.33-1.1,10.87,10.87,0,0,0,1.75-1.42A13.339,13.339,0,0,0,63.32,59l.38-.57Zm29.82,9.6A18,18,0,0,1,95.36,75v.27h0a19.05,19.05,0,0,1-1.15,6.26,19.441,19.441,0,0,1-3,5.28,27.65,27.65,0,0,1-9.91,7.53A42.18,42.18,0,0,1,73,97.25a49.88,49.88,0,0,1-11.6,1.4,37.81,37.81,0,0,1-9.6-1.14c-.8-.14-1.56-.3-2.3-.48a46.08,46.08,0,0,1-7.64-2.66.51.51,0,0,1-.15-.07L41.1,94a29.94,29.94,0,0,1-7.5-5q-.56-.52-1.08-1.08a4.75,4.75,0,0,1-2.64-3.46l-.08-.13a1.19,1.19,0,0,1,.4-1.6,1.17,1.17,0,0,1,.8-.3,1.19,1.19,0,0,1,1.19,1.2,2.42,2.42,0,0,0,4.83,0h0a1.2,1.2,0,1,1,2.4,0h0a2.44,2.44,0,0,0,.7,1.71,2.41,2.41,0,0,0,4.11-1.7h0a1.2,1.2,0,1,1,2.4,0v.1a2.47,2.47,0,0,0,.7,1.6,2.39,2.39,0,0,0,4.07-1.22,2.07,2.07,0,0,0,.06-.5,1.205,1.205,0,0,1,2.38-.38h0a.2.2,0,0,0,0,.11,2.26,2.26,0,0,0,.17.43c.09.16.18.33.28.49a4.81,4.81,0,0,0,.6.75,4.07,4.07,0,0,0,1,.8,4.9,4.9,0,0,0,2.2.48,9,9,0,0,0,2.68-.46,16.85,16.85,0,0,0,2.08-.8c.4-.19.83-.41,1.28-.65a22.45,22.45,0,0,0,6.75-5.78,15.84,15.84,0,0,0,2.82-6c.06-.26.11-.51.15-.8a2,2,0,0,1-.29-.15,1.27,1.27,0,0,1-.39-.26h0l-.08-.08-.33-.3a14.99,14.99,0,0,0-1.21-1,17.48,17.48,0,0,0-4-2.4A8.4,8.4,0,0,0,64.46,67a5.12,5.12,0,0,0-1.6.23,15.67,15.67,0,0,1-21.34-7.65,3.89,3.89,0,0,1-.66.29,2.73,2.73,0,0,1-.8.13,2.36,2.36,0,0,1-.75-.12,2.47,2.47,0,0,1-1-.56,3.33,3.33,0,0,1-.61-.8,5.53,5.53,0,0,1-.59-2,9.55,9.55,0,0,1-.1-1.6,19.49,19.49,0,0,1,.34-3.5,30.17,30.17,0,0,1,2.68-8.12,18.2,18.2,0,0,1,2-3.2,7.66,7.66,0,0,1,1.44-1.46,3.84,3.84,0,0,1,.91-.56,2.94,2.94,0,0,1,1.21-.28,2.43,2.43,0,0,1,1.65.66,3.24,3.24,0,0,1,.62.8,1.63,1.63,0,0,1,.11.23,15.66,15.66,0,0,1,21.39,5.69v.05a.61.61,0,0,1,.07.1A5.38,5.38,0,0,0,71,46.9a8,8,0,0,0,2.12,1,15.7,15.7,0,0,0,4.72.66,19.721,19.721,0,0,0,2.88-.2,1.12,1.12,0,0,1,.7.1l.22.06a2.52,2.52,0,0,1,1,.57,3.42,3.42,0,0,1,.65.86,6,6,0,0,1,.64,2.13,10.709,10.709,0,0,1,.11,1.7,12.488,12.488,0,0,1-.1,1.9c1.09.86,2.16,1.78,3.2,2.76a28.81,28.81,0,0,1,6.63,9.18ZM88.5,72.79h0v-.22a14.83,14.83,0,0,0-.8-4.8,19.52,19.52,0,0,0-2.23-4.45,34.35,34.35,0,0,0-7.37-7.66h0a1.2,1.2,0,0,1-.45-.89,1.71,1.71,0,0,0-.14.27c-.14.27-.29.58-.44.91s-.36.85-.53,1.29a27.07,27.07,0,0,1,4.86,6.15,16.6,16.6,0,0,1,2.3,8.21v.23h0a17.62,17.62,0,0,1-1.16,6,19.44,19.44,0,0,1-3,5.2,29.25,29.25,0,0,1-9.88,7.64A44.281,44.281,0,0,1,61.4,93.8a47.129,47.129,0,0,1-7.9,1.36l-.8.06.62.09a33.9,33.9,0,0,0,4.5.3,39.73,39.73,0,0,0,12.09-2,33.27,33.27,0,0,0,10.67-5.6,22.84,22.84,0,0,0,5-5.6,18.54,18.54,0,0,0,2.92-9.62ZM81.15,51.26A.76.76,0,0,0,81,51h-.29a1.62,1.62,0,0,0-.37.19,4.55,4.55,0,0,0-1,.92c-.07.09-.15.17-.22.27.85.55,1.72,1.13,2.59,1.75V54a8.37,8.37,0,0,0-.15-1.73,2.91,2.91,0,0,0-.41-1.01ZM71.76,67.17v-.5a23,23,0,0,1,.36-3.7A32.41,32.41,0,0,1,75,54.39a20.11,20.11,0,0,1,2-3.2,18.56,18.56,0,0,1-3.15-.38,11.43,11.43,0,0,1-4.19-1.73,7.86,7.86,0,0,1-2.12-2.22.57.57,0,0,1-.12-.18A13.29,13.29,0,0,0,49.33,41.6a11.809,11.809,0,0,0-1.34.87,1.2,1.2,0,0,1-1.67-.26,1.07,1.07,0,0,1-.22-.54,4.43,4.43,0,0,0-.19-.8,1.78,1.78,0,0,0-.21-.44l-.08-.08h-.15a2.29,2.29,0,0,0-.31.16,4.76,4.76,0,0,0-.94.85A15.73,15.73,0,0,0,42,44.86a27,27,0,0,0-1.33,3.36,25.529,25.529,0,0,0-.92,3.64,17.66,17.66,0,0,0-.3,3.08,8.18,8.18,0,0,0,.08,1.3,3.78,3.78,0,0,0,.22.88,1.09,1.09,0,0,0,.17.32c.06.09.09.1.1.1h.11a.68.68,0,0,0,.26-.12,4.14,4.14,0,0,0,.8-.65,1.17,1.17,0,0,1,1.13-.34,1.2,1.2,0,0,1,.86.8,13.49,13.49,0,0,0,3.2,5.25,13.29,13.29,0,0,0,5.33,3.31l-.38,1.14.38-1.14A13.26,13.26,0,0,0,61.83,65l.19-.07a7.47,7.47,0,0,1,2.4-.36,10.62,10.62,0,0,1,4,.84A17.81,17.81,0,0,1,71.76,67.17ZM39.7,90.53a32.3,32.3,0,0,0,3,1.6,30.11,30.11,0,0,0,7.2.8,42.159,42.159,0,0,0,6.83-.58,45.31,45.31,0,0,0,7.35-1.89A32.15,32.15,0,0,0,76,83.4a17.89,17.89,0,0,0,4.5-6.92,15.23,15.23,0,0,0,.8-4.68h0v-.2a13.49,13.49,0,0,0-.52-3.6,16.23,16.23,0,0,0-1.44-3.41,24.17,24.17,0,0,0-3.7-4.84c-.23.62-.4,1.15-.51,1.5a17.379,17.379,0,0,1,.65,1.88,21.47,21.47,0,0,1,.8,5.8,19.149,19.149,0,0,1-.48,4.27,18,18,0,0,1-1.74,4.57A22.92,22.92,0,0,1,66,86.15l-.17.12-.36.2h0a21.45,21.45,0,0,1-3.68,1.6H61.7a11.58,11.58,0,0,1-3.4.56,7,7,0,0,1-3.61-.92A6.41,6.41,0,0,1,53,86.37a6.189,6.189,0,0,1-.47.55,4.8,4.8,0,0,1-6.79,0h0l-.21-.22-.2.22a4.8,4.8,0,0,1-6.79,0h0l-.21-.22-.21.22a4.83,4.83,0,0,1-1.78,1.13,24.77,24.77,0,0,0,3.36,2.48ZM93,75a15.68,15.68,0,0,0-1.39-6.4,23.13,23.13,0,0,0-3.26-5.19A21,21,0,0,1,90,67a17.19,17.19,0,0,1,.94,5.6v.24h0A20.49,20.49,0,0,1,89,81.24,22.82,22.82,0,0,1,84.18,88a31.86,31.86,0,0,1-8.91,6.1l.54-.18A30.58,30.58,0,0,0,87.7,87.1a17.47,17.47,0,0,0,4.45-7,16.59,16.59,0,0,0,.8-4.9h0Z"/></g></svg>