<svg xmlns="http://www.w3.org/2000/svg" xmlns:xlink="http://www.w3.org/1999/xlink" width="125" height="136" viewBox="0 0 125 136"><defs><style>.a{fill:none;}.b,.d{isolation:isolate;}.c{fill:url(#a);}.d{fill:#1f1e34;mix-blend-mode:soft-light;}</style><linearGradient id="a" y1="0.5" x2="1" y2="0.5" gradientUnits="objectBoundingBox"><stop offset="0" stop-color="#eb8d84"/><stop offset="0.24" stop-color="#fdd6bc"/><stop offset="0.26" stop-color="#fbd0b7"/><stop offset="0.33" stop-color="#f7c3ad"/><stop offset="0.38" stop-color="#f5bea9"/><stop offset="0.49" stop-color="#eb8d83"/><stop offset="0.55" stop-color="#ed9287"/><stop offset="0.61" stop-color="#f3a091"/><stop offset="0.66" stop-color="#f9ad9b"/><stop offset="0.83" stop-color="#fbccb3"/><stop offset="1" stop-color="#ed958a"/></linearGradient></defs><rect class="a" width="125" height="136"/><g class="b" transform="translate(0.5 2)"><circle class="c" cx="50" cy="50" r="50" transform="translate(12.5 18)"/><path class="d" d="M94.86,57.24a19.74,19.74,0,0,1,2.61,9.87,18.21,18.21,0,0,1-1.07,6.25A14.53,14.53,0,0,1,93,78.75a10.72,10.72,0,0,1-2.92,2,13.52,13.52,0,0,1-3.27,1.09A12.85,12.85,0,0,1,85,82a9.33,9.33,0,0,1-7-3,9.955,9.955,0,0,1-1.95-10.43,7.63,7.63,0,0,1-1.85.24h-.7a5.09,5.09,0,0,1-.09,1,11.85,11.85,0,0,1-.36,1.85c-.1.39-.2.8-.32,1.18-.15.56-.32,1.19-.5,2s-.28,1.79-.42,2.86a21.119,21.119,0,0,1-.65,3.3,8,8,0,0,1-1.07,2.12,5.52,5.52,0,0,1-.94,1c-.56.48-1.27,1.15-2.05,1.82a17.86,17.86,0,0,1-2.51,1.91,6.91,6.91,0,0,1-1.9.8,1.06,1.06,0,0,1-.61,0,7.31,7.31,0,0,1-2-.88,14.388,14.388,0,0,1-1.83-1.29,40.92,40.92,0,0,1-3.05-2.74A6.12,6.12,0,0,1,54,82.08a9.93,9.93,0,0,1-.7-1.91,26.59,26.59,0,0,1-.59-3.87c-.07-.8-.14-1.6-.25-2.18-.18-1.15-.37-1.93-.55-2.66a17.83,17.83,0,0,1-.46-2.4,2.28,2.28,0,0,0,0-.45,8.59,8.59,0,0,1-1,.08,7.37,7.37,0,0,1-1.47-.17,9.61,9.61,0,0,1,.7,3.63,10,10,0,0,1-1.52,5.3,9.36,9.36,0,0,1-8.05,4.49,12.851,12.851,0,0,1-1.86-.16h0a13.6,13.6,0,0,1-3.28-1.09,10.86,10.86,0,0,1-2.91-2,14.49,14.49,0,0,1-3.4-5.38,18.31,18.31,0,0,1-1.07-6.26,19.61,19.61,0,0,1,2.62-9.86,26.64,26.64,0,0,1,2.68-3.81,17,17,0,0,1,8.61-5.46,16.22,16.22,0,0,1,4.43-.61,17.66,17.66,0,0,1,14.85,8.42,10.69,10.69,0,0,1,1.29,3,5.845,5.845,0,0,1,.13.57H63l.05-.27a11.71,11.71,0,0,1,1.17-3.2,16,16,0,0,1,6.3-6.33,17.13,17.13,0,0,1,13-1.55,18,18,0,0,1,5,2.32,17.31,17.31,0,0,1,3.53,3.2,27.35,27.35,0,0,1,2.7,3.81Zm-47.57,15a7.36,7.36,0,0,0-.54-2.78A8,8,0,0,0,45,66.82c-.17-.17-.35-.33-.52-.48.15.21.29.42.42.64h0a4.92,4.92,0,0,1,.5,1.32,6,6,0,0,1,.16,1.4,5.91,5.91,0,0,1-.23,1.67,4.28,4.28,0,0,1-.8,1.54,3.24,3.24,0,0,1-.93.8,6,6,0,0,1-3,.8A6.87,6.87,0,0,1,35.32,72a5.8,5.8,0,0,1-1-1.77,12.63,12.63,0,0,1,.48-9.45,10.44,10.44,0,0,1,4.1-4.6,11,11,0,0,1,5.6-1.5,12.85,12.85,0,0,1,7.5,2.5,13.24,13.24,0,0,1,3.34,3.54l.13-.07a12,12,0,0,1,2.66-.93,14.888,14.888,0,0,1,1.6-.28v-.13a7.75,7.75,0,0,0-1-2.3,15.26,15.26,0,0,0-12.8-7.3,14.19,14.19,0,0,0-3.78.52A14.54,14.54,0,0,0,34.7,55a25.63,25.63,0,0,0-2.45,3.48A17.28,17.28,0,0,0,30,67.13a15.74,15.74,0,0,0,1,5.44,12.2,12.2,0,0,0,2.84,4.51A8.63,8.63,0,0,0,36,78.6a10.93,10.93,0,0,0,2.66.88h0a7.79,7.79,0,0,0,1.44.13,7,7,0,0,0,5.2-2.25,7.61,7.61,0,0,0,1.99-5.15Zm-5.37-5.08h-.09l-.1-.06h-.22l-.21-.16a5.831,5.831,0,0,0-.71-.22h0a8.15,8.15,0,0,0-1.38-.18h-1a4.091,4.091,0,0,0-.61.1l-.26.07A1.21,1.21,0,0,1,36,66v.17a10.33,10.33,0,0,0,.56,3.35,3.68,3.68,0,0,0,.59,1,4.53,4.53,0,0,0,1,.8,4.6,4.6,0,0,0,2.47.75,3.52,3.52,0,0,0,1.82-.48,1.1,1.1,0,0,0,.3-.27A1.76,1.76,0,0,0,43,71a3.22,3.22,0,0,0,.24-1.27,3.47,3.47,0,0,0-.1-.85,2.71,2.71,0,0,0-.25-.69,3,3,0,0,0-.92-1Zm5.2-7.2a14,14,0,0,1,5,1l.57.24a10.69,10.69,0,0,0-2.16-2.09,10.49,10.49,0,0,0-6.07-2,8.52,8.52,0,0,0-4.37,1.16A8,8,0,0,0,37,61.83a10.26,10.26,0,0,0-.8,2.81,1.1,1.1,0,0,1,.22-.21l.23-.16h0a7.12,7.12,0,0,1,.85-.48h0a8.55,8.55,0,0,1,1.42-.56,9.42,9.42,0,0,1,2-.32H42l-.12-.2a1.23,1.23,0,0,1-.1-.92,1.18,1.18,0,0,1,.59-.72A10,10,0,0,1,47.13,60Zm5.1,3.62c-.26-.12-.57-.26-.92-.4a12,12,0,0,0-4.18-.84,8.393,8.393,0,0,0-2.4.351,13.56,13.56,0,0,0,1.6,1.789,9.31,9.31,0,0,0,1.6,1.18,5.11,5.11,0,0,0,2.5.69,4.571,4.571,0,0,0,1-.1A7.21,7.21,0,0,1,52,64c.07-.16.15-.3.22-.44ZM69.36,77.89a16.489,16.489,0,0,1-2.61-1.5,9.35,9.35,0,0,1-2.84-3,4.88,4.88,0,0,1-.6-2.34,4.52,4.52,0,0,1,2.56-4.1,5.09,5.09,0,0,1,1.84-.5.892.892,0,1,1,.13,1.78,3.37,3.37,0,0,0-1.16.3,3,3,0,0,0-.8.62A2.84,2.84,0,0,0,65.17,71a3.06,3.06,0,0,0,.39,1.48,7.64,7.64,0,0,0,2.3,2.4A14.591,14.591,0,0,0,69.61,76a16.888,16.888,0,0,1,.3-1.8c.28-1.28.54-2.17.74-2.9a12.6,12.6,0,0,0,.42-2.1,16.641,16.641,0,0,0,.09-2,4.63,4.63,0,0,0-.7-2.53,5.55,5.55,0,0,0-2.07-1.81,9.92,9.92,0,0,0-2.17-.8,15.91,15.91,0,0,0-3.77-.42h0a16.65,16.65,0,0,0-4.16.47,7.81,7.81,0,0,0-2.84,1.34,4.39,4.39,0,0,0-1.1,1.25A4.55,4.55,0,0,0,53.8,67a13.439,13.439,0,0,0,.11,2.1q.12.77.3,1.53c.08.34.18.71.28,1.13.13.57.27,1.23.4,2.07.09.55.16,1.13.21,1.72a3.817,3.817,0,0,0,.09.84,13.27,13.27,0,0,0,1.93-1.12,7.43,7.43,0,0,0,2.3-2.4,3,3,0,0,0,.39-1.47,2.84,2.84,0,0,0-1.55-2.53,3.31,3.31,0,0,0-1.16-.3.921.921,0,1,1-.1-1.84.61.61,0,0,1,.19,0,5.06,5.06,0,0,1,1.8.48,4.48,4.48,0,0,1,2.56,4.1,4.72,4.72,0,0,1-.6,2.3,9.14,9.14,0,0,1-2.84,3,16.611,16.611,0,0,1-2.77,1.6,11.53,11.53,0,0,0,.59,2.4,4.3,4.3,0,0,0,.94,1.47c.61.58,1.34,1.28,2.11,1.95a18,18,0,0,0,2.4,1.76,7.1,7.1,0,0,0,1.07.53c.21-.08.41-.18.61-.28a8.2,8.2,0,0,0,1.05-.68c.73-.53,1.48-1.19,2.2-1.83l1.33-1.2a3.13,3.13,0,0,0,.8-1A6.61,6.61,0,0,0,69,80a15.26,15.26,0,0,0,.41-2.14ZM81.81,69.7a3.69,3.69,0,0,0,.13,1,2.27,2.27,0,0,0,.36.71,1.18,1.18,0,0,0,.32.27,3.41,3.41,0,0,0,1.81.48,4.44,4.44,0,0,0,1.9-.43,4.23,4.23,0,0,0,1.52-1.16,3.26,3.26,0,0,0,.59-1A9.72,9.72,0,0,0,89,66.18.54.54,0,0,0,89,66a1.19,1.19,0,0,1-1.3.56l-.25-.06c-.1,0-.32-.06-.61-.1a3.64,3.64,0,0,0-.66,0H85.8a7.59,7.59,0,0,0-1.35.21h0a4.6,4.6,0,0,0-.72.22l-.17.08h-.22l-.1.06h-.09a2.93,2.93,0,0,0-.92,1,2.51,2.51,0,0,0-.26.69,4.13,4.13,0,0,0-.16.92Zm7.07-5.06A9.92,9.92,0,0,0,88,61.83a7.92,7.92,0,0,0-3.14-3.56,8.45,8.45,0,0,0-4.38-1.16,10.53,10.53,0,0,0-6.08,2,12,12,0,0,0-1.74,1.6,17.1,17.1,0,0,1,2.67-.24,12.33,12.33,0,0,1,3.42.47,9.79,9.79,0,0,1,3.48,1.8,1.24,1.24,0,0,1,.25.26h.26a7,7,0,0,1,.8,0H84a9.66,9.66,0,0,1,3.47.8h0c.27.14.54.31.8.48h0l.23.16a1.21,1.21,0,0,1,.35.24ZM76.51,65.91a10.43,10.43,0,0,0,2.07-1.2,12.7,12.7,0,0,0,1.07-.87,7.839,7.839,0,0,0-1.54-.61,9.93,9.93,0,0,0-2.76-.37,12.553,12.553,0,0,0-2.861.33H72.31l.36.57a7.07,7.07,0,0,1,.8,2.57,4,4,0,0,0,.7.06,6.31,6.31,0,0,0,2.34-.48Zm18.55,1.22a17.16,17.16,0,0,0-2.28-8.65A24,24,0,0,0,90.33,55a14.63,14.63,0,0,0-7.42-4.8,14.79,14.79,0,0,0-11.2,1.34,13.6,13.6,0,0,0-5.36,5.38,9.35,9.35,0,0,0-.93,2.54,16,16,0,0,1,1.85.4,12.43,12.43,0,0,1,2.36,1,13,13,0,0,1,3.42-3.66,12.78,12.78,0,0,1,7.45-2.43,11,11,0,0,1,5.6,1.5,10.39,10.39,0,0,1,4.1,4.6,12.56,12.56,0,0,1,.49,9.46,5.6,5.6,0,0,1-1,1.77,6.74,6.74,0,0,1-1.49,1.33,6.84,6.84,0,0,1-3.77,1.14,5.88,5.88,0,0,1-3-.8,3.56,3.56,0,0,1-.93-.8,3.91,3.91,0,0,1-.6-1,5.77,5.77,0,0,1-.44-2.21,5.53,5.53,0,0,1,.17-1.4A4.92,4.92,0,0,1,80.1,67h0a5,5,0,0,1,.42-.64,6,6,0,0,0-.53.48,8.15,8.15,0,0,0-1.73,2.61,7.36,7.36,0,0,0-.54,2.78,7.55,7.55,0,0,0,1.17,4A7.17,7.17,0,0,0,82,79a7,7,0,0,0,2.93.61,7.79,7.79,0,0,0,1.44-.13,10.93,10.93,0,0,0,2.63-.9,8.63,8.63,0,0,0,2.26-1.52,12.1,12.1,0,0,0,2.81-4.49,15.73,15.73,0,0,0,1-5.44ZM65.31,80.51H65A1.53,1.53,0,0,1,63.8,80a2,2,0,0,1-.36-.54v-.12a2.44,2.44,0,0,0,.57-.26,2.06,2.06,0,0,0,.59-.55,1.64,1.64,0,0,0,.26-.86.89.89,0,0,0-1-.73.87.87,0,0,0-.72.68.5.5,0,0,1-.19.1h-.1a1.3,1.3,0,0,1-.62,0,.52.52,0,0,1-.26-.1h0a.89.89,0,0,0-1-.76.88.88,0,0,0-.76.88,1.53,1.53,0,0,0,.26.86,1.76,1.76,0,0,0,.42.44,2.26,2.26,0,0,0,.74.38l-.06.13a2.06,2.06,0,0,1-.52.68,1.43,1.43,0,0,1-.43.25,1.63,1.63,0,0,1-.61.1h-.28a.88.88,0,0,0-1,.77h0a.89.89,0,0,0,.8,1H60A3.36,3.36,0,0,0,61.65,82a3.07,3.07,0,0,0,.85-.67h0l.29.28a3.1,3.1,0,0,0,1,.6,3.51,3.51,0,0,0,1.32.24h.48a.9.9,0,0,0-.2-1.77ZM44.78,74.66l-.27.13-.32.15-.34.17-.4.16-.2.1-.21.08-.44.17-.47.16-.48.14-.48.12h-.5a6.9,6.9,0,0,1-2,0,6.4,6.4,0,0,1-1-.25c-.31-.11-.62-.22-.92-.36a6.619,6.619,0,0,1-.8-.4c-.51-.27-.94-.53-1.24-.72a2.292,2.292,0,0,1-.36-.24L34.21,74a3.71,3.71,0,0,0,.22.55,5.82,5.82,0,0,0,.85,1.3,7.359,7.359,0,0,0,.76.72,5.68,5.68,0,0,0,1,.68,5.139,5.139,0,0,0,.58.27c.1,0,.21.09.31.12l.33.1a5.66,5.66,0,0,0,1.36.2A5.74,5.74,0,0,0,41,77.79c.21-.05.43-.11.64-.18a3.75,3.75,0,0,0,.6-.24c.18-.08.36-.18.54-.28l.49-.31a8.7,8.7,0,0,0,.8-.68l.32-.33.26-.31a4,4,0,0,0,.39-.55l.22-.37.06-.11-.15.06Zm46-.34c-.3.19-.73.46-1.24.73l-.8.4a9.8,9.8,0,0,1-.92.36,8.279,8.279,0,0,1-1,.25,6.84,6.84,0,0,1-2,0h-.5l-.5-.12-.48-.14-.47-.16-.44-.17-.21-.08-.2-.1-.39-.16L81.25,75l-.31-.15-.27-.13c-.16-.08-.3-.12-.39-.17l-.16-.15.06.14c.06.08.12.21.23.37a3.36,3.36,0,0,0,.39.54l.26.31.32.34a7.282,7.282,0,0,0,.8.67l.49.31a5.64,5.64,0,0,0,.55.29,6.07,6.07,0,0,0,.59.24,3.46,3.46,0,0,0,.65.18,5.69,5.69,0,0,0,2.72-.07l.33-.1a1,1,0,0,0,.3-.12,4.529,4.529,0,0,0,.59-.28,5.46,5.46,0,0,0,1-.67,6.44,6.44,0,0,0,.75-.73,6,6,0,0,0,.86-1.3,3.21,3.21,0,0,0,.22-.54l-.13.08a2.711,2.711,0,0,1-.35.26Z"/></g></svg>