<svg xmlns="http://www.w3.org/2000/svg" width="34" height="34" viewBox="0 0 34 34"><defs><style>.a{fill:#43425d;mix-blend-mode:darken;isolation:isolate;}.b{fill:#fff;}</style></defs><rect class="a" width="34" height="34" rx="10"/><path class="b" d="M11.109,10.221a.313.313,0,0,0-.118.025A4.677,4.677,0,0,1,4.517,7.131,4.6,4.6,0,0,1,5.849,2.666a.278.278,0,0,0-.191-.479H5.641a6.237,6.237,0,0,0-1.08.159A5.907,5.907,0,0,0,5.972,14a6,6,0,0,0,1.416-.17,5.935,5.935,0,0,0,3.973-3.213A.279.279,0,0,0,11.109,10.221Zm-4.03,2.332a4.755,4.755,0,0,1-1.107.134A4.625,4.625,0,0,1,1.46,9.174a4.524,4.524,0,0,1,.53-3.456A4.587,4.587,0,0,1,3.333,4.3,5.937,5.937,0,0,0,8.5,11.952a4.6,4.6,0,0,1-1.416.6Zm5.477-7.6L11.826,3.5,11.1,4.957l-1.457.73,1.457.73.73,1.457.73-1.457,1.457-.73-1.457-.73ZM8.326,2.625l.438-.875.875-.437L8.763.875,8.326,0,7.888.875l-.875.438.875.438Z" transform="translate(9.986 10)"/></svg>