<svg xmlns="http://www.w3.org/2000/svg" xmlns:xlink="http://www.w3.org/1999/xlink" width="125" height="136" viewBox="0 0 125 136"><defs><style>.a{fill:none;}.b,.d{isolation:isolate;}.c{fill:url(#a);}.d{fill:#1f1e34;mix-blend-mode:soft-light;}</style><linearGradient id="a" y1="0.5" x2="1" y2="0.5" gradientUnits="objectBoundingBox"><stop offset="0" stop-color="#924865"/><stop offset="0.17" stop-color="#e89993"/><stop offset="0.2" stop-color="#ed9a93"/><stop offset="0.3" stop-color="#f39c93"/><stop offset="0.45" stop-color="#b76275"/><stop offset="0.61" stop-color="#b05c75"/><stop offset="0.74" stop-color="#c1667b"/><stop offset="0.84" stop-color="#c96b7d"/><stop offset="0.88" stop-color="#c1667c"/><stop offset="0.94" stop-color="#aa5778"/><stop offset="0.99" stop-color="#914774"/></linearGradient></defs><rect class="a" width="125" height="136"/><g class="b" transform="translate(0.5 2)"><circle class="c" cx="50" cy="50" r="50" transform="translate(12.5 18)"/><path class="d" d="M94.92,87.93a14.61,14.61,0,0,0-4.57-4.21A23,23,0,0,0,82.7,81c-1-.18-1.87-.28-2.62-.35a7.669,7.669,0,0,0,.43-.8,23.891,23.891,0,0,0,3.78.3,19.19,19.19,0,0,0,4.07-.41,12.85,12.85,0,0,0,3.2-1.08,9.69,9.69,0,0,0,2.19-1.45,9.42,9.42,0,0,0,2.48-3.47,13.38,13.38,0,0,0,.92-5.12v-1a1.2,1.2,0,0,0-2.4.13v.8a10.33,10.33,0,0,1-1,4.8A6.88,6.88,0,0,1,92,75.55a9.33,9.33,0,0,1-3.66,1.75,16.81,16.81,0,0,1-4,.45,21.16,21.16,0,0,1-2.87-.17,11.469,11.469,0,0,0,.31-1.18,2.769,2.769,0,0,1,.1-.5,9,9,0,0,0,3.88-1.67,8.48,8.48,0,0,0,1.9-2.06,9.74,9.74,0,0,0,1.28-3h0l.31-.12a5.87,5.87,0,0,0,2.11-1.55,11.25,11.25,0,0,0,2.08-3.47A13.339,13.339,0,0,0,94,62.18a8.53,8.53,0,0,0,.2-1.82,6.4,6.4,0,0,0-1.9-4.58,6.17,6.17,0,0,0-.66-.6,1.19,1.19,0,0,0,.8-.8,17.93,17.93,0,0,0,.66-4.72,13.83,13.83,0,0,0-1.81-7,15.53,15.53,0,0,0-2.87-3.59A19.94,19.94,0,0,0,83.93,36a16.709,16.709,0,0,0-2.22-1,1.18,1.18,0,0,0-1.33,1.82h0a21.321,21.321,0,0,1,1.79,3.41A18.6,18.6,0,0,1,83.62,46a8.3,8.3,0,0,1-2.4-1.37A7.84,7.84,0,0,1,79.7,43a9.45,9.45,0,0,1-1.21-2.57,1.166,1.166,0,0,0-2.18-.13,16.249,16.249,0,0,0-.61,1.78,16.58,16.58,0,0,0-.59,4.26,13.19,13.19,0,0,0,.33,2.94,11.13,11.13,0,0,0,2.2,4.56,13.35,13.35,0,0,0,4.4,3.5,6.36,6.36,0,0,0-.8,3.07,9.67,9.67,0,0,0,.5,2.77A11.188,11.188,0,0,0,82.43,65a9.9,9.9,0,0,0-1,.63,8.24,8.24,0,0,0-1.9,2c-.12.19-.23.37-.32.55-.8-.8-1.6-1.55-2.4-2.23a33.42,33.42,0,0,0-3.32-2.61,20.26,20.26,0,0,0-2.59-1.5,3.13,3.13,0,0,0,.39-1.52A3.2,3.2,0,0,0,65,60.25q-1.2-.12-2.4-.12a8.6,8.6,0,0,0-1.6.1,3.18,3.18,0,1,0-5.87,1.83c-.66.32-1.31.66-1.94,1a44.87,44.87,0,0,0-6.94,5h0A8.51,8.51,0,0,0,44.49,66a8.28,8.28,0,0,0-1.34-1c.14-.32.28-.63.41-.94a12.13,12.13,0,0,0,.57-1.89,8.54,8.54,0,0,0,.21-1.82,6.43,6.43,0,0,0-.8-3.06A15.2,15.2,0,0,0,46.6,55.2a11.39,11.39,0,0,0,3.07-4.43,12.45,12.45,0,0,0,.8-4.48A17,17,0,0,0,49.89,42a12.5,12.5,0,0,0-.62-1.78,1.2,1.2,0,0,0-1.59-.6,1.18,1.18,0,0,0-.63.7,9.4,9.4,0,0,1-1.76,3.3,8.41,8.41,0,0,1-1.6,1.44,8.59,8.59,0,0,1-1.77.88,17.67,17.67,0,0,1,.41-2.8,22,22,0,0,1,1.78-4.56c.29-.58.55-1,.74-1.33l.22-.35.06-.08h0A1.2,1.2,0,0,0,43.79,35a14.86,14.86,0,0,0-1.8.75,19.3,19.3,0,0,0-6,4.37,14,14,0,0,0-3.65,9.51,18,18,0,0,0,.67,4.72,1.21,1.21,0,0,0,.8.8,6.19,6.19,0,0,0-.67.58,6.48,6.48,0,0,0-1.9,4.58,10.15,10.15,0,0,0,.5,2.84,13.709,13.709,0,0,0,.87,2.14,9.81,9.81,0,0,0,2.06,2.77,5.69,5.69,0,0,0,1.4.93,4.78,4.78,0,0,0,.48.19,11.11,11.11,0,0,0,.53,1.6A8.86,8.86,0,0,0,39.39,74a8.21,8.21,0,0,0,2,1.28,8.84,8.84,0,0,0,2.06.66V76c.12.52.27,1.07.46,1.64a22.711,22.711,0,0,1-3,.2,18,18,0,0,1-3.58-.35,11.39,11.39,0,0,1-2.6-.88,8.13,8.13,0,0,1-1.67-1.12,7,7,0,0,1-1.85-2.6,10.92,10.92,0,0,1-.74-4.2v-.8a1.2,1.2,0,0,0-2.4-.12v1a12.49,12.49,0,0,0,1.28,5.88A9.11,9.11,0,0,0,31.7,77.5a11.61,11.61,0,0,0,4.59,2.22,19.27,19.27,0,0,0,4.6.53,25,25,0,0,0,4-.32l.08.16.36.63a13.615,13.615,0,0,0-1.85.21A27.919,27.919,0,0,0,38.6,82a20.3,20.3,0,0,0-3.92,1.77,14.39,14.39,0,0,0-5,4.8,14,14,0,0,0-1.56,3.6,17.54,17.54,0,0,0-.55,4.44,24.61,24.61,0,0,0,.25,3.32,1.193,1.193,0,0,0,2.36-.35c-.05-.3-.08-.58-.11-.86a18.48,18.48,0,0,1-.12-2.1,13.88,13.88,0,0,1,.66-4.43,11.06,11.06,0,0,1,1.46-2.94A12.47,12.47,0,0,1,36,85.74a21.31,21.31,0,0,1,7-2.4A24.672,24.672,0,0,1,46.29,83H47l.18.2a13.83,13.83,0,0,0,2.26,1.92,23.869,23.869,0,0,0-2.67.4A15.56,15.56,0,0,0,43,86.8,12.88,12.88,0,0,0,41.21,88l-2,2a11.87,11.87,0,0,0-1.72,2.94,17.07,17.07,0,0,0-1.12,6.4v.57a1.187,1.187,0,0,0,2.37-.14V99A13.57,13.57,0,0,1,40,93a9,9,0,0,1,2.22-2.83A11.48,11.48,0,0,1,46.78,88a19.52,19.52,0,0,1,4.75-.55,25,25,0,0,1,2.88.17h0l.8.12h.22a28.23,28.23,0,0,0,6.73.74,32.289,32.289,0,0,0,7.65-.8,3.431,3.431,0,0,0,.56-.08,26.45,26.45,0,0,1,2.95-.23,19.76,19.76,0,0,1,4.2.43,12.52,12.52,0,0,1,3.2,1.11,9.84,9.84,0,0,1,2.09,1.47,9.2,9.2,0,0,1,2.4,3.41,14.49,14.49,0,0,1,.91,5.13v.84a1.2,1.2,0,1,0,2.4.07v-.57a16,16,0,0,0-1.6-7.35,11.47,11.47,0,0,0-2.81-3.57,13.66,13.66,0,0,0-5.47-2.71,19.4,19.4,0,0,0-2.84-.5,14.341,14.341,0,0,0,2-1.54c.22-.2.44-.42.64-.64h.66a17.43,17.43,0,0,1,2.4.25,24.72,24.72,0,0,1,4.34,1,18.51,18.51,0,0,1,3.4,1.6,12.1,12.1,0,0,1,4.11,4,11.84,11.84,0,0,1,1.25,3,14.92,14.92,0,0,1,.4,3.83,18,18,0,0,1-.12,2.08,6.549,6.549,0,0,1-.1.89,1.212,1.212,0,1,0,2.4.34,22.9,22.9,0,0,0,.24-3.3,17.07,17.07,0,0,0-.8-5.17A13.66,13.66,0,0,0,94.92,87.93Zm-3.1-27.55a7.531,7.531,0,0,1-.36,2.11,10.731,10.731,0,0,1-.72,1.75,7.14,7.14,0,0,1-1.53,2.08,3,3,0,0,1-.8.55,1.58,1.58,0,0,1-1.32,0A3.62,3.62,0,0,1,85.84,66a9,9,0,0,1-1.6-2.73,9.668,9.668,0,0,1-.46-1.53,6.44,6.44,0,0,1-.16-1.32A4.11,4.11,0,0,1,91.83,60a2.158,2.158,0,0,1,0,.36Zm-7.58-6.31a13.37,13.37,0,0,0,1.33-3.2,14.39,14.39,0,0,0,.5-3.81,18.22,18.22,0,0,0-.59-4.47,22.91,22.91,0,0,0-1.33-3.78,16.07,16.07,0,0,1,3.62,3,11.64,11.64,0,0,1,3,7.83,15.851,15.851,0,0,1-.58,4.1,1.6,1.6,0,0,0,0,.31,1.5,1.5,0,0,0,0,.3,5.24,5.24,0,0,0-1-.3,6.5,6.5,0,0,0-5.67,1.35l-.15-.06-.26-.14a.85.85,0,0,0,.31-.13,1,1,0,0,0,.4-.37,5.16,5.16,0,0,0,.4-.63Zm-3.72-.62a9.11,9.11,0,0,1-2.4-3.5,10.2,10.2,0,0,1-.63-3.63,12.7,12.7,0,0,1,.18-2.14c.25.37.52.73.8,1.08a11.111,11.111,0,0,0,2.12,1.87,10.8,10.8,0,0,0,2.86,1.33h.18a11.38,11.38,0,0,1-.32,1.76,11.65,11.65,0,0,1-1.43,3.15,1.23,1.23,0,0,0-.16.95,13.5,13.5,0,0,1-1.2-.91Zm.58,16.39a6.18,6.18,0,0,1,1.65-2.17,7.5,7.5,0,0,1,.9-.61l.19.22a7.55,7.55,0,0,0,.8.8,5.56,5.56,0,0,0,1.41.93,3.889,3.889,0,0,0,.41.17.58.58,0,0,1-.09.25,3.507,3.507,0,0,1-.24.61,6,6,0,0,1-3.26,3.12l-.72.24V73a12.28,12.28,0,0,0-.1-1.6,1.19,1.19,0,0,0-.33-.65l-.57-.59L81,70A1.339,1.339,0,0,1,81.1,69.84ZM67.38,60.39a.8.8,0,0,1,1.6,0,.81.81,0,0,1-.23.57h-.06l-.23-.08c-.34-.1-.68-.19-1-.27a.75.75,0,0,1-.08-.22ZM57.2,61a.8.8,0,1,1,1.36-.56h0a.79.79,0,0,1-.1.37c-.36.1-.71.21-1.06.34a.75.75,0,0,1-.2-.15ZM45.66,46.6a9.8,9.8,0,0,0,2.06-2.2,1.88,1.88,0,0,1,.16-.23,12.91,12.91,0,0,1,.18,2.15,10.82,10.82,0,0,1-.26,2.4,9,9,0,0,1-1.75,3.6,10.21,10.21,0,0,1-2.24,2.06,1.18,1.18,0,0,0-.15-1h0a10.78,10.78,0,0,1-1.42-3.15,11.64,11.64,0,0,1-.34-1.76,10.49,10.49,0,0,0,3.76-1.92ZM35.34,53.76a15.84,15.84,0,0,1-.57-4.1,11.5,11.5,0,0,1,1.5-5.79,13.3,13.3,0,0,1,2.4-3,16.73,16.73,0,0,1,2.66-2v.1A25.319,25.319,0,0,0,40,42.6a18.3,18.3,0,0,0-.59,4.48,14.37,14.37,0,0,0,.5,3.8,13,13,0,0,0,1.33,3.2c.12.22.25.44.39.65a1.12,1.12,0,0,0,.4.38,1.2,1.2,0,0,0,.31.13l-.26.13-.14.07a6.48,6.48,0,0,0-6.63-1,.76.76,0,0,0,0-.3,1,1,0,0,0,0-.34ZM35.92,66a9,9,0,0,1-1.6-2.73,8.73,8.73,0,0,1-.46-1.53,6.44,6.44,0,0,1-.16-1.32A4.11,4.11,0,0,1,41.91,60a2.16,2.16,0,0,1,0,.36,7.31,7.31,0,0,1-.36,2.12,11.46,11.46,0,0,1-.71,1.75,7.27,7.27,0,0,1-1.53,2.08,3.31,3.31,0,0,1-.8.54,1.71,1.71,0,0,1-.7.16,1.51,1.51,0,0,1-.63-.13A3.39,3.39,0,0,1,35.93,66Zm6.73,7.2a7.24,7.24,0,0,1-1.44-.8,6.18,6.18,0,0,1-1.36-1.48,7.14,7.14,0,0,1-.71-1.44.89.89,0,0,0-.09-.26l.25-.09a6,6,0,0,0,2.11-1.54l.25-.29.18-.22a5.21,5.21,0,0,1,.74.48A5.64,5.64,0,0,1,43.94,69a5.3,5.3,0,0,1,.42.73l-.19.19c-.52.5-.8.8-.8.8a1.14,1.14,0,0,0-.32.72v.65a11.729,11.729,0,0,0,0,1.19,1,1,0,0,1-.44-.1Zm33.22,8.93a14.11,14.11,0,0,1-5.12,2.81c-.41.14-.85.26-1.32.38l-.6.1a1,1,0,0,0-.28.1,31.18,31.18,0,0,1-6.32.59,21.54,21.54,0,0,1-9.5-1.86,12.14,12.14,0,0,1-4-3A12.86,12.86,0,0,1,45.91,76a15,15,0,0,1-.53-3.82V72.1a48.8,48.8,0,0,1,5.54-4.72A32.339,32.339,0,0,1,56.57,64a18,18,0,0,1,3-1.08,11.8,11.8,0,0,1,3-.4,18.35,18.35,0,0,1,4.67.54,14.861,14.861,0,0,1,3,1.16,24,24,0,0,1,4.5,3.13c1.5,1.29,3.12,2.87,5,4.8V73a13.18,13.18,0,0,1-.46,3.54,11.76,11.76,0,0,1-1.42,3.2,11.488,11.488,0,0,1-.8,1,1.27,1.27,0,0,0-.3.35,12.622,12.622,0,0,1-.89,1Zm-13.53,1.6.18.06h-.18l-.54.11a7.742,7.742,0,0,0-.8.12H59.91a9.4,9.4,0,0,1-1.3,0l-.75-.1a3.7,3.7,0,0,1-.74-.13,7.159,7.159,0,0,1-.8-.19,1,1,0,0,1-.38-.11l-.38-.13a11.781,11.781,0,0,1-1.43-.69l-.72-.42-.34-.24-.34-.24a3.921,3.921,0,0,0-.32-.25l-.3-.28a7.271,7.271,0,0,1-.56-.55,10.05,10.05,0,0,1-1.63-2.37,6.94,6.94,0,0,1-.59-1.84,3.19,3.19,0,0,1-.07-.54v-.2s.14.24.4.61A14.54,14.54,0,0,0,50.8,77.8c.24.28.52.57.8.87a11.371,11.371,0,0,0,1,.87,9.649,9.649,0,0,0,1.13.8c.19.14.4.25.6.38l.63.36c.42.23.86.44,1.3.63s.88.37,1.31.52l1.27.42c.41.14.8.25,1.18.34l.53.13.49.13.43.11.37.09Z"/></g></svg>