<svg xmlns="http://www.w3.org/2000/svg" xmlns:xlink="http://www.w3.org/1999/xlink" width="125" height="136" viewBox="0 0 125 136"><defs><style>.a{fill:none;}.b,.d{isolation:isolate;}.c{fill:url(#a);}.d{fill:#1f1e34;mix-blend-mode:soft-light;}</style><linearGradient id="a" y1="0.5" x2="1" y2="0.5" gradientUnits="objectBoundingBox"><stop offset="0" stop-color="#e58a8d"/><stop offset="0.35" stop-color="#fbb395"/><stop offset="0.52" stop-color="#f3ac84"/><stop offset="0.67" stop-color="#eea87a"/><stop offset="1" stop-color="#f59b8e"/></linearGradient></defs><rect class="a" width="125" height="136"/><g class="b" transform="translate(0.5 2)"><circle class="c" cx="50" cy="50" r="50" transform="translate(12.5 18)"/><path class="d" d="M29.23,47.5h0a19.36,19.36,0,0,1,5.5-.8,17.87,17.87,0,0,1,5.39.8,15.07,15.07,0,0,1,4.21,2.14,17.84,17.84,0,0,1,5.6,6.93A30.74,30.74,0,0,1,52,62.46a17.592,17.592,0,0,0-1.67-.73,16.46,16.46,0,0,0-6-1.2,11.87,11.87,0,0,0-5.6,1.35,1.17,1.17,0,0,0-.58.71,1.21,1.21,0,0,0,.1.93A19.11,19.11,0,0,0,41,67a14.06,14.06,0,0,0,3.14,2.45,8.94,8.94,0,0,0,4.28,1.16,8.54,8.54,0,0,0,1.43-.13v.63a22.181,22.181,0,0,0,.13,2.58,20.9,20.9,0,0,0,.53,2.82c.22.89.45,1.83.68,3.2.13.8.21,1.51.31,2.24a13.52,13.52,0,0,0,.74,3.26,8.18,8.18,0,0,0,.85,1.6,11.44,11.44,0,0,0,1.35,1.6c1,.93,2.28,2.17,3.68,3.28a18.34,18.34,0,0,0,2.18,1.55,9.76,9.76,0,0,0,2.31,1,1.06,1.06,0,0,0,.61,0,8.22,8.22,0,0,0,2.16-.92,23.38,23.38,0,0,0,3-2.28c.93-.8,1.78-1.6,2.47-2.2a9,9,0,0,0,1.74-2,8,8,0,0,0,.8-1.6,14,14,0,0,0,.58-2.4c.14-.8.26-1.6.46-2.45s.41-1.75.6-2.4c.14-.5.27-1,.39-1.42a18.1,18.1,0,0,0,.43-2.17,24.679,24.679,0,0,0,.15-3v-.8a7.592,7.592,0,0,0,1.07.07,9.661,9.661,0,0,0,3.851-.8,18.45,18.45,0,0,0,5.889-4.3,1.17,1.17,0,0,0-.16-1.69,11.9,11.9,0,0,0-4.12-2.13,14.53,14.53,0,0,0-4-.55,18.68,18.68,0,0,0-4.22.38A12.119,12.119,0,0,0,73,62a31.79,31.79,0,0,1,1.64-5.12,20.77,20.77,0,0,1,3.43-5.6,15.08,15.08,0,0,1,6.15-4.3,17.41,17.41,0,0,1,6.1-1.06,21.35,21.35,0,0,1,4,.39c.5.1.88.2,1.15.27l.29.08h.07a1.195,1.195,0,1,0,1-2.17,23.33,23.33,0,0,0-3.34-1.4,25.35,25.35,0,0,0-8-1.38A19.7,19.7,0,0,0,78.2,43a19.39,19.39,0,0,0-5.48,3.27,28,28,0,0,0-7.2,9.9,47.47,47.47,0,0,0-2.28,6H61.57c-.42-1.28-.86-2.47-1.33-3.6a34.06,34.06,0,0,0-4.46-7.85,21.26,21.26,0,0,0-8-6.47,19.63,19.63,0,0,0-8.13-1.7,25.46,25.46,0,0,0-8.06,1.38,23.689,23.689,0,0,0-3.33,1.4,1.2,1.2,0,1,0,1,2.18Zm21.2,20.22-.07.17a6,6,0,0,1-2,.37,6.33,6.33,0,0,1-3.12-.86,10.44,10.44,0,0,1-2-1.47A16.25,16.25,0,0,1,41,63.53h0a9.73,9.73,0,0,1,3.3-.55,14.32,14.32,0,0,1,5.13,1c.67.26,1.22.52,1.6.71l.43.23.1.06h0a1.13,1.13,0,0,0,.41.16,1.27,1.27,0,0,0,.39,0,6.29,6.29,0,0,0-.47.43,7.82,7.82,0,0,0-1.5,2.1Zm22.9-3.34a11.62,11.62,0,0,1,1.53-.44,17,17,0,0,1,3.55-.41A12.49,12.49,0,0,1,81.8,64a9.72,9.72,0,0,1,2.2.94,15.789,15.789,0,0,1-1.68,1.38,12.88,12.88,0,0,1-2.5,1.42,7.39,7.39,0,0,1-2.82.6,5.67,5.67,0,0,1-1.73-.3h0l-.3-.62a8.68,8.68,0,0,0-2-2.34l-.12-.1-.39-.3a.63.63,0,0,1,.05-.3,1.35,1.35,0,0,0,.35.06,1.3,1.3,0,0,0,.44-.05Zm4.94-18.83A17.15,17.15,0,0,1,85.39,44h.08c-.41.1-.84.21-1.25.34a17.44,17.44,0,0,0-4.87,2.46A20.19,20.19,0,0,0,73,54.68l-.21.46v-.67h0a15,15,0,0,1,.41-3.34c.14-.6.3-1.17.46-1.67s.3-.9.44-1.24a17.55,17.55,0,0,1,4.14-2.67ZM67.07,58.62a32,32,0,0,1,4.15-7.31l.21-.26A16.15,16.15,0,0,0,71,54.44,10.59,10.59,0,0,0,71.54,58a1.191,1.191,0,0,0,.08.16,40.8,40.8,0,0,0-1.36,5.3,14.549,14.549,0,0,0-1.73-.56,17.8,17.8,0,0,0-2.89-.57c.44-1.32.91-2.55,1.39-3.68Zm-4.3,5.89h0a19.33,19.33,0,0,1,4.61.5,11.92,11.92,0,0,1,2.67,1,6.86,6.86,0,0,1,2.6,2.27,5.85,5.85,0,0,1,.9,3.2,22.208,22.208,0,0,1-.12,2.45,15,15,0,0,1-.52,2.57c-.24.89-.55,1.94-.88,3.49-.2.84-.32,1.6-.44,2.3a13.3,13.3,0,0,1-.28,1.4,6.1,6.1,0,0,1-.67,1.75,6.43,6.43,0,0,1-1.42,1.65c-.5.44-1,.93-1.6,1.45A25.851,25.851,0,0,1,65,90.77a12.23,12.23,0,0,1-1.3.8,6.3,6.3,0,0,1-.84.37,8.049,8.049,0,0,1-1.41-.7,20.78,20.78,0,0,1-2.87-2.14c-.94-.8-1.82-1.66-2.56-2.4a6.69,6.69,0,0,1-1.26-1.6A5.169,5.169,0,0,1,54.2,84a11,11,0,0,1-.44-2c-.1-.75-.19-1.6-.35-2.57s-.33-1.79-.49-2.47c-.12-.51-.23-1-.33-1.38a16.979,16.979,0,0,1-.36-1.86,19.8,19.8,0,0,1-.13-2.55,5.56,5.56,0,0,1,.69-2.82,5.43,5.43,0,0,1,1.38-1.6,9.8,9.8,0,0,1,3.52-1.65,20.68,20.68,0,0,1,5.08-.58ZM57.41,58a42.718,42.718,0,0,1,1.72,4.35c-.5.07-1,.16-1.47.27a13.6,13.6,0,0,0-3,1,39.2,39.2,0,0,0-1.5-5.42,11.11,11.11,0,0,0,.42-3.14,16.35,16.35,0,0,0-.49-3.87A28.49,28.49,0,0,1,57.4,58ZM39.67,44.93A17.55,17.55,0,0,1,46,46.07a17,17,0,0,1,4.4,2.56c.16.39.36.92.56,1.54a14.766,14.766,0,0,1,.44,1.6,15.11,15.11,0,0,1,.41,3.34h0a22.1,22.1,0,0,0-3-4.56,17.54,17.54,0,0,0-7.11-5A18.159,18.159,0,0,0,39.6,45Zm22.4,37.91a3.13,3.13,0,0,0,.75.07,3.5,3.5,0,0,0,.85-.08,2.7,2.7,0,0,0,.4-.14.44.44,0,0,0,.15-.08.24.24,0,0,0,.09-.06.9.9,0,0,1,1.77.14,1.41,1.41,0,0,1-.07.45,1.89,1.89,0,0,1-.68.9,3.67,3.67,0,0,1-1.38.55h-.18a.64.64,0,0,0,.1.24,3.08,3.08,0,0,0,.47.72,1.93,1.93,0,0,0,.53.41,2.07,2.07,0,0,0,1.07.26h.36a.9.9,0,0,1,1,.8.87.87,0,0,1-.78,1h-.57a3.94,3.94,0,0,1-1.52-.28,3.76,3.76,0,0,1-1.11-.69,3.71,3.71,0,0,1-.47-.5l-.19.23a3.91,3.91,0,0,1-1,.8,4,4,0,0,1-1.94.48,5,5,0,0,1-.55,0,.89.89,0,0,1-.8-1h0a.9.9,0,0,1,1-.8h.36a2.13,2.13,0,0,0,.75-.11A1.8,1.8,0,0,0,61,85.9a2.32,2.32,0,0,0,.69-.8,1.59,1.59,0,0,0,.19-.42v-.07a1.71,1.71,0,0,1-.5-.1A3.33,3.33,0,0,1,60.22,84a1.61,1.61,0,0,1-.69-1.29.9.9,0,0,1,.84-1,.89.89,0,0,1,1,.83h0l.2.1a2.31,2.31,0,0,0,.56.19ZM55.83,70.71a5.88,5.88,0,0,1,2.11.38A5.32,5.32,0,0,1,60,72.55a7.39,7.39,0,0,1,1.12,1.74,12.43,12.43,0,0,1,1,3.39.91.91,0,0,1-.64,1.1.89.89,0,0,1-1.1-.63.83.83,0,0,1,0-.22,3.948,3.948,0,0,0-.16-.87,8.77,8.77,0,0,0-.8-2.29,4.53,4.53,0,0,0-1.31-1.6,3.66,3.66,0,0,0-1-.5,4.23,4.23,0,0,0-1.32-.2,5.59,5.59,0,0,0-1.46.2h-.17l-.51.17h0a.9.9,0,0,1-1-1.5l.21-.1a6.741,6.741,0,0,1,.86-.3,7.71,7.71,0,0,1,2-.28Zm8,7A11.32,11.32,0,0,1,64.94,74a6.18,6.18,0,0,1,1.85-2.21A5.31,5.31,0,0,1,68.23,71a5.89,5.89,0,0,1,1.9-.29,8.07,8.07,0,0,1,2,.28,6.738,6.738,0,0,1,.86.3.9.9,0,0,1-.74,1.6h0l-.16-.06-.38-.1h-.08a6,6,0,0,0-1.52-.24,4,4,0,0,0-1.48.26,3.53,3.53,0,0,0-1.4,1,4.85,4.85,0,0,0-.8,1.3,8.58,8.58,0,0,0-.65,2c-.06.27-.11.57-.16.87a.89.89,0,1,1-1.76-.26Z"/></g></svg>