<svg id="Libra_Icon_125x136px" data-name="Libra Icon 125x136px" xmlns="http://www.w3.org/2000/svg" width="125" height="136" viewBox="0 0 125 136">
  <defs>
    <style>
      .cls-1 {
        fill: none;
      }

      .cls-2, .cls-4 {
        isolation: isolate;
      }

      .cls-3 {
        fill: #8ebef8;
      }

      .cls-4 {
        fill: #1f1e34;
        mix-blend-mode: soft-light;
      }
    </style>
  </defs>
  <g id="Group_25727" data-name="Group 25727">
    <rect id="Rectangle_3445" data-name="Rectangle 3445" class="cls-1" width="125" height="136"/>
    <g id="ZODIAC_ICONS_Libra" class="cls-2" transform="translate(0.5 2)">
      <g id="Layer_2" data-name="Layer 2">
        <circle id="Ellipse_228" data-name="Ellipse 228" class="cls-3" cx="50" cy="50" r="50" transform="translate(12.5 18)"/>
      </g>
      <g id="ICONS">
        <path id="Path_6460" data-name="Path 6460" class="cls-4" d="M37.28,49.76a1.19,1.19,0,0,1,1.19-1.19H61.35V39.28a1.2,1.2,0,1,1,2.4,0v9.29H86.63a1.2,1.2,0,1,1,0,2.4H38.47a1.19,1.19,0,0,1-1.19-1.19ZM97.47,69.88V70h0v.11h0a10.93,10.93,0,0,1-21.66,0h0v-.23h0v-.1h0v-.36h0l8.74-13.5H63.75v31a14,14,0,0,0,.25,1.7,9.61,9.61,0,0,0,1.52,3.54,7.31,7.31,0,0,0,2,1.9,9.68,9.68,0,0,0,4.6,1.32,1.2,1.2,0,0,1-.14,2.4,12.45,12.45,0,0,1-5-1.27,9.57,9.57,0,0,1-3.2-2.7,10.57,10.57,0,0,1-1.28-2.18l-.12-.26-.06.14a11.93,11.93,0,0,1-1.82,2.87,9.75,9.75,0,0,1-4.12,2.87,12.38,12.38,0,0,1-3.35.67,1.2,1.2,0,1,1-.14-2.4A8.67,8.67,0,0,0,57,94.29a7.66,7.66,0,0,0,2.45-2.52,10.25,10.25,0,0,0,1-2.06A14.929,14.929,0,0,0,61.16,87c.07-.41.1-.8.14-1.12v-.42c0-.76.05-1.3.07-1.5V56H40.55l8.58,13.37h0l.06.11v.25h0v.1h0a.24.24,0,0,1,0,.12h0a.17.17,0,0,1,0,.1h0a10.93,10.93,0,0,1-21.66,0h0v-.33h0v-.36h0L37,54.52a1.19,1.19,0,0,1,1.37-1H86.63a1.18,1.18,0,0,1,1.17,1l9.49,14.8h0v.45ZM31,68.78h6.28V59Zm15.65,2.4H30.31a8.55,8.55,0,0,0,16.34,0ZM39.67,59v9.81H46Zm48.16,9.81h6.28L87.83,59Zm-8.68,0h6.29V59Zm15.65,2.4H78.46a8.55,8.55,0,0,0,16.34,0Zm-9.13,3.31a5.823,5.823,0,0,1-1.18-.2,10.882,10.882,0,0,1-1.12-.3c-.32-.12-.7-.23-1-.33-.63-.23-1.16-.43-1.53-.59l-.6-.24a3.39,3.39,0,0,0,.38.53,5.352,5.352,0,0,0,.51.55c.22.21.47.42.75.64a7.2,7.2,0,0,0,1,.66,8.6,8.6,0,0,0,1.18.58l.33.12.34.1a6.219,6.219,0,0,0,.71.19,7.629,7.629,0,0,0,1.5.15,5.29,5.29,0,0,0,.8,0h.38l.38-.08a5,5,0,0,0,.72-.22,4.369,4.369,0,0,0,.67-.29,5.24,5.24,0,0,0,.61-.34,5.3,5.3,0,0,0,.54-.39,7.271,7.271,0,0,0,.86-.8c.21-.26.41-.53.6-.8a6.189,6.189,0,0,0,.36-.67,4.61,4.61,0,0,0,.2-.45l.07-.15-.15.1-.39.27-.59.42-.2.1-.19.12-.4.25c-.29.16-.59.33-.91.48l-.25.12-.27.1-.25.1-.27.08a7.43,7.43,0,0,1-1.13.27,6.75,6.75,0,0,1-1.19.1,8.42,8.42,0,0,1-1.27-.21Zm-48.15,0a5.823,5.823,0,0,1-1.18-.2c-.38-.08-.76-.2-1.12-.3l-1-.33c-.63-.23-1.16-.43-1.54-.59l-.6-.24a4.26,4.26,0,0,0,.39.53,5.349,5.349,0,0,0,.51.55,6.5,6.5,0,0,0,.75.64,7.779,7.779,0,0,0,1,.66,8.72,8.72,0,0,0,1.19.58l.33.12.36.08c.23.07.47.13.7.18a7.059,7.059,0,0,0,1.52.15,5.459,5.459,0,0,0,.8,0,2.349,2.349,0,0,0,.37,0l.38-.07a6.669,6.669,0,0,0,.72-.23,4.37,4.37,0,0,0,.67-.29,4.088,4.088,0,0,0,.61-.34,5.3,5.3,0,0,0,.54-.39,8.249,8.249,0,0,0,.87-.8c.21-.26.4-.52.59-.8a5.44,5.44,0,0,0,.37-.67l.19-.44.06-.16-.14.1-.39.28c-.16.12-.37.25-.6.41l-.16.12-.2.12-.4.25a7.281,7.281,0,0,1-.92.48c-.08,0-.16.09-.24.12l-.26.1-.26.1-.27.08a7.3,7.3,0,0,1-1.12.27,7.852,7.852,0,0,1-1.19.1,7.729,7.729,0,0,1-1.33-.2ZM52.71,92.78a6.84,6.84,0,0,0,2.16-.3,4.671,4.671,0,0,0,.62-.24,6.7,6.7,0,0,0,1.83-1.19l.26-.27a3.71,3.71,0,0,0,.27-.29,7,7,0,0,0,.46-.61A7.47,7.47,0,0,0,59,88.54a7,7,0,0,0,.24-.69,2.191,2.191,0,0,1,.1-.34,2.092,2.092,0,0,1,.08-.34,9.6,9.6,0,0,0,.18-1.31,11.409,11.409,0,0,0,0-1.17,6.1,6.1,0,0,0-.13-1,4.809,4.809,0,0,0-.18-.73,4.569,4.569,0,0,0-.22-.62L59,83c-.08.4-.2,1-.36,1.6-.09.33-.17.67-.29,1s-.23.73-.38,1.1a11.821,11.821,0,0,1-.48,1.1,8.321,8.321,0,0,1-.61,1,6.93,6.93,0,0,1-1.6,1.73l-.21.18-.23.16-.24.16-.23.14c-.3.19-.61.34-.91.5l-.43.19-.2.1-.2.07-.67.27-.45.17-.15.06h.16l.48.09a6.59,6.59,0,0,0,.76.1Z"/>
      </g>
    </g>
  </g>
</svg>
