<svg id="Leo_Icon_125x136px" data-name="Leo Icon 125x136px" xmlns="http://www.w3.org/2000/svg" width="125" height="136" viewBox="0 0 125 136">
  <defs>
    <style>
      .cls-1 {
        fill: none;
      }

      .cls-2, .cls-4 {
        isolation: isolate;
      }

      .cls-3 {
        fill: #8ebef8;
      }

      .cls-4 {
        fill: #1f1e34;
        mix-blend-mode: soft-light;
      }
    </style>
  </defs>
  <g id="Group_25726" data-name="Group 25726">
    <rect id="Rectangle_3442" data-name="Rectangle 3442" class="cls-1" width="125" height="136"/>
    <g id="ZODIAC_ICONS_Leo" class="cls-2" transform="translate(0.5 2)">
      <g id="Layer_2" data-name="Layer 2">
        <circle id="Ellipse_227" data-name="Ellipse 227" class="cls-3" cx="50" cy="50" r="50" transform="translate(12.5 18)"/>
      </g>
      <g id="ICONS">
        <path id="Path_6459" data-name="Path 6459" class="cls-4" d="M96.7,65.89a10.08,10.08,0,0,0-.32-2.5,7.31,7.31,0,0,0-.34-1,1.17,1.17,0,0,0-1.08-.7,1.12,1.12,0,0,0-.8.26,10.19,10.19,0,0,0,.65-3.5A9.89,9.89,0,0,0,93.73,54a8.17,8.17,0,0,0-1.13-1.73,1.19,1.19,0,0,0-1.24-.33,1.16,1.16,0,0,0-.63.48V52a10,10,0,0,0-.63-3.68,9.54,9.54,0,0,0-2.33-3.44,8.43,8.43,0,0,0-1.45-1.15,1.19,1.19,0,0,0-1.63.44,1.39,1.39,0,0,0-.12.28A10.11,10.11,0,0,0,82.1,40.1a9.79,9.79,0,0,0-2.94-2,7,7,0,0,0-1.48-.52,1.21,1.21,0,0,0-1.44,1.26l-.3-.4a9.75,9.75,0,0,0-7.91-4,2.71,2.71,0,0,0-.57,0A1.16,1.16,0,0,0,66.4,35.7a1.3,1.3,0,0,0,.08.34,11.18,11.18,0,0,0-1.6-1,9.5,9.5,0,0,0-4.55-1.13,10,10,0,0,0-2.5.32,6.209,6.209,0,0,0-1,.34,1.16,1.16,0,0,0-.7,1.08,1.08,1.08,0,0,0,.26.75,10.42,10.42,0,0,0-3.5-.64,9.79,9.79,0,0,0-4.34,1.09,8,8,0,0,0-1.73,1.12,1.19,1.19,0,0,0-.11,1.69,1,1,0,0,0,.22.19h-.42a9.74,9.74,0,0,0-7.13,3,8.55,8.55,0,0,0-1.14,1.46A1.18,1.18,0,0,0,38.93,46a11,11,0,0,0-1.73.66,9.56,9.56,0,0,0-2.61,1.84,9.92,9.92,0,0,0-2,2.94A6.92,6.92,0,0,0,32,52.89a1.2,1.2,0,0,0,.46,1.2,1.15,1.15,0,0,0,.8.23l-.38.26a9.89,9.89,0,0,0-2.19,2.19,9.43,9.43,0,0,0-1.56,3.33,9.69,9.69,0,0,0-.31,2.4v.57a1.19,1.19,0,0,0,.8,1,1.1,1.1,0,0,0,.8,0,10.32,10.32,0,0,0-1,1.6,9.65,9.65,0,0,0-1.14,4.55,10,10,0,0,0,.32,2.5,7,7,0,0,0,.34,1,1.2,1.2,0,0,0,1.08.7,1.25,1.25,0,0,0,.76-.26,10.16,10.16,0,0,0-.65,3.4A9.89,9.89,0,0,0,31.23,82a7.87,7.87,0,0,0,1.13,1.72,1.22,1.22,0,0,0,1.24.34,1.29,1.29,0,0,0,.64-.49V84a10,10,0,0,0,.68,3.68,9.84,9.84,0,0,0,2.33,3.46,7.65,7.65,0,0,0,1.46,1.14A1.19,1.19,0,0,0,40,92.24a1.26,1.26,0,0,0,.46-.65,11,11,0,0,0,.66,1.73A9.3,9.3,0,0,0,43,95.92a10.14,10.14,0,0,0,2.94,2,7.71,7.71,0,0,0,1.49.51A1.19,1.19,0,0,0,48.59,98a1.14,1.14,0,0,0,.22-.8l.26.37A9.788,9.788,0,0,0,57,101.64h.56a1.18,1.18,0,0,0,1.06-1.3,1.63,1.63,0,0,0-.07-.3,9.92,9.92,0,0,0,1.6,1,9.5,9.5,0,0,0,4.55,1.13,10.08,10.08,0,0,0,2.5-.32,5.4,5.4,0,0,0,1-.34,1.19,1.19,0,0,0,.72-1.08,1.22,1.22,0,0,0-.26-.8,9.65,9.65,0,0,0,7.82-.38,8.47,8.47,0,0,0,1.72-1.12,1.21,1.21,0,0,0,.33-1.25,1.16,1.16,0,0,0-.48-.63h.42a9.75,9.75,0,0,0,7.13-3,8.88,8.88,0,0,0,1.14-1.45,1.18,1.18,0,0,0-.07-1.29,1.22,1.22,0,0,0-.65-.46,10.59,10.59,0,0,0,1.73-.65,9.56,9.56,0,0,0,2.61-1.84,9.8,9.8,0,0,0,2-2.95,6.421,6.421,0,0,0,.52-1.49,1.19,1.19,0,0,0-.45-1.2,1.16,1.16,0,0,0-.8-.23l.37-.26a9.76,9.76,0,0,0,4.06-7.89V73a1.21,1.21,0,0,0-1.6-1,10.23,10.23,0,0,0,1-1.59,9.59,9.59,0,0,0,1.24-4.52ZM86.62,47.49a1.2,1.2,0,0,1,.08-.27.64.64,0,0,1,.1.13,7.25,7.25,0,0,1,1.1,1.91A7.82,7.82,0,0,1,88.39,52a11.21,11.21,0,0,1-.86,4.08v.06a7.11,7.11,0,0,1-2.15.29,12.47,12.47,0,0,1-1.93-.17,9.552,9.552,0,0,0,.08-1.2,6,6,0,0,0-.06-1,9.44,9.44,0,0,0-.32-1.6,5.41,5.41,0,0,0-.28-.8l.18-.1a8.07,8.07,0,0,0,2-1.48,6.63,6.63,0,0,0,1.53-2.56Zm-9.5,14.12a9,9,0,0,0-1.06-2.75,11.58,11.58,0,0,0-3.14-3.4l-.14-.1h.15A1.18,1.18,0,0,0,74,54.77h0a6.9,6.9,0,0,1,1.24-1.45,5.92,5.92,0,0,1,1.36-.92,4.12,4.12,0,0,1,1.73-.4,4.45,4.45,0,0,1,1.25.18,5.67,5.67,0,0,1,1.14.46,4,4,0,0,0,.15.45,7.18,7.18,0,0,1,.25,1.9,6.27,6.27,0,0,1-.32,2.05,8,8,0,0,1-2.36,3.5,12.329,12.329,0,0,1-1.32,1Zm-6.76,13.7a5.34,5.34,0,0,0,.42.91c.28.52.54,1,.71,1.37a4.3,4.3,0,0,1,.2.57,2.59,2.59,0,0,1,.07.55h0A6.55,6.55,0,0,1,71,81.8,9.34,9.34,0,0,1,68.08,85a11.909,11.909,0,0,1-2-.14,3.039,3.039,0,0,1-.8-.18,4.43,4.43,0,0,1-1.16-.5L64,84a1.85,1.85,0,0,1-.52-.56,1,1,0,0,0,.24,0,.91.91,0,0,0,.88-.92.09.09,0,0,1,0-.07,2,2,0,0,1,.1-.68,2.25,2.25,0,0,1,.61-.88,4.24,4.24,0,0,1,1.28-.9l.53-.2h.27a1.4,1.4,0,0,0,.29-.09.9.9,0,0,0,.44-1.18h0l-2.78-5.3a.9.9,0,0,0-1.6.8l1.7,3.26A9.27,9.27,0,0,0,59.86,77l1.6-3a.894.894,0,1,0-1.6-.8l-2.72,5.3h0v.12h0v.3a.06.06,0,0,1,0,.06.06.06,0,0,1,0,.06v.26h.37l.6.22a4.63,4.63,0,0,1,1.4.91,2.85,2.85,0,0,1,.49.7,2.17,2.17,0,0,1,.19.9v.07a.893.893,0,1,0,1.11,1.4,1,1,0,0,0,.25,0v.07a2.07,2.07,0,0,1-.49.49,3.36,3.36,0,0,1-.67.37,5.93,5.93,0,0,1-1.49.38A11.449,11.449,0,0,1,57,85a7.761,7.761,0,0,1-.92-.8,11.75,11.75,0,0,1-2-2.53,7.8,7.8,0,0,1-.66-1.44,4.34,4.34,0,0,1-.23-1.38,3.08,3.08,0,0,1,.22-1.2,3.12,3.12,0,0,1,.27-.43l.4-.49a7.23,7.23,0,0,0,.68-1,2.9,2.9,0,0,0,.28-.65,2.4,2.4,0,0,0,.13-.8h0a2.1,2.1,0,0,0-.09-.61,2.75,2.75,0,0,0-.42-.86,5.09,5.09,0,0,0-.74-.8c-.16-.14-.32-.29-.47-.45A15.91,15.91,0,0,1,51.6,69a11.83,11.83,0,0,1-1.5-5.73,6.3,6.3,0,0,1,.9-3.2,10.21,10.21,0,0,1,4.43-3.85,16.31,16.31,0,0,1,7.08-1.55,15.48,15.48,0,0,1,8.92,2.64A9.19,9.19,0,0,1,74,60.11a6.11,6.11,0,0,1,.9,3.2,11.84,11.84,0,0,1-1.7,6.08A15.47,15.47,0,0,1,71.29,72a6.33,6.33,0,0,0-.8,1,4.111,4.111,0,0,0-.25.61,3.08,3.08,0,0,0-.08.68,2.78,2.78,0,0,0,.2,1Zm-7.38,6a4.27,4.27,0,0,0-.19,1.23v.1h-.54v-.1a4,4,0,0,0-1.18-2.84,4.48,4.48,0,0,0-.94-.8h0a7.24,7.24,0,0,1,2.4-.4,8.18,8.18,0,0,1,2.46.41h0a4.77,4.77,0,0,0-1.4,1.36,3.49,3.49,0,0,0-.6,1Zm-1.19,4.32a3.4,3.4,0,0,0,.7-.55,5,5,0,0,0,2,1.19c.2.07.42.13.64.19a8.7,8.7,0,0,1-5.34,0l.4-.1a6.32,6.32,0,0,0,1.61-.73ZM45,58.21a6.78,6.78,0,0,1-.8-3.2,6.93,6.93,0,0,1,.3-1.92,1.29,1.29,0,0,1,.12-.38,6.73,6.73,0,0,1,1.15-.46A4.33,4.33,0,0,1,47,52.07a4,4,0,0,1,1.78.41A5.93,5.93,0,0,1,50.68,54a6.24,6.24,0,0,1,.5.65l.12.17h0a1.22,1.22,0,0,0,.9.59h0A11.61,11.61,0,0,0,49,58.84a8.77,8.77,0,0,0-1,2.57,9.64,9.64,0,0,1-3-3.17Zm-3.16-14.5a6.88,6.88,0,0,1,1.91-1.1,7.58,7.58,0,0,1,2.74-.49,11,11,0,0,1,4.08.85h.06a7.63,7.63,0,0,1,.28,2.18,13.9,13.9,0,0,1-.21,2.22,1.18,1.18,0,0,0,1,1.36h.05a1.2,1.2,0,0,0,1.38-1,15.881,15.881,0,0,0,.2-1.6v-1a8.87,8.87,0,0,0-.8-4,6.26,6.26,0,0,0-1.39-1.91,7.32,7.32,0,0,0-.87-.69A7.18,7.18,0,0,1,53,38a8.26,8.26,0,0,1,2.74.56,11.37,11.37,0,0,1,3.2,1.94l.06.05a9.49,9.49,0,0,1-1.28,4.17,1.19,1.19,0,0,0,2.1,1.12,13.851,13.851,0,0,0,.69-1.46,10.18,10.18,0,0,0,.83-4,6.87,6.87,0,0,0-.53-2.72,6.3,6.3,0,0,0-.86-1.46h.48a7.18,7.18,0,0,1,3.43.86,10.16,10.16,0,0,1,3.76,3.69v.05c-.08.2-.16.42-.27.64a10.72,10.72,0,0,1-2.24,2.94,1.19,1.19,0,1,0,1.51,1.84.859.859,0,0,0,.14-.13A13.479,13.479,0,0,0,67.82,45a11.36,11.36,0,0,0,1.6-2.45,7.49,7.49,0,0,0,.8-3.24,6.3,6.3,0,0,0-.28-1.88,1,1,0,0,0-.13-.38,7.111,7.111,0,0,1,1.36.49,7.26,7.26,0,0,1,2.55,2,10.91,10.91,0,0,1,2,4.16.09.09,0,0,0,0,.07c-.11.14-.24.3-.38.45a10.4,10.4,0,0,1-3.11,2.18,1.18,1.18,0,0,0,1.08,2.08,11,11,0,0,0,1.42-.8,15.1,15.1,0,0,0,1.39-1,8.47,8.47,0,0,0,2.35-2.93A6.48,6.48,0,0,0,79.08,41v-.27l.4.27a7.25,7.25,0,0,1,2.13,2.44,9.46,9.46,0,0,1,1,4.58v1l-.39.25a8.26,8.26,0,0,1-1.83.8h-.16a7.22,7.22,0,0,0-1.9-.28,6.78,6.78,0,0,0-2.8.64,8.44,8.44,0,0,0-2.66,2,9.71,9.71,0,0,0-1,1.24,1.21,1.21,0,0,0,0,1.22,13.331,13.331,0,0,0-1.34-.73,18.44,18.44,0,0,0-8.1-1.78,18.21,18.21,0,0,0-9,2.28,1.19,1.19,0,0,0-.1-1h0a9.1,9.1,0,0,0-1.6-2,7.89,7.89,0,0,0-2-1.35,6.68,6.68,0,0,0-2.6-.64h-.32A11.17,11.17,0,0,0,46,47.46a7.88,7.88,0,0,0-1.52-2A6.73,6.73,0,0,0,42,43.89l-.28-.08ZM35.5,51a7.14,7.14,0,0,1,2.4-2.14,9.5,9.5,0,0,1,4.59-1h.94c.09.12.17.25.26.39a8.49,8.49,0,0,1,.8,1.86A9.85,9.85,0,0,0,43,50.8l-.1.07a1.26,1.26,0,0,0-.36.43,6.87,6.87,0,0,0-.4,1.1,9.35,9.35,0,0,0-.36,2.6v.13c-.19-.27-.39-.54-.61-.8A8.35,8.35,0,0,0,38.28,52a6.44,6.44,0,0,0-2.77-.62h-.27l.27-.36ZM93.06,76.7a7.19,7.19,0,0,1-2,2.53,10.54,10.54,0,0,1-4.14,2h-.06a4.88,4.88,0,0,1-.45-.37,10.26,10.26,0,0,1-2.19-3.11,1.19,1.19,0,0,0-2.13,1,10.879,10.879,0,0,0,.8,1.41,12.939,12.939,0,0,0,.93,1.39A8.39,8.39,0,0,0,86.72,84a6.62,6.62,0,0,0,2.77.61h.27a3.39,3.39,0,0,1-.27.39,7.14,7.14,0,0,1-2.4,2.14,9.59,9.59,0,0,1-4.58,1h-1l-.25-.39A10.15,10.15,0,0,1,80.1,84a1.211,1.211,0,1,0-2.4.32h0c.08.56.18,1.08.3,1.6a11,11,0,0,0,1,2.63,7.62,7.62,0,0,0,1.54,2A6.48,6.48,0,0,0,83,92.13l.28.08-.13.11a7.14,7.14,0,0,1-1.91,1.1,7.75,7.75,0,0,1-2.73.49,11.3,11.3,0,0,1-4.09-.86H74.4a7.31,7.31,0,0,1-.3-2.18,11.732,11.732,0,0,1,.21-2.21,1.18,1.18,0,0,0-1-1.36H73.3a1.19,1.19,0,0,0-1.39,1c-.1.56-.16,1.09-.2,1.6v1a8.87,8.87,0,0,0,.8,4,6.7,6.7,0,0,0,1.39,1.9,6.5,6.5,0,0,0,.87.7,7.36,7.36,0,0,1-2.7.52,7.69,7.69,0,0,1-2.76-.53,11.11,11.11,0,0,1-3.2-1.93h0a9.52,9.52,0,0,1,1.27-4.18,1.19,1.19,0,1,0-2-1.24.75.75,0,0,0-.07.12,14.919,14.919,0,0,0-.68,1.46,10.38,10.38,0,0,0-.87,4,6.87,6.87,0,0,0,.53,2.72,6.51,6.51,0,0,0,.86,1.46h-.48a7.18,7.18,0,0,1-3.43-.86,10.18,10.18,0,0,1-3.75-3.68.431.431,0,0,0,0-.07c.08-.2.16-.41.26-.63a10.72,10.72,0,0,1,2.24-2.94A1.209,1.209,0,1,0,58.29,90l-.08.08a13.439,13.439,0,0,0-1.1,1.16,12.08,12.08,0,0,0-1.6,2.46,7.57,7.57,0,0,0-.8,3.2A6.761,6.761,0,0,0,55,98.74a1.046,1.046,0,0,0,.13.36,6.67,6.67,0,0,1-1.36-.48,7.22,7.22,0,0,1-2.54-2,10.7,10.7,0,0,1-2-4.18v-.06c.11-.15.24-.3.37-.45a10.53,10.53,0,0,1,3.11-2.18,1.21,1.21,0,0,0-1-2.19h0a13.229,13.229,0,0,0-1.42.8,12.2,12.2,0,0,0-1.39,1,8.22,8.22,0,0,0-2.35,2.91A6.48,6.48,0,0,0,45.92,95v.27l-.4-.27a7.22,7.22,0,0,1-2.13-2.4,9.64,9.64,0,0,1-1-4.62v-.94l.39-.26a10.28,10.28,0,0,1,3.77-1.2,1.211,1.211,0,1,0-.33-2.4c-.56.08-1.08.18-1.6.3a11.561,11.561,0,0,0-2.62.95,7.71,7.71,0,0,0-2,1.49,6.65,6.65,0,0,0-1.55,2.54,1.38,1.38,0,0,1-.08.27l-.1-.12a7.19,7.19,0,0,1-1.1-1.92A7.62,7.62,0,0,1,36.61,84a11.26,11.26,0,0,1,.86-4.09v-.06a7.11,7.11,0,0,1,2.15-.29,11.731,11.731,0,0,1,2.21.21,1.194,1.194,0,1,0,.42-2.35h0c-.56-.1-1.09-.16-1.6-.2h-1a9.07,9.07,0,0,0-4,.8A6.58,6.58,0,0,0,33,80.29a7.29,7.29,0,0,1-.51-2.68A7.87,7.87,0,0,1,33,74.85a11.58,11.58,0,0,1,2-3.2v-.06a9.33,9.33,0,0,1,4.18,1.28,1.19,1.19,0,1,0,1.24-2l-.12-.07a14.131,14.131,0,0,0-1.4-.71,10.38,10.38,0,0,0-4-.87,6.87,6.87,0,0,0-2.72.53,5.82,5.82,0,0,0-1.46.87h0a3.84,3.84,0,0,1,0-.48,7.18,7.18,0,0,1,.86-3.43,10.16,10.16,0,0,1,3.69-3.76h0a5.11,5.11,0,0,1,.64.27,10.46,10.46,0,0,1,2.94,2.22,1.19,1.19,0,0,0,1.71-1.65c-.37-.38-.76-.75-1.17-1.1A11.74,11.74,0,0,0,37,61.06a7.6,7.6,0,0,0-3.2-.8,6.7,6.7,0,0,0-1.89.28l-.37.13A7.36,7.36,0,0,1,32,59.31a7.26,7.26,0,0,1,2-2.55,10.85,10.85,0,0,1,4.06-2h.06c.15.12.3.24.45.38a10.26,10.26,0,0,1,2.19,3.11,1.2,1.2,0,0,0,1.6.55l.14-.09a10.78,10.78,0,0,0,2.76,3.69,15.12,15.12,0,0,0,2.47,1.82,14.17,14.17,0,0,0,1.79,6,17.62,17.62,0,0,0,2,2.9,4.679,4.679,0,0,0,.55.54l.33.31a1.61,1.61,0,0,1,.24.28h0a.08.08,0,0,1,0,.07,1.07,1.07,0,0,1-.16.32,9.339,9.339,0,0,1-.64.8c-.12.16-.27.34-.4.53a3.61,3.61,0,0,0-.36.67,5.49,5.49,0,0,0-.42,2.12A7.23,7.23,0,0,0,51.09,81a11.07,11.07,0,0,0,1.41,2.76,14.5,14.5,0,0,0,1.88,2.19,11.91,11.91,0,0,0,3.72,2.47,11.53,11.53,0,0,0,4.41.88,11.77,11.77,0,0,0,4.1-.8,13,13,0,0,0,5.23-3.71A10.42,10.42,0,0,0,73.52,82a8.81,8.81,0,0,0,.63-3.2h0A4.17,4.17,0,0,0,74,77.61a7.071,7.071,0,0,0-.52-1.39c-.21-.4-.43-.8-.61-1.12a3.47,3.47,0,0,1-.26-.55.54.54,0,0,1,0-.22v-.06a2.118,2.118,0,0,1,.11-.21,4,4,0,0,1,.37-.45,18.7,18.7,0,0,0,2.2-3,14.5,14.5,0,0,0,2-6.23c.33-.19.65-.38,1-.58a12.38,12.38,0,0,0,4.24-4.45,8.25,8.25,0,0,0,.37-.8,14.51,14.51,0,0,0,1.53.19h1a9.21,9.21,0,0,0,4-.8,6.84,6.84,0,0,0,1.9-1.39,8.351,8.351,0,0,0,.69-.88,7.39,7.39,0,0,1,.54,2.66A7.69,7.69,0,0,1,92,61.17a11.48,11.48,0,0,1-2,3.2h0a9.57,9.57,0,0,1-4.25-1.21,1.19,1.19,0,1,0-1.24,2l.12.07c.5.26,1,.49,1.45.68a10.28,10.28,0,0,0,4,.87,6.83,6.83,0,0,0,2.72-.53,6.74,6.74,0,0,0,1.47-.86h0V66a7.192,7.192,0,0,1-.871,3.431A10.18,10.18,0,0,1,89.72,73.18h-.06a4.391,4.391,0,0,1-.63-.26,10.77,10.77,0,0,1-3-2.24,1.192,1.192,0,0,0-1.71,1.66,13.482,13.482,0,0,0,1.17,1.1A12,12,0,0,0,88.07,75a7.6,7.6,0,0,0,3.2.8,6.37,6.37,0,0,0,1.89-.29,1.23,1.23,0,0,0,.37-.12,7.1,7.1,0,0,1-.47,1.34Zm-32-9.7a6.13,6.13,0,0,1,.58,2.73,10.519,10.519,0,0,1-.07,1.12.89.89,0,0,1-1,.75.88.88,0,0,1-.76-1v-.92a5.53,5.53,0,0,0-.1-1.22,3.37,3.37,0,0,0-.35-.88,2.86,2.86,0,0,0-1.18-1.08,3.78,3.78,0,0,0-1.1-.38A7.06,7.06,0,0,0,55.42,66a13,13,0,0,0-2.07.18h-.08a8,8,0,0,0-.85.19h0a.91.91,0,0,1-1.18-.49.88.88,0,0,1,.48-1.17.79.79,0,0,1,.22-.06,9.181,9.181,0,0,1,1-.23,13.911,13.911,0,0,1,2.4-.22,8.88,8.88,0,0,1,2.3.27A5.44,5.44,0,0,1,60,65.61,4.63,4.63,0,0,1,61.07,67Zm10.4-1a12.46,12.46,0,0,0-2.11-.2,7.32,7.32,0,0,0-1.86.21,3.71,3.71,0,0,0-1.5.74,2.56,2.56,0,0,0-.68.85,4.33,4.33,0,0,0-.4,1.94v.9a.89.89,0,0,1-.89.9.88.88,0,0,1-.88-.69,8.269,8.269,0,0,1-.07-1.11,6.65,6.65,0,0,1,.18-1.66,4.86,4.86,0,0,1,.55-1.36,4.65,4.65,0,0,1,1.89-1.76,6.38,6.38,0,0,1,1.54-.53A9.33,9.33,0,0,1,69.34,64a14.88,14.88,0,0,1,2.4.22c.62.11,1,.22,1.05.22a.9.9,0,0,1-.48,1.73H72.1a2.8,2.8,0,0,1-.64-.13Zm-7.92-7.86H60.77l-.68.06-.67.07-1.27.16L57,58.65l-1.75.3-.68.12a4.36,4.36,0,0,1,.53-.45,10.51,10.51,0,0,1,4-1.8,13,13,0,0,1,3-.46,13.211,13.211,0,0,1,1.54,0,12.331,12.331,0,0,1,1.48.24l.69.18.65.22.6.25c.19.08.36.18.54.27a5.461,5.461,0,0,1,.48.27l.42.27c.24.19.46.35.63.5l.38.35.13.14h-.18L69,58.93l-.8-.18-.46-.1-.5-.1-1.11-.18-.61-.08-.64-.07h-.66Z"/>
      </g>
    </g>
  </g>
</svg>
