<svg xmlns="http://www.w3.org/2000/svg" xmlns:xlink="http://www.w3.org/1999/xlink" width="125" height="136" viewBox="0 0 125 136"><defs><style>.a{fill:none;}.b,.d{isolation:isolate;}.c{fill:url(#a);}.d{fill:#1f1e34;mix-blend-mode:soft-light;}</style><linearGradient id="a" y1="0.5" x2="1" y2="0.5" gradientUnits="objectBoundingBox"><stop offset="0.01" stop-color="#deabb0"/><stop offset="0.17" stop-color="#eeb8b7"/><stop offset="0.38" stop-color="#cf979f"/><stop offset="0.6" stop-color="#ca9297"/><stop offset="0.87" stop-color="#f3bcbb"/><stop offset="1" stop-color="#f5dfdf"/></linearGradient></defs><rect class="a" width="125" height="136"/><g class="b" transform="translate(0.5 2)"><circle class="c" cx="50" cy="50" r="50" transform="translate(12.5 18)"/><path class="d" d="M32.5,57.68l-.14.14A1.54,1.54,0,0,0,31.88,59a1.57,1.57,0,0,0,.14.64,1.78,1.78,0,0,0,.28.45,2.77,2.77,0,0,0,.67.56,7.67,7.67,0,0,0,1.52.68c.82.27,1.65.5,2.5.69a11.6,11.6,0,0,0,2.63.31,8.57,8.57,0,0,0,2.88-.47h.08v.35a8.34,8.34,0,0,0,.33,2.32A12,12,0,0,0,44.1,67.2a17.86,17.86,0,0,0,2.06,3,5,5,0,0,0,.8.73,2.62,2.62,0,0,0,.48.22,1.585,1.585,0,0,0,1.02.03,1.61,1.61,0,0,0,.89-.71,2,2,0,0,0,.13-.25,10.61,10.61,0,0,0,1.94-6.08,10.78,10.78,0,0,0-1.1-4.7c-.09-.18-.19-.35-.29-.53a10.341,10.341,0,0,1,1.43-.56,11.32,11.32,0,0,1,3.27-.45,8.79,8.79,0,0,1,1.36.07,19.41,19.41,0,0,1-1,2.48,5.41,5.41,0,0,0-.34.87,2.7,2.7,0,0,0-.14.85,2,2,0,0,0,.13.72,1.53,1.53,0,0,0,.31.52,1.76,1.76,0,0,0,.72.48,2.28,2.28,0,0,0,.73.12,2.039,2.039,0,0,0,.69-.08,7.39,7.39,0,0,0,1.27-.45A15.07,15.07,0,0,0,60.87,62a20.5,20.5,0,0,0,2.7-2.4c1.1.33,2.21.67,3.33,1a29.73,29.73,0,0,0,8,1.35,14.26,14.26,0,0,0,5.77-1.15A9.23,9.23,0,0,0,83,59.34a8.2,8.2,0,0,0,2.19-3.08,9.27,9.27,0,0,0,.7-3.6,11,11,0,0,0-1.28-5.1,10.33,10.33,0,0,0-3.65-4,19.511,19.511,0,0,0-3.2-1.6c-.59-.46-3.1-2.4-6-4.33a50,50,0,0,0-5.24-3.09,23.09,23.09,0,0,0-2.52-1,7.55,7.55,0,0,0-2.3-.43,3.22,3.22,0,0,0-1.15.18,2.45,2.45,0,0,0-1,.65,3.34,3.34,0,0,0-.76,1.23,3.55,3.55,0,0,0-.18,1.21,6.181,6.181,0,0,0,0,1,8.27,8.27,0,0,1,0,.86,4.1,4.1,0,0,1-.16,1,6,6,0,0,1-1,2.13,17.44,17.44,0,0,1-3,3A29.61,29.61,0,0,0,49,48.23a36,36,0,0,0-3.35,3.41,24.311,24.311,0,0,0-1.75,2.29,10.23,10.23,0,0,0-3-.42,10.54,10.54,0,0,0-8.41,4.17Zm28-17a6.62,6.62,0,0,0,.5-2.52,7.81,7.81,0,0,0-.05-1.08,3.78,3.78,0,0,1,0-.75,1.38,1.38,0,0,1,0-.45,1,1,0,0,1,.23-.34.21.21,0,0,1,.1-.06,1.2,1.2,0,0,1,.38,0,5.12,5.12,0,0,1,1.6.32,23.44,23.44,0,0,1,4,1.92c1.54.87,3.11,1.9,4.52,2.87a23.259,23.259,0,0,0-2.5-.13A29.67,29.67,0,0,0,59.9,42a8,8,0,0,0,.6-1.28ZM40.94,55.92a7.86,7.86,0,0,1,1.81.21,1.18,1.18,0,0,0,1.07,1.29,1.16,1.16,0,0,0,1.08-.49l.21.13-.2-.14a.51.51,0,0,0,.09-.16,17.67,17.67,0,0,1,2.45-3.55A36.368,36.368,0,0,1,50.58,50a28.48,28.48,0,0,1,8.58-5.21,27.9,27.9,0,0,1,10.09-2,21.75,21.75,0,0,1,5.45.67,17.81,17.81,0,0,1,5,2.12,7.71,7.71,0,0,1,2.81,3,8.59,8.59,0,0,1,1,4,7.58,7.58,0,0,1-.35,2.27l-3.58,1.22a.893.893,0,1,0,.58,1.69l1.51-.51a2.611,2.611,0,0,1-.24.22,6.42,6.42,0,0,1-1.73,1.07,12.14,12.14,0,0,1-4.8,1,10.92,10.92,0,0,1-1.51-.08,8,8,0,0,1-1.32-1.4,7.87,7.87,0,0,1-1.55-4.8,11.13,11.13,0,0,1,.38-2.76.88.88,0,0,0-.66-1.07.89.89,0,0,0-1.06.61,12.35,12.35,0,0,0-.44,3.2,9.51,9.51,0,0,0,1.84,5.78L70.1,59c-1.6-.36-3.2-.81-4.8-1.33a10.26,10.26,0,0,0,.7-1.11,8.78,8.78,0,0,0,.88-2.24A1.2,1.2,0,0,0,66,52.89a1.28,1.28,0,0,0-1,.2,1.19,1.19,0,0,0-.46.72,7.63,7.63,0,0,1-1.32,2.66,17.31,17.31,0,0,1-3.78,3.67,11.11,11.11,0,0,1-1.84,1.11l-.25.11a20.9,20.9,0,0,0,1.32-3.51c.22-.8.37-1.51.49-2.14a18.48,18.48,0,0,1,.47-2.21,3.07,3.07,0,0,1,.29-.64,1.82,1.82,0,0,1,.36-.42H61a12.06,12.06,0,0,1,1.7.14l.62.1h.24a1.2,1.2,0,0,0,.9-.19,1.23,1.23,0,0,0,.47-.73,1.19,1.19,0,0,0-.94-1.4s-.41-.08-1-.16A15.29,15.29,0,0,0,61,50a5.66,5.66,0,0,0-1.09.08,1.73,1.73,0,0,0-.55.15,2.32,2.32,0,0,0-.59.34,4.6,4.6,0,0,0-.8.9,5.48,5.48,0,0,0-.47.9,8.84,8.84,0,0,0-.45,1.6c-.1.5-.2,1-.3,1.6a16,16,0,0,0-2-.1,13.59,13.59,0,0,0-3.95.54,13,13,0,0,0-3.8,1.9,1.28,1.28,0,0,0-.28.29L46,57.68a7.918,7.918,0,0,1,.69.61A1.18,1.18,0,0,0,48,60l.22.42a8.21,8.21,0,0,1,.85,3.64,8.11,8.11,0,0,1-1.25,4.33c-.14-.16-.3-.37-.5-.64a20.789,20.789,0,0,1-1.17-1.83,8.84,8.84,0,0,1-.93-2.14A5.83,5.83,0,0,1,45,62.1a4.83,4.83,0,0,1,.49-2.1,2.371,2.371,0,0,1,.15-.28,5,5,0,0,0,.43-.6,1.18,1.18,0,0,0-.3-1.52h0a1.19,1.19,0,0,0-1.6.13,6.41,6.41,0,0,0-.45.58,3.55,3.55,0,0,1-.7.64,5,5,0,0,1-1.32.68,6.85,6.85,0,0,1-2,.3,9.89,9.89,0,0,1-2.1-.26,18.9,18.9,0,0,1-2-.54c-.27-.09-.53-.19-.8-.31A8.2,8.2,0,0,1,41,55.89Zm8.2-2.64-.24.19a9.291,9.291,0,0,1,.7-.95A21.46,21.46,0,0,1,53.39,49a19.229,19.229,0,0,1,2-1.28,23.219,23.219,0,0,1,2.23-1.12l.59-.26c.2-.09.41-.16.61-.23.4-.16.8-.29,1.23-.43s.85-.22,1.27-.33.85-.19,1.27-.26a17.31,17.31,0,0,1,2.48-.3,16.781,16.781,0,0,1,2.35.07l1.08.12,1,.19.47.11.44.11.8.23.69.25a4.53,4.53,0,0,1,.57.23l.8.36.27.13h-.3a8,8,0,0,1-.84-.11,2.212,2.212,0,0,1-.61-.06L71,46.34a4.25,4.25,0,0,1-.8-.05,3.83,3.83,0,0,0-.89,0h-2a17.631,17.631,0,0,0-2.18.17h-.29l-.29.05-.57.08a3.7,3.7,0,0,0-.58.1l-.58.1c-.39.08-.8.2-1.17.28a9.211,9.211,0,0,0-1.17.33c-.37.13-.8.23-1.15.38l-.57.2-.56.21-.55.23-.55.23-1.06.48c-.7.34-1.35.67-2,1s-1.2.67-1.74,1-1,.65-1.46.9a8,8,0,0,0-1.08.75ZM75,49.86a.9.9,0,0,1,.07-1.26,4.291,4.291,0,0,1,.48-.36,4.8,4.8,0,0,1,1.17-.54,3.78,3.78,0,0,1,1.11-.17,3.6,3.6,0,0,1,1.86.52,5.48,5.48,0,0,1,1.75,1.77.9.9,0,0,1-.26,1.24A.87.87,0,0,1,80,50.81h0a3.5,3.5,0,0,0-1.19-1.2,1.76,1.76,0,0,0-1.51-.19,3.07,3.07,0,0,0-.5.2,3.27,3.27,0,0,0-.5.32h0a.91.91,0,0,1-1.3-.09Zm4.37,34.46A24.307,24.307,0,0,0,81.14,82a10.61,10.61,0,0,0,7.66-.68,10.32,10.32,0,0,0,3.7-3,.64.64,0,0,0,.15-.13A1.51,1.51,0,0,0,93,76.4a1.78,1.78,0,0,0-.28-.45,2.77,2.77,0,0,0-.67-.56,7.14,7.14,0,0,0-1.52-.68A22.058,22.058,0,0,0,88,74a11.74,11.74,0,0,0-2.63-.31,8.53,8.53,0,0,0-2.88.47H82.4v-.35a8.68,8.68,0,0,0-.29-2.32,11.76,11.76,0,0,0-1.19-2.72,18.531,18.531,0,0,0-2.07-3,3.86,3.86,0,0,0-.84-.72,2.12,2.12,0,0,0-.48-.23,1.78,1.78,0,0,0-.56-.1,1.47,1.47,0,0,0-.46.07,1.59,1.59,0,0,0-.63.39,1.35,1.35,0,0,0-.26.32,2,2,0,0,0-.13.25,10.55,10.55,0,0,0-.8,10.79l.28.52a8.7,8.7,0,0,1-1.42.55,11.28,11.28,0,0,1-3.27.45A10.241,10.241,0,0,1,68.91,78a18.308,18.308,0,0,1,1-2.48,5.409,5.409,0,0,0,.34-.87,2.83,2.83,0,0,0,.14-.87,1.94,1.94,0,0,0-.13-.71,1.84,1.84,0,0,0-.31-.52,1.76,1.76,0,0,0-.72-.48A2.21,2.21,0,0,0,68.5,72a2.71,2.71,0,0,0-.69.08,6.37,6.37,0,0,0-1.27.44A15.07,15.07,0,0,0,64.14,74a19.81,19.81,0,0,0-2.7,2.4c-1.1-.34-2.21-.68-3.33-1a29.52,29.52,0,0,0-7.92-1.33,14.17,14.17,0,0,0-5.85,1.14A8.49,8.49,0,0,0,42,76.65a8.31,8.31,0,0,0-2.2,3.08,9.29,9.29,0,0,0-.7,3.61,11.11,11.11,0,0,0,1.28,5.1,10.3,10.3,0,0,0,3.64,4,21.241,21.241,0,0,0,3.2,1.6c.6.45,3.1,2.4,6,4.33a51.11,51.11,0,0,0,5.25,3.08A19.059,19.059,0,0,0,61,102.51a7.55,7.55,0,0,0,2.3.43,3.51,3.51,0,0,0,1.16-.17,2.6,2.6,0,0,0,1-.66,3.2,3.2,0,0,0,.8-1.22,3.93,3.93,0,0,0,.19-1.22,5.16,5.16,0,0,0-.06-1,8.434,8.434,0,0,1,0-.86,4.83,4.83,0,0,1,.12-1.08,6,6,0,0,1,1.06-2.12,17.1,17.1,0,0,1,3-3,29.211,29.211,0,0,0,5.48-3.88,38.511,38.511,0,0,0,3.34-3.42Zm-14.89,11A6.82,6.82,0,0,0,64,97.84a5.38,5.38,0,0,0,0,1.06,4.25,4.25,0,0,1,.05.8,1.4,1.4,0,0,1-.06.45.83.83,0,0,1-.22.34l-.1.06a1.65,1.65,0,0,1-.38,0,5.76,5.76,0,0,1-1.6-.32,23.83,23.83,0,0,1-4-1.92c-1.53-.88-3.11-1.9-4.52-2.88a23.129,23.129,0,0,0,2.5.13A29.56,29.56,0,0,0,65.1,94a9.11,9.11,0,0,0-.6,1.27ZM74.42,86a28.6,28.6,0,0,1-8.57,5.24,27.89,27.89,0,0,1-10.09,2,21.889,21.889,0,0,1-5.46-.67,18.2,18.2,0,0,1-5-2.11,7.85,7.85,0,0,1-2.8-3.06,8.59,8.59,0,0,1-1-4,7,7,0,0,1,.35-2.27l3.57-1.22a.892.892,0,1,0-.54-1.7h0l-1.51.52a2.612,2.612,0,0,1,.24-.23,6.52,6.52,0,0,1,1.72-1.07,12.11,12.11,0,0,1,4.86-1,9.491,9.491,0,0,1,1.51.08,8.14,8.14,0,0,1,2.4,3.42,8,8,0,0,1,.47,2.78,10.32,10.32,0,0,1-.38,2.76.88.88,0,0,0,.61,1.09h0a.9.9,0,0,0,1.1-.63,12.86,12.86,0,0,0,.44-3.2,9.83,9.83,0,0,0-.67-3.64A9.64,9.64,0,0,0,54.48,77l.47.1q2.4.54,4.8,1.32c-.24.36-.47.72-.68,1.08a8.27,8.27,0,0,0-.87,2.24,1.16,1.16,0,0,0,.88,1.41h0a1.2,1.2,0,0,0,1.4-.93,7.33,7.33,0,0,1,1.32-2.65,16.87,16.87,0,0,1,3.77-3.68,12,12,0,0,1,1.85-1.13l.25-.1a20.9,20.9,0,0,0-1.32,3.51c-.22.8-.37,1.51-.49,2.15a18.32,18.32,0,0,1-.47,2.2,2.85,2.85,0,0,1-.29.64,1.82,1.82,0,0,1-.36.42h-.22a4.859,4.859,0,0,1-.54,0,12.062,12.062,0,0,1-1.7-.14l-.62-.1h-.24A1.19,1.19,0,0,0,61,85.65s.42.08,1,.16A15.29,15.29,0,0,0,64,86a5,5,0,0,0,1.09-.09,3.41,3.41,0,0,0,.55-.14,2.11,2.11,0,0,0,.58-.34,4,4,0,0,0,.8-.9,4.85,4.85,0,0,0,.48-.9A9.26,9.26,0,0,0,68,82c.1-.51.19-1,.3-1.6a18.188,18.188,0,0,0,2,.1,13.73,13.73,0,0,0,4-.47A12.77,12.77,0,0,0,78,78.09a1.28,1.28,0,0,0,.28-.29l.74.52a7.918,7.918,0,0,1-.69-.61A1.18,1.18,0,0,0,77,76l-.22-.42a8.16,8.16,0,0,1,.41-8c.13.16.3.37.5.64a20.472,20.472,0,0,1,1.17,1.84,9.28,9.28,0,0,1,.94,2.14,6.18,6.18,0,0,1,.2,1.7,4.7,4.7,0,0,1-.48,2.15c0,.1-.1.2-.15.28a5,5,0,0,0-.43.6,1.19,1.19,0,0,0,.26,1.46h0a1.18,1.18,0,0,0,1.64-.09,4.1,4.1,0,0,0,.45-.58,3.86,3.86,0,0,1,.7-.64,4.8,4.8,0,0,1,1.32-.66,6,6,0,0,1,2-.32,10,10,0,0,1,2.1.25c.85.2,1.51.38,2,.55a6,6,0,0,1,.8.3,8.16,8.16,0,0,1-8.05,2.68,1.19,1.19,0,0,0-2.15-.83l-.21-.12.2.14-.09.16a18,18,0,0,1-2.45,3.55A34.353,34.353,0,0,1,74.44,86Zm1.44-3.2.25-.19c-.22.32-.45.64-.7.94a18.8,18.8,0,0,1-2.1,2.18,18.152,18.152,0,0,1-1.6,1.3,22.44,22.44,0,0,1-1.95,1.27,19.518,19.518,0,0,1-2.23,1.14l-.59.26-.61.23c-.41.16-.8.29-1.23.42s-.85.23-1.27.34-.85.18-1.27.25a17.509,17.509,0,0,1-2.5.26,18.45,18.45,0,0,1-2.35-.06L56.63,91l-1-.19-.47-.11-.44-.11c-.28-.08-.55-.14-.8-.23l-.69-.24c-.21-.08-.4-.15-.57-.23l-.8-.36-.27-.14h.3a8,8,0,0,1,.84.11,1.909,1.909,0,0,1,.61.07l.7.07a7,7,0,0,0,.8,0,8.221,8.221,0,0,0,.89,0h2a17.629,17.629,0,0,0,2.18-.17h.58l.58-.09a3.78,3.78,0,0,0,.57-.1l.59-.11c.39-.08.8-.19,1.16-.28s.8-.2,1.17-.32.8-.24,1.15-.38l.57-.2.56-.22.56-.22.55-.23,1-.48c.7-.33,1.36-.67,2-1s1.2-.67,1.73-1,1-.66,1.4-.9l1.08-.8ZM50,86.14a.91.91,0,0,1-.08,1.26,4.29,4.29,0,0,1-.48.36,4.9,4.9,0,0,1-1.16.54,4.28,4.28,0,0,1-1.12.17A3.67,3.67,0,0,1,45.3,88a5.51,5.51,0,0,1-1.75-1.78.9.9,0,1,1,1.5-1,3.79,3.79,0,0,0,1.19,1.2,1.84,1.84,0,0,0,.95.27,1.88,1.88,0,0,0,.57-.09,3.47,3.47,0,0,0,.5-.2,3.839,3.839,0,0,0,.5-.32h0a.91.91,0,0,1,1.26.08Z"/></g></svg>