<svg xmlns="http://www.w3.org/2000/svg" xmlns:xlink="http://www.w3.org/1999/xlink" width="125" height="136" viewBox="0 0 125 136"><defs><style>.a{fill:none;}.b,.d{isolation:isolate;}.c{fill:url(#a);}.d{fill:#1f1e34;mix-blend-mode:soft-light;}</style><linearGradient id="a" y1="0.5" x2="1" y2="0.5" gradientUnits="objectBoundingBox"><stop offset="0.01" stop-color="#d18566"/><stop offset="0.04" stop-color="#d89676"/><stop offset="0.12" stop-color="#ebc39f"/><stop offset="0.18" stop-color="#fae8c2"/><stop offset="0.22" stop-color="#e9ccae"/><stop offset="0.27" stop-color="#dcb7a0"/><stop offset="0.32" stop-color="#d5ab97"/><stop offset="0.36" stop-color="#d2a794"/><stop offset="0.61" stop-color="#e4b695"/><stop offset="0.82" stop-color="#efd1ac"/><stop offset="0.87" stop-color="#e8c09c"/><stop offset="0.96" stop-color="#d79373"/><stop offset="0.99" stop-color="#d18566"/></linearGradient></defs><rect class="a" width="125" height="136"/><g class="b" transform="translate(0.5 2)"><circle class="c" cx="50" cy="50" r="50" transform="translate(12.5 18)"/><path class="d" d="M33,40.88,50.3,75.34A6.1,6.1,0,0,0,44.82,77l-4.18,4.17a1.2,1.2,0,0,0,0,1.68h0l6.93,6.93a1.13,1.13,0,0,0,1.6,0h0l4.21-4.2a6.08,6.08,0,0,0,1.67-5.51l34.46,17.3h0a30,30,0,0,0,2.7,2,1.192,1.192,0,1,0,1.48-1.87.91.91,0,0,0-.16-.11,19.82,19.82,0,0,1-5.9-5.78,13.08,13.08,0,0,1-2-7.07,17.75,17.75,0,0,1,.63-4.53c.36-1.34.88-3,1.32-4.75a23.22,23.22,0,0,0,.8-5.44,10.48,10.48,0,0,0-.3-2.62,7.86,7.86,0,0,0-.73-1.83,6.56,6.56,0,0,0-2.14-2.24,9.47,9.47,0,0,0-3.4-1.31,6.57,6.57,0,0,0-1.4-.12,11.44,11.44,0,0,0-2.48.3c-1.21.26-2.4.65-3.46.94a11.45,11.45,0,0,1-3,.52,4.16,4.16,0,0,1-2.28-.59l14-14c0,.35-.07.71-.1,1.06s-.07.92-.1,1.38v2.75c0,.92,0,1.85.07,2.78.31-.88.56-1.78.8-2.67.11-.45.22-.9.33-1.33l.15-.68.14-.67c.09-.45.19-.9.27-1.35L85,48.88c.08-.45.13-.9.21-1.35l.2-1.36v-.25a.88.88,0,0,0-1-.75h0L83,45.36l-1.46.22c-.45.08-.9.15-1.35.24l-1.34.25-1.34.31-1.34.33c-.9.23-1.78.48-2.66.8.93.07,1.85.09,2.77.08h1.39L79,47.52c.47,0,.92-.06,1.38-.1l1.06-.1-14,13.92a4.941,4.941,0,0,1-.33-.7,5.24,5.24,0,0,1-.32-1.84,11.24,11.24,0,0,1,.22-2c.2-1.07.52-2.21.8-3.4a16.649,16.649,0,0,0,.52-3.65,7.66,7.66,0,0,0-.48-2.77,7.15,7.15,0,0,0-1.76-2.58,7.9,7.9,0,0,0-2.92-1.8A9.42,9.42,0,0,0,60,42a20.6,20.6,0,0,0-5.45.92c-1.75.48-3.41,1-4.8,1.4a17.39,17.39,0,0,1-4,.5A13.45,13.45,0,0,1,42,44.26a14,14,0,0,1-4.9-2.68,22.09,22.09,0,0,1-4.2-4.8,1.2,1.2,0,1,0-2,1.32A27.511,27.511,0,0,0,33,40.87ZM46.49,78.69l-.8-.85.8.85a3.69,3.69,0,0,1,4-.8l.25.11L49.3,79.43l-4.38,4.38L43.15,82Zm6.06,4a3.8,3.8,0,0,1-.8,1.22l-3.31,3.34-1.78-1.77L51,81.1l1.4-1.43c0,.08.08.16.11.24a3.74,3.74,0,0,1,0,2.79ZM68.93,65.45a6.81,6.81,0,0,0,2.52.45,10.859,10.859,0,0,0,2.47-.32c1.2-.27,2.36-.65,3.45-1a11.67,11.67,0,0,1,3-.52,5.23,5.23,0,0,1,1,.09,7.22,7.22,0,0,1,2.34.8,4.34,4.34,0,0,1,1.08.88,4.18,4.18,0,0,1,.93,1.72,7.42,7.42,0,0,1,.3,2.3,20,20,0,0,1-.73,4.86c-.4,1.67-.92,3.3-1.3,4.71a20.38,20.38,0,0,0-.72,5.15A15.81,15.81,0,0,0,83.89,89a16.12,16.12,0,0,0,2.28,4.7l5.51,2.77a.89.89,0,0,1,.4,1.19.9.9,0,0,1-.85.49.89.89,0,0,0,.45-1.68L86.17,93.7l-31.8-16-.51-.25h0l.51.25L67.46,64.64A6.79,6.79,0,0,0,68.93,65.45ZM37.42,44.78a15.25,15.25,0,0,0,8.38,2.4,19.17,19.17,0,0,0,4.52-.57c1.6-.39,3.2-1,4.92-1.42a18.13,18.13,0,0,1,4.8-.8,7.05,7.05,0,0,1,2.4.38,5.53,5.53,0,0,1,2,1.27,4.65,4.65,0,0,1,1.18,1.72A5.71,5.71,0,0,1,66,49.64a11.36,11.36,0,0,1-.23,2c-.2,1.07-.51,2.22-.8,3.39a16.141,16.141,0,0,0-.51,3.65A7.57,7.57,0,0,0,65,61.37,6.82,6.82,0,0,0,65.8,63L52.68,76.05l-16-31.77A3.539,3.539,0,0,1,37.42,44.78Zm48.34,8.94,1.38-10.44-10.4,1.38a1.21,1.21,0,0,1-1.36-1,1.23,1.23,0,0,1,1.05-1.36l12-1.6a1.19,1.19,0,0,1,1.33,1,1.6,1.6,0,0,1,0,.31l-1.6,12a1.19,1.19,0,1,1-2.36-.31Z"/></g></svg>