<svg xmlns="http://www.w3.org/2000/svg" xmlns:xlink="http://www.w3.org/1999/xlink" width="125" height="136" viewBox="0 0 125 136"><defs><style>.a{fill:none;}.b,.d{isolation:isolate;}.c{fill:url(#a);}.d{fill:#1f1e34;mix-blend-mode:soft-light;}</style><linearGradient id="a" y1="0.5" x2="1" y2="0.5" gradientUnits="objectBoundingBox"><stop offset="0" stop-color="#b25f65"/><stop offset="0.14" stop-color="#c36c70"/><stop offset="0.22" stop-color="#d07578"/><stop offset="0.51" stop-color="#efaa9f"/><stop offset="0.73" stop-color="#f9aea0"/><stop offset="0.94" stop-color="#fdd8bb"/></linearGradient></defs><rect class="a" width="125" height="136"/><g class="b" transform="translate(0.5 2)"><circle class="c" cx="50" cy="50" r="50" transform="translate(12.5 18)"/><path class="d" d="M43.11,78.28a7.83,7.83,0,0,0,3.27.68,11,11,0,0,0,3.5-.63,16.25,16.25,0,0,0,3.37-1.6c-.07.23-.16.5-.27.8a16.221,16.221,0,0,1-.92,2.14,10.89,10.89,0,0,1-2.4,3.2,6,6,0,0,1-1.65,1,5.31,5.31,0,0,1-2,.39,8.55,8.55,0,0,1-4-1.16,1.17,1.17,0,0,0-1.6.48,1.2,1.2,0,0,0,.49,1.6A11,11,0,0,0,46,86.65a7.51,7.51,0,0,0,2.65-.46,8.229,8.229,0,0,0,1.92-1,11,11,0,0,0,2.48-2.57A17.091,17.091,0,0,0,55,79a11.92,11.92,0,0,0,1.16,1c.05.15.1.3.16.45a15.92,15.92,0,0,0,2.3,4.35,7,7,0,0,0,.93,1,5.06,5.06,0,0,0-.88,1.71,7.6,7.6,0,0,0-.31,2.23,8.84,8.84,0,0,0,.24,2,7.411,7.411,0,0,0,.25.8,8.54,8.54,0,0,0-.8,1.6,12,12,0,0,0-.36,1.16H57a8.112,8.112,0,0,0-1.7.18,11.67,11.67,0,0,0-.5-2.18,14.74,14.74,0,0,0-1.94-3.76,13.9,13.9,0,0,0-1.19-1.47,1.19,1.19,0,0,0-2,.91v.26a5.3,5.3,0,0,1-.17,1.25,7.7,7.7,0,0,1-.74,1.78,10.769,10.769,0,0,1-.88,1.35,4.45,4.45,0,0,0-.92,1.06.59.59,0,0,0-.1.17,4.54,4.54,0,0,0,5.84,6.35,5.6,5.6,0,0,0,1.84,1.19,8.31,8.31,0,0,0,2.56.55h.56a6.93,6.93,0,0,0,1.82-.22,4.63,4.63,0,0,0,2.14-1.13,3.39,3.39,0,0,0,.69-1h0a5.77,5.77,0,0,0,1.55-1.36,8.49,8.49,0,0,0,1.32-2.3L64,96.49l1.12.43a7.42,7.42,0,0,0,.52-2.63,4.66,4.66,0,0,0-.23-1.53l.15-.41A8.19,8.19,0,0,0,66,89.7a7.55,7.55,0,0,0-.24-2,5.14,5.14,0,0,0-1-2A7.41,7.41,0,0,0,66,84.38a17.68,17.68,0,0,0,2.08-4,13,13,0,0,0,1.49-1.2c.18.46.4.95.65,1.45a13.16,13.16,0,0,0,3,4,8.61,8.61,0,0,0,2.33,1.48,7.78,7.78,0,0,0,2.94.58,11,11,0,0,0,5.14-1.44A1.2,1.2,0,0,0,82.88,83a1.28,1.28,0,0,0-.38.21,8.68,8.68,0,0,1-4,1.17A5.19,5.19,0,0,1,76.67,84a5.31,5.31,0,0,1-1.35-.72,8.57,8.57,0,0,1-1.94-2A16.25,16.25,0,0,1,71.6,77.8c-.19-.5-.32-.94-.4-1.23a2.17,2.17,0,0,1-.07-.24c.32.22.69.45,1.09.68a16.37,16.37,0,0,0,2.89,1.32,11,11,0,0,0,3.5.63,8.34,8.34,0,0,0,2.17-.29,7.74,7.74,0,0,0,3.16-1.77,11.9,11.9,0,0,0,2.59-3.61,1.2,1.2,0,0,0-.56-1.6,1.18,1.18,0,0,0-1.58.52h0A10.77,10.77,0,0,1,83,74.39a6.1,6.1,0,0,1-2.16,1.71,5.37,5.37,0,0,1-2.27.47,8.3,8.3,0,0,1-2.74-.5,15.21,15.21,0,0,1-3.46-1.75,8.2,8.2,0,0,1-1-.75l-.27-.22-.1-.06h0a1.1,1.1,0,0,0-.64-.28,1.1,1.1,0,0,0,.31-.37,21,21,0,0,0,3.53.31,15.47,15.47,0,0,0,3.26-.32,10.67,10.67,0,0,0,2.57-.87,8.51,8.51,0,0,0,1.78-1.19,7.62,7.62,0,0,0,2-2.84,10.61,10.61,0,0,0,.75-4.13v-.8a1.2,1.2,0,0,0-2.4.12h0v.65a7.59,7.59,0,0,1-.8,3.66,5.22,5.22,0,0,1-1.31,1.64,7,7,0,0,1-2.81,1.34,13.64,13.64,0,0,1-3.12.36,18.121,18.121,0,0,1-2.32-.18l-.68-.1h-.23a.81.81,0,0,0-.31,0,46.329,46.329,0,0,0,.46-5.13,6.641,6.641,0,0,0,1.6-.29,12.34,12.34,0,0,0,3-1.43,18.59,18.59,0,0,0,3-2.32l-.8-.88.8.88a18.31,18.31,0,0,0,3.34-4A10.709,10.709,0,0,0,83,55.19a5.72,5.72,0,0,0,.36-1.91,3.24,3.24,0,0,0-.17-1.12,2.46,2.46,0,0,0-.28-.59l.2-.17a4.2,4.2,0,0,0,.8-1,4.67,4.67,0,0,0,.53-1.4,4.92,4.92,0,0,0,.1-.67h0v-.85a16,16,0,0,0-1.41-6.7,15.35,15.35,0,0,0-2.27-3.52,16.43,16.43,0,0,0-3.56-3.15,11.2,11.2,0,0,0-1.8-1,1.2,1.2,0,0,0-1.38,1.81h0a17,17,0,0,1,2.17,5,12.15,12.15,0,0,1,.25,1.71,6.86,6.86,0,0,1-1.44-.88,6.25,6.25,0,0,1-1.14-1.27A6.83,6.83,0,0,1,73,37.49a1.19,1.19,0,0,0-1.49-.79,1.22,1.22,0,0,0-.74.65,14.407,14.407,0,0,0-.5,1.44,13.55,13.55,0,0,0-.47,3.41,10.7,10.7,0,0,0,.27,2.4,9,9,0,0,0,1.78,3.7,11.16,11.16,0,0,0,4.06,3.08,1.32,1.32,0,0,0,.76.08,1.23,1.23,0,0,0,.74.67c.34.1.68.19,1,.25-.46.6-1,1.27-1.51,2a20.091,20.091,0,0,1-2.21,2.4,19.38,19.38,0,0,1-2.14,1.69,16.713,16.713,0,0,1-1.6,1l-1.07.68-.14.1a7.13,7.13,0,0,0-.8-.85,7.76,7.76,0,0,0-2.58-1.46l.12-.13a5.108,5.108,0,0,0,1.33-3.48,6.24,6.24,0,0,0-.08-1,1.191,1.191,0,1,0-2.35.39,3.791,3.791,0,0,1,0,.58,2.75,2.75,0,0,1-.36,1.37,3.29,3.29,0,0,1-.6.8,4.79,4.79,0,0,1-1,.74l-.31.15h-.35a12.094,12.094,0,0,0-2.082.18l-.188-.15a4.91,4.91,0,0,1-1.33-1,3.7,3.7,0,0,1-.5-.8,2.7,2.7,0,0,1-.19-1,4,4,0,0,1,.05-.6,1.19,1.19,0,0,0-.72-1.52,1.17,1.17,0,0,0-1.52.71,1.32,1.32,0,0,0-.08.44,5.33,5.33,0,0,0-.08,1,5.08,5.08,0,0,0,.66,2.55,6,6,0,0,0,1,1.27h0a8.38,8.38,0,0,0-2.4,1.74,7.781,7.781,0,0,0-.72.89l-.48-.31c-.65-.43-1.4-.88-2.17-1.41a19.8,19.8,0,0,1-2.3-1.8,21.331,21.331,0,0,1-1.84-2c-.4-.5-.8-1-1.13-1.46l-.75-1c.32-.07.65-.16,1-.26a1.23,1.23,0,0,0,.75-.66,1.37,1.37,0,0,0,.75-.09,12.26,12.26,0,0,0,3-2A9.19,9.19,0,0,0,54,46.63,10.16,10.16,0,0,0,54.65,43a13.12,13.12,0,0,0-.48-3.41,9.76,9.76,0,0,0-.49-1.44,1.19,1.19,0,0,0-2.22.13,7,7,0,0,1-1.37,2.5,5.8,5.8,0,0,1-1.23,1.09,6.72,6.72,0,0,1-1,.52,13.59,13.59,0,0,1,.33-1.78,16.74,16.74,0,0,1,1.37-3.54,11.461,11.461,0,0,1,.58-1l.16-.27v-.07h0A1.18,1.18,0,0,0,49,34a12.2,12.2,0,0,0-1.46.8,16.12,16.12,0,0,0-4.75,4.37,14.87,14.87,0,0,0-2,3.94,16.32,16.32,0,0,0-.8,5.23v.8h0a3.82,3.82,0,0,0,.1.69,5.68,5.68,0,0,0,.33,1,6,6,0,0,0,.53.88,4.92,4.92,0,0,0,.63.66,3.879,3.879,0,0,0-.28.58A3.53,3.53,0,0,0,41.08,54a5.67,5.67,0,0,0,.36,1.91,11.54,11.54,0,0,0,1.59,3,20.12,20.12,0,0,0,6.77,5.87,10.75,10.75,0,0,0,2,.8,6.45,6.45,0,0,0,1.85.3h0A37.148,37.148,0,0,0,54,70.23h-.17a19.15,19.15,0,0,1-3.2.3,13.73,13.73,0,0,1-2.78-.28,8.43,8.43,0,0,1-2-.68,5.72,5.72,0,0,1-1.26-.8,5.16,5.16,0,0,1-1.4-2,8.17,8.17,0,0,1-.57-3.2V63a1.2,1.2,0,0,0-2.4-.12h0v.8a10.22,10.22,0,0,0,1,4.8,7.54,7.54,0,0,0,1.91,2.4,9.72,9.72,0,0,0,3.76,1.7,15.45,15.45,0,0,0,3.7.42,19.461,19.461,0,0,0,3.14-.25,1.12,1.12,0,0,0,.47.42,1.46,1.46,0,0,0-.24.17h0A16.4,16.4,0,0,1,51.41,75,13.25,13.25,0,0,1,49,76.11a8.72,8.72,0,0,1-2.63.47,5.72,5.72,0,0,1-1.54-.21,5.29,5.29,0,0,1-2.19-1.23,9.46,9.46,0,0,1-2-2.89,1.19,1.19,0,0,0-2.14,1,12.71,12.71,0,0,0,1.65,2.62,8.5,8.5,0,0,0,3,2.37Zm24-.17a8.62,8.62,0,0,1-1.92,1.08,6.9,6.9,0,0,1-2.66.53,7.588,7.588,0,0,1-2.4-.389A10.43,10.43,0,0,1,57.55,78.08H58a34.495,34.495,0,0,1-1-4.1,23.62,23.62,0,0,0,5.48.67,20.35,20.35,0,0,0,5-.63c-.13.6-.27,1.2-.43,1.77-.21.8-.44,1.56-.69,2.29Zm1-7.48a5.32,5.32,0,0,1-.12.8,16.18,16.18,0,0,1-2.64.66,18,18,0,0,1-2.93.24,20.65,20.65,0,0,1-3-.24,21.741,21.741,0,0,1-2.17-.44l-.73-.2c-.21-1.4-.36-2.78-.45-4.08l.17-.1h0a10.249,10.249,0,0,1,1.6-.93l.49-.23a11.45,11.45,0,0,1,4.39-.94,9.15,9.15,0,0,1,2.89.46,8.77,8.77,0,0,1,1.6.71,10.79,10.79,0,0,1,1.3.8,25.479,25.479,0,0,1-.35,3.49Zm-15.93,28A2.18,2.18,0,0,1,48.58,97a2.28,2.28,0,0,1,.3-1.08h0a2.14,2.14,0,0,1,.54-.62,1.26,1.26,0,0,0,.2-.2,12.82,12.82,0,0,0,1.51-2.41,7.76,7.76,0,0,0,.34-.84,11.83,11.83,0,0,1,1,2.19A8.42,8.42,0,0,1,53,96.75V97h0a.24.24,0,0,1,0,.12h0v.1a2.07,2.07,0,0,1-.72,1.42Zm7.94.66a.63.63,0,0,1-.12.37,1.33,1.33,0,0,1-.28.3,2.41,2.41,0,0,1-.8.4,4.67,4.67,0,0,1-1.34.19h-.42a6.59,6.59,0,0,1-1.45-.26,4,4,0,0,1-1.26-.62,4.33,4.33,0,0,0,.75-1.75h0a6.12,6.12,0,0,1,1.7-.24,3.08,3.08,0,0,1,.43,0h0a6.17,6.17,0,0,1,1.35.24,2.68,2.68,0,0,1,1.17.69,1,1,0,0,1,.23.34.73.73,0,0,1,.06.3h0ZM62.89,96a6.16,6.16,0,0,1-.8,1.55,3.47,3.47,0,0,0-.72-.86,5.2,5.2,0,0,0-1.37-.8,4.92,4.92,0,0,1,.26-.85,4.73,4.73,0,0,1,1.14-1.78,2.25,2.25,0,0,1,.54-.37,1.23,1.23,0,0,1,.42-.1.87.87,0,0,1,.28,0h0a.65.65,0,0,1,.23.15,1.09,1.09,0,0,1,.29.44,2.53,2.53,0,0,1,.13.86,4.75,4.75,0,0,1-.4,1.74Zm.57-5.45h0a3.31,3.31,0,0,0-1.12-.2,3.41,3.41,0,0,0-1.37.3l-.14.06a6.23,6.23,0,0,1-.09-1.06,5.4,5.4,0,0,1,.17-1.39,2.56,2.56,0,0,1,.63-1.22,1,1,0,0,1,.32-.22.7.7,0,0,1,.31-.07.73.73,0,0,1,.41.12,1.19,1.19,0,0,1,.31.28,2.94,2.94,0,0,1,.48,1,5,5,0,0,1,.21,1.53,7.451,7.451,0,0,1-.07,1Zm.46-7.4a4.09,4.09,0,0,1-1,1,1.74,1.74,0,0,1-.41.2,1.27,1.27,0,0,1-.34.05,1.55,1.55,0,0,1-.43-.07,2.94,2.94,0,0,1-.46-.25,4.58,4.58,0,0,1-1-1,11.37,11.37,0,0,1-.82-1.44h.06a10.16,10.16,0,0,0,3.1.5,9.24,9.24,0,0,0,2.22-.27,10.3,10.3,0,0,1-.92,1.32ZM72.72,45a7.64,7.64,0,0,1-.48-2.76,8.439,8.439,0,0,1,.05-1l.27.34a8.6,8.6,0,0,0,1.72,1.52,8.72,8.72,0,0,0,2.21,1.08,7.151,7.151,0,0,1-.22,1.12,8,8,0,0,1-1.09,2.4,1.4,1.4,0,0,0-.16.4c-.18-.14-.34-.28-.49-.41A6.88,6.88,0,0,1,72.68,45Zm5.37,4.88a1.12,1.12,0,0,0-1,.11l-.37-.62a1,1,0,0,0,.39-.36h0a11,11,0,0,0,1.39-3.08,11.33,11.33,0,0,0,.4-3.06,14.42,14.42,0,0,0-.47-3.58c-.14-.53-.29-1-.46-1.5a12.77,12.77,0,0,1,1.77,2,12.2,12.2,0,0,1,1.66,3.28,13.61,13.61,0,0,1,.68,4.39v.73a1.771,1.771,0,0,1-.08.4,2.47,2.47,0,0,1-.45.92A1.61,1.61,0,0,1,81,50a2.31,2.31,0,0,1-1.08.2,6.38,6.38,0,0,1-1.83-.31ZM71.26,62.12c.62-.4,1.42-.88,2.3-1.48a22.69,22.69,0,0,0,2.75-2.13,23.85,23.85,0,0,0,2.07-2.2c.44-.55.8-1.07,1.2-1.53a8,8,0,0,0,.73-1A8.6,8.6,0,0,1,81,53v.2a3.62,3.62,0,0,1-.22,1.17,10.15,10.15,0,0,1-1.3,2.4,17.67,17.67,0,0,1-2.34,2.62A16.24,16.24,0,0,1,73.6,61.9a7.79,7.79,0,0,1-1.55.64,4.39,4.39,0,0,1-1.07.2,1.32,1.32,0,0,0-.08-.33Zm-14.73.52a4.6,4.6,0,0,1,1-1.21A7.19,7.19,0,0,1,60,60.16a9.72,9.72,0,0,1,2.88-.44,9,9,0,0,1,2.32.3,6.64,6.64,0,0,1,1.49.6,4.34,4.34,0,0,1,1.55,1.43,3.82,3.82,0,0,1,.56,2.09v.21a12.21,12.21,0,0,0-2.33-1,11.73,11.73,0,0,0-3.63-.58A14.05,14.05,0,0,0,57.1,64a9.691,9.691,0,0,0-1.11.57,4.17,4.17,0,0,1,.54-1.92ZM50.8,43.44A8,8,0,0,0,52.21,42c0,.33.06.67.06,1a8.11,8.11,0,0,1-.2,1.84,6.8,6.8,0,0,1-1.32,2.73,7.32,7.32,0,0,1-1.3,1.25,1.17,1.17,0,0,0-.17-.38,8.79,8.79,0,0,1-1.08-2.4,8.7,8.7,0,0,1-.2-1.11,8.35,8.35,0,0,0,2.84-1.5Zm-7.3-.9a12.85,12.85,0,0,1,1.92-3,12.52,12.52,0,0,1,1-1c-.18.5-.33,1-.46,1.5a14.9,14.9,0,0,0-.47,3.58,11.23,11.23,0,0,0,.4,3.06,11,11,0,0,0,1.38,3.08,1.28,1.28,0,0,0,.4.37l-.37.62a1.16,1.16,0,0,0-1-.12,5.94,5.94,0,0,1-1.82.31,2.69,2.69,0,0,1-.8-.09,1.77,1.77,0,0,1-.8-.42,2.19,2.19,0,0,1-.34-.46,2.89,2.89,0,0,1-.27-.71.45.45,0,0,0,0-.23h0v-.74a13.31,13.31,0,0,1,1.23-5.73Zm10.23,21h-.11a4.29,4.29,0,0,1-1.18-.2A10.7,10.7,0,0,1,50,62.2a17.71,17.71,0,0,1-2.68-2,16.66,16.66,0,0,1-2.91-3.47,8.75,8.75,0,0,1-.75-1.5,3.62,3.62,0,0,1-.24-1.12v-.2a5.69,5.69,0,0,1,.6.7c.46.57,1,1.34,1.68,2.16a23.7,23.7,0,0,0,2.4,2.6,23,23,0,0,0,2.4,1.9c.59.4,1.15.8,1.6,1.07l1,.65.55.39a1.089,1.089,0,0,0,.08.14Z"/></g></svg>