<svg xmlns="http://www.w3.org/2000/svg" xmlns:xlink="http://www.w3.org/1999/xlink" width="125" height="136" viewBox="0 0 125 136"><defs><style>.a{fill:none;}.b,.d{isolation:isolate;}.c{fill:url(#a);}.d{fill:#1f1e34;mix-blend-mode:soft-light;}</style><linearGradient id="a" y1="0.5" x2="1" y2="0.5" gradientUnits="objectBoundingBox"><stop offset="0.01" stop-color="#b25f65"/><stop offset="0.04" stop-color="#b56469"/><stop offset="0.08" stop-color="#c07375"/><stop offset="0.13" stop-color="#d08b88"/><stop offset="0.17" stop-color="#e8aca3"/><stop offset="0.2" stop-color="#f9c5b7"/><stop offset="0.48" stop-color="#d48e8d"/><stop offset="0.54" stop-color="#d79593"/><stop offset="0.61" stop-color="#dfa8a3"/><stop offset="0.7" stop-color="#ecc6bf"/><stop offset="0.8" stop-color="#fff1e4"/><stop offset="0.8" stop-color="#fff2e5"/><stop offset="1" stop-color="#e39d94"/></linearGradient></defs><rect class="a" width="125" height="136"/><g class="b" transform="translate(0.5 2)"><circle class="c" cx="50" cy="50" r="50" transform="translate(12.5 18)"/><path class="d" d="M93.15,45.77a32,32,0,0,0-5.84-4.37l-.12-.08h0a6.76,6.76,0,0,1-2.06-2.13,1.18,1.18,0,0,0-1.64-.29,1.24,1.24,0,0,0-.43.53,5.2,5.2,0,0,0-.26.85,9.15,9.15,0,0,0-.25,2,7.24,7.24,0,0,0,.4,2.4,7,7,0,0,0,1.54,2.55h0a6.13,6.13,0,0,1,1.07,1.55A2.71,2.71,0,0,1,85.85,50a2.24,2.24,0,0,1-.1.68A3.79,3.79,0,0,1,85,52a7.86,7.86,0,0,1-1.33,1.18A19,19,0,0,1,80.35,55a40.378,40.378,0,0,1-5.16,1.8l-1.1.3a16.32,16.32,0,0,0-2.92-1.81,21.4,21.4,0,0,0-9.3-2.07h-.08a20.3,20.3,0,0,0-11.88,3.57h-.06c-.94-.26-2.08-.61-3.26-1a27.231,27.231,0,0,1-2.81-1.19,13.47,13.47,0,0,1-3.43-2.25,4.68,4.68,0,0,1-.92-1.2,2.46,2.46,0,0,1-.3-1.15,2.82,2.82,0,0,1,.28-1.15,5.89,5.89,0,0,1,1.08-1.53h0a7.39,7.39,0,0,0,1.92-5,9.78,9.78,0,0,0-.24-2,5.88,5.88,0,0,0-.27-.84,1.18,1.18,0,0,0-1.54-.65,1.21,1.21,0,0,0-.51.41,10.55,10.55,0,0,1-1.6,1.86l-.37.28h-.06l-.13.07a27.78,27.78,0,0,0-7.16,5.79A10.88,10.88,0,0,0,28.81,50a7.06,7.06,0,0,0-.56,2.76,6.7,6.7,0,0,0,.3,2,8.87,8.87,0,0,0,1.88,3.2A15.86,15.86,0,0,0,33,60.25a31.55,31.55,0,0,0,5.7,3.2l.64.28c-.32.12-.64.25-1,.4a17.34,17.34,0,0,0-4.28,2.69,13.14,13.14,0,0,0-3.48,4.73,1.19,1.19,0,0,0,.67,1.57,16.179,16.179,0,0,0,2,.63,19.24,19.24,0,0,0,4.72.64,11.73,11.73,0,0,0,5.12-1.06,8.68,8.68,0,0,0,2.4-1.6h0c.13.53.27,1,.41,1.51A65.2,65.2,0,0,1,47.69,80c.15,1,.25,2,.37,3a24.56,24.56,0,0,0,.87,4.8,11,11,0,0,0,1,2.35,9.16,9.16,0,0,0,1.65,2.12,18.35,18.35,0,0,0,4.69,3.12,31,31,0,0,0,5.18,1.91H62a27.141,27.141,0,0,0,4.86-1.76,20.46,20.46,0,0,0,4.52-2.75A9.06,9.06,0,0,0,73.54,90a15.92,15.92,0,0,0,1.35-4.73c.26-1.6.42-3.11.73-4.48.53-2.4,1.3-4.8,2-7.2.15-.56.29-1.1.42-1.66a9.08,9.08,0,0,0,3.37,1.9,12.67,12.67,0,0,0,3.91.56A19.3,19.3,0,0,0,90,73.78a16.231,16.231,0,0,0,2-.64,1.22,1.22,0,0,0,.66-.64,1.25,1.25,0,0,0,0-.93,13.14,13.14,0,0,0-3.48-4.73,17.31,17.31,0,0,0-4.42-2.75c.94-.38,1.87-.8,2.79-1.24a24.34,24.34,0,0,0,6.25-4.11A10.58,10.58,0,0,0,96,56a6.91,6.91,0,0,0,.8-3.24A7.09,7.09,0,0,0,96.19,50,12.7,12.7,0,0,0,93.15,45.77ZM43.92,70a6.93,6.93,0,0,1-2.7,1.6,10.65,10.65,0,0,1-3.12.4,17.48,17.48,0,0,1-4.1-.55l-.5-.13a10.88,10.88,0,0,1,2.2-2.72,15.91,15.91,0,0,1,5.45-3c.72-.24,1.35-.4,1.83-.52.62.22,1.22.42,1.79.6v.72a16.352,16.352,0,0,0,.2,2.2A7.26,7.26,0,0,1,43.92,70Zm43.77-1.32A11.07,11.07,0,0,1,89.9,71.3l-.55.14a17.35,17.35,0,0,1-4.06.56,9.47,9.47,0,0,1-4.1-.8A6.41,6.41,0,0,1,78.63,69a24.34,24.34,0,0,0,.22-2.83c.8-.23,1.6-.5,2.5-.8a18.09,18.09,0,0,1,2.75,1,14.93,14.93,0,0,1,3.59,2.27ZM94.15,54a3.51,3.51,0,0,1-.24.61.74.74,0,0,0,0-.21v.05l-.08.12a2.11,2.11,0,0,1-.36.43,1.79,1.79,0,0,1-.28.27l-.16.14-.2.14a7.721,7.721,0,0,1-.91.57,10,10,0,0,1-1.16.52c-.41.19-.88.3-1.34.47s-1,.25-1.48.39a14.117,14.117,0,0,1-1.6.32l-1.6.26-1.56.23c-.5.1-1,.14-1.47.21s-.92.13-1.33.2-.8.1-1.13.16l-.88.16a1.87,1.87,0,0,0-.57.12h-.01a4.749,4.749,0,0,1,.57.14l.88.18,1.15.19,1.38.1h3.14l1.7-.24c.56-.12,1.12-.26,1.68-.4l.8-.28.4-.15.19-.07.19-.09.68-.33-.08.07a29.58,29.58,0,0,1-5.18,2.9,61.072,61.072,0,0,1-8.21,2.9c-1.15.32-2.12.57-2.79.73l-.8.18h-.27a1.28,1.28,0,0,0-.42.17h0a19.519,19.519,0,0,0-3.13.64,12.721,12.721,0,0,0-2.4.94,9.06,9.06,0,0,0-1.6,1.06A7.07,7.07,0,0,0,63,73.6a10.28,10.28,0,0,0,.06,1.1,1.21,1.21,0,0,0,2.4-.28,2.351,2.351,0,0,0,0-.59V73.6a5.13,5.13,0,0,1,.32-1.82,4,4,0,0,1,.7-1.2,5.93,5.93,0,0,1,2-1.6,13.67,13.67,0,0,1,4-1.23,20.209,20.209,0,0,1,2.69-.24h1.12A30.531,30.531,0,0,1,75.25,73c-.63,2.4-1.42,4.8-2,7.33-.23,1-.37,2.1-.53,3.11a23.89,23.89,0,0,1-.87,4.28,7.771,7.771,0,0,1-.8,1.79A6.79,6.79,0,0,1,69.78,91a18,18,0,0,1-3.9,2.4,24.83,24.83,0,0,1-4.12,1.53h0a29.59,29.59,0,0,1-4.46-1.68,15.68,15.68,0,0,1-4-2.67,7,7,0,0,1-1.6-2.17,14.12,14.12,0,0,1-1.06-4.13c-.21-1.51-.33-3.1-.58-4.67a63.452,63.452,0,0,0-1.79-7.06,30.79,30.79,0,0,1-1-5h.57a19.271,19.271,0,0,1,2.15.17,17.21,17.21,0,0,1,2.77.56,10.38,10.38,0,0,1,1.95.8,6.659,6.659,0,0,1,1.23.8,4.72,4.72,0,0,1,1.27,1.6,4.84,4.84,0,0,1,.48,2.21v.82a1.193,1.193,0,0,0,2.37.28,8.6,8.6,0,0,0,0-1.13A7.52,7.52,0,0,0,59.6,71a7,7,0,0,0-1.07-1.86,8.54,8.54,0,0,0-2.81-2.22,14.1,14.1,0,0,0-3.15-1.13,1.15,1.15,0,0,0-.8-.6h-.16c-.44-.1-1.68-.37-3.36-.8-1.53-.43-3.44-1-5.43-1.74q-2.28-.84-4.47-1.9a27.19,27.19,0,0,1-3.85-2.3l.42.2.19.1.19.06.39.15c.27.1.54.2.8.28.56.14,1.12.28,1.68.4a13.886,13.886,0,0,0,1.7.23H43l1.38-.1a6.446,6.446,0,0,0,1.15-.18l.88-.18a2.7,2.7,0,0,0,.57-.13l.19-.06-.2-.05c-.13,0-.32-.08-.57-.12l-.88-.16-1.14-.15c-.4-.08-.85-.14-1.32-.21s-1-.11-1.48-.2-1-.16-1.6-.22-1-.18-1.6-.27-1-.23-1.6-.32a12.9,12.9,0,0,1-1.48-.39,12.63,12.63,0,0,1-1.2-.5c-.39-.15-.78-.33-1.16-.52a6.015,6.015,0,0,1-.91-.57l-.19-.15-.16-.14-.3-.25a4.82,4.82,0,0,1-.36-.43,1.056,1.056,0,0,0-.09-.13h0a4.39,4.39,0,0,1-.32-1.64A5,5,0,0,1,31,50.89a10.4,10.4,0,0,1,2.47-3.41,29.63,29.63,0,0,1,5.37-4,4.9,4.9,0,0,0,.89-.62l.28-.24a5.4,5.4,0,0,1-.25,1.32,4.73,4.73,0,0,1-.93,1.65h0a8.38,8.38,0,0,0-1.5,2.18,5,5,0,0,0-.52,2.2A4.62,4.62,0,0,0,37,51.35a6.21,6.21,0,0,0,1.26,2.24A11,11,0,0,0,40,55.13a21,21,0,0,0,3.73,2,42.451,42.451,0,0,0,5.48,1.94c1.52.43,2.57.65,2.58.65h.18a1.19,1.19,0,0,0,.92-2l.63-.33a19.09,19.09,0,0,1,8.31-1.81h0a18.42,18.42,0,0,1,10,2.8,1.55,1.55,0,0,0,0,.43,1.19,1.19,0,0,0,1.24.94.48.48,0,0,0,.17,0h0s.92-.19,2.27-.55c1-.29,2.27-.67,3.6-1.15,1-.37,2-.8,3.06-1.28a16.17,16.17,0,0,0,4.08-2.7,7.43,7.43,0,0,0,1.44-1.86A4.93,4.93,0,0,0,88.27,50a5.29,5.29,0,0,0-.58-2.2,8.69,8.69,0,0,0-1.48-2.17h0a4.85,4.85,0,0,1-1-1.68A5.06,5.06,0,0,1,85,42.58l.29.25a4.53,4.53,0,0,0,.89.61,25.17,25.17,0,0,1,6.48,5.24A8.38,8.38,0,0,1,94,50.87a4.76,4.76,0,0,1,.38,1.86,4.11,4.11,0,0,1-.21,1.3ZM61.8,81.14a8.839,8.839,0,0,1-1.69-.25c-.3-.07-.62-.15-1-.21a5.27,5.27,0,0,0-1-.11H57.8l.42-1.14c.22-.54.4-1,.54-1.4l.15-.44a.88.88,0,0,0,.05-.15,1.19,1.19,0,1,0-2.15-1,.44.44,0,0,0-.06.16s-.56,1.44-1.13,3l-.8,2.13-.27.8h0a5.831,5.831,0,0,0-.61.8,5.74,5.74,0,0,0-.9,3,5.47,5.47,0,0,0,.75,2.76A7.66,7.66,0,0,0,57,92a10.94,10.94,0,0,0,4.8,1.08,10.19,10.19,0,0,0,6-1.87,7.28,7.28,0,0,0,2-2.15,5.6,5.6,0,0,0,.74-2.77,5.47,5.47,0,0,0-.3-1.79,6.06,6.06,0,0,0-1.42-2.27L68.55,82a1.48,1.48,0,0,0-.16-.46c-.31-.9-.8-2.22-1.22-3.33s-.8-2-.8-2a1.194,1.194,0,0,0-2.25.8v.06a.46.46,0,0,0,.1.25c.2.52.68,1.77,1.13,3H65.3a4.28,4.28,0,0,0-1.12.17c-.5.14-.93.3-1.33.43a3.83,3.83,0,0,1-1,.24Zm2.62,1.78a4.911,4.911,0,0,1,.51-.15,2.111,2.111,0,0,1,.35,0h.21a5.62,5.62,0,0,1,2,1.6,4,4,0,0,1,.5,1,3.2,3.2,0,0,1,.17,1,3.13,3.13,0,0,1-.44,1.6,5.17,5.17,0,0,1-2.23,2,8.24,8.24,0,0,1-3.69.8,7.83,7.83,0,0,1-4.63-1.41,4.86,4.86,0,0,1-1.3-1.41A3.2,3.2,0,0,1,56,84.51,5.16,5.16,0,0,1,57.56,83l.22-.1a1.71,1.71,0,0,1,.32,0,4.481,4.481,0,0,1,.64.07c.38.07.8.19,1.35.3a8.26,8.26,0,0,0,1.72.21A5.419,5.419,0,0,0,63,83.31,13.159,13.159,0,0,0,64.42,82.92Zm-.73,3.82a1.66,1.66,0,1,1,1.65,1.66h0a1.66,1.66,0,0,1-1.65-1.66Zm-3.2,0a1.66,1.66,0,1,1-1.67-1.66h0a1.67,1.67,0,0,1,1.65,1.66Z"/></g></svg>