<svg xmlns="http://www.w3.org/2000/svg" xmlns:xlink="http://www.w3.org/1999/xlink" width="125" height="136" viewBox="0 0 125 136"><defs><style>.a{fill:none;}.b,.d{isolation:isolate;}.c{fill:url(#a);}.d{fill:#1f1e34;mix-blend-mode:soft-light;}</style><linearGradient id="a" y1="0.5" x2="1" y2="0.5" gradientUnits="objectBoundingBox"><stop offset="0" stop-color="#ad6979"/><stop offset="0.12" stop-color="#bf878c"/><stop offset="0.28" stop-color="#d8b3a8"/><stop offset="0.39" stop-color="#d3a99f"/><stop offset="0.41" stop-color="#d2a69d"/><stop offset="0.5" stop-color="#cf9e97"/><stop offset="0.61" stop-color="#c18b8f"/><stop offset="0.87" stop-color="#a0607d"/><stop offset="1" stop-color="#96537a"/></linearGradient></defs><rect class="a" width="125" height="136"/><g class="b" transform="translate(0.5 2)"><circle class="c" cx="50" cy="50" r="50" transform="translate(12.5 18)"/><path class="d" d="M55.57,77.57a1,1,0,0,0-.21,1.14,23.48,23.48,0,0,0,1.88,3.12,12.23,12.23,0,0,0,2,2.2,5.85,5.85,0,0,0,1.28.8,3.6,3.6,0,0,0,1.48.34h0a3.67,3.67,0,0,0,1.45-.34,5.7,5.7,0,0,0,1.07-.68,10.09,10.09,0,0,0,1.6-1.6A21,21,0,0,0,67.82,80a13.51,13.51,0,0,0,.66-1.25,1,1,0,0,0-.19-1.14,6.29,6.29,0,0,1-1.6-2.4,6.66,6.66,0,0,1-.37-2.38v-.25A18.79,18.79,0,0,0,68.51,71c.44-.37.86-.75,1.26-1.16a8,8,0,0,0,.93-1.18,6.578,6.578,0,0,0,.46-.92c.24-.6.46-1.3.67-2,.31-1.09.59-2.24.8-3.12.15-.65.25-1.16.29-1.38a12.11,12.11,0,0,0-4.26-15,.993.993,0,0,0-1.12,1.64h0A10,10,0,0,1,72,56.25a10.62,10.62,0,0,1-.35,2.69,1,1,0,0,0-.47-.24,10.84,10.84,0,0,1-1.24-.34,9,9,0,0,1-3.3-1.93,10.48,10.48,0,0,1-2-2.56A14.22,14.22,0,0,1,63.17,50a.33.33,0,0,0,0-.14.43.43,0,0,0,0-.16c-.08-.39-.13-.73-.16-1a1,1,0,0,1,0-.35v-.08h0v-.5l-.06-.07-.06-.07-.07-.06-.08-.06h-1.1l-.08.06-.07.06-.07.07v.24a.17.17,0,0,0,0,.1v.24A11,11,0,0,1,61,49.85a.11.11,0,0,1,0,.08,13.32,13.32,0,0,1-2.08,4.94,9.25,9.25,0,0,1-2.35,2.36,8.91,8.91,0,0,1-2.33,1.16,9.12,9.12,0,0,1-1.24.34,1,1,0,0,0-.47.24,10.2,10.2,0,0,1-.36-2.69.93.93,0,0,0-.12-.46.99.99,0,0,0-1.86.45,11.81,11.81,0,0,0,1.08,5c.07.36.32,1.6.65,2.94.2.8.44,1.68.69,2.47a10.46,10.46,0,0,0,.4,1.11,7.89,7.89,0,0,0,.46.92A9.16,9.16,0,0,0,55,70.5a17,17,0,0,0,2.83,2.1v.23a6.54,6.54,0,0,1-.41,2.35,6.28,6.28,0,0,1-1.85,2.39Zm1.07-8.07a12.792,12.792,0,0,1-1.08-1,5.8,5.8,0,0,1-.7-.87,3.449,3.449,0,0,1-.3-.61c-.2-.49-.41-1.13-.61-1.82-.29-1-.55-2.14-.75-3-.1-.44-.16-.8-.22-1.06a.28.28,0,0,0,0-.2H53l-.14-.29a.67.67,0,0,0,.2,0,11.49,11.49,0,0,0,5.49-2.75A12.08,12.08,0,0,0,61,54.85a15.68,15.68,0,0,0,1-2.08,14.3,14.3,0,0,0,1.6,3.14,11.21,11.21,0,0,0,7.22,4.74H71l-.14.29h.1c-.09.45-.34,1.6-.66,2.91-.19.8-.41,1.6-.63,2.27-.11.33-.23.65-.34.92a3.641,3.641,0,0,1-.3.59A6.93,6.93,0,0,1,67.8,69a15.33,15.33,0,0,1-3,2.16,11.4,11.4,0,0,1-1.6.7,4.52,4.52,0,0,1-1.26.23,3.08,3.08,0,0,1-.8-.1,8.2,8.2,0,0,1-1.78-.69,14.741,14.741,0,0,1-2.72-1.8ZM59,75.9a8.83,8.83,0,0,0,.5-2.32l.53.19a6.06,6.06,0,0,0,1.88.34A5.29,5.29,0,0,0,63.2,74a9.362,9.362,0,0,0,1.17-.37,8.44,8.44,0,0,0,.5,2.32,8.33,8.33,0,0,0,1.6,2.58,3.18,3.18,0,0,1-.17.3,17.36,17.36,0,0,1-2,2.94,6.529,6.529,0,0,1-1.3,1.1,2.23,2.23,0,0,1-.57.3,1.22,1.22,0,0,1-.46.09,1.6,1.6,0,0,1-.65-.16,3.22,3.22,0,0,1-.7-.45,8.18,8.18,0,0,1-1.3-1.33A16.25,16.25,0,0,1,57.76,79c-.12-.19-.21-.37-.29-.52A8.4,8.4,0,0,0,59,75.87ZM79.9,99.15a1,1,0,0,1-1.3.52h0a16.46,16.46,0,0,1-5.75-3.84,11.64,11.64,0,0,1-2.78-5,14.51,14.51,0,0,1-.46-3.71,30,30,0,0,1,1.85-9.36c1.06-3.12,2.4-6.21,3.54-9a53.631,53.631,0,0,0,1.86-5.2,17,17,0,0,0,.63-4.6,19.52,19.52,0,0,0-2.32-9.06A20.83,20.83,0,0,0,69,42.65a13,13,0,0,0-7.61-2.44,14.13,14.13,0,0,0-7.15,2,14.36,14.36,0,0,0-5.3,5.42,18.68,18.68,0,0,0-2.15,9.06,25.25,25.25,0,0,0,1,6.86q1.32,4.13,3,8.1a75.749,75.749,0,0,1,3.35,9.26,25.19,25.19,0,0,1,.9,6.22,13.57,13.57,0,0,1-1.07,5.49,12.07,12.07,0,0,1-3.72,4.68A18.281,18.281,0,0,1,46,99.66a.992.992,0,0,1-.79-1.82h0a14.6,14.6,0,0,0,5.06-3.36,9.52,9.52,0,0,0,2.3-4.18,12.75,12.75,0,0,0,.39-3.2,27.73,27.73,0,0,0-1.75-8.72c-1-3-2.34-6.07-3.49-8.92a54,54,0,0,1-2-5.43,26.88,26.88,0,0,1-1-7.4,20.64,20.64,0,0,1,2.4-10,16.32,16.32,0,0,1,14.18-8.4A15,15,0,0,1,70.1,41,22.91,22.91,0,0,1,77,48.93a21.59,21.59,0,0,1,2.54,10A18.87,18.87,0,0,1,78.82,64a82.6,82.6,0,0,1-3.12,8.33,73.772,73.772,0,0,0-3.2,9,23.489,23.489,0,0,0-.8,5.72,11.63,11.63,0,0,0,.9,4.69,10.28,10.28,0,0,0,3.12,3.92,16.77,16.77,0,0,0,3.75,2.14,1,1,0,0,1,.47,1.3Zm3.7-38.26v.68a17,17,0,0,1-.7,4.7q-.25.9-.57,1.8c-.35,1-.75,2-1.17,3-1.34,3.2-2.94,6.4-4,9.49A18,18,0,0,0,76,86.3a8.28,8.28,0,0,0,2.87,6.53,14.129,14.129,0,0,0,2.25,1.6l.43.26a1,1,0,0,1-.86,1.78l-.1-.06a14.75,14.75,0,0,1-4.19-3.34,9.92,9.92,0,0,1-2.06-3.95A11.16,11.16,0,0,1,74,86.3a17.78,17.78,0,0,1,.73-4.8,45.848,45.848,0,0,1,1.74-4.8c1.35-3.2,2.94-6.45,4-9.45a17.87,17.87,0,0,0,1.14-5.64V61a1.008,1.008,0,0,1,2-.25.61.61,0,0,1,0,.14Zm-34.52-2.4v3.34a.532.532,0,0,0-.1-.24,3.479,3.479,0,0,1-.26-.64c-.1-.28-.24-.67-.34-1a6.358,6.358,0,0,1-.17-.64q-.075-.345-.15-.72a5.32,5.32,0,0,1-.12-.8c0-.27-.08-.56-.1-.86s0-.6,0-.92V55a4.263,4.263,0,0,1,.08-1c.08-.34.1-.67.17-1a9,9,0,0,1,.26-1,9.9,9.9,0,0,1,.33-1l.19-.5a5,5,0,0,1,.21-.48c.14-.32.32-.63.48-.93a11.34,11.34,0,0,1,1.12-1.7A12.059,12.059,0,0,1,52,46a14.871,14.871,0,0,1,1.29-1.09,11.779,11.779,0,0,1,1.19-.8,8,8,0,0,1,1-.48,5.12,5.12,0,0,1,.65-.25l.24-.06s-.27.21-.7.61c-.21.2-.47.44-.75.73s-.59.62-.91,1-.65.8-1,1.2a15.7,15.7,0,0,0-1,1.43c-.16.25-.3.51-.46.8l-.21.41c-.07.13-.15.26-.22.4s-.27.56-.39.85-.12.29-.18.43l-.16.44c-.12.29-.21.6-.3.9s-.17.6-.26.9-.13.61-.21.9-.11.6-.16.89-.08.59-.13.88a6,6,0,0,1-.08.8c-.08.23,0,.55-.07.8a3.643,3.643,0,0,0-.06.87ZM69.56,38.77a1,1,0,0,1,.65-1.88h.09A17.13,17.13,0,0,1,74,39.18,22.75,22.75,0,0,1,80.56,47a26.11,26.11,0,0,1,2.6,9.23,1,1,0,0,1-1.98.21h0A24.05,24.05,0,0,0,78.83,48,20.59,20.59,0,0,0,75,42.61a18,18,0,0,0-5.39-3.84ZM41.39,61v-.68h0a1,1,0,0,1,2,.08V61A15.38,15.38,0,0,0,44,65.16a40.792,40.792,0,0,0,1.65,4.57c1.32,3.13,2.93,6.4,4,9.6a20.54,20.54,0,0,1,1.24,6.4,10.56,10.56,0,0,1-.8,4.19,10.77,10.77,0,0,1-2.74,3.77,16.29,16.29,0,0,1-3,2.15,1,1,0,0,1-1-1.73l.44-.26A12.63,12.63,0,0,0,47,91.23,8,8,0,0,0,48.67,88,9.1,9.1,0,0,0,49,85.71a15.32,15.32,0,0,0-.66-4.25,39.711,39.711,0,0,0-1.66-4.62c-1.29-3.08-2.85-6.25-4-9.37l-.07-.2A19.44,19.44,0,0,1,41.39,61Zm6.5-20.69a17.74,17.74,0,0,1,6-4h0a1,1,0,0,1,.75,1.84h-.1l-.17.08a7.442,7.442,0,0,0-.7.31A16.29,16.29,0,0,0,51.22,40a18.34,18.34,0,0,0-5.81,7,23.2,23.2,0,0,0-2,8.79,1,1,0,0,1-2-.1,25.24,25.24,0,0,1,2.26-9.48,20.4,20.4,0,0,1,4.23-6Z"/></g></svg>