<svg xmlns="http://www.w3.org/2000/svg" width="40" height="40" viewBox="0 0 40 40"><defs><style>.a{fill:none;}.b{fill:#2cc05f;}.c{fill:#fff;}</style></defs><rect class="a" width="40" height="40"/><circle class="b" cx="15" cy="15" r="15" transform="translate(0 5)"/><path class="c" d="M5.065,76,.219,71.153a.746.746,0,0,1,0-1.054l1.054-1.054a.746.746,0,0,1,1.054,0l3.265,3.264,6.992-6.992a.746.746,0,0,1,1.054,0l1.054,1.054a.746.746,0,0,1,0,1.054L6.119,76a.746.746,0,0,1-1.054,0Z" transform="translate(8.233 -50.414)"/></svg>