<svg xmlns="http://www.w3.org/2000/svg" width="50" height="50" viewBox="0 0 50 50"><defs><style>.a{fill:none;}.b{fill:#2cc05f;}.c{fill:#fff;}</style></defs><rect class="a" width="50" height="50"/><g transform="translate(-235 -4990)"><circle class="b" cx="20" cy="20" r="20" transform="translate(240 4995)"/><path class="c" d="M6.753,79.633.291,73.171a.994.994,0,0,1,0-1.406L1.7,70.36a.994.994,0,0,1,1.406,0l4.353,4.353,9.323-9.323a.994.994,0,0,1,1.406,0L19.59,66.8a.994.994,0,0,1,0,1.406L8.159,79.633a.994.994,0,0,1-1.406,0Z" transform="translate(250.979 4942.814)"/></g></svg>