<svg xmlns="http://www.w3.org/2000/svg" width="50" height="50" viewBox="0 0 50 50"><defs><style>.a{fill:none;}.b{fill:#2cc05f;}.c{fill:#fff;}</style></defs><rect class="a" width="50" height="50"/><g transform="translate(-115 -4990)"><circle class="b" cx="20" cy="20" r="20" transform="translate(120 4995)"/><path class="c" d="M18.134,13.2l-4.083-1.75a.875.875,0,0,0-1.021.252l-1.808,2.209a13.514,13.514,0,0,1-6.46-6.46L6.971,5.639a.873.873,0,0,0,.252-1.021L5.472.535a.881.881,0,0,0-1-.507L.678.9A.875.875,0,0,0,0,1.756,16.915,16.915,0,0,0,16.917,18.673a.875.875,0,0,0,.853-.678l.875-3.792a.886.886,0,0,0-.511-1.006Z" transform="translate(130.245 5005.239)"/></g></svg>