<svg xmlns="http://www.w3.org/2000/svg" width="50" height="50" viewBox="0 0 50 50"><defs><style>.a{fill:none;}.b{fill:rgba(232,93,78,0.8);}.c{fill:#fff;}</style></defs><rect class="a" width="50" height="50"/><g transform="translate(-415 -4990)"><circle class="b" cx="20" cy="20" r="20" transform="translate(420 4995)"/><path class="c" d="M168.607,155.5l-4.972,4.972,4.972,4.972a.968.968,0,0,1,0,1.361l-1.806,1.806a.968.968,0,0,1-1.361,0l-4.972-4.972-4.972,4.972a.968.968,0,0,1-1.361,0l-1.806-1.806a.968.968,0,0,1,0-1.361l4.972-4.972-4.972-4.972a.968.968,0,0,1,0-1.361l1.806-1.806a.968.968,0,0,1,1.361,0l4.972,4.972,4.972-4.972a.968.968,0,0,1,1.361,0l1.806,1.806a.953.953,0,0,1,0,1.361Z" transform="translate(279.53 4854.441)"/></g></svg>