<svg xmlns="http://www.w3.org/2000/svg" width="40" height="40" viewBox="0 0 40 40"><defs><style>.a{fill:none;}.b{fill:rgba(232,93,78,0.8);}.c{fill:#fff;}</style></defs><rect class="a" width="40" height="40"/><circle class="b" cx="15" cy="15" r="15" transform="translate(0 5)"/><path class="c" d="M164.467,154.634l-3.729,3.729,3.729,3.729a.726.726,0,0,1,0,1.02l-1.354,1.354a.726.726,0,0,1-1.02,0l-3.729-3.729-3.729,3.729a.726.726,0,0,1-1.02,0l-1.354-1.354a.726.726,0,0,1,0-1.02l3.729-3.729-3.729-3.729a.726.726,0,0,1,0-1.02l1.354-1.354a.726.726,0,0,1,1.02,0l3.729,3.729,3.729-3.729a.726.726,0,0,1,1.02,0l1.354,1.354a.715.715,0,0,1,0,1.02Z" transform="translate(-143.365 -138.432)"/></svg>