<svg xmlns="http://www.w3.org/2000/svg" width="40" height="40" viewBox="0 0 40 40"><defs><style>.a{fill:none;}.b{fill:#c7c7c7;}.c{fill:#fff;}</style></defs><rect class="a" width="40" height="40"/><circle class="b" cx="15" cy="15" r="15" transform="translate(0 5)"/><path class="c" d="M8,66.222a3.082,3.082,0,0,0-.868.139,1.539,1.539,0,0,1,.2.75,1.556,1.556,0,0,1-1.556,1.556,1.539,1.539,0,0,1-.75-.2A3.1,3.1,0,1,0,8,66.222Zm7.9,2.706A8.909,8.909,0,0,0,8,64,8.911,8.911,0,0,0,.1,68.928a.9.9,0,0,0,0,.811A8.909,8.909,0,0,0,8,74.667a8.911,8.911,0,0,0,7.9-4.928.9.9,0,0,0,0-.811ZM8,73.333a7.556,7.556,0,0,1-6.609-4,7.556,7.556,0,0,1,6.609-4,7.556,7.556,0,0,1,6.609,4A7.556,7.556,0,0,1,8,73.333Z" transform="translate(7 -49)"/></svg>