<svg xmlns="http://www.w3.org/2000/svg" width="40" height="40" viewBox="0 0 40 40"><defs><style>.a{fill:none;}.b{fill:#c7c7c7;}.c{fill:#fff;}</style></defs><rect class="a" width="40" height="40"/><circle class="b" cx="15" cy="15" r="15" transform="translate(0 5)"/><path class="c" d="M21,13.5A2.5,2.5,0,1,1,18.5,11,2.5,2.5,0,0,1,21,13.5ZM16.289.787l.425,8.5a.75.75,0,0,0,.749.713h2.073a.75.75,0,0,0,.749-.713l.425-8.5A.75.75,0,0,0,19.962,0H17.038A.75.75,0,0,0,16.289.787Z" transform="translate(-3 12)"/></svg>