<svg xmlns="http://www.w3.org/2000/svg" width="40" height="40" viewBox="0 0 40 40"><defs><style>.a{fill:none;}.b{fill:#2cc05f;}.c{fill:#fff;}</style></defs><rect class="a" width="40" height="40"/><circle class="b" cx="15" cy="15" r="15" transform="translate(0 5)"/><path class="c" d="M30.362,28.571H23.924a1.067,1.067,0,0,0-1.067,1.067v6.437a1.067,1.067,0,0,0,1.067,1.067h6.438a1.067,1.067,0,0,0,1.067-1.067V29.638A1.067,1.067,0,0,0,30.362,28.571Zm4.228.842L32.143,31.1v3.513L34.589,36.3a.716.716,0,0,0,1.125-.576V29.989A.716.716,0,0,0,34.589,29.413Z" transform="translate(-14.286 -12.857)"/></svg>