<svg xmlns="http://www.w3.org/2000/svg" width="50" height="50" viewBox="0 0 50 50"><defs><style>.a{fill:none;}.b{fill:#2cc05f;}.c{fill:#fff;}</style></defs><rect class="a" width="50" height="50"/><g transform="translate(-175 -4990)"><circle class="b" cx="20" cy="20" r="20" transform="translate(180 4995)"/><path class="c" d="M32.863,28.571H24.28a1.423,1.423,0,0,0-1.423,1.423v8.583A1.423,1.423,0,0,0,24.28,40h8.583a1.423,1.423,0,0,0,1.423-1.423V29.994A1.423,1.423,0,0,0,32.863,28.571ZM38.5,29.693l-3.262,2.25v4.685L38.5,38.875a.954.954,0,0,0,1.5-.768V30.461A.955.955,0,0,0,38.5,29.693Z" transform="translate(168.572 4980.714)"/></g></svg>