<svg xmlns="http://www.w3.org/2000/svg" width="56.2" height="24.275" viewBox="0 0 56.2 24.275"><path d="M189.911,1585.788c-1.418,0-2.627-.89-2.627-2.907,0-3.114,2.68-5.48,3.9-6.149a24.627,24.627,0,0,0,3.466,1.611,12.675,12.675,0,0,1-5.748-10.749c0-4.193,2.213-6.082,4.212-6.082,1.608,0,5.419,1.769,5.419,8.554C198.53,1577.37,194.719,1585.788,189.911,1585.788Z" transform="translate(-187.284 -1561.513)"/><g transform="translate(22.814 8.789)"><path d="M3288.268,6730.659h-1.661V6724.7a4.5,4.5,0,0,0-.531-2.492,2.017,2.017,0,0,0-1.788-.767,2.215,2.215,0,0,0-1.807.969,3.727,3.727,0,0,0-.745,2.331v5.914h-1.66V6724.5q0-3.059-2.359-3.057a2.181,2.181,0,0,0-1.8.915,3.785,3.785,0,0,0-.709,2.385v5.914h-1.662v-10.37h1.662v1.641h.04a3.525,3.525,0,0,1,3.22-1.884,3,3,0,0,1,2.937,2.147,3.7,3.7,0,0,1,3.442-2.147q3.424,0,3.423,4.222Z" transform="translate(-3273.545 -6720.025)"/><path d="M3722.625,6730.659h-1.661v-5.914q0-3.3-2.41-3.3a2.617,2.617,0,0,0-2.061.935,3.476,3.476,0,0,0-.815,2.365v5.914h-1.661v-10.37h1.661v1.722h.04a3.744,3.744,0,0,1,3.4-1.965,3.172,3.172,0,0,1,2.6,1.1,4.9,4.9,0,0,1,.9,3.175Z" transform="translate(-3689.238 -6720.025)"/><path d="M982.509,1396.782v1.779a4.69,4.69,0,0,0,2.6.636c2.611,0,3.758-1.457,3.758-3.046,0-3.445-4.639-2.622-4.639-4.908,0-.859.684-1.481,1.832-1.481a4.341,4.341,0,0,1,2.329.716v-1.646a5.024,5.024,0,0,0-2.242-.509c-2.233,0-3.624,1.395-3.624,3.07,0,3.406,4.625,2.74,4.625,4.959,0,1.021-.839,1.39-1.923,1.39A4.708,4.708,0,0,1,982.509,1396.782Z" transform="translate(-965.974 -1388.322)"/></g><path d="M342.915,1696.8c0,1.059.37,1.473.935,1.473,1.414,0,3.668-3.3,3.582-6.768,2.145-2.262,4.716-5.806,4.716-8.645,0-.687-.195-1.266-1.009-1.266-1.245,0-3.025,2.146-4.153,4.277-1.088,2.208-2.107,4.726-3.458,8.183A8.841,8.841,0,0,0,342.915,1696.8Z" transform="translate(-334.16 -1674.835)"/></svg>