<svg xmlns="http://www.w3.org/2000/svg" width="84.3" height="16.448" viewBox="0 0 84.3 16.448"><defs><style>.a{fill:#1f1e34;}</style></defs><path class="a" d="M304.366-127.695a2.19,2.19,0,0,0-1.2.341c-.386-1.338-1.555-2.1-3.327-2.1h-2.8v.975h2.878a2.069,2.069,0,0,1,2.336,2.189,2.069,2.069,0,0,1-2.336,2.189H299.9l.163-.24a3.135,3.135,0,0,0,.681-1.555,1.725,1.725,0,0,0-1.918-1.795,1.875,1.875,0,0,0-1.927,1.834h1.045a.819.819,0,0,1,.882-.859.784.784,0,0,1,.874.852,2.264,2.264,0,0,1-.519,1.168l-.418.6h-1.717v.975h1.052l-1.834,2.685h4.394v-.983h-2.592l1.168-1.71h.611c.1,0,.2,0,.3-.008l3.071,4.008h1.323l-1.013-1.316,1.927-2.817a4.277,4.277,0,0,0,1.075-2.329A2.105,2.105,0,0,0,304.366-127.695Zm-1.493,6.422-1.586-2.05a2.866,2.866,0,0,0,1.393-.92,2.114,2.114,0,0,0,1.694.782h.055Zm1.493-3.156a1.081,1.081,0,0,1-1.1-1.145,1.056,1.056,0,0,1,.008-.155v-.031a1.066,1.066,0,0,1,1.083-.96,1.081,1.081,0,0,1,1.1,1.145A1.071,1.071,0,0,1,304.366-124.429Z" transform="translate(-292.846 132.723)"/><path class="a" d="M277.624-155.2a8.234,8.234,0,0,0-8.224,8.224,8.234,8.234,0,0,0,8.224,8.224,8.236,8.236,0,0,0,8.224-8.232A8.228,8.228,0,0,0,277.624-155.2Zm0,15.473a7.254,7.254,0,0,1-7.249-7.249,7.254,7.254,0,0,1,7.249-7.249,7.254,7.254,0,0,1,7.249,7.249A7.258,7.258,0,0,1,277.624-139.727Zm18.053-7.3a2.044,2.044,0,0,0,.65-1.492,2.046,2.046,0,0,0-.65-1.492,2.177,2.177,0,0,0-1.589-.541H291.43v7.292h1.408v-3.225h.506l2.6,3.225h1.733l-2.732-3.346A1.9,1.9,0,0,0,295.678-147.025Zm-.964-.925a.867.867,0,0,1-.71.216h-1.167V-149.3H294a.863.863,0,0,1,.71.229A.873.873,0,0,1,294.714-147.951Zm5.331,1.407h2.238v-1.251h-2.238v-1.5h2.96v-1.251h-4.369v7.291h4.477v-1.251h-3.068Zm4.909,3.285h1.408v-3.285H308.6v-1.251h-2.237v-1.5h2.959v-1.251h-4.367Zm5.848-7.291h1.408v7.292H310.8Zm8.471,4.753-4.068-4.753h-.986v7.291h1.408v-4.753l4.066,4.753h.988v-7.291h-1.408Zm4.957-.746h2.238v-1.251h-2.238v-1.5h2.96v-1.251h-4.367v7.291H327.3v-1.251h-3.068Zm9.157-.482a2.044,2.044,0,0,0,.65-1.492,2.046,2.046,0,0,0-.65-1.492,2.177,2.177,0,0,0-1.589-.541H329.14v7.292h1.408v-3.225h.506l2.587,3.225h1.745l-2.732-3.346A1.985,1.985,0,0,0,333.388-147.025Zm-.975-.925a.868.868,0,0,1-.711.216h-1.167V-149.3H331.7a.864.864,0,0,1,.711.229.873.873,0,0,1,.2.566A.772.772,0,0,1,332.413-147.951Zm5.9-.037L336.7-150.55h-1.6l2.5,4v3.3h1.408v-3.3l2.49-4h-1.6Zm8.013,1.613a3.192,3.192,0,0,0,.794-2.13,2.339,2.339,0,0,0-2.382-2.3h-.048a2.364,2.364,0,0,0-2.382,2.274h1.408a1.029,1.029,0,0,1,1-1,1.021,1.021,0,0,1,1,1,2.1,2.1,0,0,1-.577,1.455l-3.128,3.815h5.378v-1.275H344.8Zm4.706-4.429a2.6,2.6,0,0,0-2.587,2.611,2.524,2.524,0,0,0,.735,1.819,2.524,2.524,0,0,0,1.816.743h.1l-1.384,2.371h1.552l1.721-2.948a4.124,4.124,0,0,0,.722-2.045A2.586,2.586,0,0,0,351.028-150.8Zm.036,3.911a1.315,1.315,0,0,1-1.312-1.312,1.315,1.315,0,0,1,1.312-1.312,1.315,1.315,0,0,1,1.312,1.312A1.315,1.315,0,0,1,351.064-146.892Z" transform="translate(-269.4 155.2)"/></svg>