<svg xmlns="http://www.w3.org/2000/svg" xmlns:xlink="http://www.w3.org/1999/xlink" width="68" height="68" viewBox="0 0 68 68"><defs><style>.a{fill:#f4f4f4;}.b{fill:#8ebef8;}.c{filter:url(#a);}</style><filter id="a" x="0" y="0" width="68" height="68" filterUnits="userSpaceOnUse"><feOffset dy="3" input="SourceAlpha"/><feGaussianBlur stdDeviation="3" result="b"/><feFlood flood-opacity="0.051"/><feComposite operator="in" in2="b"/><feComposite in="SourceGraphic"/></filter></defs><g transform="translate(9 6)"><g class="c" transform="matrix(1, 0, 0, 1, -9, -6)"><rect class="a" width="50" height="50" rx="10" transform="translate(9 6)"/></g><path class="b" d="M16.331,15.031a.46.46,0,0,0-.173.036,6.878,6.878,0,0,1-9.522-4.58A6.767,6.767,0,0,1,8.594,3.921a.408.408,0,0,0-.281-.7H8.289A9.172,9.172,0,0,0,6.7,3.45,8.687,8.687,0,0,0,8.775,20.588a8.828,8.828,0,0,0,2.083-.249A8.728,8.728,0,0,0,16.7,15.614.41.41,0,0,0,16.331,15.031ZM10.4,18.461a6.993,6.993,0,0,1-1.629.2A6.8,6.8,0,0,1,2.14,13.491a6.653,6.653,0,0,1,.78-5.083A6.745,6.745,0,0,1,4.895,6.325a8.73,8.73,0,0,0,7.592,11.251,6.757,6.757,0,0,1-2.083.885ZM18.458,7.29,17.385,5.147,16.311,7.29,14.168,8.364l2.143,1.074,1.074,2.143,1.074-2.143L20.6,8.364,18.458,7.29ZM12.237,3.86l.643-1.287,1.287-.643-1.287-.643L12.237,0l-.643,1.287-1.287.643,1.287.643Z" transform="translate(14.692 14.706)"/></g></svg>