<svg xmlns="http://www.w3.org/2000/svg" xmlns:xlink="http://www.w3.org/1999/xlink" width="68" height="68" viewBox="0 0 68 68"><defs><style>.a{fill:#f4f4f4;}.b{fill:#23ce6b;}.c{filter:url(#a);}</style><filter id="a" x="0" y="0" width="68" height="68" filterUnits="userSpaceOnUse"><feOffset dy="3" input="SourceAlpha"/><feGaussianBlur stdDeviation="3" result="b"/><feFlood flood-opacity="0.051"/><feComposite operator="in" in2="b"/><feComposite in="SourceGraphic"/></filter></defs><g transform="translate(9 6)"><g class="c" transform="matrix(1, 0, 0, 1, -9, -6)"><rect class="a" width="50" height="50" rx="10" transform="translate(9 6)"/></g><path class="b" d="M7.721,3.7A4.026,4.026,0,0,0,3.7,7.721a2.737,2.737,0,0,0,2.734,2.734,1.126,1.126,0,0,1,0,2.252h-.8a.483.483,0,0,0-.483.483v.643a.483.483,0,0,0,.483.483h.8a2.734,2.734,0,1,0,0-5.469A1.127,1.127,0,0,1,5.308,7.721a2.413,2.413,0,1,1,4.825,0v.8a.483.483,0,0,0,.483.483h.643a.483.483,0,0,0,.483-.483v-.8A4.026,4.026,0,0,0,7.721,3.7Zm0-3.7A7.721,7.721,0,0,0,0,7.721V14.8a5.79,5.79,0,0,0,11.581,0v-.4A7.716,7.716,0,0,0,7.721,0Zm2.893,12.73-.963.558V14.8a3.86,3.86,0,1,1-7.721,0V7.721a5.79,5.79,0,1,1,8.683,5.009Z" transform="translate(17.647 14.706)"/></g></svg>