<svg xmlns="http://www.w3.org/2000/svg" width="22.059" height="17.65" viewBox="0 0 22.059 17.65"><defs><style>.a{fill:#fdb035;}</style></defs><path class="a" d="M16.247,16.034l-.034-.015L16.178,16a1.3,1.3,0,0,1-.209-.146,1.094,1.094,0,0,1-.326.057H9.414a1.113,1.113,0,0,1-.92-.493L4.561,9.5a.827.827,0,0,1,1.355-.948l1.3,1.875a.276.276,0,0,0,.5-.159V3.5a.827.827,0,0,1,1.654,0V8.468a.276.276,0,0,0,.276.276H10.2a.276.276,0,0,0,.276-.276V2.4a.827.827,0,0,1,1.654,0V8.468a.276.276,0,0,0,.276.276h.551a.276.276,0,0,0,.276-.276V3.5a.827.827,0,0,1,1.654,0V8.468a.276.276,0,0,0,.276.276h.551a.276.276,0,0,0,.276-.276V6.262a.827.827,0,0,1,1.654,0V9.306a11.1,11.1,0,0,1-.214,2.164l-.353,1.768.457-.191.539-1.292.014-.034.016-.033a1.352,1.352,0,0,1,1.068-.721A12.794,12.794,0,0,0,19.3,9.306V6.262A2.48,2.48,0,0,0,16.82,3.781c-.093,0-.186.007-.276.014V3.5a2.484,2.484,0,0,0-2.482-2.482,2.439,2.439,0,0,0-.641.083,2.482,2.482,0,0,0-4.233,0,2.44,2.44,0,0,0-.641-.083A2.484,2.484,0,0,0,6.066,3.5V6.679a2.483,2.483,0,0,0-2.861,3.764l3.912,5.894a2.751,2.751,0,0,0,2.3,1.23h6.226A2.752,2.752,0,0,0,17.6,16.73l-.065-.158ZM2.964,5.308,3.677,3.6h0l1.707-.712a.251.251,0,0,0,.128-.207h0a.251.251,0,0,0-.128-.207L3.679,1.76h0L2.964.048a.229.229,0,0,0-.414,0L1.838,1.758h0L.128,2.471A.251.251,0,0,0,0,2.678H0a.251.251,0,0,0,.128.207L1.836,3.6h0l.712,1.711a.229.229,0,0,0,.411,0ZM10.6,9.847a.138.138,0,0,0-.246,0l-.428,1.027L8.9,11.3a.138.138,0,0,0,0,.246l1.027.428L10.355,13a.138.138,0,0,0,.246,0l.428-1.026,1.027-.428a.138.138,0,0,0,0-.246l-1.027-.428ZM22.059,14.81a.251.251,0,0,0-.128-.207l-1.709-.712h0l-.712-1.711a.229.229,0,0,0-.411,0l-.713,1.711h0l-1.711.712a.251.251,0,0,0-.128.207h0a.251.251,0,0,0,.128.207l1.709.712h0l.712,1.711a.229.229,0,0,0,.411,0l.713-1.711h0l0,0,1.71-.711a.251.251,0,0,0,.128-.207Z" transform="translate(0 0.083)"/></svg>