<svg xmlns="http://www.w3.org/2000/svg" width="40" height="40" viewBox="0 0 40 40"><defs><style>.a{fill:none;}.b{fill:#9759ff;stroke:#9759ff;stroke-width:0.75px;}</style></defs><g transform="translate(0 -783)"><rect class="a" width="40" height="40" transform="translate(0 783)"/><g transform="translate(2.5 785.5)"><path class="b" d="M297.45,985a.75.75,0,1,1,0-1.5h3.035a.367.367,0,0,0,.226-.078c.473-.37,1.572-1.572,1.572-4.756a.366.366,0,0,0-.366-.366h-9.235A2.684,2.684,0,0,1,290,975.619V952.681A2.684,2.684,0,0,1,292.681,950h29.638A2.684,2.684,0,0,1,325,952.681V967.5a.75.75,0,1,1-1.5,0V952.681a1.182,1.182,0,0,0-1.181-1.181H292.681a1.183,1.183,0,0,0-1.181,1.181v22.937a1.183,1.183,0,0,0,1.181,1.181h15.935a.75.75,0,1,1,0,1.5H304.15a.367.367,0,0,0-.366.366,9.625,9.625,0,0,1-.855,4.3.367.367,0,0,0,.328.531h8.491a.367.367,0,0,0,.328-.531,8.594,8.594,0,0,1-.809-3.114.778.778,0,0,1,.774-.817.742.742,0,0,1,.72.688c.214,2.467,1.143,3.41,1.532,3.7a.367.367,0,0,0,.219.073h3.038a.75.75,0,1,1,0,1.5Z" transform="translate(-290 -950)"/><path class="b" d="M443.174,1073.851l-.048,0a.931.931,0,0,1-.132-.015c-.032-.014-.052-.023-.072-.03a.849.849,0,0,1-.121-.049l-.03-.016c-.335-.2-5.373-3.355-5.373-7.333,0-2.376,1.443-4.1,3.431-4.1a3.372,3.372,0,0,1,2.112.908.366.366,0,0,0,.465,0,3.372,3.372,0,0,1,2.113-.908c1.987,0,3.43,1.724,3.43,4.1,0,3.973-5.023,7.119-5.371,7.332l-.032.016a.76.76,0,0,1-.1.043c-.035.013-.056.022-.076.031a.69.69,0,0,1-.148.02ZM440.83,1063.8c-1.416,0-1.93,1.555-1.93,2.6,0,2.621,3.111,5,4.065,5.666a.366.366,0,0,0,.42,0c.954-.666,4.065-3.045,4.065-5.666,0-1.045-.514-2.6-1.93-2.6a2.733,2.733,0,0,0-1.507.863c-.1.092-.234.206-.351.3a.5.5,0,0,0-.076.04.751.751,0,0,1-.144.069l-.019.007a.7.7,0,0,1-.1.035.613.613,0,0,1-.121.008h-.028a.816.816,0,0,1-.135-.007.793.793,0,0,1-.125-.042.758.758,0,0,1-.143-.068.532.532,0,0,0-.081-.044c-.108-.086-.232-.193-.35-.3A2.737,2.737,0,0,0,440.83,1063.8Z" transform="translate(-425.674 -1053.371)"/><path class="b" d="M385.028,1013.714a10.787,10.787,0,1,1,10.533-8.4.756.756,0,0,1-.734.584h0a.768.768,0,0,1-.165-.018.752.752,0,0,1-.564-.9,9.291,9.291,0,1,0-5.97,6.7.735.735,0,0,1,.252-.045.751.751,0,0,1,.675,1.075.743.743,0,0,1-.426.383A10.742,10.742,0,0,1,385.028,1013.714Z" transform="translate(-367.528 -988.764)"/><path class="b" d="M579.324,1187.3a.745.745,0,0,1-.53-.22l-2.56-2.56a.366.366,0,0,0-.518,0l-1.444,1.444a.746.746,0,0,1-.531.219.771.771,0,0,1-.21-.029.749.749,0,0,1-.521-.557l-2.233-10.05a.745.745,0,0,1,.2-.693.755.755,0,0,1,.537-.218.782.782,0,0,1,.161.017l10.045,2.232a.751.751,0,0,1,.368,1.263l-1.444,1.444a.367.367,0,0,0,0,.518l2.56,2.56a.751.751,0,0,1,0,1.061l-3.35,3.35A.745.745,0,0,1,579.324,1187.3Zm-3.35-4.85a.745.745,0,0,1,.53.22l2.56,2.56a.367.367,0,0,0,.518,0l1.771-1.771a.367.367,0,0,0,0-.518l-2.56-2.56a.751.751,0,0,1,0-1.061l.795-.795a.366.366,0,0,0-.18-.617l-6.352-1.411a.367.367,0,0,0-.437.437l1.412,6.351a.366.366,0,0,0,.617.18l.795-.795A.745.745,0,0,1,575.974,1182.445Z" transform="translate(-548.424 -1156.762)"/></g></g></svg>