<svg xmlns="http://www.w3.org/2000/svg" width="40" height="40.106" viewBox="0 0 40 40.106"><defs><style>.a{fill:none;}.b{fill:#9759ff;stroke:#fff;stroke-width:0.5px;}</style></defs><g transform="translate(0 -783)"><rect class="a" width="40" height="40" transform="translate(0 783)"/><path class="b" d="M12.674,25.151l-.713,4.144a.908.908,0,0,0,1.321.956l3.711-1.958L20.7,30.251a.91.91,0,0,0,1.321-.956l-.713-4.144,3.005-2.929a.914.914,0,0,0-.5-1.556l-4.151-.607L17.8,16.294a.91.91,0,0,0-1.632,0l-1.859,3.764-4.151.607a.912.912,0,0,0-.5,1.556l3.013,2.929ZM30.357,4.857H26.714V1.214A1.218,1.218,0,0,0,25.5,0H23.071a1.218,1.218,0,0,0-1.214,1.214V4.857H12.143V1.214A1.218,1.218,0,0,0,10.929,0H8.5A1.218,1.218,0,0,0,7.286,1.214V4.857H3.643A3.644,3.644,0,0,0,0,8.5V35.214a3.644,3.644,0,0,0,3.643,3.643H30.357A3.644,3.644,0,0,0,34,35.214V8.5A3.644,3.644,0,0,0,30.357,4.857Zm0,29.9a.457.457,0,0,1-.455.455H4.1a.457.457,0,0,1-.455-.455V12.143H30.357Z" transform="translate(3 783.999)"/></g></svg>