<svg xmlns="http://www.w3.org/2000/svg" width="43.75" height="40" viewBox="0 0 43.75 40"><defs><style>.a{fill:none;}.b{fill:#9759ff;}</style></defs><g transform="translate(1.875 -786)"><rect class="a" width="40" height="40" transform="translate(0 786)"/><path class="b" d="M35.611,5.923a1.627,1.627,0,0,0,.82-.22L40.22,3.516A1.64,1.64,0,1,0,38.579.674L34.791,2.862a1.641,1.641,0,0,0,.82,3.061ZM7.656,12.212a1.641,1.641,0,0,0-1.641-1.641H1.641a1.641,1.641,0,0,0,0,3.281H6.016A1.641,1.641,0,0,0,7.656,12.212Zm-4.125-8.7L7.32,5.7A1.64,1.64,0,1,0,8.961,2.862L5.172.675A1.64,1.64,0,1,0,3.531,3.516Zm38.578,7.056H37.734a1.641,1.641,0,0,0,0,3.281h4.375a1.641,1.641,0,0,0,0-3.281Zm-9.3,2.734A10.793,10.793,0,0,0,24.06,2.7V1.275a2.188,2.188,0,1,0-4.373,0V2.7a10.794,10.794,0,0,0-8.744,10.607c0,6.993-2.471,9.128-3.792,10.548a2.129,2.129,0,0,0-.589,1.483,2.19,2.19,0,0,0,2.194,2.188H34.993a2.188,2.188,0,0,0,2.194-2.187,2.131,2.131,0,0,0-.59-1.483C35.278,22.434,32.806,20.3,32.806,13.306ZM11.179,24.244c1.451-1.914,3.036-5.081,3.044-10.9,0-.014,0-.026,0-.04a7.656,7.656,0,1,1,15.312,0c0,.014,0,.026,0,.04.008,5.818,1.593,8.987,3.044,10.9Zm10.7,9.844a4.375,4.375,0,0,0,4.375-4.375H17.5A4.375,4.375,0,0,0,21.875,34.087Z" transform="translate(-1.875 789.446)"/></g></svg>