<svg xmlns="http://www.w3.org/2000/svg" xmlns:xlink="http://www.w3.org/1999/xlink" width="118" height="118" viewBox="0 0 118 118">
  <defs>
    <filter id="Rectangle" x="0" y="0" width="118" height="118" filterUnits="userSpaceOnUse">
      <feOffset dy="3" input="SourceAlpha"/>
      <feGaussianBlur stdDeviation="3" result="blur"/>
      <feFlood flood-opacity="0.161"/>
      <feComposite operator="in" in2="blur"/>
      <feComposite in="SourceGraphic"/>
    </filter>
  </defs>
  <g id="Group_28165" data-name="Group 28165" transform="translate(-95 -321)">
    <g transform="matrix(1, 0, 0, 1, 95, 321)" filter="url(#Rectangle)">
      <rect id="Rectangle-2" data-name="Rectangle" width="100" height="100" rx="12" transform="translate(9 6)" fill="#9759ff"/>
    </g>
    <g id="Group_27989" data-name="Group 27989" transform="translate(129 352)">
      <g id="Group_27987" data-name="Group 27987">
        <g id="Group_27982" data-name="Group 27982">
          <rect id="Rectangle_3983" data-name="Rectangle 3983" width="50" height="50" fill="none"/>
          <g id="Group_28166" data-name="Group 28166" transform="translate(4.375 3.477)">
            <path id="Path_6507" data-name="Path 6507" d="M167.969,221.382l-.16-.169c-.824-.868-1.058-2-.521-2.506l2.29-2.157a2.135,2.135,0,0,1,3,.147l.161.169a2.135,2.135,0,0,1-.008,3.008l-2.291,2.157C169.907,222.542,168.793,222.25,167.969,221.382Z" transform="translate(-132.547 -209.301)" fill="none" stroke="#fff" stroke-miterlimit="10" stroke-width="2.5"/>
            <path id="Path_6508" data-name="Path 6508" d="M148,254.613s1.862-1.919,2.871-2.871c7.8.571,10.705-4.832,11.484-5.742" transform="translate(-131.731 -210.59)" fill="none" stroke="#fff" stroke-miterlimit="10" stroke-width="2.5"/>
            <path id="Path_6509" data-name="Path 6509" d="M168.588,240.105l-.161-.14c-.827-.713-1.134-1.724-.684-2.245l1.92-2.209a1.963,1.963,0,0,1,2.764-.165l.162.139a1.964,1.964,0,0,1,.241,2.758l-1.92,2.209C170.459,240.974,169.415,240.818,168.588,240.105Z" transform="translate(-132.57 -210.111)" fill="none" stroke="#fff" stroke-miterlimit="10" stroke-width="2.5"/>
            <path id="Path_6510" data-name="Path 6510" d="M148.527,246.873a14.842,14.842,0,0,0-1.835-13.639,27.378,27.378,0,0,0,1.374-6.851,5.918,5.918,0,0,0-1.237-3.971,1.669,1.669,0,0,0-2.85.354c-1.566,5.008-1.859,6.371-2.826,8.885-1.083,2.814-.463,6.76-1,7.915-.107.231-2.152,3.48-2.152,3.48" transform="translate(-131.301 -209.549)" fill="none" stroke="#fff" stroke-miterlimit="10" stroke-width="2.5"/>
            <path id="Path_6511" data-name="Path 6511" d="M168.6,233.814l-.164-.142c-.84-.725-1.154-1.753-.7-2.284l1.953-2.247a2,2,0,0,1,2.812-.168l.164.142a2,2,0,0,1,.246,2.807l-1.952,2.246C170.506,234.7,169.443,234.54,168.6,233.814Z" transform="translate(-132.57 -209.837)" fill="none" stroke="#fff" stroke-miterlimit="10" stroke-width="2.5"/>
            <path id="Path_6512" data-name="Path 6512" d="M168.6,227.685l-.164-.141c-.841-.725-1.154-1.754-.7-2.285l1.952-2.247a2,2,0,0,1,2.813-.167l.164.141a2,2,0,0,1,.246,2.807l-1.953,2.247C170.505,228.571,169.443,228.411,168.6,227.685Z" transform="translate(-132.57 -209.574)" fill="none" stroke="#fff" stroke-miterlimit="10" stroke-width="2.5"/>
            <line id="Line_47" data-name="Line 47" x2="2.871" transform="translate(23.926 32.539)" fill="none" stroke="#fff" stroke-miterlimit="10" stroke-width="2.5"/>
            <path id="Path_6513" data-name="Path 6513" d="M168.012,216.656v-4.785A2.871,2.871,0,0,0,165.14,209H148.871A2.87,2.87,0,0,0,146,211.87v9.571" transform="translate(-131.645 -209)" fill="none" stroke="#fff" stroke-miterlimit="10" stroke-width="2.5"/>
            <path id="Path_6514" data-name="Path 6514" d="M149,245.785h16.269a2.871,2.871,0,0,0,2.871-2.871h0V241" transform="translate(-131.774 -210.375)" fill="none" stroke="#fff" stroke-miterlimit="10" stroke-width="2.5"/>
            <path id="Path_6515" data-name="Path 6515" d="M148.226,254.441,135.785,242,131,246.785l7.656,7.656" transform="translate(-131 -210.418)" fill="none" stroke="#fff" stroke-miterlimit="10" stroke-width="2.5"/>
            <line id="Line_48" data-name="Line 48" x2="0.957" y2="0.957" transform="translate(4.785 36.367)" fill="none" stroke="#fff" stroke-miterlimit="10" stroke-width="2.5"/>
            <line id="Line_49" data-name="Line 49" x2="17.226" transform="translate(18.183 29.668)" fill="none" stroke="#fff" stroke-miterlimit="10" stroke-width="2.5"/>
            <line id="Line_50" data-name="Line 50" x2="22.012" transform="translate(14.355 4.785)" fill="none" stroke="#fff" stroke-miterlimit="10" stroke-width="2.5"/>
            <path id="Path_6516" data-name="Path 6516" d="M157.746,219.568l1.974,3.449,3.689.666-2.469,3.286.306,3.571-3.5-1.1-3.5,1.153.306-3.633-2.469-3.274,3.689-.666Z" transform="translate(-131.906 -209.454)" fill="none" stroke="#fff" stroke-linejoin="round" stroke-width="2.5"/>
          </g>
        </g>
      </g>
    </g>
  </g>
</svg>
