<svg xmlns="http://www.w3.org/2000/svg" xmlns:xlink="http://www.w3.org/1999/xlink" width="118" height="118" viewBox="0 0 118 118">
  <defs>
    <filter id="Rectangle" x="0" y="0" width="118" height="118" filterUnits="userSpaceOnUse">
      <feOffset dy="3" input="SourceAlpha"/>
      <feGaussianBlur stdDeviation="3" result="blur"/>
      <feFlood flood-opacity="0.161"/>
      <feComposite operator="in" in2="blur"/>
      <feComposite in="SourceGraphic"/>
    </filter>
  </defs>
  <g id="Group_28168" data-name="Group 28168" transform="translate(-95 -321)">
    <g transform="matrix(1, 0, 0, 1, 95, 321)" filter="url(#Rectangle)">
      <rect id="Rectangle-2" data-name="Rectangle" width="100" height="100" rx="12" transform="translate(9 6)" fill="#9759ff"/>
    </g>
    <g id="Group_27989" data-name="Group 27989" transform="translate(120.26 343.26)">
      <g id="Group_27987" data-name="Group 27987" transform="translate(0 0)">
        <g id="Group_27982" data-name="Group 27982" transform="translate(0 0)">
          <rect id="Rectangle_3983" data-name="Rectangle 3983" width="67.48" height="67.48" fill="none"/>
          <g id="Group_28169" data-name="Group 28169" transform="translate(6.708 10.208)">
            <path id="Path_6517" data-name="Path 6517" d="M178.662,74V90.33H132v-28A2.332,2.332,0,0,1,134.333,60h10.5" transform="translate(-128.5 -50.668)" fill="none" stroke="#fff" stroke-miterlimit="10" stroke-width="2.5"/>
            <path id="Rectangle_4030" data-name="Rectangle 4030" d="M0,0H53.661a0,0,0,0,1,0,0V3a4,4,0,0,1-4,4H4A4,4,0,0,1,0,3V0A0,0,0,0,1,0,0Z" transform="translate(0 39.663)" fill="none" stroke="#fff" stroke-miterlimit="10" stroke-width="2.5"/>
            <path id="Path_6518" data-name="Path 6518" d="M145,66V55.5a3.5,3.5,0,0,1,3.5-3.5h28a3.5,3.5,0,0,1,3.5,3.5v14a3.5,3.5,0,0,1-3.5,3.5h-9.332l-8.508,8.508a1.166,1.166,0,0,1-1.991-.825V73H152" transform="translate(-126.335 -52)" fill="none" stroke="#fff" stroke-miterlimit="10" stroke-width="2.5"/>
            <path id="Path_6519" data-name="Path 6519" d="M155.665,85V83.123c0-3.253-6.732-5.123-9.332-5.123S137,79.87,137,83.123V85" transform="translate(-127.668 -47.67)" fill="none" stroke="#fff" stroke-miterlimit="10" stroke-width="2.5"/>
            <path id="Path_6520" data-name="Path 6520" d="M145.666,66A4.663,4.663,0,0,0,141,70.645V71.86a4.666,4.666,0,0,0,9.332,0V70.645A4.663,4.663,0,0,0,145.666,66Z" transform="translate(-127.001 -49.668)" fill="none" stroke="#fff" stroke-miterlimit="10" stroke-width="2.5"/>
            <line id="Line_52" data-name="Line 52" x2="18.665" transform="translate(26.831 8.166)" fill="none" stroke="#fff" stroke-miterlimit="10" stroke-width="2.5"/>
            <line id="Line_53" data-name="Line 53" x2="10.499" transform="translate(26.831 12.832)" fill="none" stroke="#fff" stroke-miterlimit="10" stroke-width="2.5"/>
          </g>
        </g>
      </g>
    </g>
  </g>
</svg>
