<svg xmlns="http://www.w3.org/2000/svg" xmlns:xlink="http://www.w3.org/1999/xlink" width="118" height="118" viewBox="0 0 118 118">
  <defs>
    <filter id="Rectangle" x="0" y="0" width="118" height="118" filterUnits="userSpaceOnUse">
      <feOffset dy="3" input="SourceAlpha"/>
      <feGaussianBlur stdDeviation="3" result="blur"/>
      <feFlood flood-opacity="0.161"/>
      <feComposite operator="in" in2="blur"/>
      <feComposite in="SourceGraphic"/>
    </filter>
  </defs>
  <g id="Group_28174" data-name="Group 28174" transform="translate(-95 -321)">
    <g transform="matrix(1, 0, 0, 1, 95, 321)" filter="url(#Rectangle)">
      <rect id="Rectangle-2" data-name="Rectangle" width="100" height="100" rx="12" transform="translate(9 6)" fill="#9759ff"/>
    </g>
    <g id="Group_27989" data-name="Group 27989" transform="translate(120 343)">
      <g id="Group_27987" data-name="Group 27987" transform="translate(0 0)">
        <g id="Group_27982" data-name="Group 27982" transform="translate(0 0)">
          <rect id="Rectangle_3983" data-name="Rectangle 3983" width="67.48" height="67.48" fill="none"/>
          <g id="Group_28175" data-name="Group 28175" transform="translate(-415.54 -25.764)">
            <g id="Group_28170" data-name="Group 28170" transform="translate(427.039 73.273)">
              <line id="Line_54" data-name="Line 54" x2="7.247" transform="translate(0 3.623)" fill="none" stroke="#fff" stroke-linecap="round" stroke-linejoin="round" stroke-width="2.5"/>
              <line id="Line_55" data-name="Line 55" y1="7.247" transform="translate(3.623 0)" fill="none" stroke="#fff" stroke-linecap="round" stroke-linejoin="round" stroke-width="2.5"/>
            </g>
            <g id="Group_28171" data-name="Group 28171" transform="translate(427.039 61.195)">
              <line id="Line_56" data-name="Line 56" x2="7.247" transform="translate(0 3.623)" fill="none" stroke="#fff" stroke-linecap="round" stroke-linejoin="round" stroke-width="2.5"/>
              <line id="Line_57" data-name="Line 57" y1="7.247" transform="translate(3.623)" fill="none" stroke="#fff" stroke-linecap="round" stroke-linejoin="round" stroke-width="2.5"/>
            </g>
            <g id="Group_28172" data-name="Group 28172" transform="translate(427.039 49.117)">
              <line id="Line_58" data-name="Line 58" x2="7.247" transform="translate(0 3.623)" fill="none" stroke="#fff" stroke-linecap="round" stroke-linejoin="round" stroke-width="2.5"/>
              <line id="Line_59" data-name="Line 59" y1="7.247" transform="translate(3.623)" fill="none" stroke="#fff" stroke-linecap="round" stroke-linejoin="round" stroke-width="2.5"/>
            </g>
            <path id="Path_6521" data-name="Path 6521" d="M476.57,41.8l-.011,36.478a4.831,4.831,0,0,1-4.831,4.831h-45.9A4.831,4.831,0,0,1,421,78.276v-31.4a4.831,4.831,0,0,1,4.831-4.831h29.236" transform="translate(0 2.244)" fill="none" stroke="#fff" stroke-linecap="round" stroke-linejoin="round" stroke-width="2.5"/>
            <line id="Line_60" data-name="Line 60" x2="15.71" transform="translate(435.493 38.247)" fill="none" stroke="#fff" stroke-linecap="round" stroke-linejoin="round" stroke-width="2.5"/>
            <path id="Path_6522" data-name="Path 6522" d="M461.465,52.8a5.6,5.6,0,0,1,6.84,8.754l-9.231,9.231-6.221-6.221" transform="translate(6.619 4.364)" fill="none" stroke="#fff" stroke-linecap="round" stroke-linejoin="round" stroke-width="2.5"/>
            <path id="Path_6523" data-name="Path 6523" d="M469.105,32.641a5.6,5.6,0,0,1,0,7.914l-9.231,9.231-9.231-9.231a5.6,5.6,0,0,1,7.912-7.914l1.319,1.319,1.319-1.319A5.588,5.588,0,0,1,469.105,32.641Z" transform="translate(5.819 0)" fill="none" stroke="#fff" stroke-linecap="round" stroke-linejoin="round" stroke-width="2.5"/>
            <path id="Path_6524" data-name="Path 6524" d="M459.105,49.087a5.6,5.6,0,0,1,0,7.914l-9.231,9.231L440.643,57a5.6,5.6,0,0,1,7.912-7.914l1.319,1.319,1.319-1.319A5.588,5.588,0,0,1,459.105,49.087Z" transform="translate(3.741 3.418)" fill="none" stroke="#fff" stroke-linecap="round" stroke-linejoin="round" stroke-width="2.5"/>
            <circle id="Ellipse_254" data-name="Ellipse 254" cx="0.604" cy="0.604" r="0.604" transform="translate(421 37.643)" fill="#fff" stroke="#fff" stroke-linecap="round" stroke-linejoin="round" stroke-width="2.5"/>
            <circle id="Ellipse_255" data-name="Ellipse 255" cx="0.604" cy="0.604" r="0.604" transform="translate(425.831 37.643)" fill="#fff" stroke="#fff" stroke-linecap="round" stroke-linejoin="round" stroke-width="2.5"/>
            <circle id="Ellipse_256" data-name="Ellipse 256" cx="0.604" cy="0.604" r="0.604" transform="translate(430.662 37.643)" fill="#fff" stroke="#fff" stroke-linecap="round" stroke-linejoin="round" stroke-width="2.5"/>
          </g>
        </g>
      </g>
    </g>
  </g>
</svg>
