<svg xmlns="http://www.w3.org/2000/svg" xmlns:xlink="http://www.w3.org/1999/xlink" width="118" height="118" viewBox="0 0 118 118">
  <defs>
    <filter id="Rectangle" x="0" y="0" width="118" height="118" filterUnits="userSpaceOnUse">
      <feOffset dy="3" input="SourceAlpha"/>
      <feGaussianBlur stdDeviation="3" result="blur"/>
      <feFlood flood-opacity="0.161"/>
      <feComposite operator="in" in2="blur"/>
      <feComposite in="SourceGraphic"/>
    </filter>
  </defs>
  <g id="Group_28176" data-name="Group 28176" transform="translate(-95 -321)">
    <g transform="matrix(1, 0, 0, 1, 95, 321)" filter="url(#Rectangle)">
      <rect id="Rectangle-2" data-name="Rectangle" width="100" height="100" rx="12" transform="translate(9 6)" fill="#9759ff"/>
    </g>
    <g id="Group_27989" data-name="Group 27989" transform="translate(120 343)">
      <g id="Group_27987" data-name="Group 27987" transform="translate(0 0)">
        <g id="Group_27982" data-name="Group 27982" transform="translate(0 0)">
          <rect id="Rectangle_3983" data-name="Rectangle 3983" width="67.48" height="67.48" fill="none"/>
          <g id="Group_28177" data-name="Group 28177" transform="translate(-792.313 -1010.361)">
            <path id="Icon_awesome-dollar-sign" data-name="Icon awesome-dollar-sign" d="M11.658,13.006,5.64,11.245A1.644,1.644,0,0,1,6.1,8.024H9.8a3.4,3.4,0,0,1,1.906.585A.869.869,0,0,0,12.789,8.5L14.729,6.6a.9.9,0,0,0-.1-1.365,7.88,7.88,0,0,0-4.82-1.672V.892A.894.894,0,0,0,8.916,0H7.133a.894.894,0,0,0-.892.892V3.566H6.1A6.106,6.106,0,0,0,.028,10.231,6.379,6.379,0,0,0,4.7,15.614l5.712,1.672a1.644,1.644,0,0,1-.463,3.221H6.253a3.4,3.4,0,0,1-1.906-.585.869.869,0,0,0-1.087.111L1.321,21.928a.9.9,0,0,0,.1,1.365,7.88,7.88,0,0,0,4.82,1.672v2.675a.894.894,0,0,0,.892.892H8.916a.894.894,0,0,0,.892-.892V24.954A6.3,6.3,0,0,0,15.7,20.9a6.119,6.119,0,0,0-4.04-7.9Z" transform="translate(818.027 1029.835)" fill="#fff" stroke="#9759ff" stroke-width="1.5"/>
            <g id="Icon_ionic-ios-sync" data-name="Icon ionic-ios-sync" transform="translate(795.498 1018)">
              <path id="Path_6525" data-name="Path 6525" d="M58.333,29.827a1.721,1.721,0,0,0-2.445,0l-1.655,1.655a26.175,26.175,0,0,0-8.314-21.008A26.062,26.062,0,0,0,18.443,5.509a25.587,25.587,0,0,0-8.62,5.768,26.218,26.218,0,0,0-4.278,5.7,1.827,1.827,0,0,0-.153,1.413,1.8,1.8,0,0,0,.917,1.082,1.824,1.824,0,0,0,.815.191A1.8,1.8,0,0,0,8.7,18.737a22.344,22.344,0,0,1,35.421-4.966,22.451,22.451,0,0,1,6.417,18.36l-2.406-2.355a1.691,1.691,0,0,0-2.381.013,1.691,1.691,0,0,0,0,2.394L51.2,37.645a1.26,1.26,0,0,0,1.783,0l5.36-5.373A1.741,1.741,0,0,0,58.333,29.827Z" transform="translate(2.269 -3.586)" fill="#fff"/>
              <path id="Path_6526" data-name="Path 6526" d="M53.657,31.919a1.824,1.824,0,0,0-.815-.191,1.8,1.8,0,0,0-1.579.929,22.376,22.376,0,0,1-35.434,4.978,22.586,22.586,0,0,1-6.4-18.322l2.343,2.355a1.629,1.629,0,0,0,2.292,0l.166-.166a1.622,1.622,0,0,0,0-2.279L8.763,13.75a1.26,1.26,0,0,0-1.783,0L1.633,19.135A1.729,1.729,0,1,0,4.077,21.58l1.655-1.668a26.5,26.5,0,0,0,1.146,9.74,25.984,25.984,0,0,0,24.8,18.194,26.037,26.037,0,0,0,9.791-1.91,25.717,25.717,0,0,0,8.607-5.742,26,26,0,0,0,4.354-5.78,1.792,1.792,0,0,0-.777-2.5Z" transform="translate(-1.127 4.356)" fill="#fff"/>
            </g>
          </g>
        </g>
      </g>
    </g>
  </g>
</svg>
