<svg xmlns="http://www.w3.org/2000/svg" width="65" height="65" viewBox="0 0 65 65">
  <g id="Group_28208" data-name="Group 28208" transform="translate(10873 17243)">
    <rect id="Rectangle_4048" data-name="Rectangle 4048" width="65" height="65" transform="translate(-10873 -17243)" fill="none"/>
    <path id="Icon_metro-dollars" data-name="Icon metro-dollars" d="M60.221,40.2l.091-27.365-49.721.03,0-3.139H63.421V40.2Zm-1.613,4.815-3.2,0L55.5,17.646l-49.721.032,0-3.139H58.61V45.014ZM53.9,48.221H2.571V19.35H53.9V48.221ZM50.689,22.458H5.778V45.014H50.687V22.458Zm-4.81,20.151a2.347,2.347,0,0,0,.162.8H28.233c4.429,0,8.021-4.308,8.021-9.624s-3.592-9.624-8.021-9.624H46.039a2.348,2.348,0,0,0-.162.8,2.4,2.4,0,0,0,2.405,2.405,2.348,2.348,0,0,0,.8-.162V40.362a2.348,2.348,0,0,0-3.206,2.247ZM42.669,30.445c-1.329,0-2.405,1.435-2.405,3.207s1.076,3.207,2.405,3.207,2.405-1.435,2.405-3.207S44,30.445,42.669,30.445ZM31.591,28a.746.746,0,0,1,.059.186,1.644,1.644,0,0,1,.034.291c.008.117.011.263.011.437,0,.194,0,.359-.014.492a2.232,2.232,0,0,1-.05.331.415.415,0,0,1-.1.191.25.25,0,0,1-.176.061.846.846,0,0,1-.351-.139c-.162-.094-.359-.194-.591-.3a5.654,5.654,0,0,0-.812-.3,3.6,3.6,0,0,0-1.012-.135,2.4,2.4,0,0,0-.751.1,1.547,1.547,0,0,0-.536.29,1.136,1.136,0,0,0-.32.444,1.446,1.446,0,0,0-.106.549,1.218,1.218,0,0,0,.235.748,2.241,2.241,0,0,0,.633.56,6.777,6.777,0,0,0,.9.461q.5.216,1.022.455a10.172,10.172,0,0,1,1.023.548,4.061,4.061,0,0,1,.892.73,3.411,3.411,0,0,1,.633,1,3.511,3.511,0,0,1,.24,1.358,4.005,4.005,0,0,1-.381,1.792,3.7,3.7,0,0,1-1.033,1.289,4.487,4.487,0,0,1-1.523.775c-.074.022-.154.032-.229.05v1.752H27.708V40.478c-.021,0-.038,0-.059,0a6.776,6.776,0,0,1-1.247-.109,7.46,7.46,0,0,1-1.017-.263,4.468,4.468,0,0,1-.737-.323,2.041,2.041,0,0,1-.426-.3.751.751,0,0,1-.186-.375,3.426,3.426,0,0,1-.056-.708c0-.207.006-.381.021-.52a1.479,1.479,0,0,1,.066-.343.383.383,0,0,1,.12-.186.3.3,0,0,1,.175-.054.821.821,0,0,1,.4.167,7.043,7.043,0,0,0,.657.365,6.018,6.018,0,0,0,.958.365,4.517,4.517,0,0,0,1.287.167,2.968,2.968,0,0,0,.862-.115,1.948,1.948,0,0,0,.647-.325,1.409,1.409,0,0,0,.405-.522,1.656,1.656,0,0,0,.141-.693,1.223,1.223,0,0,0-.24-.757,2.38,2.38,0,0,0-.626-.562,6.468,6.468,0,0,0-.876-.46c-.328-.144-.665-.3-1.012-.456a9.2,9.2,0,0,1-1.012-.546,4.047,4.047,0,0,1-.876-.732,3.47,3.47,0,0,1-.626-1.006,4.1,4.1,0,0,1,.106-3.03,3.364,3.364,0,0,1,.932-1.172,4,4,0,0,1,1.382-.7,5.8,5.8,0,0,1,.844-.175V25.462h1.577v1.657c.062.008.125,0,.187.014a6.287,6.287,0,0,1,.863.189,4.737,4.737,0,0,1,.709.269,1.679,1.679,0,0,1,.413.248.634.634,0,0,1,.131.163ZM20.214,33.786c0,5.315,3.59,9.624,8.019,9.624H10.428a2.35,2.35,0,0,0-3.046-3.046V27.209a2.348,2.348,0,0,0,.8.162,2.35,2.35,0,0,0,2.243-3.207H28.234c-4.429,0-8.019,4.308-8.019,9.622ZM13.8,30.445c-1.329,0-2.405,1.435-2.405,3.207S12.47,36.86,13.8,36.86,16.2,35.425,16.2,33.653,15.127,30.445,13.8,30.445Z" transform="translate(-10873.571 -17239.727)" fill="#131220"/>
  </g>
</svg>
