<svg xmlns="http://www.w3.org/2000/svg" width="65" height="65" viewBox="0 0 65 65">
  <g id="Group_28209" data-name="Group 28209" transform="translate(-218 -1186)">
    <rect id="Rectangle_4049" data-name="Rectangle 4049" width="65" height="65" transform="translate(218 1186)" fill="none"/>
    <path id="analytics-light" d="M7.033,30.946H1.407A1.406,1.406,0,0,0,0,32.353V43.606a1.406,1.406,0,0,0,1.407,1.407H7.033A1.406,1.406,0,0,0,8.44,43.606V32.353A1.406,1.406,0,0,0,7.033,30.946ZM5.627,42.2H2.813V33.76H5.627ZM49.233,16.88H43.606A1.406,1.406,0,0,0,42.2,18.287v25.32a1.406,1.406,0,0,0,1.407,1.407h5.627a1.406,1.406,0,0,0,1.407-1.407V18.287A1.406,1.406,0,0,0,49.233,16.88ZM47.826,42.2H45.013V19.693h2.813ZM44.2,7.8a4.211,4.211,0,1,0-2-3.576,4.174,4.174,0,0,0,.249,1.375l-7.877,6.3a4.14,4.14,0,0,0-4.436,0l-7.877-6.3a4.17,4.17,0,0,0,.249-1.375,4.22,4.22,0,1,0-8.018,1.809L6.029,14.489a4.211,4.211,0,1,0,2.411,3.8,4.179,4.179,0,0,0-.422-1.809l8.459-8.459A4.117,4.117,0,0,0,20.5,7.8l7.877,6.3a4.22,4.22,0,1,0,7.942,0L44.2,7.8ZM46.42,2.813A1.407,1.407,0,1,1,45.013,4.22,1.409,1.409,0,0,1,46.42,2.813ZM4.22,19.693a1.407,1.407,0,1,1,1.407-1.407A1.409,1.409,0,0,1,4.22,19.693ZM18.287,5.627A1.407,1.407,0,1,1,19.693,4.22,1.409,1.409,0,0,1,18.287,5.627ZM32.353,16.88a1.407,1.407,0,1,1,1.407-1.407A1.409,1.409,0,0,1,32.353,16.88Zm-11.253,0H15.473a1.406,1.406,0,0,0-1.407,1.407v25.32a1.406,1.406,0,0,0,1.407,1.407H21.1a1.406,1.406,0,0,0,1.407-1.407V18.287A1.406,1.406,0,0,0,21.1,16.88ZM19.693,42.2H16.88V19.693h2.813ZM35.166,28.133H29.54a1.406,1.406,0,0,0-1.407,1.407V43.606a1.406,1.406,0,0,0,1.407,1.407h5.627a1.406,1.406,0,0,0,1.407-1.407V29.54A1.406,1.406,0,0,0,35.166,28.133ZM33.76,42.2H30.946V30.946H33.76Z" transform="translate(225 1196)" fill="#131220"/>
  </g>
</svg>
