<svg xmlns="http://www.w3.org/2000/svg" width="65.19" height="65" viewBox="0 0 65.19 65">
  <g id="Group_28210" data-name="Group 28210" transform="translate(-1049 -1237)">
    <rect id="Rectangle_4050" data-name="Rectangle 4050" width="65" height="65" transform="translate(1049 1237)" fill="none"/>
    <g id="Group_28188" data-name="Group 28188" transform="translate(905.6 -282.643)">
      <g id="Icon_feather-settings" data-name="Icon feather-settings" transform="translate(145.4 1540.456)">
        <path id="Path_6527" data-name="Path 6527" d="M23.445,18.473A4.973,4.973,0,1,1,18.473,13.5,4.973,4.973,0,0,1,23.445,18.473Z" transform="translate(-0.24 -0.24)" fill="none" stroke="#131220" stroke-linecap="round" stroke-linejoin="round" stroke-width="3"/>
        <path id="Path_6528" data-name="Path 6528" d="M32,24.705a2.735,2.735,0,0,0,.547,3.017l.1.1a3.317,3.317,0,1,1-4.691,4.691l-.1-.1a2.757,2.757,0,0,0-4.674,1.956v.282a3.315,3.315,0,1,1-6.63,0V34.5A2.735,2.735,0,0,0,14.76,32a2.735,2.735,0,0,0-3.017.547l-.1.1a3.317,3.317,0,1,1-4.691-4.691l.1-.1A2.757,2.757,0,0,0,5.1,23.18H4.815a3.315,3.315,0,1,1,0-6.63h.149a2.735,2.735,0,0,0,2.5-1.79,2.735,2.735,0,0,0-.547-3.017l-.1-.1a3.317,3.317,0,1,1,4.691-4.691l.1.1a2.735,2.735,0,0,0,3.017.547h.133a2.735,2.735,0,0,0,1.658-2.5V4.815a3.315,3.315,0,1,1,6.63,0v.149A2.757,2.757,0,0,0,27.722,6.92l.1-.1a3.317,3.317,0,1,1,4.691,4.691l-.1.1a2.735,2.735,0,0,0-.547,3.017v.133a2.735,2.735,0,0,0,2.5,1.658h.282a3.315,3.315,0,1,1,0,6.63H34.5A2.735,2.735,0,0,0,32,24.705Z" transform="translate(-1.5 -1.5)" fill="none" stroke="#131220" stroke-linecap="round" stroke-linejoin="round" stroke-width="3"/>
      </g>
      <g id="Icon_feather-settings-2" data-name="Icon feather-settings" transform="translate(179.463 1526.643)">
        <path id="Path_6527-2" data-name="Path 6527" d="M21.035,17.267A3.767,3.767,0,1,1,17.267,13.5,3.767,3.767,0,0,1,21.035,17.267Z" transform="translate(-3.454 -3.454)" fill="none" stroke="#131220" stroke-linecap="round" stroke-linejoin="round" stroke-width="3"/>
        <path id="Path_6528-2" data-name="Path 6528" d="M24.607,19.081a2.072,2.072,0,0,0,.414,2.286l.075.075A2.513,2.513,0,1,1,21.542,25l-.075-.075A2.089,2.089,0,0,0,17.926,26.4v.213a2.512,2.512,0,1,1-5.023,0V26.5a2.072,2.072,0,0,0-1.356-1.9,2.072,2.072,0,0,0-2.286.414l-.075.075a2.513,2.513,0,1,1-3.554-3.554l.075-.075a2.089,2.089,0,0,0-1.482-3.541H4.012a2.512,2.512,0,1,1,0-5.023h.113a2.072,2.072,0,0,0,1.9-1.356,2.072,2.072,0,0,0-.414-2.286l-.075-.075A2.513,2.513,0,1,1,9.085,5.632l.075.075a2.072,2.072,0,0,0,2.286.414h.1a2.072,2.072,0,0,0,1.256-1.9V4.012a2.512,2.512,0,0,1,5.023,0v.113a2.089,2.089,0,0,0,3.541,1.482l.075-.075A2.513,2.513,0,1,1,25,9.085l-.075.075a2.072,2.072,0,0,0-.414,2.286v.1A2.072,2.072,0,0,0,26.4,12.8h.213a2.512,2.512,0,0,1,0,5.023H26.5a2.072,2.072,0,0,0-1.9,1.256Z" transform="translate(-1.5 -1.5)" fill="none" stroke="#131220" stroke-linecap="round" stroke-linejoin="round" stroke-width="3"/>
      </g>
    </g>
  </g>
</svg>
