<svg xmlns="http://www.w3.org/2000/svg" width="65" height="65" viewBox="0 0 65 65">
  <g id="Group_28212" data-name="Group 28212" transform="translate(-202 -1712)">
    <rect id="Rectangle_4051" data-name="Rectangle 4051" width="65" height="65" transform="translate(202 1712)" fill="none"/>
    <g id="Group_28211" data-name="Group 28211" transform="translate(164 1621)">
      <path id="Path_6541" data-name="Path 6541" d="M95.267,103.467H93.4V99.733A3.737,3.737,0,0,0,89.667,96H52.333A3.737,3.737,0,0,0,48.6,99.733v3.733H46.733A3.737,3.737,0,0,0,43,107.2v31.733a3.737,3.737,0,0,0,3.733,3.733H65.079l-2.24,7.467H60.733V152H81.267v-1.867H79.161l-2.24-7.467H95.267A3.737,3.737,0,0,0,99,138.933V107.2A3.737,3.737,0,0,0,95.267,103.467Zm-50.4,3.733a1.869,1.869,0,0,1,1.867-1.867H48.6v28h1.867v-33.6a1.869,1.869,0,0,1,1.867-1.867H89.667a1.869,1.869,0,0,1,1.867,1.867v33.6H93.4v-28h1.867a1.869,1.869,0,0,1,1.867,1.867v28H44.867Zm32.346,42.933H64.788l2.24-7.467h7.945Zm19.921-11.2a1.869,1.869,0,0,1-1.867,1.867H46.733a1.869,1.869,0,0,1-1.867-1.867v-1.867H97.133Z" transform="translate(0 0)" fill="#131220" stroke="#131220" stroke-width="1"/>
      <rect id="Rectangle_4042" data-name="Rectangle 4042" width="1.867" height="1.867" transform="translate(52.333 99.733)" fill="#131220" stroke="#131220" stroke-width="1"/>
      <rect id="Rectangle_4043" data-name="Rectangle 4043" width="1.867" height="1.867" transform="translate(56.067 99.733)" fill="#131220" stroke="#131220" stroke-width="1"/>
      <rect id="Rectangle_4044" data-name="Rectangle 4044" width="1.867" height="1.867" transform="translate(59.8 99.733)" fill="#131220" stroke="#131220" stroke-width="1"/>
      <rect id="Rectangle_4045" data-name="Rectangle 4045" width="4.945" height="1.867" transform="translate(83.137 112.211) rotate(-12.585)" fill="#131220" stroke="#131220" stroke-width="1"/>
      <rect id="Rectangle_4046" data-name="Rectangle 4046" width="3.96" height="1.866" transform="translate(80.607 103.74) rotate(-45)" fill="#131220" stroke="#131220" stroke-width="1"/>
      <rect id="Rectangle_4047" data-name="Rectangle 4047" width="1.867" height="4.174" transform="translate(84.583 122.035) rotate(-63.435)" fill="#131220" stroke="#131220" stroke-width="1"/>
      <path id="Path_6542" data-name="Path 6542" d="M79.439,102.248a2.911,2.911,0,0,0-5.682,1.269l.287,1.288L62.3,112.212l-4.669,1.042a5.872,5.872,0,0,0,.614,11.57l1.592,7.133a.933.933,0,0,0,1.114.707l3.86-.862a.934.934,0,0,0,.708-1.114L64,123.877l.862-.192,13.775,1.707.279,1.248a2.913,2.913,0,0,0,2.835,2.278,2.915,2.915,0,0,0,2.847-3.547ZM55,119.864a4.009,4.009,0,0,1,3.04-4.789l3.914-.874.875,3.914.874,3.914-1.018.228h0l-2.9.646A4.008,4.008,0,0,1,55,119.864Zm8.5,10.318-2.039.455-1.317-5.9.049-.011h0l1.985-.443Zm2.088-8.29-1.869-8.366,10.758-6.785,3.732,16.717ZM82.01,127.02a1.046,1.046,0,0,1-1.267-.788L75.579,103.11a1.043,1.043,0,0,1,.791-1.246,1.044,1.044,0,0,1,1.247.791l5.162,23.122A1.05,1.05,0,0,1,82.01,127.02Z" transform="translate(-0.669 -0.265)" fill="#131220" stroke="#131220" stroke-width="1"/>
    </g>
  </g>
</svg>
