<svg xmlns="http://www.w3.org/2000/svg" width="65" height="65" viewBox="0 0 65 65">
  <g id="Group_28214" data-name="Group 28214" transform="translate(-923 -1639)">
    <rect id="Rectangle_4052" data-name="Rectangle 4052" width="65" height="65" transform="translate(923 1639)" fill="none"/>
    <g id="Group_28213" data-name="Group 28213" transform="translate(-3295.804 -1282.174)">
      <g id="Group_28199" data-name="Group 28199" transform="translate(4234.488 2936.869)">
        <g id="Group_28193" data-name="Group 28193" transform="translate(0 0)">
          <path id="Path_6529" data-name="Path 6529" d="M4348.627,3059.879a17.116,17.116,0,1,1,7.787-1.9A17.127,17.127,0,0,1,4348.627,3059.879Zm-.008-32.387a15.293,15.293,0,1,0,4.669.735A15.316,15.316,0,0,0,4348.619,3027.492Z" transform="translate(-4331.512 -3025.693)" fill="#131220" stroke="#131220" stroke-width="1"/>
        </g>
        <g id="Group_28194" data-name="Group 28194" transform="translate(4.237 0.38)">
          <path id="Path_6530" data-name="Path 6530" d="M4381.4,3062.645a9.218,9.218,0,0,1-2.832-.442c-3.191-1.026-5.616-3.716-6.824-7.574a22.145,22.145,0,0,1,7.324-22.783c3.231-2.431,6.769-3.2,9.96-2.178s5.615,3.716,6.824,7.575a22.146,22.146,0,0,1-7.324,22.783A11.935,11.935,0,0,1,4381.4,3062.645Zm4.8-31.62c-4.952,0-10.191,4.742-12.424,11.688a19.059,19.059,0,0,0-.315,11.378c1.029,3.285,3.039,5.558,5.659,6.4s5.577.166,8.328-1.9a19.058,19.058,0,0,0,6.374-9.43h0c2.58-8.026.184-16-5.343-17.778A7.418,7.418,0,0,0,4386.2,3031.025Z" transform="translate(-4370.938 -3029.225)" fill="#131220" stroke="#131220" stroke-width="1"/>
        </g>
        <g id="Group_28195" data-name="Group 28195" transform="translate(8.839 0.674)">
          <path id="Path_6531" data-name="Path 6531" d="M4417.728,3064.8a3.076,3.076,0,0,1-.944-.148c-1.87-.6-2.914-2.877-3.019-6.582a40.861,40.861,0,0,1,7.19-22.366c2.244-2.949,4.418-4.19,6.289-3.589,4.089,1.315,3.6,10.406,1.065,18.292h0a36.627,36.627,0,0,1-5.237,10.655C4421.2,3063.523,4419.37,3064.8,4417.728,3064.8Zm8.581-31.029c-1.024,0-2.452,1.09-3.922,3.024a39.109,39.109,0,0,0-6.824,21.226c.078,2.749.74,4.588,1.771,4.92s2.642-.777,4.307-2.965a34.811,34.811,0,0,0,4.957-10.117h0c2.678-8.331,2.26-15.334.1-16.029A1.251,1.251,0,0,0,4426.309,3033.766Z" transform="translate(-4413.756 -3031.964)" fill="#131220" stroke="#131220" stroke-width="1"/>
        </g>
        <g id="Group_28196" data-name="Group 28196" transform="translate(7.8 2.358)">
          <path id="Path_6532" data-name="Path 6532" d="M4427.19,3056.935c-.728,0-1.457-.026-2.177-.079a37.6,37.6,0,0,1-4.532-.577,41.083,41.083,0,0,1-9.313-2.994,37.652,37.652,0,0,1-4.026-2.176,30.287,30.287,0,0,1-2.7-1.867.9.9,0,0,1,1.1-1.422,28.381,28.381,0,0,0,2.547,1.759,35.744,35.744,0,0,0,3.838,2.075,39.22,39.22,0,0,0,8.891,2.858,35.761,35.761,0,0,0,4.32.55,28.457,28.457,0,0,0,3.1.055.9.9,0,0,1,.066,1.8C4427.934,3056.928,4427.562,3056.935,4427.19,3056.935Z" transform="translate(-4404.091 -3047.631)" fill="#131220" stroke="#131220" stroke-width="1"/>
        </g>
        <g id="Group_28197" data-name="Group 28197" transform="translate(0.966 21.614)">
          <path id="Path_6533" data-name="Path 6533" d="M4365.822,3236.49a.893.893,0,0,1-.561-.2,30.86,30.86,0,0,0-2.695-1.926,33.408,33.408,0,0,0-4-2.2,38.723,38.723,0,0,0-9.266-2.979,33.427,33.427,0,0,0-4.535-.542,30.76,30.76,0,0,0-3.318-.006.9.9,0,0,1-.093-1.8,32.544,32.544,0,0,1,3.506.006,35.064,35.064,0,0,1,4.769.569,40.516,40.516,0,0,1,9.7,3.119,35.167,35.167,0,0,1,4.209,2.317,32.648,32.648,0,0,1,2.847,2.035.9.9,0,0,1-.562,1.6Z" transform="translate(-4340.5 -3226.797)" fill="#131220" stroke="#131220" stroke-width="1"/>
        </g>
        <g id="Group_28198" data-name="Group 28198" transform="translate(0.785 11.236)">
          <path id="Path_6534" data-name="Path 6534" d="M4370.54,3141.942a.9.9,0,0,1-.275-.043l-30.824-9.91a.9.9,0,0,1,.55-1.712l30.824,9.909a.9.9,0,0,1-.275,1.756Z" transform="translate(-4338.817 -3130.234)" fill="#131220" stroke="#131220" stroke-width="1"/>
        </g>
      </g>
      <g id="Group_28200" data-name="Group 28200" transform="translate(4222.804 2929.676)">
        <path id="Path_6535" data-name="Path 6535" d="M4229.4,2977.649a.9.9,0,0,1-.74-.388c-.6-.867-5.855-8.573-5.855-11.9a6.6,6.6,0,1,1,13.191,0c0,3.33-5.257,11.036-5.856,11.9A.9.9,0,0,1,4229.4,2977.649Zm0-17.088a4.8,4.8,0,0,0-4.8,4.8c0,2.034,2.993,7.026,4.8,9.779,1.8-2.753,4.8-7.746,4.8-9.779A4.8,4.8,0,0,0,4229.4,2960.561Z" transform="translate(-4222.805 -2958.762)" fill="#131220" stroke="#131220" stroke-width="1"/>
      </g>
      <g id="Group_28201" data-name="Group 28201" transform="translate(4267.173 2962.953)">
        <path id="Path_6536" data-name="Path 6536" d="M4642.23,3287.273a.9.9,0,0,1-.74-.388c-.6-.868-5.855-8.573-5.855-11.9a6.6,6.6,0,0,1,13.191,0c0,3.33-5.256,11.036-5.855,11.9A.9.9,0,0,1,4642.23,3287.273Zm0-17.088a4.8,4.8,0,0,0-4.8,4.8c0,2.034,2.993,7.026,4.8,9.778,1.8-2.753,4.8-7.746,4.8-9.778A4.8,4.8,0,0,0,4642.23,3270.185Z" transform="translate(-4635.635 -3268.386)" fill="#131220" stroke="#131220" stroke-width="1"/>
      </g>
      <g id="Group_28202" data-name="Group 28202" transform="translate(4239.146 2927.877)">
        <path id="Path_6537" data-name="Path 6537" d="M4412.473,2969.006a.9.9,0,0,1-.9-.9,24.286,24.286,0,0,0-35.408-21.587.9.9,0,1,1-.828-1.6,26.086,26.086,0,0,1,38.035,23.184A.9.9,0,0,1,4412.473,2969.006Z" transform="translate(-4374.852 -2942.025)" fill="#131220" stroke="#131220" stroke-width="1"/>
      </g>
      <g id="Group_28203" data-name="Group 28203" transform="translate(4225.502 2953.06)">
        <path id="Path_6538" data-name="Path 6538" d="M4273.99,3203.316a26.112,26.112,0,0,1-26.082-26.082.9.9,0,0,1,1.8,0,24.311,24.311,0,0,0,24.283,24.283,24.03,24.03,0,0,0,11.378-2.827.9.9,0,1,1,.772,1.626A26.174,26.174,0,0,1,4273.99,3203.316Z" transform="translate(-4247.908 -3176.335)" fill="#131220" stroke="#131220" stroke-width="1"/>
      </g>
      <g id="Group_28204" data-name="Group 28204" transform="translate(4239.141 2926.174)">
        <path id="Path_6539" data-name="Path 6539" d="M4381.1,2933.369a.856.856,0,0,1-.149-.013l-5.4-.9a.9.9,0,0,1-.624-1.35l2.7-4.5a.9.9,0,1,1,1.542.925l-2.019,3.364,4.093.682a.9.9,0,0,1-.147,1.787Z" transform="translate(-4374.803 -2926.174)" fill="#131220" stroke="#131220" stroke-width="1"/>
      </g>
      <g id="Group_28205" data-name="Group 28205" transform="translate(4257.098 2974.411)">
        <path id="Path_6540" data-name="Path 6540" d="M4545.486,3382.191a.9.9,0,0,1-.771-1.362l2.02-3.364-4.094-.682a.9.9,0,1,1,.3-1.774l5.4.9a.9.9,0,0,1,.623,1.35l-2.7,4.5A.9.9,0,0,1,4545.486,3382.191Z" transform="translate(-4541.89 -3374.996)" fill="#131220" stroke="#131220" stroke-width="1"/>
      </g>
    </g>
  </g>
</svg>
