<svg xmlns="http://www.w3.org/2000/svg" width="70.995" height="74.9" viewBox="0 0 70.995 74.9">
  <g id="Group_28227" data-name="Group 28227" transform="translate(-358.503 -2669)">
    <rect id="Rectangle_4056" data-name="Rectangle 4056" width="70" height="74.9" transform="translate(359 2669)" fill="none"/>
    <path id="sack-dollar-light" d="M45.788,16.629,51.766,6.8A4.375,4.375,0,0,0,48.127,0H21.9A4.375,4.375,0,0,0,18.26,6.8l5.957,9.827C-1.265,32.893.013,53.643.013,56.329.013,63.88,6.727,70,15.008,70H55c8.282,0,15-6.121,15-13.672,0-2.636,1.132-23.516-24.206-39.7ZM21.9,4.375h26.23L41.41,15.313H28.6Zm43.73,51.954c0,5.126-4.765,9.3-10.622,9.3h-40c-5.857,0-10.622-4.171-10.622-9.3v-.459C4.259,47.685,7.121,32.217,27.48,19.688H42.533c20.311,12.5,23.2,28.019,23.095,36.231ZM39.051,42.484l-6.7-1.988a1.9,1.9,0,0,1-1.308-1.87A1.856,1.856,0,0,1,32.8,36.683h4.18a3.661,3.661,0,0,1,1.9.547,1.22,1.22,0,0,0,1.5-.1l1.74-1.664a1.168,1.168,0,0,0-.089-1.777,8.63,8.63,0,0,0-4.672-1.664V29.616a1.187,1.187,0,0,0-1.189-1.179H33.8a1.188,1.188,0,0,0-1.191,1.179V32a6.6,6.6,0,0,0-6.352,6.64,6.671,6.671,0,0,0,4.7,6.39l6.7,1.988a1.9,1.9,0,0,1,1.31,1.869,1.858,1.858,0,0,1-1.755,1.944H33.025a3.653,3.653,0,0,1-1.9-.547,1.22,1.22,0,0,0-1.5.1l-1.755,1.649a1.169,1.169,0,0,0,.089,1.777,8.641,8.641,0,0,0,4.672,1.664v2.4a1.188,1.188,0,0,0,1.191,1.179h2.38a1.188,1.188,0,0,0,1.189-1.179V55.508a6.663,6.663,0,0,0,1.668-13.024Z" transform="translate(358.998 2671.45)" fill="#9759ff" stroke="#f0f0f7" stroke-width="1"/>
  </g>
</svg>
