<svg xmlns="http://www.w3.org/2000/svg" width="70" height="71.449" viewBox="0 0 70 71.449">
  <g id="Group_28231" data-name="Group 28231" transform="translate(-451 -2707.669)">
    <rect id="Rectangle_4057" data-name="Rectangle 4057" width="70" height="70" transform="translate(451 2709)" fill="none"/>
    <g id="Group_28228" data-name="Group 28228" transform="translate(453.8 2709.669)">
      <path id="Icon_ionic-ios-calculator" data-name="Icon ionic-ios-calculator" d="M44.234,3.375h-32.2A4.436,4.436,0,0,0,7.594,7.816V56.67a4.436,4.436,0,0,0,4.441,4.441h32.2a4.436,4.436,0,0,0,4.441-4.441V7.816A4.436,4.436,0,0,0,44.234,3.375Zm-1.665,37.75v11.1a3.323,3.323,0,0,1-3.331,3.331h0a3.323,3.323,0,0,1-3.331-3.331v-11.1a3.323,3.323,0,0,1,3.331-3.331h0A3.323,3.323,0,0,1,42.568,41.125Zm0-11.1h0a3.323,3.323,0,0,1-3.331,3.331h0a3.323,3.323,0,0,1-3.331-3.331h0a3.323,3.323,0,0,1,3.331-3.331h0A3.323,3.323,0,0,1,42.568,30.022Zm-11.1,22.206h0a3.323,3.323,0,0,1-3.331,3.331h0A3.323,3.323,0,0,1,24.8,52.228h0A3.323,3.323,0,0,1,28.134,48.9h0A3.323,3.323,0,0,1,31.465,52.228Zm0-11.1h0a3.323,3.323,0,0,1-3.331,3.331h0A3.323,3.323,0,0,1,24.8,41.125h0a3.323,3.323,0,0,1,3.331-3.331h0A3.323,3.323,0,0,1,31.465,41.125Zm0-11.1h0a3.323,3.323,0,0,1-3.331,3.331h0A3.323,3.323,0,0,1,24.8,30.022h0a3.323,3.323,0,0,1,3.331-3.331h0A3.323,3.323,0,0,1,31.465,30.022Zm-11.1,22.206h0a3.323,3.323,0,0,1-3.331,3.331h0A3.323,3.323,0,0,1,13.7,52.228h0A3.323,3.323,0,0,1,17.031,48.9h0A3.323,3.323,0,0,1,20.362,52.228Zm0-11.1h0a3.323,3.323,0,0,1-3.331,3.331h0A3.323,3.323,0,0,1,13.7,41.125h0a3.323,3.323,0,0,1,3.331-3.331h0A3.323,3.323,0,0,1,20.362,41.125Zm0-11.1h0a3.323,3.323,0,0,1-3.331,3.331h0A3.323,3.323,0,0,1,13.7,30.022h0a3.323,3.323,0,0,1,3.331-3.331h0A3.323,3.323,0,0,1,20.362,30.022ZM13.7,18.919V12.257a2.227,2.227,0,0,1,2.221-2.221H40.348a2.227,2.227,0,0,1,2.221,2.221v6.662a2.227,2.227,0,0,1-2.221,2.221H15.921A2.227,2.227,0,0,1,13.7,18.919Z" transform="translate(7.967 -3.375)" fill="none" stroke="#9759ff" stroke-width="4"/>
      <g id="Ellipse_262" data-name="Ellipse 262" transform="translate(0 38.353)" fill="#f9f9f9" stroke="#9759ff" stroke-width="3">
        <circle cx="15.548" cy="15.548" r="15.548" stroke="none"/>
        <circle cx="15.548" cy="15.548" r="14.048" fill="none"/>
      </g>
      <path id="Icon_awesome-percentage" data-name="Icon awesome-percentage" d="M4.9,9.4A2.87,2.87,0,1,0,.84,9.4,2.87,2.87,0,0,0,4.9,9.4Zm11.479,7.42a2.87,2.87,0,1,0,0,4.058A2.87,2.87,0,0,0,16.377,16.819ZM16.29,6.442,15.276,5.428a1.434,1.434,0,0,0-2.029,0L.928,17.747a1.434,1.434,0,0,0,0,2.029L1.942,20.79a1.434,1.434,0,0,0,2.029,0L16.29,8.471A1.434,1.434,0,0,0,16.29,6.442Z" transform="translate(6.712 40.892)" fill="#9759ff" stroke="#f9f9f9" stroke-width="1"/>
    </g>
  </g>
</svg>
