<svg xmlns="http://www.w3.org/2000/svg" width="70" height="70" viewBox="0 0 70 70">
  <g id="Group_28229" data-name="Group 28229" transform="translate(-796 -2639)">
    <rect id="Rectangle_4058" data-name="Rectangle 4058" width="70" height="70" transform="translate(796 2639)" fill="none"/>
    <path id="shield-check-light" d="M77.6,11.466,51.345.527a6.584,6.584,0,0,0-5.045,0L20.047,11.466A6.556,6.556,0,0,0,16,17.523c0,27.141,15.656,45.9,30.286,52a6.584,6.584,0,0,0,5.045,0c11.718-4.881,30.3-21.74,30.3-52A6.565,6.565,0,0,0,77.6,11.466ZM49.663,65.489a2.237,2.237,0,0,1-1.682,0C34.6,60.184,20.375,41.588,20.375,17.523a2.2,2.2,0,0,1,1.34-2.024L47.968,4.561a2.237,2.237,0,0,1,1.682,0L75.9,15.5a2.156,2.156,0,0,1,1.34,2.024C77.256,41.588,63.036,60.184,49.663,65.489ZM68.286,21.051a1.655,1.655,0,0,0-2.324-.014L43.62,43.2l-9.435-9.5a1.655,1.655,0,0,0-2.324-.014L30.7,34.847a1.655,1.655,0,0,0-.014,2.324L42.43,49.013a1.655,1.655,0,0,0,2.324.014l24.68-24.475a1.655,1.655,0,0,0,.014-2.324Z" transform="translate(782.1 2638.975)" fill="#9759ff"/>
  </g>
</svg>
