<svg id="analytics" xmlns="http://www.w3.org/2000/svg" width="22" height="22" viewBox="0 0 22 22">
  <g id="Group_1086" data-name="Group 1086" transform="translate(0 21.038)">
    <g id="Group_1085" data-name="Group 1085">
      <path id="Path_1179" data-name="Path 1179" d="M21.542,490.667H.458a.482.482,0,0,0,0,.962H21.542a.482.482,0,0,0,0-.962Z" transform="translate(0 -490.667)"/>
    </g>
  </g>
  <g id="Group_1088" data-name="Group 1088" transform="translate(0.962 15.265)">
    <g id="Group_1087" data-name="Group 1087">
      <path id="Path_1180" data-name="Path 1180" d="M24.7,362.667H21.814a.481.481,0,0,0-.481.481v5.773a.481.481,0,0,0,.481.481H24.7a.481.481,0,0,0,.481-.481v-5.773A.481.481,0,0,0,24.7,362.667Zm-.481,5.773H22.3v-4.81h1.924v4.81Z" transform="translate(-21.333 -362.667)"/>
    </g>
  </g>
  <g id="Group_1090" data-name="Group 1090" transform="translate(6.353 10.455)">
    <g id="Group_1089" data-name="Group 1089">
      <path id="Path_1181" data-name="Path 1181" d="M152.7,256h-2.886a.481.481,0,0,0-.481.481v10.583a.481.481,0,0,0,.481.481H152.7a.481.481,0,0,0,.481-.481V256.481A.481.481,0,0,0,152.7,256Zm-.481,10.583H150.3v-9.621h1.924Z" transform="translate(-149.333 -256)"/>
    </g>
  </g>
  <g id="Group_1092" data-name="Group 1092" transform="translate(11.799 12.379)">
    <g id="Group_1091" data-name="Group 1091">
      <path id="Path_1182" data-name="Path 1182" d="M280.7,298.667h-2.886a.481.481,0,0,0-.481.481v8.659a.481.481,0,0,0,.481.481H280.7a.481.481,0,0,0,.481-.481v-8.659A.481.481,0,0,0,280.7,298.667Zm-.481,8.659H278.3v-7.7h1.924Z" transform="translate(-277.333 -298.667)"/>
    </g>
  </g>
  <g id="Group_1094" data-name="Group 1094" transform="translate(17.19 6.607)">
    <g id="Group_1093" data-name="Group 1093">
      <path id="Path_1183" data-name="Path 1183" d="M408.7,170.667h-2.886a.481.481,0,0,0-.481.481v14.431a.481.481,0,0,0,.481.481H408.7a.481.481,0,0,0,.481-.481V171.148A.481.481,0,0,0,408.7,170.667Zm-.481,14.431H406.3V171.629h1.924Z" transform="translate(-405.333 -170.667)"/>
    </g>
  </g>
  <g id="Group_1096" data-name="Group 1096" transform="translate(0.962 8.168)">
    <g id="Group_1095" data-name="Group 1095">
      <path id="Path_1184" data-name="Path 1184" d="M23.257,192a1.924,1.924,0,1,0,1.924,1.924A1.926,1.926,0,0,0,23.257,192Zm0,2.886a.962.962,0,1,1,.962-.962A.963.963,0,0,1,23.257,194.886Z" transform="translate(-21.333 -192)"/>
    </g>
  </g>
  <g id="Group_1098" data-name="Group 1098" transform="translate(6.353 3.63)">
    <g id="Group_1097" data-name="Group 1097">
      <path id="Path_1185" data-name="Path 1185" d="M151.257,85.333a1.924,1.924,0,1,0,1.924,1.924A1.926,1.926,0,0,0,151.257,85.333Zm0,2.886a.962.962,0,1,1,.962-.962A.963.963,0,0,1,151.257,88.219Z" transform="translate(-149.333 -85.333)"/>
    </g>
  </g>
  <g id="Group_1100" data-name="Group 1100" transform="translate(11.799 5.445)">
    <g id="Group_1099" data-name="Group 1099">
      <path id="Path_1186" data-name="Path 1186" d="M279.257,128a1.924,1.924,0,1,0,1.924,1.924A1.926,1.926,0,0,0,279.257,128Zm0,2.886a.962.962,0,1,1,.962-.962A.963.963,0,0,1,279.257,130.886Z" transform="translate(-277.333 -128)"/>
    </g>
  </g>
  <g id="Group_1102" data-name="Group 1102" transform="translate(17.19)">
    <g id="Group_1101" data-name="Group 1101">
      <path id="Path_1187" data-name="Path 1187" d="M407.257,0a1.924,1.924,0,1,0,1.924,1.924A1.926,1.926,0,0,0,407.257,0Zm0,2.886a.962.962,0,1,1,.962-.962A.963.963,0,0,1,407.257,2.886Z" transform="translate(-405.333)"/>
    </g>
  </g>
  <g id="Group_1104" data-name="Group 1104" transform="translate(13.881 2.463)">
    <g id="Group_1103" data-name="Group 1103">
      <path id="Path_1188" data-name="Path 1188" d="M336.517,54.749a.481.481,0,0,0-.68,0L332.1,58.482a.481.481,0,0,0,.68.68l3.733-3.733A.481.481,0,0,0,336.517,54.749Z" transform="translate(-331.963 -54.608)"/>
    </g>
  </g>
  <g id="Group_1106" data-name="Group 1106" transform="translate(9.018 5.394)">
    <g id="Group_1105" data-name="Group 1105">
      <path id="Path_1189" data-name="Path 1189" d="M215.811,126.978l-3.09-.881a.481.481,0,0,0-.264.926l3.09.881a.481.481,0,0,0,.264-.926Z" transform="translate(-212.108 -126.078)"/>
    </g>
  </g>
  <g id="Group_1108" data-name="Group 1108" transform="translate(3.424 5.84)">
    <g id="Group_1107" data-name="Group 1107">
      <path id="Path_1190" data-name="Path 1190" d="M80.419,137.455a.481.481,0,0,0-.675-.077l-3.627,2.892a.481.481,0,0,0,.3.857.486.486,0,0,0,.3-.1l3.627-2.892A.481.481,0,0,0,80.419,137.455Z" transform="translate(-75.935 -137.273)"/>
    </g>
  </g>
</svg>
