<svg xmlns="http://www.w3.org/2000/svg" width="30" height="30" viewBox="0 0 30 30"><defs><style>.a{fill:none;}.b{fill:#1f1e34;}</style></defs><rect class="a" width="30" height="30"/><g transform="translate(6 7)"><path class="b" d="M15.563,11.425h.925a.569.569,0,0,0,.529-.529V1.38a.569.569,0,0,0-.529-.529h-.925a.569.569,0,0,0-.529.529V10.9A.569.569,0,0,0,15.563,11.425Zm-7.517,0H8.97A.542.542,0,0,0,9.5,10.95V5.968a.542.542,0,0,0-.529-.475H8.045a.542.542,0,0,0-.529.475V10.95a.542.542,0,0,0,.528.475Zm3.841,0h.925a.645.645,0,0,0,.529-.65V3.954a.645.645,0,0,0-.529-.65h-.925a.645.645,0,0,0-.529.65v6.821a.645.645,0,0,0,.528.65Zm6.519,2.04H1.781V.641A.62.62,0,0,0,1.188,0H.594A.62.62,0,0,0,0,.641V14.106A1.238,1.238,0,0,0,1.188,15.39H18.406A.62.62,0,0,0,19,14.749v-.641A.62.62,0,0,0,18.406,13.465ZM4.494,11.425h.925a.569.569,0,0,0,.529-.529V7.988a.569.569,0,0,0-.529-.529H4.494a.569.569,0,0,0-.529.529V10.9A.569.569,0,0,0,4.494,11.425Z"/></g></svg>