<svg id="calendar_2_" data-name="calendar (2)" xmlns="http://www.w3.org/2000/svg" width="20" height="20" viewBox="0 0 20 20">
  <g id="Group_1055" data-name="Group 1055">
    <g id="Group_1054" data-name="Group 1054">
      <path id="Path_1176" data-name="Path 1176" d="M17.656,1.563h-.937V0H15.156V1.563H4.844V0H3.281V1.563H2.344A2.346,2.346,0,0,0,0,3.906v13.75A2.346,2.346,0,0,0,2.344,20H17.656A2.346,2.346,0,0,0,20,17.656V3.906A2.346,2.346,0,0,0,17.656,1.563Zm.781,16.094a.782.782,0,0,1-.781.781H2.344a.782.782,0,0,1-.781-.781V7.344H18.438Zm0-11.875H1.563V3.906a.782.782,0,0,1,.781-.781h.938V4.688H4.844V3.125H15.156V4.688h1.563V3.125h.938a.782.782,0,0,1,.781.781Z"/>
    </g>
  </g>
  <g id="Group_1057" data-name="Group 1057" transform="translate(2.172 9.189)">
    <g id="Group_1056" data-name="Group 1056">
      <rect id="Rectangle_1487" data-name="Rectangle 1487" width="1.143" height="1.143"/>
    </g>
  </g>
  <g id="Group_1059" data-name="Group 1059" transform="translate(6.232 9.189)">
    <g id="Group_1058" data-name="Group 1058">
      <rect id="Rectangle_1488" data-name="Rectangle 1488" width="1.143" height="1.143"/>
    </g>
  </g>
  <g id="Group_1061" data-name="Group 1061" transform="translate(9.428 9.189)">
    <g id="Group_1060" data-name="Group 1060">
      <rect id="Rectangle_1489" data-name="Rectangle 1489" width="1.143" height="1.143"/>
    </g>
  </g>
  <g id="Group_1063" data-name="Group 1063" transform="translate(12.624 9.189)">
    <g id="Group_1062" data-name="Group 1062">
      <rect id="Rectangle_1490" data-name="Rectangle 1490" width="1.143" height="1.143"/>
    </g>
  </g>
  <g id="Group_1065" data-name="Group 1065" transform="translate(16.684 9.189)">
    <g id="Group_1064" data-name="Group 1064">
      <rect id="Rectangle_1491" data-name="Rectangle 1491" width="1.143" height="1.143"/>
    </g>
  </g>
  <g id="Group_1067" data-name="Group 1067" transform="translate(2.172 12.385)">
    <g id="Group_1066" data-name="Group 1066">
      <rect id="Rectangle_1492" data-name="Rectangle 1492" width="1.143" height="1.143"/>
    </g>
  </g>
  <g id="Group_1069" data-name="Group 1069" transform="translate(6.232 12.385)">
    <g id="Group_1068" data-name="Group 1068">
      <rect id="Rectangle_1493" data-name="Rectangle 1493" width="1.143" height="1.143"/>
    </g>
  </g>
  <g id="Group_1071" data-name="Group 1071" transform="translate(9.428 12.385)">
    <g id="Group_1070" data-name="Group 1070">
      <rect id="Rectangle_1494" data-name="Rectangle 1494" width="1.143" height="1.143"/>
    </g>
  </g>
  <g id="Group_1073" data-name="Group 1073" transform="translate(12.624 12.385)">
    <g id="Group_1072" data-name="Group 1072">
      <rect id="Rectangle_1495" data-name="Rectangle 1495" width="1.143" height="1.143"/>
    </g>
  </g>
  <g id="Group_1075" data-name="Group 1075" transform="translate(2.172 15.581)">
    <g id="Group_1074" data-name="Group 1074">
      <rect id="Rectangle_1496" data-name="Rectangle 1496" width="1.143" height="1.143"/>
    </g>
  </g>
  <g id="Group_1077" data-name="Group 1077" transform="translate(6.232 15.581)">
    <g id="Group_1076" data-name="Group 1076">
      <rect id="Rectangle_1497" data-name="Rectangle 1497" width="1.143" height="1.143"/>
    </g>
  </g>
  <g id="Group_1079" data-name="Group 1079" transform="translate(9.428 15.581)">
    <g id="Group_1078" data-name="Group 1078">
      <rect id="Rectangle_1498" data-name="Rectangle 1498" width="1.143" height="1.143"/>
    </g>
  </g>
  <g id="Group_1081" data-name="Group 1081" transform="translate(12.624 15.581)">
    <g id="Group_1080" data-name="Group 1080">
      <rect id="Rectangle_1499" data-name="Rectangle 1499" width="1.143" height="1.143"/>
    </g>
  </g>
  <g id="Group_1083" data-name="Group 1083" transform="translate(16.684 12.385)">
    <g id="Group_1082" data-name="Group 1082">
      <rect id="Rectangle_1500" data-name="Rectangle 1500" width="1.143" height="1.143"/>
    </g>
  </g>
</svg>
