<svg xmlns="http://www.w3.org/2000/svg" width="21" height="24" viewBox="0 0 21 24"><defs><style>.a{fill:#43425d;}</style></defs><path class="a" d="M20.919,20.3,18,13.854c.208-.536.39-.664,1.047-1.321a2.1,2.1,0,0,0,.542-2.024,3.273,3.273,0,0,1,0-2.7,2.1,2.1,0,0,0-.542-2.024,3.275,3.275,0,0,1-1.351-2.34,2.094,2.094,0,0,0-1.482-1.482A3.271,3.271,0,0,1,13.872.611,2.1,2.1,0,0,0,11.847.068a3.278,3.278,0,0,1-2.7,0A2.1,2.1,0,0,0,7.122.611a3.272,3.272,0,0,1-2.339,1.35A2.094,2.094,0,0,0,3.3,3.443a3.271,3.271,0,0,1-1.35,2.339,2.1,2.1,0,0,0-.542,2.024,3.273,3.273,0,0,1,0,2.7,2.1,2.1,0,0,0,.542,2.024c.708.708.845.8,1.047,1.321L.075,20.3a.948.948,0,0,0,.959,1.286h.041l3.415-.118L6.84,23.7A1.087,1.087,0,0,0,7.591,24a1.041,1.041,0,0,0,.963-.581L10.5,19.128l1.943,4.288A1.041,1.041,0,0,0,13.4,24a1.083,1.083,0,0,0,.75-.292l2.35-2.234,3.415.118h.041A.948.948,0,0,0,20.919,20.3ZM7.2,20.945,5.356,19.19l-2.343.081L4.406,16.2a2.066,2.066,0,0,0,.377.157c1.178.316,1.256.267,2.018,1.03A2.093,2.093,0,0,0,8.284,18a2.16,2.16,0,0,0,.272-.037L7.2,20.945Zm1.1-5.239a4.915,4.915,0,0,0-2.856-1.5A5.085,5.085,0,0,0,3.6,11a5.093,5.093,0,0,0,0-3.693,5.086,5.086,0,0,0,1.847-3.2,5.14,5.14,0,0,0,3.2-1.847,5.109,5.109,0,0,0,3.693,0,5.144,5.144,0,0,0,3.2,1.847,5.088,5.088,0,0,0,1.847,3.2,5.085,5.085,0,0,0,0,3.694,5.145,5.145,0,0,0-1.847,3.2,4.908,4.908,0,0,0-2.856,1.5A4.352,4.352,0,0,0,8.307,15.707Zm8.274,3.516-.943-.032-1.847,1.755L12.437,17.96A2.078,2.078,0,0,0,12.71,18a2.094,2.094,0,0,0,1.483-.614c.769-.769.835-.712,2.018-1.03a2.06,2.06,0,0,0,.377-.157l1.393,3.074ZM15,9a4.5,4.5,0,1,0-4.5,4.5A4.5,4.5,0,0,0,15,9Zm-4.5,2.25A2.25,2.25,0,1,1,12.747,9,2.252,2.252,0,0,1,10.5,11.247Z" transform="translate(0.003 0.003)"/></svg>