<svg xmlns="http://www.w3.org/2000/svg" width="40" height="40" viewBox="0 0 40 40"><defs><style>.a{fill:none;}.b{fill:#8ebef8;}.c{fill:#2cc05f;stroke:#9759FF;stroke-width:2px;}.d{stroke:none;}</style></defs><g transform="translate(-234 -3850)"><rect class="a" width="40" height="40" transform="translate(234 3850)"/><path class="b" d="M21.283,17.549c-.936-1.006-2.687-2.518-2.687-7.474a7.649,7.649,0,0,0-6.2-7.516V1.55a1.549,1.549,0,1,0-3.1,0V2.559a7.649,7.649,0,0,0-6.2,7.516c0,4.955-1.751,6.468-2.687,7.474A1.513,1.513,0,0,0,0,18.6a1.551,1.551,0,0,0,1.555,1.55H20.145A1.551,1.551,0,0,0,21.7,18.6a1.513,1.513,0,0,0-.417-1.052ZM3.27,17.825C4.3,16.47,5.422,14.225,5.427,10.1c0-.01,0-.018,0-.028a5.425,5.425,0,1,1,10.85,0c0,.01,0,.018,0,.028.005,4.122,1.129,6.368,2.157,7.722ZM10.85,24.8a3.1,3.1,0,0,0,3.1-3.1h-6.2A3.1,3.1,0,0,0,10.85,24.8Z" transform="translate(242 3858)"/><g class="c" transform="translate(255 3857)"><circle class="d" cx="6.5" cy="6.5" r="6.5"/><circle class="a" cx="6.5" cy="6.5" r="5.5"/></g></g></svg>