<svg xmlns="http://www.w3.org/2000/svg" width="30" height="30" viewBox="0 0 30 30"><defs><style>.a{fill:none;}.b{fill:#1f1e34;}</style></defs><g transform="translate(30 30) rotate(180)"><rect class="a" width="30" height="30"/><path class="b" d="M5.382,7.065a.751.751,0,0,0-.881.744V9.384a.751.751,0,0,0,.522.688A1.5,1.5,0,1,1,3,11.478V3.727a.748.748,0,0,0-.75-.75H.75a.748.748,0,0,0-.75.75v7.751A4.5,4.5,0,1,0,5.382,7.065ZM6.532-.023A.5.5,0,0,0,6,.477v.988a.5.5,0,0,0,.469.5A8.027,8.027,0,0,1,14,9.509a.5.5,0,0,0,.5.469h1a.5.5,0,0,0,.5-.531A10.025,10.025,0,0,0,6.532-.023Zm.009,3A.5.5,0,0,0,6,3.48v1a.5.5,0,0,0,.463.5,4.992,4.992,0,0,1,4.529,4.538.5.5,0,0,0,.5.459H12.5a.506.506,0,0,0,.5-.541,7.032,7.032,0,0,0-6.457-6.46Z" transform="translate(23 22.977) rotate(180)"/></g></svg>