<svg xmlns="http://www.w3.org/2000/svg" width="24" height="24" viewBox="0 0 24 24"><defs><style>.a{fill:none;}.b{fill:#949498;}</style></defs><rect class="a" width="24" height="24"/><g transform="translate(2 -9)"><g transform="translate(3 13)"><path class="b" d="M1.473,15.714A1.474,1.474,0,0,1,0,14.241V6.261a.37.37,0,0,1,.369-.368H13.382a.37.37,0,0,1,.368.368v7.98a1.474,1.474,0,0,1-1.473,1.473Zm-1.1-10.8A.37.37,0,0,1,0,4.542v-1.1A1.474,1.474,0,0,1,1.473,1.964H2.946V.369A.37.37,0,0,1,3.315,0H4.542a.37.37,0,0,1,.368.369v1.6H8.839V.369A.37.37,0,0,1,9.208,0h1.227A.37.37,0,0,1,10.8.369v1.6h1.473A1.474,1.474,0,0,1,13.75,3.438v1.1a.37.37,0,0,1-.368.368Z" transform="translate(0 0)"/></g><rect class="a" width="20" height="20" transform="translate(0 11)"/></g></svg>