<svg xmlns="http://www.w3.org/2000/svg" width="24" height="24" viewBox="0 0 24 24"><defs><style>.a{fill:none;}.b{fill:#131220;}</style></defs><rect class="a" width="24" height="24"/><g transform="translate(2 2)"><rect class="a" width="20" height="20"/><path class="b" d="M1.66,13.333A1.66,1.66,0,0,1,0,11.674V1.66A1.66,1.66,0,0,1,1.66,0H11.674a1.66,1.66,0,0,1,1.66,1.66V11.674a1.66,1.66,0,0,1-1.66,1.66ZM18.25,12.02,14.444,9.4V3.934L18.25,1.309a1.114,1.114,0,0,1,1.75.9v8.92a1.113,1.113,0,0,1-1.75.9Z" transform="translate(0 3)"/></g></svg>