<svg xmlns="http://www.w3.org/2000/svg" width="88" height="68" viewBox="0 0 88 68"><defs><style>.a,.c{fill:#43425d;}.a,.b{opacity:0.5;}.c{font-size:10px;font-family:Montserrat-SemiBold, Montserrat;font-weight:600;}</style></defs><path class="a" d="M0,92.714A7.288,7.288,0,0,0,7.286,100H80.143a7.288,7.288,0,0,0,7.286-7.286V66H0ZM29.143,82.393a1.827,1.827,0,0,1,1.821-1.821H51.607a1.827,1.827,0,0,1,1.821,1.821v6.071a1.827,1.827,0,0,1-1.821,1.821H30.964a1.827,1.827,0,0,1-1.821-1.821Zm-19.429,0a1.827,1.827,0,0,1,1.821-1.821H22.464a1.827,1.827,0,0,1,1.821,1.821v6.071a1.827,1.827,0,0,1-1.821,1.821H11.536a1.827,1.827,0,0,1-1.821-1.821ZM87.429,39.286v7.286H0V39.286A7.288,7.288,0,0,1,7.286,32H80.143A7.288,7.288,0,0,1,87.429,39.286Z" transform="translate(0 -32)"/><g class="b" transform="translate(0 18.104)"><text class="c" transform="translate(0)"><tspan x="6.53" y="10">Add New Card</tspan></text></g></svg>