<svg xmlns="http://www.w3.org/2000/svg" width="40" height="40" viewBox="0 0 40 40"><defs><style>.a{fill:none;}.b{fill:#c7c7c7;}</style></defs><rect class="a" width="40" height="40"/><path class="b" d="M18.069,37.7c0-.274-.191-.42-.542-.42h-.17v.865h.163C17.878,38.142,18.069,37.99,18.069,37.7Zm.264-5.7H1.667A1.667,1.667,0,0,0,0,33.667V45.889a1.667,1.667,0,0,0,1.667,1.667H18.333A1.667,1.667,0,0,0,20,45.889V33.667A1.667,1.667,0,0,0,18.333,32ZM16.8,36.823c.785,0,1.837-.142,1.837.847a.755.755,0,0,1-.649.806l.9,1.194H18.2l-.771-1.139h-.076V39.67H16.8Zm-1.941,0h1.573v.486H15.417v.632H16.4v.479h-.983v.771h1.017v.479H14.861Zm-2.385,0,.76,1.917.771-1.917h.608L13.382,39.75h-.3l-1.215-2.924Zm-1.941-.1a1.549,1.549,0,1,1-1.549,1.549A1.548,1.548,0,0,1,10.535,36.722Zm-1.712.212v.66a.948.948,0,1,0,0,1.326v.66a1.5,1.5,0,1,1,0-2.646Zm-3.375,2.3c.4,0,.778-.531-.115-.847-.521-.191-.7-.4-.7-.788,0-.806,1.063-1.09,1.726-.5l-.292.375c-.361-.4-.865-.215-.865.087,0,.153.094.24.427.358.632.229.819.434.819.889a1.041,1.041,0,0,1-1.965.392l.358-.344a.658.658,0,0,0,.608.375Zm-3.524.437H1.111V36.826h.813a1.427,1.427,0,1,1,0,2.847Zm2.344,0H3.712V36.826h.556Zm14.622,6.25a.525.525,0,0,1-.521.521H4.444a51.157,51.157,0,0,0,14.444-5.556ZM2.573,37.542a1.011,1.011,0,0,0-.76-.229H1.667v1.882h.146a1.071,1.071,0,0,0,.76-.222.973.973,0,0,0,.309-.719A.947.947,0,0,0,2.573,37.542Z" transform="translate(10 -20)"/></svg>