<svg id="Layer_1" data-name="Layer 1" xmlns="http://www.w3.org/2000/svg" width="30.23" height="40" viewBox="0 0 30.23 40">
  <defs>
    <style>
      .cls-1 {
        fill: none;
      }

      .cls-2 {
        fill: #c7c7c7;
      }
    </style>
  </defs>
  <title>Card_Apple Pay_40x40</title>
  <rect class="cls-1" x="-9.77" width="40" height="40"/>
  <path class="cls-2" d="M10.72,18.51a.89.89,0,0,1-.82.95h-1V17.57h.85a.88.88,0,0,1,1,.94Zm1.65,2.17c0,.29.25.48.64.48a.8.8,0,0,0,.87-.72v-.31l-.82.05C12.61,20.21,12.37,20.38,12.37,20.68Zm7.86-7V25.89a1.67,1.67,0,0,1-1.67,1.67H1.9A1.67,1.67,0,0,1,.23,25.89V13.67A1.67,1.67,0,0,1,1.9,12H18.56A1.67,1.67,0,0,1,20.23,13.67ZM4.67,17.77a1,1,0,0,0,.76-.36,1.15,1.15,0,0,0,.27-.82,1.14,1.14,0,0,0-.76.39,1.09,1.09,0,0,0-.27.79Zm2.1,2.59a1.14,1.14,0,0,1-.69-1,1.17,1.17,0,0,1,.56-1,1.2,1.2,0,0,0-.94-.51c-.42,0-.78.24-1,.24s-.51-.23-.84-.22a1.25,1.25,0,0,0-1.06.65,2.66,2.66,0,0,0,.32,2.59c.21.32.48.66.82.65s.45-.21.84-.21.5.21.84.2.57-.32.79-.63a2.94,2.94,0,0,0,.35-.72Zm4.7-1.85a1.49,1.49,0,0,0-1.41-1.56H8.14v4.74h.74V20.07h1a1.5,1.5,0,0,0,1.58-1.57Zm3.13.82c0-.68-.55-1.12-1.39-1.12a1.23,1.23,0,0,0-1.37,1.06h.66a.65.65,0,0,1,.69-.48c.45,0,.7.21.7.6v.26l-.92.06c-.85.05-1.32.4-1.32,1a1,1,0,0,0,1.05,1h.11a1.21,1.21,0,0,0,1.08-.6h0v.57h.68V19.33Zm3.55-1.08H17.4L16.54,21h0l-.86-2.8h-.77l1.25,3.45-.07.21a.59.59,0,0,1-.62.49h-.22V23l.28,0c.72,0,1.06-.27,1.35-1.1Z"/>
</svg>
