<svg xmlns="http://www.w3.org/2000/svg" width="40" height="40" viewBox="0 0 40 40"><defs><style>.a{fill:none;}.b{fill:#c7c7c7;}</style></defs><rect class="a" width="40" height="40"/><path class="b" d="M10.493,37.507a.887.887,0,0,1-1.007.941H8.642V36.566H9.49A.884.884,0,0,1,10.493,37.507Zm1.649,2.174c0,.288.25.476.642.476a.8.8,0,0,0,.875-.76v-.267l-.816.052C12.382,39.212,12.142,39.382,12.142,39.681ZM20,32.667V44.889a1.667,1.667,0,0,1-1.667,1.667H1.667A1.667,1.667,0,0,1,0,44.889V32.667A1.667,1.667,0,0,1,1.667,31H18.333A1.667,1.667,0,0,1,20,32.667Zm-15.562,4.1A.962.962,0,0,0,5.2,36.41a1.146,1.146,0,0,0,.267-.823,1.142,1.142,0,0,0-.76.392A1.089,1.089,0,0,0,4.438,36.771Zm2.1,2.587a1.145,1.145,0,0,1-.688-1.042,1.169,1.169,0,0,1,.556-.979,1.2,1.2,0,0,0-.941-.51c-.424-.024-.785.24-.986.24s-.51-.229-.844-.222a1.245,1.245,0,0,0-1.059.646A2.661,2.661,0,0,0,2.9,40.073c.215.316.476.663.816.649.323-.014.451-.208.84-.208s.5.208.844.2.573-.316.792-.632A2.939,2.939,0,0,0,6.542,39.358Zm4.7-1.854a1.486,1.486,0,0,0-1.559-1.556H7.906v4.736h.736V39.066H9.66A1.5,1.5,0,0,0,11.243,37.5Zm3.125.823c0-.684-.549-1.125-1.389-1.125A1.233,1.233,0,0,0,11.6,38.26h.663a.646.646,0,0,1,.694-.483c.451,0,.7.208.7.6v.26l-.917.056c-.854.052-1.316.4-1.316,1.01a1.041,1.041,0,0,0,1.16,1.021,1.212,1.212,0,0,0,1.083-.6h.014v.569h.681V38.326Zm3.549-1.08H17.17l-.865,2.8h-.014l-.865-2.8h-.774L15.9,40.694l-.066.208a.586.586,0,0,1-.622.493c-.059,0-.17-.007-.215-.01v.569a1.8,1.8,0,0,0,.281.017c.719,0,1.056-.274,1.351-1.1Z" transform="translate(10 -19)"/></svg>