<svg xmlns="http://www.w3.org/2000/svg" width="40" height="40" viewBox="0 0 40 40"><defs><style>.a{fill:none;}.b{fill:#c7c7c7;}</style></defs><rect class="a" width="40" height="40"/><path class="b" d="M16.323,38.92s.264,1.292.323,1.563h-1.16c.115-.309.556-1.51.556-1.51s.115-.316.184-.517l.1.465ZM20,33.667V45.889a1.667,1.667,0,0,1-1.667,1.667H1.667A1.667,1.667,0,0,1,0,45.889V33.667A1.667,1.667,0,0,1,1.667,32H18.333A1.667,1.667,0,0,1,20,33.667ZM5.3,42.389,7.49,37H6.014L4.649,40.681,4.5,39.934l-.486-2.479A.581.581,0,0,0,3.382,37H1.135l-.024.108a5.51,5.51,0,0,1,1.465.594l1.243,4.688Zm3.278.007L9.448,37h-1.4l-.872,5.4Zm4.858-1.764c.007-.615-.368-1.083-1.17-1.469-.49-.247-.788-.413-.788-.667.007-.229.253-.465.8-.465a2.393,2.393,0,0,1,1.038.2l.125.059.191-1.167a3.467,3.467,0,0,0-1.25-.229c-1.378,0-2.347.736-2.354,1.785-.01.774.694,1.2,1.222,1.465s.722.438.722.67c-.007.361-.437.528-.837.528a2.781,2.781,0,0,1-1.309-.288l-.184-.087-.194,1.212A4.261,4.261,0,0,0,11,42.472c1.465,0,2.42-.722,2.431-1.84Zm4.9,1.764L17.208,37h-1.08a.687.687,0,0,0-.729.448L13.326,42.4h1.465s.24-.667.292-.809h1.792c.042.191.167.809.167.809Z" transform="translate(10 -20)"/></svg>