<svg xmlns="http://www.w3.org/2000/svg" width="21.516" height="17.212" viewBox="0 0 21.516 17.212">
  <g id="credit-card_1_" data-name="credit-card (1)" transform="translate(0 -54.821)">
    <g id="Group_4296" data-name="Group 4296" transform="translate(0 54.821)">
      <path id="Path_1424" data-name="Path 1424" d="M20.989,55.348a1.726,1.726,0,0,0-1.266-.527H1.793a1.727,1.727,0,0,0-1.266.527A1.726,1.726,0,0,0,0,56.614V70.24a1.726,1.726,0,0,0,.527,1.266,1.727,1.727,0,0,0,1.266.527h17.93a1.8,1.8,0,0,0,1.793-1.793V56.614A1.727,1.727,0,0,0,20.989,55.348ZM20.081,70.24a.363.363,0,0,1-.358.358H1.793a.363.363,0,0,1-.359-.359V63.427H20.081V70.24Zm0-11.117H1.434v-2.51a.363.363,0,0,1,.359-.358h17.93a.363.363,0,0,1,.358.358v2.51Z" transform="translate(0 -54.821)"/>
      <rect id="Rectangle_1547" data-name="Rectangle 1547" width="2.869" height="1.434" transform="translate(2.869 12.909)"/>
      <rect id="Rectangle_1548" data-name="Rectangle 1548" width="4.303" height="1.434" transform="translate(7.172 12.909)"/>
    </g>
  </g>
</svg>
