<svg xmlns="http://www.w3.org/2000/svg" width="40" height="40" viewBox="0 0 40 40"><defs><style>.a{fill:none;}.b{fill:#c7c7c7;}</style></defs><rect class="a" width="40" height="40"/><path class="b" d="M14.983,39.372V38.25c1.431,0,1.337.007,1.337.007a.551.551,0,0,1,.462.556.541.541,0,0,1-.462.549C16.278,39.375,16.2,39.372,14.983,39.372Zm1.486.7a11.04,11.04,0,0,0-1.486-.017v1.215a10.986,10.986,0,0,0,1.486-.017.586.586,0,0,0,.469-.59A.594.594,0,0,0,16.469,40.073ZM20,33.667V45.889a1.667,1.667,0,0,1-1.667,1.667H1.667A1.667,1.667,0,0,1,0,45.889V33.667A1.667,1.667,0,0,1,1.667,32H18.333A1.667,1.667,0,0,1,20,33.667Zm-13.681,3.9H4.34c0,2.33.372,3.809-1.243,3.809a4.505,4.505,0,0,1-1.986-.514v.972a10.5,10.5,0,0,0,2.361.288C6.872,42.122,6.319,40.465,6.319,37.566Zm6.2.156c-2.2-.556-5.729-.517-5.729,2.059,0,2.677,3.757,2.556,5.729,2.056v-.983c-1.653.858-3.733.764-3.733-1.076s2.076-1.931,3.733-1.083Zm6.372,3.115c0-.642-.573-1.059-1.319-1.111V39.7a1.09,1.09,0,0,0,1.052-1.049c0-.66-.545-1.042-1.285-1.076,0,0,.219-.01-4.177-.01V41.99h4.26C18.264,41.993,18.889,41.542,18.889,40.837Z" transform="translate(10 -20)"/></svg>