<svg xmlns="http://www.w3.org/2000/svg" width="40" height="40" viewBox="0 0 40 40"><defs><style>.a{fill:none;}.b{fill:#c7c7c7;}</style></defs><rect class="a" width="40" height="40"/><path class="b" d="M16.767,46.1a.389.389,0,1,1-.389-.406A.388.388,0,0,1,16.767,46.1ZM5.976,45.694a.407.407,0,1,0,.378.406A.384.384,0,0,0,5.976,45.694Zm4.08-.01a.322.322,0,0,0-.33.3h.663A.319.319,0,0,0,10.056,45.684Zm3.743.01a.407.407,0,1,0,.389.406A.384.384,0,0,0,13.8,45.694Zm3.677.906c0,.01.01.017.01.038s-.01.017-.01.038a.122.122,0,0,0-.017.028.045.045,0,0,1-.038.017c-.01.01-.017.01-.038.01a.069.069,0,0,1-.038-.01c-.01,0-.017-.01-.028-.017s-.017-.017-.017-.028a.063.063,0,0,1-.01-.038c0-.017,0-.028.01-.038a.065.065,0,0,1,.017-.038.122.122,0,0,1,.028-.017.063.063,0,0,1,.038-.01c.017,0,.028,0,.038.01s.028.01.038.017S17.465,46.583,17.476,46.6Zm-.076.049c.017,0,.017-.01.028-.01a.042.042,0,0,0,0-.056c-.01,0-.017-.01-.038-.01h-.056v.122h.028v-.049h.01l.038.049h.028l-.038-.045ZM20,34.667V46.889a1.667,1.667,0,0,1-1.667,1.667H1.667A1.667,1.667,0,0,1,0,46.889V34.667A1.667,1.667,0,0,1,1.667,33H18.333A1.667,1.667,0,0,1,20,34.667ZM2.222,39.514a4.807,4.807,0,0,0,7.465,4.007,5.178,5.178,0,0,1,0-8,4.807,4.807,0,0,0-7.465,4ZM10,43.292a4.807,4.807,0,0,0,0-7.552A4.807,4.807,0,0,0,10,43.292ZM5.059,45.941a.487.487,0,0,0-.51-.51.5.5,0,0,0-.444.226.46.46,0,0,0-.424-.226.441.441,0,0,0-.368.188v-.153H3.028V46.74h.285c0-.656-.087-1.049.313-1.049.354,0,.285.354.285,1.049h.274c0-.635-.087-1.049.313-1.049.354,0,.285.347.285,1.049h.285v-.8Zm1.559-.476H6.344v.153a.5.5,0,0,0-.406-.187.671.671,0,0,0,0,1.34.481.481,0,0,0,.406-.187v.16h.274Zm1.406.889c0-.521-.8-.285-.8-.528,0-.2.413-.167.642-.038l.115-.226c-.326-.212-1.049-.208-1.049.285s.8.288.8.521-.469.2-.719.028l-.122.219c.389.264,1.132.208,1.132-.26Zm1.229.323-.076-.236c-.132.073-.424.153-.424-.142v-.576h.455v-.257H8.753v-.389H8.469v.389H8.2v.253h.264v.58c0,.611.6.5.785.378Zm.462-.465h.955c0-.562-.257-.785-.6-.785a.625.625,0,0,0-.632.67.693.693,0,0,0,1.174.493l-.132-.208C10.2,46.6,9.8,46.583,9.715,46.212Zm2.052-.747a.407.407,0,0,0-.528.153v-.153h-.285V46.74h.285v-.719a.29.29,0,0,1,.444-.292l.083-.264Zm.368.635c0-.4.4-.524.719-.292l.132-.226a.687.687,0,1,0,0,1.042l-.132-.226C12.535,46.625,12.135,46.49,12.135,46.1Zm2.316-.635h-.285v.153a.631.631,0,1,0,0,.965v.16h.285Zm1.17,0a.417.417,0,0,0-.528.153v-.153h-.274V46.74h.274v-.719a.291.291,0,0,1,.444-.292l.083-.264Zm1.4-.517h-.274v.67a.631.631,0,1,0,0,.965v.16h.274v-1.8Zm.264-2.608v.16h.028v-.16h.066v-.028h-.16v.028Zm.229,4.3a.106.106,0,0,0-.01-.056c-.01-.01-.017-.028-.028-.038s-.028-.017-.038-.028-.038-.01-.056-.01a.369.369,0,0,1-.049.01.181.181,0,0,0-.038.028.054.054,0,0,0-.028.038.106.106,0,0,0-.01.056.1.1,0,0,0,.01.049.054.054,0,0,0,.028.038.12.12,0,0,0,.038.028.094.094,0,0,0,.049.01.106.106,0,0,0,.056-.01c.01-.01.028-.017.038-.028s.017-.028.028-.038A.1.1,0,0,0,17.514,46.639Zm.111-4.33h-.049l-.056.122-.056-.122h-.049V42.5h.028v-.142l.056.122h.038l.049-.122V42.5h.038Zm.153-2.8a4.807,4.807,0,0,0-7.465-4,5.178,5.178,0,0,1,0,8,4.807,4.807,0,0,0,7.465-4Z" transform="translate(10 -21)"/></svg>