<svg xmlns="http://www.w3.org/2000/svg" width="40" height="40" viewBox="0 0 40 40"><defs><style>.a{fill:none;}.b{fill:#c7c7c7;}</style></defs><rect class="a" width="40" height="40"/><path class="b" d="M8.323,33.663a6.1,6.1,0,1,0,6.1,6.1A6.106,6.106,0,0,0,8.323,33.663ZM6.938,43.372a3.867,3.867,0,0,1,0-7.219Zm2.771.01V36.153a3.875,3.875,0,0,1,0,7.229ZM18.333,32H1.667A1.667,1.667,0,0,0,0,33.667V45.889a1.667,1.667,0,0,0,1.667,1.667H18.333A1.667,1.667,0,0,0,20,45.889V33.667A1.667,1.667,0,0,0,18.333,32ZM11.448,46.444H8.313a6.694,6.694,0,0,1-6.729-6.6,6.584,6.584,0,0,1,6.729-6.729h3.135a6.809,6.809,0,0,1,6.969,6.729A6.935,6.935,0,0,1,11.448,46.444Z" transform="translate(10 -20)"/></svg>