<svg xmlns="http://www.w3.org/2000/svg" width="30" height="30" viewBox="0 0 30 30"><defs><style>.a{fill:none;}.b{fill:#c7c7c7;}</style></defs><rect class="a" width="30" height="30"/><path class="b" d="M10.4,5.574a.309.309,0,0,0-.437,0L7.231,8.28,6.047,7.087a.309.309,0,0,0-.437,0l-.731.725a.309.309,0,0,0,0,.437L7,10.391a.309.309,0,0,0,.437,0l3.681-3.651a.309.309,0,0,0,0-.437L10.4,5.574ZM16,8a3.237,3.237,0,0,0-1.459-2.709,3.245,3.245,0,0,0-3.831-3.831,3.245,3.245,0,0,0-5.419,0A3.245,3.245,0,0,0,1.459,5.291a3.245,3.245,0,0,0,0,5.419,3.245,3.245,0,0,0,3.831,3.831,3.245,3.245,0,0,0,5.419,0,3.245,3.245,0,0,0,3.831-3.831A3.242,3.242,0,0,0,16,8ZM12.616,9.916c.284.622.947,1.712-.022,2.681-.875.875-1.728.453-2.681.022C9.672,13.262,9.372,14.5,8,14.5c-1.416,0-1.709-1.337-1.912-1.881-.659.3-1.716.944-2.684-.025-1-1-.263-2.153-.022-2.681C2.738,9.672,1.5,9.372,1.5,8c0-1.416,1.338-1.709,1.884-1.916C3.1,5.463,2.438,4.372,3.406,3.4c1-1,2.153-.262,2.681-.022C6.328,2.738,6.628,1.5,8,1.5c1.416,0,1.709,1.338,1.913,1.888.622-.284,1.712-.947,2.681.022,1,1,.262,2.153.022,2.681C13.259,6.331,14.5,6.631,14.5,8c0,1.416-1.337,1.709-1.881,1.912Z" transform="translate(12 12)"/></svg>