<svg xmlns="http://www.w3.org/2000/svg" width="30" height="30" viewBox="0 0 30 30"><defs><style>.a{fill:none;}.b{fill:#1f1e34;fill-rule:evenodd;}</style></defs><rect class="a" width="30" height="30" rx="15"/><path class="b" d="M14.906,13.1a2.555,2.555,0,0,0,.8,1.57.734.734,0,0,1,.265.769.724.724,0,0,1-.6.535,3.658,3.658,0,0,1-.433.023,4.718,4.718,0,0,1-3.472-1.469h-.915a7.994,7.994,0,0,1-3.6-.8.726.726,0,1,1,.657-1.3,6.542,6.542,0,0,0,2.943.648h1.235c.017,0,.031.008.047.009a.714.714,0,0,1,.146.029.507.507,0,0,1,.236.116.747.747,0,0,1,.114.1c.01.012.025.018.035.031a2.92,2.92,0,0,0,1.4,1,4.779,4.779,0,0,1-.343-1.492l0-.028c0-.016-.005-.029-.006-.045a.657.657,0,0,1,.014-.1.7.7,0,0,1,.02-.151.716.716,0,0,1,.059-.127.728.728,0,0,1,.069-.117.705.705,0,0,1,.114-.1.723.723,0,0,1,.073-.068A4.167,4.167,0,0,0,16,8.717a2.989,2.989,0,0,0-1.142-2.31.727.727,0,0,1,.83-1.192,4.416,4.416,0,0,1,1.766,3.5A5.386,5.386,0,0,1,14.906,13.1Zm-8-1.478H5.993a4.722,4.722,0,0,1-3.473,1.469,3.638,3.638,0,0,1-.432-.023.726.726,0,0,1-.332-1.311A2.56,2.56,0,0,0,2.543,10.2,5.383,5.383,0,0,1,0,5.811C0,2.607,3.1,0,6.907,0s6.907,2.607,6.907,5.811S10.716,11.622,6.907,11.622Zm0-10.17c-3.007,0-5.453,1.955-5.453,4.358A4.167,4.167,0,0,0,3.693,9.222a.641.641,0,0,1,.073.067.735.735,0,0,1,.113.1.65.65,0,0,1,.07.119.673.673,0,0,1,.058.125.716.716,0,0,1,.022.152.875.875,0,0,1,.014.1c0,.016-.006.029-.007.045l0,.029a4.805,4.805,0,0,1-.342,1.492,2.924,2.924,0,0,0,1.4-1c.01-.012.025-.018.036-.031a1.124,1.124,0,0,1,.222-.172.73.73,0,0,1,.131-.044.681.681,0,0,1,.142-.028c.017,0,.031-.009.048-.009H6.909c3.006,0,5.452-1.955,5.452-4.359S9.915,1.453,6.907,1.453Z" transform="translate(6 7)"/></svg>