<svg xmlns="http://www.w3.org/2000/svg" width="40" height="40" viewBox="0 0 40 40"><defs><style>.a{fill:none;}.b{fill:#fff;fill-rule:evenodd;}.c{fill:#2cc05f;}</style></defs><g transform="translate(-240.445 -59)"><rect class="a" width="40" height="40" transform="translate(240.445 59)"/><path class="b" d="M18.636,16.379a3.2,3.2,0,0,0,.994,1.963.918.918,0,0,1,.331.962.905.905,0,0,1-.756.669,4.573,4.573,0,0,1-.541.028,5.9,5.9,0,0,1-4.341-1.837H13.179a9.994,9.994,0,0,1-4.5-1.006.908.908,0,1,1,.822-1.62,8.179,8.179,0,0,0,3.68.81h1.544c.021,0,.038.01.058.012a.892.892,0,0,1,.183.036.634.634,0,0,1,.3.145.934.934,0,0,1,.143.125c.013.015.032.023.044.038A3.651,3.651,0,0,0,17.2,17.95a5.975,5.975,0,0,1-.429-1.865l-.005-.035c0-.02-.006-.036-.007-.056a.821.821,0,0,1,.017-.125.877.877,0,0,1,.025-.189.9.9,0,0,1,.074-.158.91.91,0,0,1,.086-.146.882.882,0,0,1,.143-.13.9.9,0,0,1,.092-.085A5.21,5.21,0,0,0,20,10.9,3.737,3.737,0,0,0,18.57,8.01a.908.908,0,0,1,1.038-1.491A5.521,5.521,0,0,1,21.816,10.9,6.733,6.733,0,0,1,18.636,16.379Zm-10-1.848H7.493a5.9,5.9,0,0,1-4.341,1.837,4.55,4.55,0,0,1-.54-.028A.908.908,0,0,1,2.2,14.7a3.2,3.2,0,0,0,.983-1.954A6.73,6.73,0,0,1,0,7.265C0,3.259,3.874,0,8.636,0s8.636,3.259,8.636,7.265S13.4,14.53,8.636,14.53Zm0-12.714c-3.76,0-6.818,2.444-6.818,5.449a5.209,5.209,0,0,0,2.8,4.264.8.8,0,0,1,.092.084.919.919,0,0,1,.142.13.812.812,0,0,1,.087.148.842.842,0,0,1,.073.156.9.9,0,0,1,.027.19,1.093,1.093,0,0,1,.017.124c0,.02-.007.036-.008.056l-.005.036a6.008,6.008,0,0,1-.428,1.865,3.656,3.656,0,0,0,1.755-1.248c.013-.015.031-.023.045-.038a1.406,1.406,0,0,1,.277-.215.912.912,0,0,1,.164-.055.851.851,0,0,1,.177-.035c.021,0,.039-.012.06-.012H8.637c3.759,0,6.816-2.444,6.816-5.45S12.4,1.816,8.636,1.816Z" transform="translate(249.445 69)"/><circle class="c" cx="4" cy="4" r="4" transform="translate(263.445 69)"/></g></svg>