<svg xmlns="http://www.w3.org/2000/svg" width="40" height="40" viewBox="0 0 40 40"><defs><style>.a{fill:none;}.b{fill:#fff;fill-rule:evenodd;}.c{fill:#2cc05f;stroke:#9759FF;stroke-width:2px;}.d{stroke:none;}</style></defs><g transform="translate(-307 -2689)"><g transform="translate(66.555 2630)"><g transform="translate(240.445 59)"><g transform="translate(-240.445 -59)"><rect class="a" width="40" height="40" transform="translate(240.445 59)"/><path class="b" d="M20.5,18.018a3.515,3.515,0,0,0,1.094,2.159,1.009,1.009,0,0,1,.364,1.058,1,1,0,0,1-.832.736,5.031,5.031,0,0,1-.595.031,6.49,6.49,0,0,1-4.775-2.021H14.5a10.994,10.994,0,0,1-4.95-1.107,1,1,0,1,1,.9-1.782,9,9,0,0,0,4.048.891h1.7c.023,0,.042.011.064.013a.981.981,0,0,1,.2.04.7.7,0,0,1,.325.16,1.028,1.028,0,0,1,.157.138c.014.017.035.025.048.042a4.016,4.016,0,0,0,1.93,1.371,6.573,6.573,0,0,1-.472-2.052l-.006-.038c0-.022-.007-.04-.008-.062a.9.9,0,0,1,.019-.137.965.965,0,0,1,.028-.208.984.984,0,0,1,.081-.174,1,1,0,0,1,.095-.161.97.97,0,0,1,.157-.143.994.994,0,0,1,.1-.093c1.15-.694,3.081-2.226,3.081-4.69a4.111,4.111,0,0,0-1.571-3.177,1,1,0,0,1,1.142-1.64A6.073,6.073,0,0,1,24,11.989,7.407,7.407,0,0,1,20.5,18.018Zm-11-2.033H8.243a6.494,6.494,0,0,1-4.776,2.021,5,5,0,0,1-.594-.031,1,1,0,0,1-.456-1.8A3.522,3.522,0,0,0,3.5,14.022,7.4,7.4,0,0,1,0,7.992C0,3.585,4.262,0,9.5,0S19,3.585,19,7.992,14.738,15.985,9.5,15.985ZM9.5,2C5.364,2,2,4.687,2,7.992c0,2.466,1.93,4,3.079,4.691a.882.882,0,0,1,.1.092,1.011,1.011,0,0,1,.156.143.894.894,0,0,1,.1.163.926.926,0,0,1,.08.172.985.985,0,0,1,.03.209,1.2,1.2,0,0,1,.019.136c0,.022-.008.04-.009.062l-.006.04a6.609,6.609,0,0,1-.471,2.052,4.021,4.021,0,0,0,1.931-1.373c.014-.017.034-.025.049-.042A1.546,1.546,0,0,1,7.36,14.1a1,1,0,0,1,.18-.061.936.936,0,0,1,.2-.039c.023,0,.043-.013.066-.013H9.5c4.135,0,7.5-2.689,7.5-6S13.636,2,9.5,2Z" transform="translate(246.445 68)"/></g></g></g><g class="c" transform="translate(327 2696)"><circle class="d" cx="6.5" cy="6.5" r="6.5"/><circle class="a" cx="6.5" cy="6.5" r="5.5"/></g></g></svg>