<svg xmlns="http://www.w3.org/2000/svg" width="30" height="30" viewBox="0 0 30 30"><defs><style>.a{fill:none;}.b{fill:#1f1e34;}</style></defs><rect class="a" width="30" height="30"/><path class="b" d="M13.373,12.656a3.086,3.086,0,0,1-2.1-5.712.184.184,0,0,0-.057-.34,3.83,3.83,0,0,0-.718-.066,3.937,3.937,0,1,0,3.055,6.418A.185.185,0,0,0,13.373,12.656Zm6.893-3.58L17.814,7.415,18.376,4.5a1.658,1.658,0,0,0-1.94-1.948l-2.907.562L11.872.661a1.719,1.719,0,0,0-2.748,0L7.467,3.117l-2.9-.562A1.663,1.663,0,0,0,2.62,4.5l.562,2.912L.73,9.076a1.662,1.662,0,0,0,0,2.752l2.452,1.661L2.62,16.4a1.658,1.658,0,0,0,1.944,1.944l2.9-.562,1.657,2.456a1.655,1.655,0,0,0,2.748,0l1.657-2.456,2.907.562a1.636,1.636,0,0,0,1.489-.455A1.665,1.665,0,0,0,18.38,16.4l-.562-2.912,2.452-1.661a1.663,1.663,0,0,0,0-2.756Zm-4.63,3.51.722,3.74L12.626,15.6,10.5,18.758,8.37,15.6l-3.728.722.722-3.74L2.214,10.449,5.364,8.317l-.722-3.74L8.374,5.3,10.5,2.149,12.626,5.3l3.732-.722-.722,3.736,3.149,2.132-3.149,2.136Z" transform="translate(5 5.025)"/></svg>