<svg xmlns="http://www.w3.org/2000/svg" width="30" height="30" viewBox="0 0 30 30"><defs><style>.a{fill:#43425d;opacity:0.996;}.b{fill:#fff;}</style></defs><rect class="a" width="30" height="30" rx="10"/><path class="b" d="M11.462,10.844a2.645,2.645,0,0,1-1.8-4.9.158.158,0,0,0-.049-.292A3.283,3.283,0,0,0,8.995,5.6a3.374,3.374,0,1,0,2.619,5.5A.158.158,0,0,0,11.462,10.844Zm5.909-3.069-2.1-1.424.482-2.5a1.421,1.421,0,0,0-1.663-1.67L11.6,2.668,10.176.563a1.473,1.473,0,0,0-2.355,0L6.4,2.668,3.912,2.187a1.425,1.425,0,0,0-1.666,1.67l.482,2.5L.626,7.776a1.424,1.424,0,0,0,0,2.359l2.1,1.424-.482,2.5a1.421,1.421,0,0,0,1.666,1.666L6.4,15.238l1.42,2.105a1.419,1.419,0,0,0,2.355,0l1.42-2.105,2.492.482a1.4,1.4,0,0,0,1.276-.39,1.427,1.427,0,0,0,.39-1.276l-.482-2.5,2.1-1.424a1.425,1.425,0,0,0,0-2.362ZM13.4,10.784l.619,3.206-3.2-.619L9,16.074,7.174,13.368l-3.2.619L4.6,10.781,1.9,8.953,4.6,7.125,3.979,3.92l3.2.619L9,1.839l1.824,2.7,3.2-.619-.619,3.2,2.7,1.828-2.7,1.831Z" transform="translate(6 6.025)"/></svg>