<svg id="Layer_1" data-name="Layer 1" xmlns="http://www.w3.org/2000/svg" viewBox="0 0 40 40"><defs><style>.cls-1{fill:none;}.cls-2{fill:#8ebef8;}</style></defs><title>Calendar Icon 40x40 blue</title><rect class="cls-1" width="40" height="40"/><path class="cls-2" d="M16.94,21.5H15.06a.56.56,0,0,1-.56-.56V19.06a.56.56,0,0,1,.56-.56h1.87a.56.56,0,0,1,.56.56v1.88A.56.56,0,0,1,16.94,21.5ZM22,20.94V19.06a.56.56,0,0,0-.56-.56H19.56a.56.56,0,0,0-.56.56v1.88a.56.56,0,0,0,.56.56h1.88A.56.56,0,0,0,22,20.94Zm4.5,0V19.06a.56.56,0,0,0-.56-.56H24.06a.56.56,0,0,0-.56.56v1.88a.56.56,0,0,0,.56.56h1.88A.56.56,0,0,0,26.5,20.94ZM22,25.44V23.56a.56.56,0,0,0-.56-.56H19.56a.56.56,0,0,0-.56.56v1.88a.56.56,0,0,0,.56.56h1.88A.56.56,0,0,0,22,25.44Zm-4.5,0V23.56a.56.56,0,0,0-.56-.56H15.06a.56.56,0,0,0-.56.56v1.88a.56.56,0,0,0,.56.56h1.88A.56.56,0,0,0,17.5,25.44Zm9,0V23.56a.56.56,0,0,0-.56-.56H24.06a.56.56,0,0,0-.56.56v1.88a.56.56,0,0,0,.56.56h1.88A.56.56,0,0,0,26.5,25.44ZM31,13.25v16.5A2.25,2.25,0,0,1,28.75,32H12.25A2.25,2.25,0,0,1,10,29.75V13.25A2.25,2.25,0,0,1,12.25,11H14.5V8.56A.56.56,0,0,1,15.06,8h1.88a.56.56,0,0,1,.56.56V11h6V8.56A.56.56,0,0,1,24.06,8h1.88a.56.56,0,0,1,.56.56V11h2.25A2.25,2.25,0,0,1,31,13.25ZM28.75,29.47v-14H12.25v14a.28.28,0,0,0,.28.28H28.47A.28.28,0,0,0,28.75,29.47Z"/></svg>