<svg xmlns="http://www.w3.org/2000/svg" width="17" height="17.004" viewBox="0 0 17 17.004"><defs><style>.a{fill:#1f1e34;}</style></defs><g transform="translate(0 0)"><path class="a" d="M.7,5.853,11.432,16.587,15.127,17a1.689,1.689,0,0,0,1.864-1.864l-.409-3.695L5.849.7a2.386,2.386,0,0,0-3.38,0L.7,2.469a2.394,2.394,0,0,0,0,3.384ZM4.737,7.116,7.11,4.743l7.6,7.6.3,2.669-2.669-.3ZM2.089,3.859,3.854,2.093a.427.427,0,0,1,.6,0L5.72,3.356,3.346,5.731,2.083,4.468A.435.435,0,0,1,2.089,3.859Z" transform="translate(-0.001 -0.002)"/></g></svg>