<svg xmlns="http://www.w3.org/2000/svg" width="28" height="32" viewBox="0 0 28 32"><defs><style>.a{fill:none;}.b{fill:#c7c7c7;}</style></defs><g transform="translate(10 9)"><rect class="a" width="28" height="32" rx="5" transform="translate(-10 -9)"/><path class="b" d="M15.406,64H1.594A1.594,1.594,0,0,0,0,65.594v9.563A1.594,1.594,0,0,0,1.594,76.75H15.406A1.594,1.594,0,0,0,17,75.156V65.594A1.594,1.594,0,0,0,15.406,64Zm0,1.594v1.355c-.744.606-1.931,1.549-4.469,3.536-.559.44-1.667,1.5-2.438,1.484-.771.012-1.879-1.045-2.438-1.484C3.526,68.5,2.338,67.555,1.594,66.949V65.594ZM1.594,75.156V68.994c.761.606,1.84,1.456,3.484,2.744.726.571,2,1.832,3.422,1.825,1.418.008,2.673-1.235,3.422-1.824,1.644-1.288,2.724-2.138,3.485-2.744v6.163Z" transform="translate(-4 -62)"/></g></svg>