<svg xmlns="http://www.w3.org/2000/svg" width="30" height="30" viewBox="0 0 30 30"><defs><style>.a{fill:none;}.b{fill:#656b72;}</style></defs><rect class="a" width="30" height="30"/><path class="b" d="M10,8A10,10,0,1,0,20,18,10,10,0,0,0,10,8ZM8.71,10.048V10.5a.646.646,0,0,1-.935.577L6.806,10.6A8.141,8.141,0,0,1,8.71,10.048ZM10,24.96v1.1A8.053,8.053,0,0,1,2.645,14.706c.4.593,1.016,1.508,1.4,2.06a4.5,4.5,0,0,0,.73.835l.032.028a5.88,5.88,0,0,0,1.274.879c.565.282,1.387.734,1.968,1.052A1.284,1.284,0,0,1,8.71,20.69v1.29a1.288,1.288,0,0,0,.379.911A3.027,3.027,0,0,1,10,24.96Zm1.722.915.7-1.891c.081-.222.133-.452.194-.681a.974.974,0,0,1,.25-.431l.456-.456a1.87,1.87,0,0,0,.552-1.331,1.233,1.233,0,0,0-.359-.871l-.552-.552a1.288,1.288,0,0,0-.911-.379h-2.7c-.379-.19-.867-1.29-1.29-1.29a2.737,2.737,0,0,1-1.222-.29L6.4,17.48a.486.486,0,0,1-.266-.431.481.481,0,0,1,.331-.456l1.258-.419a.639.639,0,0,1,.625.125l.375.327a.318.318,0,0,0,.21.081h.226a.324.324,0,0,0,.29-.468L8.815,14.98a.319.319,0,0,1,.065-.375l.4-.387a.317.317,0,0,1,.226-.093h.363a.327.327,0,0,0,.23-.093l.323-.323a.324.324,0,0,0,0-.456l-.19-.19a.324.324,0,0,1,0-.456l.415-.415.19-.19a.647.647,0,0,0,0-.911L9.694,9.952c.1,0,.2-.016.306-.016A8.067,8.067,0,0,1,17.206,14.4l-.524.262a1,1,0,0,0-.371.327l-.79,1.185a.962.962,0,0,0,0,1.073l.726,1.089a.979.979,0,0,0,.569.4l1.177.294A8.08,8.08,0,0,1,11.722,25.875Z" transform="translate(5 -3)"/></svg>