<svg xmlns="http://www.w3.org/2000/svg" width="30" height="30" viewBox="0 0 30 30"><defs><style>.a{fill:#43425d;}.b{fill:#8ebef8;}</style></defs><rect class="a" width="30" height="30" rx="10"/><path class="b" d="M12.3,11.942,10.585,8.148c.122-.315.229-.391.616-.777A1.233,1.233,0,0,0,11.52,6.18a1.925,1.925,0,0,1,0-1.589A1.233,1.233,0,0,0,11.2,3.4a1.926,1.926,0,0,1-.795-1.376,1.232,1.232,0,0,0-.872-.872A1.924,1.924,0,0,1,8.159.358,1.233,1.233,0,0,0,6.968.039a1.928,1.928,0,0,1-1.589,0A1.233,1.233,0,0,0,4.188.358a1.925,1.925,0,0,1-1.376.794,1.232,1.232,0,0,0-.872.872A1.924,1.924,0,0,1,1.146,3.4,1.232,1.232,0,0,0,.827,4.591a1.925,1.925,0,0,1,0,1.589A1.233,1.233,0,0,0,1.146,7.37c.416.417.5.47.616.777L.043,11.942a.557.557,0,0,0,.564.757H.631l2.009-.069,1.382,1.314a.639.639,0,0,0,.442.172.612.612,0,0,0,.567-.342l1.143-2.522,1.143,2.522a.612.612,0,0,0,.567.342.637.637,0,0,0,.441-.172l1.382-1.314,2.009.069h.024A.558.558,0,0,0,12.3,11.942Zm-8.068.377L3.149,11.287l-1.378.047L2.59,9.526a1.215,1.215,0,0,0,.222.092c.693.186.739.157,1.187.606a1.231,1.231,0,0,0,.872.361,1.271,1.271,0,0,0,.16-.022l-.8,1.756Zm.649-3.082a2.891,2.891,0,0,0-1.68-.885A2.991,2.991,0,0,0,2.119,6.472a3,3,0,0,0,0-2.173A2.992,2.992,0,0,0,3.206,2.417,3.023,3.023,0,0,0,5.087,1.331a3.005,3.005,0,0,0,2.173,0A3.026,3.026,0,0,0,9.142,2.417,2.993,2.993,0,0,0,10.228,4.3a2.991,2.991,0,0,0,0,2.173A3.027,3.027,0,0,0,9.142,8.354a2.887,2.887,0,0,0-1.68.885A2.56,2.56,0,0,0,4.885,9.238Zm4.867,2.068L9.2,11.287,8.111,12.32l-.8-1.756a1.222,1.222,0,0,0,.16.022,1.232,1.232,0,0,0,.872-.361c.452-.452.491-.419,1.187-.606a1.212,1.212,0,0,0,.222-.092l.819,1.808-.824-.028ZM8.82,5.291A2.647,2.647,0,1,0,6.173,7.938,2.647,2.647,0,0,0,8.82,5.291ZM6.173,6.615A1.324,1.324,0,1,1,7.5,5.291,1.325,1.325,0,0,1,6.173,6.615Z" transform="translate(8.827 7.944)"/></svg>