<svg id="Layer_1" data-name="Layer 1" xmlns="http://www.w3.org/2000/svg" width="35" height="27.84" viewBox="0 0 35 27.84">
  <defs>
    <style>
      .cls-1 {
        fill: none;
      }

      .cls-2 {
        fill: #8ebef8;
      }
    </style>
  </defs>
  <title>Gift_35x35</title>
  <rect class="cls-1" width="35" height="35"/>
  <path class="cls-2" d="M26.94,12.5H25.82a3.75,3.75,0,0,0,.43-1.72A3.79,3.79,0,0,0,22.47,7c-1.79,0-2.94.92-4.43,2.93C16.56,7.92,15.4,7,13.62,7a3.79,3.79,0,0,0-3.78,3.78,3.69,3.69,0,0,0,.43,1.72H9.06A2.06,2.06,0,0,0,7,14.56v5.5a.69.69,0,0,0,.69.69h.69v4.61a2.26,2.26,0,0,0,2.26,2.26H25.37a2.26,2.26,0,0,0,2.26-2.26V20.75h.69a.69.69,0,0,0,.69-.69v-5.5A2.06,2.06,0,0,0,26.94,12.5ZM17,25.56H10.63a.2.2,0,0,1-.2-.2h0V20.75h4.82V18.69H9.06V14.56H17ZM13.61,12.5a1.72,1.72,0,0,1,0-3.44c.95,0,1.61.33,3.61,3.31l.09.13Zm5.24-.13c2-3,2.67-3.31,3.61-3.31a1.72,1.72,0,0,1,0,3.44h-3.7Zm8.08,6.32H20.75v2.06h4.81v4.61a.2.2,0,0,1-.2.2H19v-11h7.91Z"/>
</svg>
