<svg xmlns="http://www.w3.org/2000/svg" width="35" height="35" viewBox="0 0 35 35"><defs><style>.a{fill:none;}.b{fill:#8ebef8;}</style></defs><rect class="a" width="35" height="35"/><path class="b" d="M19.938,21.5H18.816a3.747,3.747,0,0,0,.434-1.719A3.787,3.787,0,0,0,15.469,16c-1.788,0-2.943.915-4.426,2.935C9.561,16.915,8.4,16,6.617,16a3.787,3.787,0,0,0-3.781,3.781A3.694,3.694,0,0,0,3.27,21.5H2.063A2.063,2.063,0,0,0,0,23.563v5.5a.69.69,0,0,0,.688.688h.688v4.615a2.263,2.263,0,0,0,2.26,2.26h14.73a2.263,2.263,0,0,0,2.26-2.26V29.75h.688A.69.69,0,0,0,22,29.063v-5.5A2.063,2.063,0,0,0,19.938,21.5ZM9.969,34.563H3.635a.2.2,0,0,1-.2-.2V29.75H8.25V27.688H2.063V23.563H9.969ZM6.613,21.5a1.719,1.719,0,0,1,0-3.437c.945,0,1.611.327,3.614,3.309l.086.129Zm5.242-.129c2-2.982,2.668-3.309,3.614-3.309a1.719,1.719,0,0,1,0,3.438h-3.7Zm8.082,6.316H13.75V29.75h4.812v4.615a.2.2,0,0,1-.2.2H12.031v-11h7.906Z" transform="translate(7 -9)"/></svg>