<svg id="Gift_Icon" data-name="Gift Icon" xmlns="http://www.w3.org/2000/svg" width="22.703" height="22.703" viewBox="0 0 22.703 22.703">
  <circle id="container" cx="11.351" cy="11.351" r="11.351" fill="#9759ff" opacity="0.67"/>
  <path id="gift-light" d="M12.932,19.568h-1.1a2.3,2.3,0,0,0,.426-1.338A2.159,2.159,0,0,0,10.187,16c-1.179,0-1.862.708-3.052,2.67C5.945,16.708,5.262,16,4.083,16a2.159,2.159,0,0,0-2.076,2.23,2.3,2.3,0,0,0,.426,1.338h-1.1A1.338,1.338,0,0,0,0,20.905v2.676a.447.447,0,0,0,.446.446H.892v4.014A1.338,1.338,0,0,0,2.23,29.378h9.811a1.338,1.338,0,0,0,1.338-1.338V24.027h.446a.447.447,0,0,0,.446-.446V20.905A1.338,1.338,0,0,0,12.932,19.568Zm-5.234-.1c1.38-2.322,1.84-2.575,2.489-2.575a1.348,1.348,0,0,1,0,2.676H7.637ZM4.083,16.892c.652,0,1.109.254,2.489,2.575l.059.1H4.08a1.348,1.348,0,0,1,0-2.676ZM5.351,28.486H2.23a.447.447,0,0,1-.446-.446V24.027H5.351Zm0-5.351H.892v-2.23a.447.447,0,0,1,.446-.446H5.351Zm2.676,5.351H6.243V20.459H8.027Zm4.459-.446a.447.447,0,0,1-.446.446H8.919V24.027h3.568Zm.892-4.905H8.919V20.459h4.014a.447.447,0,0,1,.446.446Z" transform="translate(4.114 -11.459)" fill="#fff"/>
</svg>
