<svg xmlns="http://www.w3.org/2000/svg" width="30" height="30" viewBox="0 0 30 30"><defs><style>.a{fill:#43425d;opacity:0.996;}.b{fill:#fff;}</style></defs><rect class="a" width="30" height="30" rx="10"/><path class="b" d="M15.583,3.778H13.869a2.564,2.564,0,0,0,.3-1.181,2.6,2.6,0,0,0-2.6-2.6C10.342,0,9.547.63,8.528,2.017,7.51.63,6.715,0,5.488,0a2.6,2.6,0,0,0-2.6,2.6,2.564,2.564,0,0,0,.3,1.181H1.417A1.417,1.417,0,0,0,0,5.194v8.5a1.417,1.417,0,0,0,1.417,1.417H15.583A1.417,1.417,0,0,0,17,13.694v-8.5A1.417,1.417,0,0,0,15.583,3.778ZM11.569,1.417a1.181,1.181,0,0,1,0,2.361H9.029C10.545,1.521,10.969,1.417,11.569,1.417ZM4.307,2.6A1.182,1.182,0,0,1,5.488,1.417c.589,0,1.021.1,2.54,2.361H5.488A1.182,1.182,0,0,1,4.307,2.6Zm2.247,2.6L5.027,6.721a.472.472,0,0,0,0,.668l.334.334a.472.472,0,0,0,.668,0L8.5,5.252l2.471,2.471a.472.472,0,0,0,.668,0l.334-.334a.472.472,0,0,0,0-.668L10.446,5.194h5.137v4.25H1.417V5.194Zm-5.137,8.5V11.333H15.583v2.361Z" transform="translate(7 7)"/></svg>