<svg xmlns="http://www.w3.org/2000/svg" width="80" height="80" viewBox="0 0 80 80"><defs><style>.a{fill:none;}.b{fill:#9759ff;stroke:#9759ff;}</style></defs><g transform="translate(0 -845)"><rect class="a" width="80" height="80" transform="translate(0 845)"/><g transform="translate(8 853.037)"><path class="b" d="M291.393,2471.549a1.393,1.393,0,1,1,0-2.786h8.8a.681.681,0,0,0,.676-.762l-2.562-21.252a1.357,1.357,0,0,1-.01-.167,2.723,2.723,0,0,1,2.736-2.7h4.953a.681.681,0,0,0,.679-.633c.3-4.231,1.564-7.417,3.761-9.47a8.453,8.453,0,0,1,5.7-2.341c.126,0,.214,0,.256.007a1.4,1.4,0,0,1,1.29,1.486,1.376,1.376,0,0,1-1.383,1.3l-.161,0a5.82,5.82,0,0,0-3.867,1.654c-1.573,1.512-2.513,3.956-2.795,7.264a.68.68,0,0,0,.678.738h24.717a.68.68,0,0,0,.678-.738c-.282-3.308-1.222-5.751-2.794-7.263a5.774,5.774,0,0,0-3.839-1.656c-.041,0-.074,0-.1,0h-.068a1.36,1.36,0,0,1-1.391-1.316,1.377,1.377,0,0,1,1.281-1.466c.036,0,.123-.007.248-.007a8.462,8.462,0,0,1,5.7,2.341c2.2,2.052,3.463,5.239,3.761,9.47a.681.681,0,0,0,.679.633h4.954a2.723,2.723,0,0,1,2.735,2.7,1.337,1.337,0,0,1-.01.167L344.134,2468a.681.681,0,0,0,.676.762h8.8a1.393,1.393,0,1,1,0,2.786Zm10.476-24.885a.68.68,0,0,0-.676.762l2.5,20.738a.681.681,0,0,0,.676.6h36.262a.681.681,0,0,0,.676-.6l2.5-20.738a.68.68,0,0,0-.676-.762Z" transform="translate(-290 -2408.623)"/><path class="b" d="M478.034,2582.9a5.541,5.541,0,1,1,5.541-5.541A5.547,5.547,0,0,1,478.034,2582.9Zm0-8.3a2.754,2.754,0,1,0,2.754,2.754A2.757,2.757,0,0,0,478.034,2574.6Z" transform="translate(-445.534 -2528.266)"/><path class="b" d="M466.07,2298.469c-4.27,0-7.615-5.3-7.615-12.058,0-8.477,5.325-9.392,7.615-9.392s7.615.915,7.615,9.392C473.684,2293.173,470.339,2298.469,466.07,2298.469Zm0-18.664c-1.194,0-4.828,0-4.828,6.606,0,4.939,2.256,9.272,4.828,9.272s4.828-4.333,4.828-9.272C470.9,2279.805,467.264,2279.805,466.07,2279.805Z" transform="translate(-433.57 -2277.019)"/><path class="b" d="M594.485,2338.5c-.031,0-.061-.008-.091-.01a1.57,1.57,0,0,1-.263-.032.856.856,0,0,0-.115-.052,1.62,1.62,0,0,1-.221-.089l-.061-.031c-.816-.5-8.937-5.606-8.937-12.233,0-3.947,2.5-6.924,5.818-6.924a5.669,5.669,0,0,1,3.448,1.423.68.68,0,0,0,.845,0,5.678,5.678,0,0,1,3.448-1.424c3.316,0,5.817,2.977,5.817,6.924,0,6.67-8.229,11.8-8.937,12.233l-.06.031a1.4,1.4,0,0,1-.194.08c-.066.024-.1.041-.142.058a1.28,1.28,0,0,1-.275.037A.8.8,0,0,0,594.485,2338.5Zm-3.87-16.584c-1.99,0-3.032,2.082-3.032,4.138,0,4.186,4.981,8.046,6.508,9.129a.68.68,0,0,0,.788,0c1.527-1.083,6.508-4.943,6.508-9.129,0-2.056-1.041-4.138-3.031-4.138a4.292,4.292,0,0,0-2.38,1.38c-.223.2-.418.365-.587.5a1,1,0,0,0-.14.073,1.327,1.327,0,0,1-.264.128l-.048.019a1.369,1.369,0,0,1-.184.063,1.217,1.217,0,0,1-.226.015h-.053a1.6,1.6,0,0,1-.252-.013,1.668,1.668,0,0,1-.242-.084,1.345,1.345,0,0,1-.256-.123.826.826,0,0,0-.145-.078c-.178-.142-.382-.32-.58-.493A4.293,4.293,0,0,0,590.615,2321.919Z" transform="translate(-541.247 -2312.912)"/></g></g></svg>