<svg xmlns="http://www.w3.org/2000/svg" width="80" height="80" viewBox="0 0 80 80"><defs><style>.a,.b{fill:none;}.b{stroke:#9759ff;stroke-linecap:round;stroke-miterlimit:10;stroke-width:4px;}.c{fill:#9759ff;}</style></defs><g transform="translate(10629 -1589)"><rect class="a" width="80" height="80" transform="translate(-10629 1589)"/><g transform="translate(-13057.5 -1515.5)"><path class="b" d="M2470.248,3178.211h-28.779a4.731,4.731,0,0,1-4.969-4.45v-58.812a4.731,4.731,0,0,1,4.969-4.449h46.767a4.731,4.731,0,0,1,4.969,4.449V3140.3"/><line class="b" x2="35.334" transform="translate(2445.839 3122.953)"/><line class="b" x2="35.334" transform="translate(2445.839 3132.629)"/><line class="b" x2="35.334" transform="translate(2445.839 3142.305)"/><line class="b" x2="21.236" transform="translate(2445.839 3152.305)"/><path class="c" d="M2616.624,3269.425h0a6.115,6.115,0,0,0-8.606-.854l-8.219,6.735-9.583,7.853-1.417,1.161a.9.9,0,0,0-.3.448l-2.1,7.234a2.05,2.05,0,0,0,2.141,2.613l7.505-.633a.9.9,0,0,0,.5-.2l1.417-1.161,9.583-7.853,8.219-6.735A6.115,6.115,0,0,0,2616.624,3269.425Z" transform="translate(-116.509 -121.844)"/></g></g></svg>