<svg xmlns="http://www.w3.org/2000/svg" width="80" height="79" viewBox="0 0 80 79"><defs><style>.a,.b{fill:none;}.b{stroke:#9759ff;stroke-linecap:round;stroke-linejoin:round;stroke-width:3.5px;}</style></defs><g transform="translate(0 -1572)"><rect class="a" width="80" height="79" transform="translate(0 1572)"/><g transform="translate(8 1577)"><circle class="b" cx="5.947" cy="5.947" r="5.947" transform="translate(34.508 23.807)"/><circle class="b" cx="5.947" cy="5.947" r="5.947" transform="translate(49.39 10.415)"/><circle class="b" cx="5.947" cy="5.947" r="5.947" transform="translate(31.532)"/><path class="b" d="M3070.269,833.379a3.531,3.531,0,0,1,2.973-1.487h21.878c1.652,0,10.738-9.111,11.893-10.407a79.392,79.392,0,0,0,7.433-11.893c-.862-1.161-3.193-2.126-5.947-1.487-2.628.61-4.174,2.5-5.947,5.947l-6.475,3.362" transform="translate(-3049.447 -772.378)"/><path class="b" d="M3026.211,843.407h13.38c5.947,0,5.947-7.433,0-7.433h-8.92c-1.239,0-3.561-2.973-5.525-2.973h-7.433c-2.009,0-4.5,1.63-5.947,2.973-2.229,2.228-6.049,5.844-6.049,5.844" transform="translate(-2996.937 -792.827)"/><path class="b" d="M2958.468,870.91l5.91-5.91,16.354,16.353-5.972,5.972" transform="translate(-2958.468 -818.866)"/></g></g></svg>