<svg xmlns="http://www.w3.org/2000/svg" width="80" height="80" viewBox="0 0 80 80"><defs><style>.a{fill:none;}.b{fill:#9759ff;stroke:#9759ff;stroke-width:1.5px;}</style></defs><g transform="translate(0 -2055)"><rect class="a" width="80" height="80" transform="translate(0 2055)"/><g transform="translate(7.5 2062.503)"><path class="b" d="M1067.834,1007.347c-3.159,0-5.541-3.656-5.541-8.5,0-6.241,4.241-6.726,5.541-6.726s5.541.485,5.541,6.726C1073.374,1003.691,1070.992,1007.347,1067.834,1007.347Zm0-12.443c-1.182,0-2.755.408-2.755,3.939,0,3.272,1.454,5.717,2.755,5.717s2.755-2.445,2.755-5.717C1070.588,995.313,1069.016,994.9,1067.834,994.9Z" transform="translate(-1045.703 -985.897)"/><path class="b" d="M1028.588,1115.514a1.4,1.4,0,0,1-1.393-1.393c0-9.578,5.315-9.688,5.541-9.688a1.393,1.393,0,0,1,.066,2.785.6.6,0,0,0-.072.008c-1.031.161-2.266,1.492-2.636,4.745a.68.68,0,0,0,.676.758h14.3a.68.68,0,0,0,.676-.758c-.375-3.287-1.623-4.609-2.666-4.749a.707.707,0,0,0-.091-.006,1.35,1.35,0,0,1-1.335-1.391,1.441,1.441,0,0,1,1.451-1.391c.226,0,5.541.11,5.541,9.688a1.4,1.4,0,0,1-1.393,1.393Z" transform="translate(-1015.789 -1081.621)"/><path class="b" d="M1033.369,983.893a1.4,1.4,0,0,1-1.393-1.393V953.467a.681.681,0,0,0-.681-.681H981.524a.681.681,0,0,0-.68.681V982.5a1.393,1.393,0,1,1-2.786,0V951.393A1.4,1.4,0,0,1,979.45,950h53.919a1.4,1.4,0,0,1,1.393,1.393V982.5A1.4,1.4,0,0,1,1033.369,983.893Z" transform="translate(-973.91 -950)"/><path class="b" d="M1204.08,1022.983a1.393,1.393,0,0,1,0-2.786h10.369a1.393,1.393,0,0,1,0,2.786Z" transform="translate(-1165.359 -1009.828)"/><path class="b" d="M1204.08,1079.14a1.393,1.393,0,0,1,0-2.786h10.369a1.393,1.393,0,0,1,0,2.786Z" transform="translate(-1165.359 -1057.69)"/><path class="b" d="M1204.08,1135.3a1.393,1.393,0,0,1,0-2.786h10.369a1.393,1.393,0,0,1,0,2.786Z" transform="translate(-1165.359 -1105.552)"/><path class="b" d="M963.815,1230.374c-.031,0-.06-.008-.089-.009a1.754,1.754,0,0,1-.246-.027c-.057-.026-.095-.042-.133-.056a1.592,1.592,0,0,1-.225-.092c-.017-.01-.037-.02-.057-.029-.911-.55-13.085-8.082-13.085-17.764,0-4.815,2.758-9.688,8.03-9.688,2.159,0,3.923,1.263,5.363,2.5a.681.681,0,0,0,.886,0c1.442-1.235,3.207-2.5,5.364-2.5,5.271,0,8.029,4.874,8.029,9.688,0,9.679-12.165,17.209-13.084,17.763l-.03.015a1.522,1.522,0,0,1-.257.109c-.037.013-.078.03-.118.048l0,0,.017,0a1.486,1.486,0,0,1-.279.035Zm-5.807-24.879c-3.442,0-5.243,3.472-5.243,6.9,0,6.66,7.458,12.482,10.665,14.675a.68.68,0,0,0,.769,0c3.207-2.193,10.665-8.015,10.665-14.675,0-3.43-1.8-6.9-5.242-6.9-1.475,0-2.9,1.25-4.042,2.255-.293.256-.6.521-.861.729a.918.918,0,0,0-.154.084,1.379,1.379,0,0,1-.246.117,1.505,1.505,0,0,1-.242.084,1.17,1.17,0,0,1-.764-.083,1.363,1.363,0,0,1-.258-.125.835.835,0,0,0-.147-.079c-.256-.2-.549-.458-.859-.729C960.907,1206.745,959.483,1205.494,958.009,1205.494Z" transform="translate(-949.979 -1165.38)"/><path class="b" d="M1130.395,1230.367a1.672,1.672,0,0,1-.269-.03c-.059-.026-.1-.042-.133-.056a1.592,1.592,0,0,1-.223-.09l-.062-.032a39.791,39.791,0,0,1-5.645-4.289,1.394,1.394,0,0,1,1.876-2.062,38.47,38.47,0,0,0,4.136,3.264.681.681,0,0,0,.768,0c3.207-2.194,10.667-8.015,10.667-14.676,0-3.43-1.8-6.9-5.242-6.9-1.475,0-2.9,1.25-4.042,2.255-.3.262-.611.534-.879.743a1.42,1.42,0,0,0-.19.092,1.31,1.31,0,0,1-.208.1,1.326,1.326,0,0,1-.35.079,1.035,1.035,0,0,0-.161.03c-.026,0-.052-.007-.077-.009a1.412,1.412,0,0,1-.177-.031,1.394,1.394,0,0,1-.3-.1,1.3,1.3,0,0,1-.172-.091,1.148,1.148,0,0,0-.142-.077c-.262-.2-.566-.47-.88-.746l-.027-.024c-.336-.3-.718-.63-1.132-.951a1.393,1.393,0,0,1,1.709-2.2c.218.17.412.338.607.507l.158.137a.681.681,0,0,0,.887,0c1.446-1.24,3.215-2.507,5.374-2.507,5.271,0,8.028,4.874,8.028,9.688,0,9.7-12.212,17.238-13.089,17.766l-.042.021a1.5,1.5,0,0,1-.249.1,1.28,1.28,0,0,0-.12.049h0a1.532,1.532,0,0,1-.267.031c-.02,0-.044,0-.069.006Z" transform="translate(-1097.962 -1165.38)"/><path class="b" d="M1256.749,1230.367a1.672,1.672,0,0,1-.269-.03c-.059-.026-.1-.042-.133-.056a1.6,1.6,0,0,1-.223-.09l-.062-.032a39.808,39.808,0,0,1-5.644-4.289,1.394,1.394,0,0,1,1.877-2.062,38.458,38.458,0,0,0,4.136,3.264.681.681,0,0,0,.768,0c3.207-2.194,10.667-8.015,10.667-14.676,0-3.43-1.8-6.9-5.242-6.9-1.475,0-2.9,1.25-4.042,2.255-.3.262-.611.534-.879.743a1.42,1.42,0,0,0-.19.092,1.31,1.31,0,0,1-.208.1,1.325,1.325,0,0,1-.35.079,1.041,1.041,0,0,0-.161.03c-.026,0-.052-.007-.077-.009a1.422,1.422,0,0,1-.177-.031,1.4,1.4,0,0,1-.3-.1,1.294,1.294,0,0,1-.172-.091,1.147,1.147,0,0,0-.142-.077c-.262-.2-.566-.47-.88-.746l-.027-.024c-.336-.3-.718-.63-1.132-.951a1.393,1.393,0,0,1,1.71-2.2c.218.17.411.338.607.507l.158.137a.681.681,0,0,0,.887,0c1.446-1.24,3.215-2.507,5.374-2.507,5.271,0,8.028,4.874,8.028,9.688,0,9.7-12.212,17.238-13.089,17.766l-.042.021a1.5,1.5,0,0,1-.249.1,1.292,1.292,0,0,0-.12.049h0a1.531,1.531,0,0,1-.267.031c-.02,0-.044,0-.069.006Z" transform="translate(-1205.651 -1165.38)"/></g></g></svg>