<svg xmlns="http://www.w3.org/2000/svg" width="80" height="80" viewBox="0 0 80 80"><defs><style>.a{fill:none;}.b{fill:#9759ff;stroke:#9759ff;stroke-width:0.75px;}</style></defs><g transform="translate(0 -1565)"><rect class="a" width="80" height="80" transform="translate(0 1565)"/><g transform="translate(7 1572.5)"><path class="b" d="M303.836,1015a1.393,1.393,0,1,1,0-2.786h5.637a.682.682,0,0,0,.419-.144c.878-.686,2.919-2.92,2.919-8.832a.681.681,0,0,0-.681-.681H294.98a4.985,4.985,0,0,1-4.98-4.98v-42.6a4.986,4.986,0,0,1,4.98-4.98h55.041A4.985,4.985,0,0,1,355,954.98V982.5a1.393,1.393,0,1,1-2.786,0V954.98a2.2,2.2,0,0,0-2.193-2.194H294.98a2.2,2.2,0,0,0-2.193,2.194v42.6a2.2,2.2,0,0,0,2.193,2.193h29.594a1.393,1.393,0,1,1,0,2.786h-8.3a.681.681,0,0,0-.681.681,17.875,17.875,0,0,1-1.588,7.991.681.681,0,0,0,.609.985h15.769a.681.681,0,0,0,.608-.986,15.962,15.962,0,0,1-1.5-5.783,1.394,1.394,0,0,1,1.267-1.507,1.427,1.427,0,0,1,.17-.011,1.377,1.377,0,0,1,1.338,1.278c.4,4.581,2.122,6.332,2.846,6.873a.682.682,0,0,0,.407.135h5.641a1.393,1.393,0,1,1,0,2.786Z" transform="translate(-290 -950)"/><path class="b" d="M448.124,1083.748a.864.864,0,0,0-.09-.009,1.764,1.764,0,0,1-.245-.027c-.059-.026-.1-.042-.133-.056a1.579,1.579,0,0,1-.224-.09c-.016-.01-.036-.02-.056-.029-.623-.381-9.978-6.23-9.978-13.618,0-4.412,2.679-7.615,6.371-7.615a6.261,6.261,0,0,1,3.922,1.687.681.681,0,0,0,.864,0,6.262,6.262,0,0,1,3.923-1.687c3.691,0,6.37,3.2,6.37,7.615,0,7.378-9.329,13.221-9.975,13.616l-.059.03a1.407,1.407,0,0,1-.194.08c-.066.024-.1.041-.142.058a1.263,1.263,0,0,1-.275.036Zm-4.354-18.658c-2.63,0-3.585,2.887-3.585,4.828,0,4.868,5.778,9.285,7.549,10.523a.68.68,0,0,0,.78,0c1.771-1.237,7.549-5.654,7.549-10.523,0-1.941-.954-4.828-3.584-4.828-.974,0-1.986.889-2.8,1.6-.192.17-.435.382-.652.555a.9.9,0,0,0-.141.074,1.4,1.4,0,0,1-.267.129l-.035.013a1.312,1.312,0,0,1-.193.065,1.156,1.156,0,0,1-.225.016h-.052a1.516,1.516,0,0,1-.252-.013,1.465,1.465,0,0,1-.231-.079,1.434,1.434,0,0,1-.265-.127.947.947,0,0,0-.151-.081c-.2-.16-.431-.359-.65-.551C445.755,1065.98,444.742,1065.09,443.77,1065.09Z" transform="translate(-415.624 -1045.714)"/><path class="b" d="M394.285,1032.229a20.034,20.034,0,1,1,19.561-15.6,1.4,1.4,0,0,1-1.363,1.084h0a1.426,1.426,0,0,1-.306-.033,1.4,1.4,0,0,1-1.047-1.669,17.255,17.255,0,1,0-11.086,12.45,1.368,1.368,0,0,1,.469-.083,1.4,1.4,0,0,1,1.253,2,1.379,1.379,0,0,1-.792.712A19.951,19.951,0,0,1,394.285,1032.229Z" transform="translate(-361.785 -985.893)"/><path class="b" d="M586.667,1198.151a1.384,1.384,0,0,1-.985-.408l-4.755-4.755a.68.68,0,0,0-.962,0l-2.681,2.681a1.385,1.385,0,0,1-.987.406,1.427,1.427,0,0,1-.39-.055,1.39,1.39,0,0,1-.967-1.035l-4.148-18.664a1.384,1.384,0,0,1,.374-1.286,1.4,1.4,0,0,1,1-.405,1.461,1.461,0,0,1,.3.031l18.655,4.146a1.394,1.394,0,0,1,.683,2.346l-2.682,2.681a.68.68,0,0,0,0,.963l4.755,4.755a1.4,1.4,0,0,1,0,1.97l-6.221,6.221A1.384,1.384,0,0,1,586.667,1198.151Zm-6.221-9.008a1.384,1.384,0,0,1,.985.408l4.755,4.755a.681.681,0,0,0,.963,0l3.289-3.289a.681.681,0,0,0,0-.963l-4.755-4.755a1.4,1.4,0,0,1,0-1.97l1.476-1.476a.68.68,0,0,0-.333-1.146l-11.8-2.621a.674.674,0,0,0-.147-.016.681.681,0,0,0-.665.828l2.622,11.795a.68.68,0,0,0,.474.506.673.673,0,0,0,.19.027.681.681,0,0,0,.481-.2l1.476-1.476A1.384,1.384,0,0,1,580.445,1189.143Z" transform="translate(-529.281 -1141.446)"/></g></g></svg>