<svg xmlns="http://www.w3.org/2000/svg" width="80" height="80" viewBox="0 0 80 80"><defs><style>.a{fill:none;}.b{fill:#9759ff;stroke:#9759ff;}</style></defs><g transform="translate(10041 -1259)"><rect class="a" width="80" height="80" transform="translate(-10041 1259)"/><g transform="translate(-10997.038 974)"><path class="b" d="M971.064,359.43a6.9,6.9,0,0,1-7.026-6.749V296.749A6.9,6.9,0,0,1,971.064,290h33.227a6.9,6.9,0,0,1,7.026,6.749v3.6a1.488,1.488,0,0,1-2.976,0v-3.6a3.923,3.923,0,0,0-4.05-3.773H971.064a3.923,3.923,0,0,0-4.05,3.773v1.384a.727.727,0,0,0,.727.727h35.442a1.488,1.488,0,1,1,0,2.976H967.741a.727.727,0,0,0-.727.727v44.3a.727.727,0,0,0,.727.727h35.442a1.488,1.488,0,1,1,0,2.976H967.741a.727.727,0,0,0-.727.727v1.384a3.923,3.923,0,0,0,4.05,3.773h33.227a3.923,3.923,0,0,0,4.05-3.773v-3.6a1.488,1.488,0,0,1,2.976,0v3.6a6.9,6.9,0,0,1-7.026,6.749Z" transform="translate(0)"/><path class="b" d="M1047.165,432.608c-3.374,0-5.918-3.9-5.918-9.083,0-6.666,4.53-7.184,5.918-7.184s5.918.518,5.918,7.184C1053.084,428.7,1050.539,432.608,1047.165,432.608Zm0-13.291c-1.263,0-2.942.436-2.942,4.208,0,3.5,1.553,6.107,2.942,6.107s2.942-2.612,2.942-6.107C1050.108,419.754,1048.428,419.317,1047.165,419.317Z" transform="translate(-65.026 -106.405)"/><path class="b" d="M1007.64,540.482a1.49,1.49,0,0,1-1.488-1.488c0-10.231,5.677-10.349,5.918-10.349a1.488,1.488,0,0,1,.071,2.975c-.026,0-.052,0-.077.008-1.1.172-2.42,1.594-2.816,5.068a.727.727,0,0,0,.722.809h15.275a.727.727,0,0,0,.722-.809c-.4-3.511-1.734-4.923-2.848-5.073a.743.743,0,0,0-.1-.006,1.442,1.442,0,0,1-1.426-1.486,1.539,1.539,0,0,1,1.55-1.486c.242,0,5.918.118,5.918,10.349a1.49,1.49,0,0,1-1.488,1.488Z" transform="translate(-35.469 -200.988)"/><path class="b" d="M1177.507,450.318a1.6,1.6,0,0,1-.3-.035c-.057-.025-.1-.042-.137-.056a1.673,1.673,0,0,1-.248-.1c-.018-.01-.038-.021-.059-.03-1.072-.646-16.193-9.984-16.193-21.928,0-5.877,3.352-11.826,9.758-11.826,2.645,0,4.812,1.567,6.759,3.259a.728.728,0,0,0,.954,0c1.947-1.693,4.113-3.259,6.76-3.259,6.406,0,9.757,5.949,9.757,11.826,0,11.942-15.114,21.277-16.192,21.928l-.053.027a1.536,1.536,0,0,1-.261.109c-.041.014-.083.032-.125.051h0a1.613,1.613,0,0,1-.3.035l-.061,0Zm-7.18-31c-4.452,0-6.782,4.452-6.782,8.85,0,8.548,9.518,15.881,13.61,18.637a.727.727,0,0,0,.813,0c4.093-2.764,13.613-10.114,13.613-18.636,0-4.4-2.329-8.85-6.781-8.85-1.929,0-3.742,1.591-5.2,2.869-.365.32-.742.651-1.072.911a.978.978,0,0,0-.159.085,1.447,1.447,0,0,1-.266.127,1.632,1.632,0,0,1-.258.09,1.6,1.6,0,0,1-.285.015,1.541,1.541,0,0,1-.274-.015,1.639,1.639,0,0,1-.258-.088,1.49,1.49,0,0,1-.276-.133.971.971,0,0,0-.159-.085c-.311-.244-.668-.555-1.067-.9C1174.069,420.909,1172.256,419.317,1170.327,419.317Z" transform="translate(-165.519 -106.405)"/></g></g></svg>