<svg xmlns="http://www.w3.org/2000/svg" width="80" height="80" viewBox="0 0 80 80"><defs><style>.a,.b{fill:none;}.b{stroke:#9759ff;stroke-miterlimit:10;stroke-width:3.5px;}</style></defs><g transform="translate(10609 -1563)"><rect class="a" width="80" height="80" transform="translate(-10609 1563)"/><g transform="translate(-11752.874 -1526.418)"><path class="b" d="M1256.427,3202.581c-2.706,0-4.121,2.729-4.121,5.426,0,5.235,5.863,9.811,8.384,11.535a.534.534,0,0,0,.6,0c2.521-1.724,8.384-6.3,8.384-11.535,0-2.7-1.416-5.426-4.121-5.426-1.159,0-2.278.983-3.177,1.773-.23.2-.469.41-.677.573a.747.747,0,0,0-.114.062,1.084,1.084,0,0,1-.2.1,1.2,1.2,0,0,1-.183.063,1.112,1.112,0,0,1-.211.012,1.215,1.215,0,0,1-.209-.011,1.164,1.164,0,0,1-.174-.061,1.051,1.051,0,0,1-.212-.1.727.727,0,0,0-.117-.063c-.2-.16-.433-.361-.676-.573C1258.706,3203.564,1257.587,3202.581,1256.427,3202.581Z" transform="translate(-85.206 -91.178)"/><circle class="b" cx="18.29" cy="18.29" r="18.29" transform="translate(1157.528 3100.381)"/><circle class="b" cx="24.27" cy="24.27" r="24.27" transform="translate(1151.374 3094.575)"/><path class="b" d="M0,0H7.2a0,0,0,0,1,0,0V28.511a3.6,3.6,0,0,1-3.6,3.6h0a3.6,3.6,0,0,1-3.6-3.6V0A0,0,0,0,1,0,0Z" transform="translate(1189.319 3140.647) rotate(-42.661)"/></g></g></svg>