<svg xmlns="http://www.w3.org/2000/svg" width="30" height="30" viewBox="0 0 30 30"><defs><style>.a{fill:none;}.b{fill:#1f1e34;}</style></defs><rect class="a" width="30" height="30"/><path class="b" d="M31.11,0a6.055,6.055,0,0,0-5.378,2.845.751.751,0,0,0,.162,1.027l1.348,1.022a.75.75,0,0,0,1.039-.13,3.032,3.032,0,0,1,2.586-1.545c.961,0,2.15.619,2.15,1.551,0,.7-.582,1.067-1.531,1.6-1.107.621-2.572,1.393-2.572,3.325V10a.75.75,0,0,0,.75.75H31.93a.75.75,0,0,0,.75-.75V9.82c0-1.339,3.915-1.4,3.915-5.02C36.594,2.07,33.763,0,31.11,0ZM30.8,11.671a2.165,2.165,0,1,0,2.165,2.165A2.167,2.167,0,0,0,30.8,11.671Z" transform="translate(-15.598 6.5)"/></svg>