<svg xmlns="http://www.w3.org/2000/svg" width="30" height="30" viewBox="0 0 30 30"><defs><style>.a{fill:none;}.b,.c{fill:#8ebef8;}.b{opacity:0.4;}</style></defs><g transform="translate(0 0)"><g transform="translate(30 30) rotate(180)"><rect class="a" width="30" height="30"/></g><g transform="translate(5)"><path class="b" d="M15,1.875V20L7.5,15.625,0,20V1.875A1.875,1.875,0,0,1,1.875,0h1.25V12.739a.625.625,0,0,0,.9.559L7.5,11.563,10.97,13.3a.625.625,0,0,0,.9-.559V0h1.25A1.875,1.875,0,0,1,15,1.875Z" transform="translate(0 0)"/><path class="c" d="M88.75,0V12.739a.625.625,0,0,1-.9.559l-3.47-1.735L80.9,13.3a.625.625,0,0,1-.9-.559V0Z" transform="translate(-76.875 0)"/></g></g></svg>