<svg xmlns="http://www.w3.org/2000/svg" width="30" height="30" viewBox="0 0 30 30"><defs><style>.a{fill:none;}.b{fill:#1f1e34;}</style></defs><g transform="translate(30 30) rotate(180)"><rect class="a" width="30" height="30"/><path class="b" d="M10.143,3.213l1.862.776.776,1.862a.25.25,0,0,0,.447,0l.776-1.862,1.862-.776a.25.25,0,0,0,0-.447l-1.862-.776L13.229.127a.25.25,0,0,0-.447,0l-.776,1.862-1.862.776a.25.25,0,0,0,0,.447Zm5.724,9.552-1.862-.776-.776-1.862a.25.25,0,0,0-.447,0l-.776,1.862-1.862.776a.25.25,0,0,0,0,.447l1.862.776.776,1.862a.25.25,0,0,0,.447,0l.776-1.862,1.862-.776a.25.25,0,0,0,0-.447ZM12.005,7.989a.75.75,0,0,0-.415-.671L8.314,5.68,6.676,2.4a.781.781,0,0,0-1.342,0L3.7,5.68.42,7.318a.75.75,0,0,0,0,1.342L3.7,10.3l1.638,3.277a.75.75,0,0,0,1.342,0L8.314,10.3,11.59,8.66A.75.75,0,0,0,12.005,7.989ZM7.42,9.068a.75.75,0,0,0-.336.336L6.005,11.562,4.926,9.4a.75.75,0,0,0-.336-.336L2.432,7.989,4.59,6.91a.75.75,0,0,0,.336-.335L6.005,4.416,7.084,6.574a.75.75,0,0,0,.336.335L9.578,7.989Z" transform="translate(6.994 7.011)"/></g></svg>