<svg xmlns="http://www.w3.org/2000/svg" width="40" height="40" viewBox="0 0 40 40"><defs><style>.a{fill:none;}.b{fill:#131220;}</style></defs><rect class="a" width="40" height="40"/><path class="b" d="M212.156,241.957H196.442A2.143,2.143,0,0,0,194.3,244.1v15.714a2.144,2.144,0,0,0,2.143,2.143h15.714a2.143,2.143,0,0,0,2.143-2.143V244.1A2.143,2.143,0,0,0,212.156,241.957Zm-8.106,16.667a1.8,1.8,0,1,1,1.8-1.8A1.806,1.806,0,0,1,204.05,258.624Zm1.569-5.151v.151a.625.625,0,0,1-.625.625h-1.887a.625.625,0,0,1-.625-.625v-.255c0-1.61,1.221-2.253,2.143-2.771.791-.443,1.276-.745,1.276-1.333,0-.777-.991-1.292-1.792-1.292a2.526,2.526,0,0,0-2.155,1.287.625.625,0,0,1-.866.108l-1.123-.851a.626.626,0,0,1-.135-.857,5.045,5.045,0,0,1,4.482-2.37c2.21,0,4.569,1.725,4.569,4C208.881,252.31,205.619,252.357,205.619,253.473Z" transform="translate(-184.299 -231.957)"/></svg>