<svg xmlns="http://www.w3.org/2000/svg" width="30" height="30" viewBox="0 0 30 30"><defs><style>.a{fill:#43425d;opacity:0.996;}.b{fill:#fff;}</style></defs><rect class="a" width="30" height="30" rx="10"/><path class="b" d="M15.456,5.141c-.147-.121-3.491-2.811-4.227-3.4C10.538,1.193,9.357,0,8,0S5.48,1.179,4.771,1.746C4.006,2.353.675,5.033.547,5.138A1.5,1.5,0,0,0,0,6.3v8.2A1.5,1.5,0,0,0,1.5,16h13A1.5,1.5,0,0,0,16,14.5V6.3a1.5,1.5,0,0,0-.544-1.156ZM14.5,14.313a.187.187,0,0,1-.187.188H1.688a.187.187,0,0,1-.187-.187V6.386a.187.187,0,0,1,.07-.146c.5-.4,3.4-2.736,4.136-3.322C6.274,2.465,7.262,1.5,8,1.5s1.746.98,2.294,1.418c.737.586,3.641,2.922,4.136,3.322a.187.187,0,0,1,.069.146Zm-1-5.866a.375.375,0,0,1-.055.531c-.905.728-1.852,1.487-2.217,1.777C10.52,11.321,9.35,12.5,8,12.5s-2.54-1.195-3.229-1.746c-.352-.28-1.3-1.044-2.216-1.777A.375.375,0,0,1,2.5,8.447l.477-.579A.375.375,0,0,1,3.5,7.814c.894.719,1.83,1.47,2.2,1.768C6.254,10.02,7.26,11,8,11s1.726-.965,2.294-1.418c.375-.3,1.311-1.049,2.205-1.768a.375.375,0,0,1,.524.054l.477.579Z" transform="translate(7 6)"/></svg>