<svg id="link_icon" data-name="link icon" xmlns="http://www.w3.org/2000/svg" width="24" height="24" viewBox="0 0 24 24">
  <rect id="Rectangle_3765" data-name="Rectangle 3765" width="24" height="24" fill="none"/>
  <g id="Group_26446" data-name="Group 26446" transform="translate(-4 -12)">
    <g id="link-regular" transform="translate(8 16)">
      <path id="Shape" d="M1.283,14.717a4.372,4.372,0,0,1,0-6.187L3.264,6.547A.375.375,0,0,1,3.9,6.8a5.449,5.449,0,0,0,.148,1.182.372.372,0,0,1-.1.35L2.52,9.768A2.625,2.625,0,0,0,6.232,13.48l2.35-2.35a2.627,2.627,0,0,0-.713-4.22.376.376,0,0,1-.205-.386,1.615,1.615,0,0,1,.463-.95l.137-.137a.373.373,0,0,1,.43-.072,4.375,4.375,0,0,1,1.431,6.663c-.2.242-.087.121-2.654,2.688a4.372,4.372,0,0,1-6.187,0Zm6.023-4.084a4.374,4.374,0,0,1-1.43-6.662c.195-.242.087-.121,2.654-2.688A4.375,4.375,0,0,1,14.717,7.47c-1.024,1.024-1.62,1.622-1.981,1.983A.375.375,0,0,1,12.1,9.2a5.408,5.408,0,0,0-.149-1.182.375.375,0,0,1,.1-.35L13.48,6.232A2.625,2.625,0,0,0,9.768,2.519L7.418,4.87a2.625,2.625,0,0,0,.713,4.219.376.376,0,0,1,.2.386,1.612,1.612,0,0,1-.463.95l-.137.137a.376.376,0,0,1-.266.11A.366.366,0,0,1,7.306,10.633Z" transform="translate(0 0)" fill="#9759ff"/>
    </g>
    <rect id="Rectangle_3778" data-name="Rectangle 3778" width="20" height="20" transform="translate(6 14)" fill="none"/>
  </g>
</svg>
