<svg xmlns="http://www.w3.org/2000/svg" width="24" height="24" viewBox="0 0 24 24"><defs><style>.a{fill:none;}.b{fill:#131220;}</style></defs><rect class="a" width="24" height="24"/><g transform="translate(-2)"><rect class="a" width="20" height="20" transform="translate(4 2)"/><g transform="translate(4 4)"><path class="b" d="M13.882,15.692,12.345,12H7.655L6.118,15.692a.5.5,0,0,1-.653.269l-.922-.385a.5.5,0,0,1-.269-.654L8.351,5.128a2,2,0,1,1,3.3,0l4.078,9.794a.5.5,0,0,1-.269.654l-.922.385a.5.5,0,0,1-.653-.269ZM17.627,8a.5.5,0,0,1-.434-.735A7.008,7.008,0,0,0,17.184.727.494.494,0,0,1,17.622,0h1.107a.506.506,0,0,1,.46.29,8.889,8.889,0,0,1,0,7.42.507.507,0,0,1-.46.29ZM1.291,8a.5.5,0,0,1-.457-.286A8.71,8.71,0,0,1,0,4,8.927,8.927,0,0,1,.809.291.506.506,0,0,1,1.27,0h1.1A.5.5,0,0,1,2.81.729,6.969,6.969,0,0,0,2.815,7.27.5.5,0,0,1,2.379,8ZM14.229,6a.492.492,0,0,1-.464-.661,3.909,3.909,0,0,0,0-2.677A.492.492,0,0,1,14.229,2h1.054a.5.5,0,0,1,.481.351,5.9,5.9,0,0,1,0,3.3A.5.5,0,0,1,15.283,6ZM4.717,6a.5.5,0,0,1-.481-.351,5.881,5.881,0,0,1,0-3.3A.5.5,0,0,1,4.717,2H5.771a.492.492,0,0,1,.464.661,3.909,3.909,0,0,0,0,2.677A.492.492,0,0,1,5.771,6Z"/></g></g></svg>