<svg xmlns="http://www.w3.org/2000/svg" width="30" height="30" viewBox="0 0 30 30"><defs><style>.a{fill:none;}.b{fill:#a2a2a2;}</style></defs><rect class="a" width="30" height="30"/><path class="b" d="M22.226,1.932A8.8,8.8,0,0,1,26,9.143,9,9,0,0,1,8,9.157a8.816,8.816,0,0,1,3.767-7.221.882.882,0,0,1,1.27.275l.573,1a.848.848,0,0,1-.24,1.107A5.941,5.941,0,0,0,10.9,9.139,6.1,6.1,0,0,0,23.1,9.1a5.972,5.972,0,0,0-2.471-4.786.843.843,0,0,1-.236-1.1l.573-1A.878.878,0,0,1,22.226,1.932Zm-3.774,7.5V.857A.862.862,0,0,0,17.58,0H16.419a.862.862,0,0,0-.871.857V9.429a.862.862,0,0,0,.871.857H17.58A.862.862,0,0,0,18.451,9.429Z" transform="translate(-2 6)"/><rect class="a" width="30" height="30"/><path class="b" d="M22.226,1.932A8.8,8.8,0,0,1,26,9.143,9,9,0,0,1,8,9.157a8.816,8.816,0,0,1,3.767-7.221.882.882,0,0,1,1.27.275l.573,1a.848.848,0,0,1-.24,1.107A5.941,5.941,0,0,0,10.9,9.139,6.1,6.1,0,0,0,23.1,9.1a5.972,5.972,0,0,0-2.471-4.786.843.843,0,0,1-.236-1.1l.573-1A.878.878,0,0,1,22.226,1.932Zm-3.774,7.5V.857A.862.862,0,0,0,17.58,0H16.419a.862.862,0,0,0-.871.857V9.429a.862.862,0,0,0,.871.857H17.58A.862.862,0,0,0,18.451,9.429Z" transform="translate(-2 6)"/></svg>