<svg xmlns="http://www.w3.org/2000/svg" width="24" height="24" viewBox="0 0 24 24"><defs><style>.a{fill:#43425d;}</style></defs><path class="a" d="M16.04,13.2l-2.458-.358-1.1-2.228a.539.539,0,0,0-.966,0l-1.1,2.228L7.962,13.2a.538.538,0,0,0-.3.918l1.778,1.733L9.022,18.3a.539.539,0,0,0,.531.63.529.529,0,0,0,.25-.063L12,17.713l2.2,1.155a.529.529,0,0,0,.249.062.539.539,0,0,0,.532-.63l-.42-2.448,1.778-1.733A.538.538,0,0,0,16.04,13.2ZM23.249,0h-7.4a1.5,1.5,0,0,0-1.286.728L12,5,9.438.728A1.5,1.5,0,0,0,8.151,0H.752A.75.75,0,0,0,.138,1.18L5.481,8.814a9,9,0,1,0,13.04,0L23.864,1.18A.75.75,0,0,0,23.249,0ZM3.633,2.25H7.727L10.1,6.206A8.943,8.943,0,0,0,7.227,7.384ZM18.751,15A6.75,6.75,0,1,1,12,8.25,6.75,6.75,0,0,1,18.751,15ZM16.774,7.384A8.932,8.932,0,0,0,13.9,6.206L16.275,2.25h4.094L16.774,7.384Z" transform="translate(-0.001)"/></svg>