<svg xmlns="http://www.w3.org/2000/svg" width="30" height="30" viewBox="0 0 30 30"><defs><style>.a{fill:none;}.b{fill:#1d1c2f;}</style></defs><rect class="a" width="30" height="30"/><g transform="translate(5 4)"><path class="b" d="M12.875,9.809,10.04,9.1a.7.7,0,0,1,.189-1.374H12a1.83,1.83,0,0,1,.809.194.581.581,0,0,0,.63,0l.745-.59a.382.382,0,0,0,0-.652,4.092,4.092,0,0,0-1.964-.625V5.4a.7.7,0,0,0-.756-.634h-.5a.7.7,0,0,0-.756.634v.634A2.589,2.589,0,0,0,7.52,8.417,2.469,2.469,0,0,0,9.5,10.707l2.835.714a.7.7,0,0,1,.546.678.714.714,0,0,1-.735.7H10.334a1.83,1.83,0,0,1-.808-.194.581.581,0,0,0-.63,0l-.746.59A.4.4,0,0,0,8,13.528a.418.418,0,0,0,.2.316,4.151,4.151,0,0,0,1.963.59v.643a.577.577,0,0,0,.215.448.823.823,0,0,0,.531.186h.5a.7.7,0,0,0,.756-.634v-.634a2.579,2.579,0,0,0,2.688-2.378,2.477,2.477,0,0,0-1.984-2.255Z" transform="translate(-0.676 0.239)"/><path class="b" d="M10.5,0A10.5,10.5,0,1,0,21,10.5,10.5,10.5,0,0,0,10.5,0Zm0,19.091A8.591,8.591,0,1,1,19.091,10.5,8.591,8.591,0,0,1,10.5,19.091Z"/></g></svg>