<svg id="coin_1_" data-name="coin (1)" xmlns="http://www.w3.org/2000/svg" width="22" height="22" viewBox="0 0 22 22">
  <path id="Path_1192" data-name="Path 1192" d="M11,0A11,11,0,1,0,22,11,11.013,11.013,0,0,0,11,0Zm0,20.552A9.552,9.552,0,1,1,20.552,11,9.563,9.563,0,0,1,11,20.552Z"/>
  <path id="Path_1193" data-name="Path 1193" d="M76.322,35.281V31.122a2.031,2.031,0,0,1,.981.818.68.68,0,0,0,.969.209.754.754,0,0,0,.2-1.015A3.4,3.4,0,0,0,76.322,29.6V28.438a.7.7,0,1,0-1.4,0V29.6a3.611,3.611,0,0,0,0,7v4.159a2.031,2.031,0,0,1-.981-.818.68.68,0,0,0-.969-.209.754.754,0,0,0-.2,1.015,3.4,3.4,0,0,0,2.149,1.533v1.163a.7.7,0,1,0,1.4,0V42.277a3.611,3.611,0,0,0,0-7ZM73.608,33.1a2.107,2.107,0,0,1,1.315-1.975v3.95A2.107,2.107,0,0,1,73.608,33.1Zm2.714,7.656V36.8a2.14,2.14,0,0,1,0,3.95Z" transform="translate(-64.622 -24.938)"/>
</svg>
