<svg xmlns="http://www.w3.org/2000/svg" width="30" height="30" viewBox="0 0 30 30"><defs><style>.a{fill:#43425d;opacity:0.996;}.b{fill:#fff;}</style></defs><rect class="a" width="30" height="30" rx="10"/><path class="b" d="M10.821,3.849l1.839-2.7A.8.8,0,0,0,11.95,0H5.043a.8.8,0,0,0-.713,1.153l1.842,2.7C-.329,7.825,0,13.017,0,13.68A3.492,3.492,0,0,0,3.641,17h9.712a3.492,3.492,0,0,0,3.642-3.32C16.995,13.029,17.287,7.8,10.821,3.849Zm-.389-2.255L9.163,3.453H7.831L6.562,1.594ZM15.4,13.68a1.91,1.91,0,0,1-2.048,1.727H3.641A1.91,1.91,0,0,1,1.593,13.68C1.566,10.99,2.677,7.854,7.268,5.047h2.46C14.3,7.842,15.423,10.988,15.4,13.68ZM9.48,10.317,7.853,9.835a.462.462,0,0,1-.318-.454.451.451,0,0,1,.426-.472H8.977a.89.89,0,0,1,.463.133A.3.3,0,0,0,9.8,9.017l.423-.4a.284.284,0,0,0-.022-.432,2.1,2.1,0,0,0-1.135-.4V7.192a.289.289,0,0,0-.289-.286H8.2a.288.288,0,0,0-.289.286v.579A1.6,1.6,0,0,0,6.372,9.384a1.62,1.62,0,0,0,1.142,1.552l1.627.483a.462.462,0,0,1,.318.454.451.451,0,0,1-.426.472H8.016a.887.887,0,0,1-.463-.133.3.3,0,0,0-.365.025l-.427.4a.284.284,0,0,0,.022.432,2.1,2.1,0,0,0,1.135.4v.583a.288.288,0,0,0,.289.286h.578a.288.288,0,0,0,.289-.286V13.48a1.618,1.618,0,0,0,.405-3.163Z" transform="translate(7.003 7)"/></svg>