<svg xmlns="http://www.w3.org/2000/svg" width="30" height="30" viewBox="0 0 30 30"><defs><style>.a{fill:#43425d;opacity:0.996;}.b{fill:#fff;}</style></defs><rect class="a" width="30" height="30" rx="10"/><path class="b" d="M9.387,15.613l-2.323-.706a.75.75,0,0,1-.49-.732.714.714,0,0,1,.661-.755H8.687a1.287,1.287,0,0,1,.642.174.533.533,0,0,0,.635-.052l.387-.365a.522.522,0,0,0-.074-.813,2.866,2.866,0,0,0-1.5-.487v-.523a.518.518,0,0,0-.516-.516H7.748a.518.518,0,0,0-.516.516v.516a2.26,2.26,0,0,0-2.2,2.3,2.308,2.308,0,0,0,1.587,2.213l2.323.706a.75.75,0,0,1,.49.732.714.714,0,0,1-.661.755H7.319a1.287,1.287,0,0,1-.642-.174.533.533,0,0,0-.635.052l-.387.365a.522.522,0,0,0,.074.813,2.866,2.866,0,0,0,1.5.487v.523a.518.518,0,0,0,.516.516h.516a.518.518,0,0,0,.516-.516v-.516a2.26,2.26,0,0,0,2.2-2.3A2.308,2.308,0,0,0,9.387,15.613ZM8,8a8,8,0,1,0,8,8A8,8,0,0,0,8,8ZM8,22.452A6.452,6.452,0,1,1,14.452,16,6.458,6.458,0,0,1,8,22.452Z" transform="translate(7 -1)"/></svg>