<svg xmlns="http://www.w3.org/2000/svg" width="40" height="40" viewBox="0 0 40 40"><defs><style>.a{fill:none;}.b{fill:#8ebef8;}.c{fill:#2cc05f;}</style></defs><g transform="translate(-280 -58)"><rect class="a" width="40" height="40" transform="translate(280 58)"/><path class="b" d="M19.615,16.174c-.862-.927-2.476-2.321-2.476-6.888a7.05,7.05,0,0,0-5.712-6.927v-.93a1.428,1.428,0,1,0-2.855,0v.93A7.05,7.05,0,0,0,2.86,9.286c0,4.567-1.614,5.961-2.476,6.888A1.4,1.4,0,0,0,0,17.143a1.43,1.43,0,0,0,1.433,1.429H18.566A1.43,1.43,0,0,0,20,17.143a1.394,1.394,0,0,0-.384-.969Zm-16.6.255C3.961,15.18,5,13.11,5,9.312c0-.009,0-.017,0-.026a5,5,0,1,1,10,0c0,.009,0,.017,0,.026,0,3.8,1.041,5.869,1.988,7.117ZM10,22.857A2.857,2.857,0,0,0,12.855,20H7.144A2.857,2.857,0,0,0,10,22.857Z" transform="translate(290.001 66)"/><circle class="c" cx="4" cy="4" r="4" transform="translate(302 68)"/></g></svg>