<svg xmlns="http://www.w3.org/2000/svg" width="30" height="30" viewBox="0 0 30 30"><defs><style>.a{fill:none;}.b{fill:#1d1c2f;}</style></defs><rect class="a" width="30" height="30"/><path class="b" d="M19.246,32H1.754A1.751,1.751,0,0,0,0,33.75V46.583a1.751,1.751,0,0,0,1.754,1.75H19.246A1.751,1.751,0,0,0,21,46.583V33.75A1.751,1.751,0,0,0,19.246,32ZM1.972,33.75H19.028a.219.219,0,0,1,.219.219V35.5H1.754V33.969A.219.219,0,0,1,1.972,33.75ZM19.028,46.583H1.972a.219.219,0,0,1-.219-.219v-6.2H19.246v6.2A.219.219,0,0,1,19.028,46.583ZM7,42.938V44.4a.439.439,0,0,1-.438.438H3.938A.439.439,0,0,1,3.5,44.4V42.938a.439.439,0,0,1,.437-.438H6.563A.439.439,0,0,1,7,42.938Zm7,0V44.4a.439.439,0,0,1-.438.438H8.6a.439.439,0,0,1-.437-.437V42.938A.439.439,0,0,1,8.6,42.5h4.958A.439.439,0,0,1,14,42.938Z" transform="translate(5 -24)"/></svg>