<svg xmlns="http://www.w3.org/2000/svg" width="30" height="30" viewBox="0 0 30 30"><defs><style>.a{fill:#43425d;}.b{fill:#8ebef8;}</style></defs><rect class="a" width="30" height="30" rx="10"/><path class="b" d="M8.846,7.281l-1.355-.2L6.885,5.855a.3.3,0,0,0-.533,0L5.746,7.084l-1.355.2a.3.3,0,0,0-.164.506l.98.955-.232,1.35a.3.3,0,0,0,.293.347.292.292,0,0,0,.138-.035l1.212-.637,1.212.637a.292.292,0,0,0,.137.034.3.3,0,0,0,.293-.347l-.232-1.35.981-.955A.3.3,0,0,0,8.846,7.281ZM12.822,0H8.741a.827.827,0,0,0-.709.4L6.618,2.757,5.2.4A.827.827,0,0,0,4.5,0H.415A.414.414,0,0,0,.076.651l2.947,4.21a4.963,4.963,0,1,0,7.191,0L13.161.651A.414.414,0,0,0,12.822,0ZM2,1.241H4.261L5.57,3.423a4.932,4.932,0,0,0-1.585.65Zm8.337,7.031A3.722,3.722,0,1,1,6.618,4.55,3.722,3.722,0,0,1,10.341,8.272Zm-1.09-4.2a4.926,4.926,0,0,0-1.585-.65L8.975,1.241h2.258L9.251,4.072Z" transform="translate(8.823 8.823)"/></svg>