<svg xmlns="http://www.w3.org/2000/svg" width="40" height="40" viewBox="0 0 40 40"><defs><style>.a{fill:none;}.b{fill:#fff;}</style></defs><rect class="a" width="40" height="40"/><path class="b" d="M12,12.645a4.645,4.645,0,1,0,4.645,4.645A4.646,4.646,0,0,0,12,12.645Zm0,6.968a2.323,2.323,0,1,1,2.323-2.323A2.323,2.323,0,0,1,12,19.613ZM12,8A12,12,0,1,0,24,20,12,12,0,0,0,12,8Zm0,21.677a9.622,9.622,0,0,1-6.3-2.342,4.169,4.169,0,0,1,3.368-1.911A9.844,9.844,0,0,0,12,25.889a9.691,9.691,0,0,0,2.927-.465A4.181,4.181,0,0,1,18.3,27.335,9.622,9.622,0,0,1,12,29.677Zm7.873-4.069A6.418,6.418,0,0,0,14.787,23.1,14.521,14.521,0,0,1,12,23.561,14.6,14.6,0,0,1,9.213,23.1a6.432,6.432,0,0,0-5.085,2.511A9.673,9.673,0,1,1,21.677,20,9.608,9.608,0,0,1,19.873,25.608Z" transform="translate(8)"/></svg>