<svg xmlns="http://www.w3.org/2000/svg" width="30" height="30" viewBox="0 0 30 30"><defs><style>.a{fill:#43425d;opacity:0.996;}.b{fill:#fff;}</style></defs><rect class="a" width="30" height="30" rx="10"/><path class="b" d="M16.528,32h-.472a.472.472,0,0,0-.472.472v.382L1.4,36.144a.466.466,0,0,0-.451-.366H.472A.472.472,0,0,0,0,36.25v4.722a.472.472,0,0,0,.472.472H.944a.466.466,0,0,0,.451-.366l3.394.787a2.615,2.615,0,0,0-.067.524,2.825,2.825,0,0,0,5.551.748l5.31,1.231v.382a.472.472,0,0,0,.472.472h.472A.472.472,0,0,0,17,44.75V32.472A.472.472,0,0,0,16.528,32ZM7.556,43.806a1.418,1.418,0,0,1-1.417-1.417,1.312,1.312,0,0,1,.037-.2l2.723.631A1.414,1.414,0,0,1,7.556,43.806ZM1.417,39.629V37.593l14.167-3.285v8.607Z" transform="translate(7 -24)"/></svg>