<svg xmlns="http://www.w3.org/2000/svg" width="24" height="24" viewBox="0 0 24 24"><defs><style>.a{fill:none;}.b{fill:#131220;}</style></defs><rect class="a" width="24" height="24"/><g transform="translate(-5 -12)"><rect class="a" width="20" height="20" transform="translate(7 14)"/><g transform="translate(7 17)"><path class="b" d="M5.5,14A1.5,1.5,0,0,1,4,12.5v-.9A3.6,3.6,0,0,1,7.6,8h.26a4.837,4.837,0,0,0,4.281,0H12.4A3.6,3.6,0,0,1,16,11.6v.9A1.5,1.5,0,0,1,14.5,14Zm11.437-3a4.569,4.569,0,0,0-2.346-3.418A1.992,1.992,0,0,1,16,7h2a2,2,0,0,1,2,2v1a1,1,0,0,1-1,1ZM1,11a1,1,0,0,1-1-1V9A2,2,0,0,1,2,7H4a1.989,1.989,0,0,1,1.409.581A4.582,4.582,0,0,0,3.059,11ZM6.5,3.5A3.5,3.5,0,1,1,10,7,3.5,3.5,0,0,1,6.5,3.5ZM15,4a2,2,0,1,1,2,2A2,2,0,0,1,15,4ZM1,4A2,2,0,1,1,3,6,2,2,0,0,1,1,4Z"/></g></g></svg>