<svg xmlns="http://www.w3.org/2000/svg" width="30" height="30" viewBox="0 0 30 30"><defs><style>.a{fill:#1f1e34;}.b{fill:none;}</style></defs><path class="a" d="M40.325,6.686l-5.706-.832L32.068.683a1.251,1.251,0,0,0-2.242,0l-2.55,5.171-5.706.832a1.25,1.25,0,0,0-.691,2.133l4.128,4.023-.976,5.683a1.249,1.249,0,0,0,1.812,1.316l5.1-2.683,5.1,2.683a1.25,1.25,0,0,0,1.812-1.316l-.976-5.683,4.128-4.023a1.25,1.25,0,0,0-.691-2.133Zm-5.449,5.5.926,5.406-4.855-2.55-4.855,2.55.926-5.406L23.089,8.358l5.429-.789,2.429-4.921,2.429,4.921,5.429.789-3.929,3.828Z" transform="translate(-15.5 4.013)"/><rect class="b" width="30" height="30"/></svg>