<svg xmlns="http://www.w3.org/2000/svg" width="40" height="40" viewBox="0 0 40 40"><defs><style>.a{fill:none;opacity:0.5;}.b{fill:#43425d;}</style></defs><rect class="a" width="40" height="40"/><path class="b" d="M17.83,16.882a4.114,4.114,0,0,1-2.8-7.616.245.245,0,0,0-.077-.454,5.107,5.107,0,0,0-.957-.087,5.249,5.249,0,1,0,4.073,8.557A.246.246,0,0,0,17.83,16.882Zm9.191-4.773-3.27-2.214L24.5,6.013a2.211,2.211,0,0,0-2.586-2.6l-3.877.749L15.829.889a2.292,2.292,0,0,0-3.663,0L9.957,4.165,6.086,3.416a2.217,2.217,0,0,0-2.592,2.6l.749,3.882L.973,12.109a2.215,2.215,0,0,0,0,3.669l3.27,2.214-.749,3.882a2.211,2.211,0,0,0,2.592,2.592l3.871-.749,2.209,3.275A2.207,2.207,0,0,0,15.829,27l2.209-3.275,3.877.749a2.182,2.182,0,0,0,1.985-.607,2.22,2.22,0,0,0,.607-1.985L23.757,18l3.27-2.214a2.217,2.217,0,0,0-.005-3.674Zm-6.173,4.68.962,4.987-4.976-.962L14,25.018l-2.838-4.21-4.97.962.962-4.987-4.2-2.843,4.2-2.843L6.189,6.111l4.976.962L14,2.874l2.838,4.2,4.976-.962L20.848,11.1l4.2,2.843-4.2,2.849Z" transform="translate(6.667 6.692)"/></svg>