<svg xmlns="http://www.w3.org/2000/svg" width="30" height="30" viewBox="0 0 30 30"><defs><style>.a{fill:none;}.b{fill:#c7c7c7;}</style></defs><rect class="a" width="30" height="30"/><path class="b" d="M15.5,35.5l-3-3A1.714,1.714,0,0,0,11.29,32H1.714A1.714,1.714,0,0,0,0,33.714V46.286A1.714,1.714,0,0,0,1.714,48H14.286A1.714,1.714,0,0,0,16,46.286V36.71a1.714,1.714,0,0,0-.5-1.212ZM9.714,33.714v2.857H5.143V33.714Zm4.357,12.571H1.929a.214.214,0,0,1-.214-.214V33.929a.214.214,0,0,1,.214-.214h1.5v3.714a.857.857,0,0,0,.857.857h6.286a.857.857,0,0,0,.857-.857V33.853l2.794,2.794a.214.214,0,0,1,.063.152v9.273A.214.214,0,0,1,14.071,46.286ZM8,39.143a3.143,3.143,0,1,0,3.143,3.143A3.146,3.146,0,0,0,8,39.143Zm0,4.571a1.429,1.429,0,1,1,1.429-1.429A1.43,1.43,0,0,1,8,43.714Z" transform="translate(7 -25)"/></svg>