<svg xmlns="http://www.w3.org/2000/svg" width="23.346" height="21.853" viewBox="0 0 23.346 21.853">
  <g id="_24-hours-phone-service" data-name="24-hours-phone-service" transform="translate(0 -19.573)">
    <path id="Path_1892" data-name="Path 1892" d="M12.943,19.573A10.4,10.4,0,0,0,4.43,24.008a5.088,5.088,0,0,1,1.138,1.052,8.877,8.877,0,0,1,6.307-3.893l1.068,1.807,1.068-1.807a8.891,8.891,0,0,1,7.742,7.741l-1.808,1.068,1.808,1.068a8.881,8.881,0,0,1-4.069,6.423,2.7,2.7,0,0,1,.233.981,2.6,2.6,0,0,1-.066.7,10.4,10.4,0,0,0-4.907-19.573ZM15.6,36.706c-2.4-1.927-3.069-.98-4.157.108-.76.76-2.682-.827-4.342-2.487s-3.247-3.582-2.487-4.342C5.7,28.9,6.647,28.226,4.72,25.828s-3.212-.557-4.266.5C-.763,27.542.389,32.075,4.87,36.556s9.014,5.633,10.231,4.417C16.154,39.919,18,38.634,15.6,36.706Zm-7.3-5.1c0-2.132,2.5-2.511,2.5-3.343a.57.57,0,0,0-.622-.573c-.549,0-.856.614-.856.614l-1.05-.7A2.227,2.227,0,0,1,10.3,26.355a1.8,1.8,0,0,1,1.97,1.769c0,1.8-2.326,2.148-2.366,2.891h2.455v1.211h-4A3.528,3.528,0,0,1,8.294,31.6Zm4.653-1.631,2.229-3.521H16.9v3.206h.686v1.171H16.9v1.4h-1.4v-1.4h-2.56v-.856Zm2.56-.315V28.366a5.156,5.156,0,0,1,.049-.646h-.016a3.065,3.065,0,0,1-.283.6l-.872,1.324v.016Z" transform="translate(0)"/>
  </g>
</svg>
