<svg xmlns="http://www.w3.org/2000/svg" width="30" height="30" viewBox="0 0 30 30"><defs><style>.a{fill:none;}.b{fill:#1f1e34;}</style></defs><rect class="a" width="30" height="30"/><path class="b" d="M17.438,44.375H5.625v-.562a.564.564,0,0,0-.562-.562H3.938a.564.564,0,0,0-.562.563v.563H.563A.564.564,0,0,0,0,44.938v1.125a.564.564,0,0,0,.563.563H3.375v.563a.564.564,0,0,0,.563.563H5.063a.564.564,0,0,0,.563-.562v-.562H17.438A.564.564,0,0,0,18,46.063V44.938A.564.564,0,0,0,17.438,44.375Zm0-5.625H14.625v-.562a.564.564,0,0,0-.562-.562H12.938a.564.564,0,0,0-.562.563v.563H.563A.564.564,0,0,0,0,39.313v1.125A.564.564,0,0,0,.563,41H12.375v.563a.564.564,0,0,0,.563.563h1.125a.564.564,0,0,0,.563-.562V41h2.813A.564.564,0,0,0,18,40.438V39.313A.564.564,0,0,0,17.438,38.75Zm0-5.625H10.125v-.562A.564.564,0,0,0,9.563,32H8.438a.564.564,0,0,0-.562.563v.563H.563A.564.564,0,0,0,0,33.688v1.125a.564.564,0,0,0,.563.563H7.875v.563a.564.564,0,0,0,.563.563H9.563a.564.564,0,0,0,.563-.562v-.562h7.313A.564.564,0,0,0,18,34.813V33.688A.564.564,0,0,0,17.438,33.125Z" transform="translate(6 -25)"/></svg>