<svg xmlns="http://www.w3.org/2000/svg" width="24.001" height="16.006" viewBox="0 0 24.001 16.006"><defs><style>.a{fill:none;}.b{fill:#A1A0A6;}</style></defs><path class="a" d="M3.532,16.005H3.5a.692.692,0,0,1-.482-.228,11.511,11.511,0,0,1,0-15.543A.692.692,0,0,1,3.5.006h.03A.68.68,0,0,1,4,.192L4.474.65V.66a.653.653,0,0,1,.014.907,9.594,9.594,0,0,0,0,12.889.644.644,0,0,1-.014.9L4,15.818A.68.68,0,0,1,3.532,16.005Zm16.937-.013a.684.684,0,0,1-.47-.187l-.472-.457a.644.644,0,0,1-.015-.9,9.592,9.592,0,0,0,0-12.889A.651.651,0,0,1,19.527.65L20,.187A.684.684,0,0,1,20.468,0h.03a.687.687,0,0,1,.482.228V.221a11.51,11.51,0,0,1,0,15.543.691.691,0,0,1-.482.228Zm-13.63-3.22H6.8a.694.694,0,0,1-.489-.244,7.023,7.023,0,0,1,0-9.046A.687.687,0,0,1,6.8,3.238h.036a.683.683,0,0,1,.475.191l.473.457V3.9a.634.634,0,0,1,.054.855,5.119,5.119,0,0,0,0,6.514.632.632,0,0,1-.054.854l-.473.457A.684.684,0,0,1,6.838,12.773Zm10.325-.021a.683.683,0,0,1-.475-.191l-.473-.457a.634.634,0,0,1-.054-.855,5.119,5.119,0,0,0,0-6.514.634.634,0,0,1,.054-.855l.473-.457V3.407a.682.682,0,0,1,.475-.191H17.2a.694.694,0,0,1,.489.244,7.023,7.023,0,0,1,0,9.046.694.694,0,0,1-.489.244ZM12,10.331A2.332,2.332,0,1,1,14.335,8,2.335,2.335,0,0,1,12,10.331Z" transform="translate(0 0.001)"/><path class="b" d="M3.5,16a.684.684,0,0,1-.482-.229,11.511,11.511,0,0,1,0-15.539A.684.684,0,0,1,3.5,0h.029A.686.686,0,0,1,4,.19l.472.461a.649.649,0,0,1,.015.907,9.594,9.594,0,0,0,0,12.889.646.646,0,0,1-.015.9L4,15.812A.686.686,0,0,1,3.529,16Zm16.968,0A.685.685,0,0,1,20,15.81l-.472-.462a.646.646,0,0,1-.015-.9,9.593,9.593,0,0,0,0-12.888.647.647,0,0,1,.015-.905L20,.188A.682.682,0,0,1,20.468,0H20.5a.681.681,0,0,1,.482.229,11.511,11.511,0,0,1,0,15.539A.688.688,0,0,1,20.5,16Zm-3.783-3.421-.473-.463a.631.631,0,0,1-.054-.855,5.113,5.113,0,0,0,0-6.518.631.631,0,0,1,.054-.855l.473-.464a.686.686,0,0,1,.474-.191H17.2a.686.686,0,0,1,.488.245,7.033,7.033,0,0,1,0,9.045.686.686,0,0,1-.488.245h-.038A.683.683,0,0,1,16.685,12.577ZM6.8,12.767a.686.686,0,0,1-.488-.245,7.033,7.033,0,0,1,0-9.045A.686.686,0,0,1,6.8,3.233h.037a.687.687,0,0,1,.475.191l.473.464a.631.631,0,0,1,.054.855,5.113,5.113,0,0,0,0,6.518.631.631,0,0,1-.054.855l-.473.463a.683.683,0,0,1-.474.192ZM9.665,8A2.333,2.333,0,1,1,12,10.333,2.333,2.333,0,0,1,9.665,8Z" transform="translate(0.002)"/><path class="b" d="M1.076,0A1.076,1.076,0,1,0,2.152,1.076,1.077,1.077,0,0,0,1.076,0" transform="translate(10.925 6.924)"/></svg>