<svg xmlns="http://www.w3.org/2000/svg" width="55.633" height="48.766" viewBox="0 0 55.633 48.766"><defs><style>.a{fill:#f7f8fa;stroke:#f7f8fa;}</style></defs><g transform="translate(-2684.5 -199.5)"><path class="a" d="M2749.935,247.579a1.935,1.935,0,1,1,1.935-1.935A1.937,1.937,0,0,1,2749.935,247.579Zm0-2.59a.655.655,0,1,0,.655.655A.655.655,0,0,0,2749.935,244.989Z" transform="translate(-59.639 -41.377)"/><path class="a" d="M2855.665,247.579a1.935,1.935,0,1,1,1.935-1.935A1.937,1.937,0,0,1,2855.665,247.579Zm0-2.59a.655.655,0,1,0,.655.655A.655.655,0,0,0,2855.665,244.989Z" transform="translate(-159.728 -41.377)"/><path class="a" d="M2961.394,247.579a1.935,1.935,0,1,1,1.935-1.935A1.937,1.937,0,0,1,2961.394,247.579Zm0-2.59a.655.655,0,1,0,.655.655A.656.656,0,0,0,2961.394,244.989Z" transform="translate(-259.816 -41.377)"/><path class="a" d="M2737.072,241.935v-1.28c.854,0,1.28-.936,1.28-1.861V203.141a1.863,1.863,0,0,0-1.861-1.861h-48.351a1.863,1.863,0,0,0-1.861,1.861v35.653a1.863,1.863,0,0,0,1.861,1.861h41.142v1.28h-41.142a3.145,3.145,0,0,1-3.141-3.141V203.141a3.145,3.145,0,0,1,3.141-3.141h48.351a3.145,3.145,0,0,1,3.141,3.141v35.653C2739.633,240.614,2738.566,241.935,2737.072,241.935Z"/><rect class="a" width="53.62" height="1.28" transform="translate(2685.48 207.203)"/><path class="a" d="M3050.037,461.185a13.639,13.639,0,1,1,9.644-3.995A13.549,13.549,0,0,1,3050.037,461.185Zm0-26a12.358,12.358,0,1,0,12.358,12.358A12.372,12.372,0,0,0,3050.037,435.188Z" transform="translate(-332.65 -221.428)"/><path class="a" d="M3118.643,525.925a9.772,9.772,0,1,1,9.772-9.772A9.783,9.783,0,0,1,3118.643,525.925Zm0-18.264a8.492,8.492,0,1,0,8.492,8.492A8.5,8.5,0,0,0,3118.643,507.661Z" transform="translate(-401.256 -290.035)"/><path class="a" d="M3438.084,827.82a2.569,2.569,0,0,1-1.823-.754l-9.82-9.82.905-.906,9.82,9.82a1.3,1.3,0,0,0,1.834,0l.855-.855a1.3,1.3,0,0,0,0-1.835l-9.82-9.82.906-.905,9.82,9.82a2.578,2.578,0,0,1,0,3.645l-.855.855A2.569,2.569,0,0,1,3438.084,827.82Z" transform="translate(-701.884 -580.054)"/><path class="a" d="M2829.579,473.108H2814.64a.64.64,0,0,1-.64-.64V469.64a.64.64,0,0,1,.64-.64h18.14v1.28h-17.5v1.547h14.3Z" transform="translate(-122.117 -254.648)"/><path class="a" d="M2826.911,593.108H2814.64a.64.64,0,0,1-.64-.64V589.64a.64.64,0,0,1,.64-.64h12.8v1.28H2815.28v1.547h11.631Z" transform="translate(-122.117 -368.246)"/><path class="a" d="M2827.445,713.108h-12.8a.64.64,0,0,1-.64-.64V709.64a.64.64,0,0,1,.64-.64h11.738v1.28h-11.1v1.547h12.165Z" transform="translate(-122.117 -481.843)"/></g></svg>