<svg xmlns="http://www.w3.org/2000/svg" width="118.36" height="15" viewBox="0 0 118.36 15"><defs><style>.a{fill:#c7c7c7;}</style></defs><path class="a" d="M27.495.509,25.582,4.388l-4.28.624a.938.938,0,0,0-.518,1.6l3.1,3.017-.732,4.262a.937.937,0,0,0,1.359.987l3.829-2.012,3.829,2.012a.938.938,0,0,0,1.359-.987l-.732-4.262,3.1-3.017a.938.938,0,0,0-.518-1.6l-4.28-.624L29.176.509A.938.938,0,0,0,27.495.509Z" transform="translate(82.188 0.013)"/><path class="a" d="M27.495.509,25.582,4.388l-4.28.624a.938.938,0,0,0-.518,1.6l3.1,3.017-.732,4.262a.937.937,0,0,0,1.359.987l3.829-2.012,3.829,2.012a.938.938,0,0,0,1.359-.987l-.732-4.262,3.1-3.017a.938.938,0,0,0-.518-1.6l-4.28-.624L29.176.509A.938.938,0,0,0,27.495.509Z" transform="translate(56.516 0.013)"/><path class="a" d="M27.495.509,25.582,4.388l-4.28.624a.938.938,0,0,0-.518,1.6l3.1,3.017-.732,4.262a.937.937,0,0,0,1.359.987l3.829-2.012,3.829,2.012a.938.938,0,0,0,1.359-.987l-.732-4.262,3.1-3.017a.938.938,0,0,0-.518-1.6l-4.28-.624L29.176.509A.938.938,0,0,0,27.495.509Z" transform="translate(30.844 0.013)"/><path class="a" d="M27.495.509,25.582,4.388l-4.28.624a.938.938,0,0,0-.518,1.6l3.1,3.017-.732,4.262a.937.937,0,0,0,1.359.987l3.829-2.012,3.829,2.012a.938.938,0,0,0,1.359-.987l-.732-4.262,3.1-3.017a.938.938,0,0,0-.518-1.6l-4.28-.624L29.176.509A.938.938,0,0,0,27.495.509Z" transform="translate(5.172 0.013)"/><path class="a" d="M27.495.509,25.582,4.388l-4.28.624a.938.938,0,0,0-.518,1.6l3.1,3.017-.732,4.262a.937.937,0,0,0,1.359.987l3.829-2.012,3.829,2.012a.938.938,0,0,0,1.359-.987l-.732-4.262,3.1-3.017a.938.938,0,0,0-.518-1.6l-4.28-.624L29.176.509A.938.938,0,0,0,27.495.509Z" transform="translate(-20.5 0.013)"/></svg>