<svg xmlns="http://www.w3.org/2000/svg" width="101" height="18" viewBox="0 0 101 18"><defs><style>.a{fill:none;}.b{fill:#f4c150;}.c{fill:#f0f0f7;}</style></defs><g transform="translate(3.854 2)"><rect class="a" width="101" height="18" transform="translate(-3.854 -2)"/><path class="b" d="M7.36,1.318,9.634,5.926l5.086.739-3.68,3.587.869,5.065L7.36,12.927,2.811,15.318l.869-5.065L0,6.666l5.086-.739Z" transform="translate(0 -1.318)"/><path class="b" d="M7.36,1.318,9.634,5.926l5.086.739-3.68,3.587.869,5.065L7.36,12.927,2.811,15.318l.869-5.065L0,6.666l5.086-.739Z" transform="translate(19.412 -1.318)"/><path class="b" d="M7.36,1.318,9.634,5.926l5.086.739-3.68,3.587.869,5.065L7.36,12.927,2.811,15.318l.869-5.065L0,6.666l5.086-.739Z" transform="translate(38.824 -1.318)"/><path class="b" d="M7.36,1.318,9.634,5.926l5.086.739-3.68,3.587.869,5.065L7.36,12.927,2.811,15.318l.869-5.065L0,6.666l5.086-.739Z" transform="translate(58.236 -1.318)"/><path class="b" d="M7.36,1.318,9.634,5.926l5.086.739-3.68,3.587.869,5.065L7.36,12.927,2.811,15.318l.869-5.065L0,6.666l5.086-.739Z" transform="translate(77.647 -1.318)"/><path class="c" d="M5.687,1.318,7.962,5.926l5.086.739-3.68,3.587.869,5.065L5.687,12.927Z" transform="translate(79.32 -1.318)"/></g></svg>