<svg xmlns="http://www.w3.org/2000/svg" width="22" height="21.006" viewBox="0 0 22 21.006">
  <g id="star_1_" data-name="star (1)" transform="translate(0 -11.011)">
    <path id="Path_1191" data-name="Path 1191" d="M21.97,18.949a.614.614,0,0,0-.492-.415l-6.863-.975L11.526,11.35a.612.612,0,0,0-.546-.339h0a.608.608,0,0,0-.546.343L7.385,17.581.522,18.6a.614.614,0,0,0-.492.415.6.6,0,0,0,.158.623l4.98,4.827L4.017,31.3a.613.613,0,0,0,.6.713.58.58,0,0,0,.284-.072L11.029,28.7l6.145,3.21a.623.623,0,0,0,.28.068h0a.613.613,0,0,0,.61-.61.476.476,0,0,0-.018-.14l-1.188-6.8,4.949-4.854A.6.6,0,0,0,21.97,18.949Zm-6.186,4.836a.6.6,0,0,0-.172.542l1.034,5.929L11.309,27.47a.618.618,0,0,0-.569,0L5.421,30.287l1-5.938a.609.609,0,0,0-.176-.537l-4.317-4.19,5.956-.885a.605.605,0,0,0,.456-.334L10.984,13l2.682,5.391a.62.62,0,0,0,.461.334l5.96.849Z" transform="translate(0)"/>
  </g>
</svg>
