<svg xmlns="http://www.w3.org/2000/svg" width="16" height="16" viewBox="0 0 16 16"><defs><style>.a{fill:none;}.b{fill:#c7c7c7;opacity:0.997;}.c{fill:#f4c150;}</style></defs><rect class="a" width="16" height="16" transform="translate(0)"/><g transform="translate(-20 1.001)"><path class="b" d="M295.054,6.621l-3.1,3.018.733,4.263a.937.937,0,0,1-1.36.987l-3.83-2.01V0a.927.927,0,0,1,.841.522L290.254,4.4l4.281.621A.938.938,0,0,1,295.054,6.621Z" transform="translate(-259.662 0)"/><path class="c" d="M22.648,13.9l.733-4.263-3.1-3.018a.938.938,0,0,1,.519-1.6L25.083,4.4,27,.521A.926.926,0,0,1,27.838,0V12.88l-3.83,2.01A.937.937,0,0,1,22.648,13.9Z" transform="translate(0 0)"/></g></svg>