<svg xmlns="http://www.w3.org/2000/svg" width="30" height="30" viewBox="0 0 30 30"><defs><style>.a{fill:#43425d;}.b{fill:#8ebef8;}</style></defs><rect class="a" width="30" height="30" rx="10"/><path class="b" d="M9.288,3.591,8.166,3.428l-.5-1.016a.245.245,0,0,0-.439,0l-.5,1.016L5.6,3.591a.246.246,0,0,0-.137.419l.812.791L6.085,5.917a.246.246,0,0,0,.357.259l1-.527,1,.527A.246.246,0,0,0,8.8,5.917L8.613,4.8l.812-.791A.246.246,0,0,0,9.288,3.591Zm2.293-1.936V.414A.415.415,0,0,0,11.167,0H3.722a.415.415,0,0,0-.414.414V1.654H.414A.415.415,0,0,0,0,2.068V3.64C0,5.2,1.766,6.876,4.126,7.326a4.341,4.341,0,0,0,2.7,2.518v2.151H5.17a1.034,1.034,0,0,0-1.034,1.034.207.207,0,0,0,.207.207h6.2a.207.207,0,0,0,.207-.207A1.034,1.034,0,0,0,9.72,11.994H8.065V9.844a4.349,4.349,0,0,0,2.7-2.518C13.119,6.879,14.89,5.2,14.89,3.64V2.068a.415.415,0,0,0-.414-.414ZM1.241,3.64V2.9H3.309a11.934,11.934,0,0,0,.318,3.019C2.2,5.426,1.241,4.392,1.241,3.64Zm6.2,5.046c-1.37,0-2.9-2.027-2.9-5.584V1.241h5.79V3.1C10.34,6.734,8.768,8.686,7.445,8.686Zm6.2-5.046c0,.752-.962,1.786-2.386,2.275A11.946,11.946,0,0,0,11.581,2.9h2.068Z" transform="translate(7.941 8.823)"/></svg>