<svg xmlns="http://www.w3.org/2000/svg" width="30" height="30" viewBox="0 0 30 30"><defs><style>.a{fill:#43425d;opacity:0.996;}.b{fill:#fff;}</style></defs><rect class="a" width="30" height="30" rx="10"/><path class="b" d="M14.286,32H1.714A1.715,1.715,0,0,0,0,33.714V46.286A1.715,1.715,0,0,0,1.714,48H14.286A1.715,1.715,0,0,0,16,46.286V33.714A1.715,1.715,0,0,0,14.286,32Zm0,14.286H1.714V33.714H14.286Zm-10-1.714h.571A.571.571,0,0,0,5.429,44V39.429a.571.571,0,0,0-.571-.571H4.286a.571.571,0,0,0-.571.571V44A.571.571,0,0,0,4.286,44.571Zm3.429,0h.571A.571.571,0,0,0,8.857,44V36a.571.571,0,0,0-.571-.571H7.714A.571.571,0,0,0,7.143,36v8A.571.571,0,0,0,7.714,44.571Zm3.429,0h.571A.571.571,0,0,0,12.286,44V41.714a.571.571,0,0,0-.571-.571h-.571a.571.571,0,0,0-.571.571V44A.571.571,0,0,0,11.143,44.571Z" transform="translate(7 -25)"/></svg>