<svg xmlns="http://www.w3.org/2000/svg" width="23" height="15.333" viewBox="0 0 23 15.333"><defs><style>.a{fill:#1f1e34;}</style></defs><path class="a" d="M11.5,67.194a4.43,4.43,0,0,0-1.247.2,2.212,2.212,0,0,1,.289,1.078,2.236,2.236,0,0,1-2.236,2.236,2.212,2.212,0,0,1-1.078-.289A4.461,4.461,0,1,0,11.5,67.194Zm11.361,3.889A12.807,12.807,0,0,0,11.5,64,12.809,12.809,0,0,0,.139,71.084a1.292,1.292,0,0,0,0,1.166A12.807,12.807,0,0,0,11.5,79.333a12.809,12.809,0,0,0,11.361-7.084,1.292,1.292,0,0,0,0-1.166ZM11.5,77.417A10.862,10.862,0,0,1,2,71.667a10.862,10.862,0,0,1,9.5-5.75,10.862,10.862,0,0,1,9.5,5.75A10.861,10.861,0,0,1,11.5,77.417Z" transform="translate(-0.001 -64)"/></svg>