<svg xmlns="http://www.w3.org/2000/svg" width="30" height="30" viewBox="0 0 30 30"><defs><style>.a{fill:none;}.b{fill:#43425d;opacity:0.5;}</style></defs><rect class="a" width="30" height="30"/><path class="b" d="M15,34.679v-.536A2.143,2.143,0,0,0,12.857,32H3.214A3.214,3.214,0,0,0,0,35.214v8.571A3.214,3.214,0,0,0,3.214,47H15a2.143,2.143,0,0,0,2.143-2.143V36.821A2.143,2.143,0,0,0,15,34.679Zm.536,10.179a.536.536,0,0,1-.536.536H3.214a1.609,1.609,0,0,1-1.607-1.607V35.214a1.609,1.609,0,0,1,1.607-1.607h9.643a.536.536,0,0,1,.536.536v1.071H3.75a.536.536,0,1,0,0,1.071H15a.536.536,0,0,1,.536.536ZM12.857,39.5a1.071,1.071,0,1,0,1.071,1.071A1.072,1.072,0,0,0,12.857,39.5Z" transform="translate(6 -27)"/></svg>