<svg xmlns="http://www.w3.org/2000/svg" width="30" height="30" viewBox="0 0 30 30"><defs><style>.a{fill:none;}.b{fill:#656b72;}</style></defs><rect class="a" width="30" height="30"/><path class="b" d="M18.375,35.281v-.656A2.625,2.625,0,0,0,15.75,32H3.937A3.937,3.937,0,0,0,0,35.937v10.5a3.937,3.937,0,0,0,3.937,3.938H18.375A2.625,2.625,0,0,0,21,47.75V37.906A2.625,2.625,0,0,0,18.375,35.281Zm.656,12.469a.657.657,0,0,1-.656.656H3.937a1.971,1.971,0,0,1-1.969-1.969v-10.5a1.971,1.971,0,0,1,1.969-1.969H15.75a.657.657,0,0,1,.656.656v1.312H4.594a.656.656,0,1,0,0,1.313H18.375a.657.657,0,0,1,.656.656ZM15.75,41.187A1.313,1.313,0,1,0,17.063,42.5,1.313,1.313,0,0,0,15.75,41.187Z" transform="translate(5 -26)"/></svg>