<svg xmlns="http://www.w3.org/2000/svg" width="34" height="34" viewBox="0 0 34 34"><defs><style>.a{fill:#fff;}.b{fill:#43425d;opacity:0.5;}</style></defs><rect class="a" width="34" height="34" rx="10"/><path class="b" d="M7.286,42.822a.408.408,0,0,1-.572,0L3.739,39.877H1.873l3.919,3.878a1.718,1.718,0,0,0,2.418,0l3.919-3.878H10.264ZM9.7,32a4.246,4.246,0,0,0-2.7.954A4.246,4.246,0,0,0,4.3,32,4.321,4.321,0,0,0,0,36.266,4.161,4.161,0,0,0,1.034,39H4.228l.818-1.961L6.6,40.495a.437.437,0,0,0,.79.016l1.359-2.718L9.356,39h3.61A4.161,4.161,0,0,0,14,36.266,4.317,4.317,0,0,0,9.7,32ZM12,38.126H9.9l-.755-1.51a.437.437,0,0,0-.782,0L7.023,39.294,5.432,35.758a.438.438,0,0,0-.8.011l-.982,2.357H2.007A2.946,2.946,0,0,1,4.3,33.313c.848,0,1.395.17,2.7,1.46,1.4-1.381,1.89-1.46,2.7-1.46A2.944,2.944,0,0,1,12,38.126Z" transform="translate(10 -21)"/></svg>