<svg xmlns="http://www.w3.org/2000/svg" width="34" height="34" viewBox="0 0 34 34"><defs><style>.a{fill:#fff;}.b{fill:#43425d;opacity:0.5;}</style></defs><rect class="a" width="34" height="34" rx="10"/><path class="b" d="M12.25,10.5V.438A.439.439,0,0,0,11.813,0H2.188A2.187,2.187,0,0,0,0,2.188v9.625A2.187,2.187,0,0,0,2.188,14h9.625a.439.439,0,0,0,.438-.437v-.437A.438.438,0,0,0,11.9,12.7a4.571,4.571,0,0,1,0-1.766.437.437,0,0,0,.353-.429Zm-1.477,2.188H2.188a.875.875,0,0,1,0-1.75h8.586A6.941,6.941,0,0,0,10.773,12.688Zm.164-3.062H2.188a2.17,2.17,0,0,0-.875.183V2.188a.874.874,0,0,1,.875-.875h8.75ZM5.893,7.779a.333.333,0,0,0,.465,0L8.343,5.83a1.356,1.356,0,0,0-.1-2.029,1.46,1.46,0,0,0-1.914.131l-.2.2-.2-.2A1.46,1.46,0,0,0,4.009,3.8a1.354,1.354,0,0,0-.1,2.029Z" transform="translate(11 11)"/></svg>