<svg xmlns="http://www.w3.org/2000/svg" width="34" height="34" viewBox="0 0 34 34"><defs><style>.a{fill:#fff;}.b{fill:#43425d;opacity:0.5;}</style></defs><rect class="a" width="34" height="34" rx="10"/><path class="b" d="M13.176,5.874a2.408,2.408,0,0,0,.075-.592,2.471,2.471,0,0,0-1.125-2.075,2.119,2.119,0,0,0-1.737-2.054A2.122,2.122,0,0,0,7,.62a2.121,2.121,0,0,0-3.387.535A2.119,2.119,0,0,0,1.876,3.21,2.465,2.465,0,0,0,.752,5.284a2.439,2.439,0,0,0,.075.592,2.462,2.462,0,0,0,.3,3.907,2.309,2.309,0,0,0,2.208,2.273A2.3,2.3,0,0,0,7,12.438a2.3,2.3,0,0,0,3.665-.381,2.308,2.308,0,0,0,2.211-2.273,2.467,2.467,0,0,0,.3-3.91Zm-6.8,5.009a1.064,1.064,0,0,1-1.068,1.06c-.847,0-1.017-.759-1.174-1.225l-.523.088A1.089,1.089,0,0,1,2.368,9.763c0-.072.121-.705.121-.705l-.468-.193a1.238,1.238,0,0,1-.142-2.229l.5-.288L2.126,5.83a1.241,1.241,0,0,1,.646-1.7l.486-.2a3.515,3.515,0,0,1-.142-.7.871.871,0,0,1,.821-.878l.589.031L4.651,1.9a.877.877,0,0,1,1.727.216Zm5.6-2.021-.471.193s.118.633.118.705A1.09,1.09,0,0,1,10.384,10.8l-.523-.088c-.157.468-.327,1.225-1.174,1.225a1.066,1.066,0,0,1-1.068-1.06V2.111a.877.877,0,0,1,1.727-.216l.124.486.589-.031a.874.874,0,0,1,.821.878,3.289,3.289,0,0,1-.142.7l.486.2a1.237,1.237,0,0,1,.646,1.7l-.255.517.5.288A1.24,1.24,0,0,1,11.985,8.862Z" transform="translate(10 11)"/></svg>