<svg xmlns="http://www.w3.org/2000/svg" width="34" height="34" viewBox="0 0 34 34"><defs><style>.a{fill:#fff;}.b{opacity:0.5;}.c{fill:#43425d;}</style></defs><rect class="a" width="34" height="34" rx="10"/><g class="b" transform="translate(18864 -16198)"><path class="c" d="M10.527,12.688V1.313A1.313,1.313,0,0,0,9.215,0h-7.9A1.313,1.313,0,0,0,0,1.313V12.688A1.313,1.313,0,0,0,1.313,14h7.9A1.313,1.313,0,0,0,10.527,12.688Zm-9.215-.164V1.477a.165.165,0,0,1,.164-.164H9.051a.165.165,0,0,1,.164.164V12.523a.165.165,0,0,1-.164.164H1.477A.165.165,0,0,1,1.313,12.523Z" transform="translate(-18852 16208)"/><path class="c" d="M4.594,1.75H3.063V.219A.219.219,0,0,0,2.844,0H2.406a.219.219,0,0,0-.219.219V1.75H.656a.656.656,0,1,0,.616.875H3.978a.655.655,0,1,0,.616-.875ZM1.75,5.863,2.443,6.9a.219.219,0,0,0,.364,0L3.5,5.863v-2.8H1.75Z" transform="translate(-18849 16212)"/></g></svg>