<svg xmlns="http://www.w3.org/2000/svg" width="526.99" height="487.666" viewBox="0 0 526.99 487.666"><defs><style>.a{fill:#eff6ff;}.b{fill:#fff;opacity:0.996;}.c{opacity:0.21;}.d,.h,.i,.n,.p{fill:#224e8d;}.d,.e,.q{fill-rule:evenodd;}.e,.f,.o{fill:#8ebef8;}.g{opacity:0.498;}.i{opacity:0.501;}.j{opacity:0.496;}.k{opacity:0.492;}.l{fill:#6c89b3;}.m{fill:#789ccc;}.n{opacity:0.662;}.o{opacity:0.354;}.p{opacity:0.402;}.q{fill:#cb9e76;}</style></defs><g transform="translate(62.123 -357.579)"><path class="a" d="M0,0H375V487.666H0Z" transform="translate(0 357.579)"/><g transform="translate(2783.994 411.254)"><path class="b" d="M126.231,0A126.231,126.231,0,1,1,0,126.231,126.231,126.231,0,0,1,126.231,0Z" transform="translate(-2723.47 -1.426)"/><g class="c" transform="translate(-2846.117 -30.398)"><path class="d" d="M-1916.057,1027.356c0,.279-.325.505-.727.505s-.726-.226-.726-.505.325-.5.726-.5.727.226.727.5Z" transform="translate(2165.416 -744.601)"/><path class="d" d="M-2269.968,797.864c0,.279-.325.5-.726.5s-.726-.226-.726-.5.325-.505.726-.505.726.226.726.505Z" transform="translate(2424.845 -576.376)"/><path class="d" d="M-2276.8,1093.506c0,.366-.427.663-.954.663s-.954-.3-.954-.663.427-.663.954-.663.954.3.954.663Z" transform="translate(2430.185 -792.975)"/><path class="d" d="M-2200.77,955.91c0,.366-.427.663-.954.663s-.954-.3-.954-.663.427-.663.954-.663.954.3.954.663Z" transform="translate(2374.454 -692.113)"/><path class="d" d="M-2336.487,813.385c0,.366-.427.663-.954.663s-.954-.3-.954-.663.427-.663.954-.663.954.3.954.663Z" transform="translate(2473.939 -587.637)"/><path class="d" d="M-2168.357,1055.021c0,.279-.326.5-.727.5s-.726-.226-.726-.5.325-.5.726-.5.727.226.727.5Z" transform="translate(2350.361 -764.88)"/><path class="d" d="M-2412.954,1039.786c0,.366-.427.663-.954.663s-.954-.3-.954-.663.427-.663.954-.663.954.3.954.663Z" transform="translate(2529.992 -753.597)"/><path class="d" d="M-2050.768,939.461c0,.366-.427.663-.954.663s-.954-.3-.954-.663.427-.663.954-.663.954.3.954.663Z" transform="translate(2264.498 -680.055)"/><path class="d" d="M-2335.751,1002.779c0-.366.427-.663.954-.663s.954.3.954.663-.427.663-.954.663-.954-.3-.954-.663Z" transform="translate(2472.002 -726.469)"/><path class="d" d="M-2283.843,1138.745c0-.366.427-.663.954-.663s.954.3.954.663-.427.663-.954.663-.954-.3-.954-.663Z" transform="translate(2433.951 -826.136)"/><path class="d" d="M-2086.58,910.934c0-.366.427-.663.954-.663s.954.3.954.663-.427.663-.954.663-.954-.3-.954-.663Z" transform="translate(2289.351 -659.144)"/><path class="d" d="M-2347,901.339c0-.366.427-.663.954-.663s.954.3.954.663-.427.664-.954.664-.954-.3-.954-.664Z" transform="translate(2480.25 -652.111)"/><path class="d" d="M-2118.919,1035.678c0-.366.427-.663.954-.663s.953.3.953.663-.427.663-.953.663-.954-.3-.954-.663Z" transform="translate(2313.057 -750.585)"/><path class="d" d="M-2342.205,819.983c0-.279.325-.5.726-.5s.727.226.727.5-.325.505-.727.505-.726-.226-.726-.505Z" transform="translate(2476.733 -592.59)"/><path class="d" d="M-2035.357,460.634c0-.366-.427-.663-.954-.663s-.954.3-.954.663.427.663.954.663.954-.3.954-.663Z" transform="translate(2253.2 -329.059)"/><path class="d" d="M-2182.276,399.888c0-.366-.427-.663-.954-.663s-.953.3-.953.663.427.663.953.663.954-.3.954-.663Z" transform="translate(2360.898 -284.53)"/><path class="d" d="M-2276.8,382.92c0-.366-.427-.663-.954-.663s-.954.3-.954.663.427.664.954.664.954-.3.954-.664Z" transform="translate(2430.185 -272.092)"/><path class="d" d="M-2200.77,520.515c0-.366-.427-.663-.954-.663s-.954.3-.954.663.427.663.954.663.954-.3.954-.663Z" transform="translate(2374.454 -372.954)"/><path class="d" d="M-2094.456,387.291c0-.366-.427-.663-.954-.663s-.953.3-.953.663.427.663.953.663.954-.3.954-.663Z" transform="translate(2296.522 -275.296)"/><path class="d" d="M-1172.4,789.269c0-.366-.427-.663-.954-.663s-.953.3-.953.663.427.663.953.663.954-.3.954-.663Z" transform="translate(1620.627 -569.959)"/><path class="d" d="M-2412.954,436.64c0-.366-.427-.663-.954-.663s-.954.3-.954.663.427.663.954.663.954-.3.954-.663Z" transform="translate(2529.992 -311.471)"/><path class="d" d="M-2050.768,536.965c0-.366-.427-.663-.954-.663s-.954.3-.954.663.427.663.954.663.954-.3.954-.663Z" transform="translate(2264.498 -385.012)"/><path class="d" d="M-2358.991,556.156c0-.366-.427-.663-.954-.663s-.954.3-.954.663.427.663.954.663.954-.3.954-.663Z" transform="translate(2490.435 -399.08)"/><path class="d" d="M-1141.483,838.609c0,.366.427.663.954.663s.953-.3.953-.663-.427-.663-.953-.663-.954.3-.954.663Z" transform="translate(1596.563 -606.127)"/><path class="d" d="M-1089.575,842.468c0,.366.427.663.954.663s.953-.3.953-.663-.427-.663-.953-.663-.954.3-.954.663Z" transform="translate(1558.513 -608.956)"/><path class="d" d="M-2086.58,565.492c0,.366.427.663.954.663s.954-.3.954-.663-.427-.663-.954-.663-.954.3-.954.663Z" transform="translate(2289.351 -405.923)"/><path class="d" d="M-2118.919,440.748c0,.366.427.663.954.663s.953-.3.953-.663-.427-.663-.953-.663-.954.3-.954.663Z" transform="translate(2313.057 -314.482)"/><path class="d" d="M-2277.137,370.843c0,.366.427.663.954.663s.954-.3.954-.663-.427-.663-.954-.663-.954.3-.954.663Z" transform="translate(2429.036 -263.239)"/><path class="d" d="M-2086.245,830.053c0,.366-.427.663-.954.663s-.954-.3-.954-.663.427-.663.954-.663.954.3.954.663Z" transform="translate(2290.504 -599.856)"/><path class="d" d="M-2072.841,664.186c0,.367-.427.663-.954.663s-.954-.3-.954-.663.427-.663.954-.663.954.3.954.663Z" transform="translate(2280.678 -478.269)"/><path class="d" d="M-2043.093,734.1c0,.366-.427.663-.954.663s-.954-.3-.954-.663.427-.663.954-.663.954.3.954.663Z" transform="translate(2258.871 -529.517)"/><path class="d" d="M-877.361,460.633c0-.367-.427-.663-.954-.663s-.953.3-.953.663.427.663.953.663.954-.3.954-.663Z" transform="translate(1404.351 -329.058)"/><path class="d" d="M-1024.281,399.888c0-.367-.427-.663-.954-.663s-.954.3-.954.663.427.663.954.663.954-.3.954-.663Z" transform="translate(1512.048 -284.53)"/><path class="d" d="M-1118.8,382.92c0-.366-.427-.663-.954-.663s-.953.3-.953.663.427.663.953.663.954-.3.954-.663Z" transform="translate(1581.335 -272.092)"/><path class="d" d="M-1042.774,520.515c0-.367-.427-.663-.954-.663s-.954.3-.954.663.427.663.954.663.954-.3.954-.663Z" transform="translate(1525.604 -372.954)"/><path class="d" d="M-936.461,387.29c0-.366-.427-.663-.954-.663s-.954.3-.954.663.427.663.954.663.954-.3.954-.663Z" transform="translate(1447.673 -275.295)"/><path class="d" d="M-1208.677,424.3c0-.366-.427-.663-.954-.663s-.953.3-.953.663.427.663.953.663.954-.3.954-.663Z" transform="translate(1647.216 -302.429)"/><path class="d" d="M-1254.959,436.639c0-.366-.427-.663-.954-.663s-.954.3-.954.663.427.663.954.663.954-.3.954-.663Z" transform="translate(1681.143 -311.47)"/><path class="d" d="M-892.772,536.964c0-.366-.427-.663-.954-.663s-.953.3-.953.663.427.663.953.663.954-.3.954-.663Z" transform="translate(1415.648 -385.011)"/><path class="d" d="M-1431.679,422.935c0-.366-.427-.663-.954-.663s-.954.3-.954.663.427.663.954.663.954-.3.954-.663Z" transform="translate(1810.685 -301.424)"/><path class="d" d="M-1334.558,494.215c0-.366-.427-.663-.954-.663s-.953.3-.953.663.427.663.953.663.954-.3.954-.663Z" transform="translate(1739.492 -353.675)"/><path class="d" d="M-1484.023,469.538c0-.366-.427-.663-.954-.663s-.953.3-.953.663.427.663.953.663.954-.3.954-.663Z" transform="translate(1849.054 -335.586)"/><path class="d" d="M-1578.545,498.328c0-.366-.427-.663-.954-.663s-.953.3-.953.663.427.663.953.663.954-.3.954-.663Z" transform="translate(1918.342 -356.69)"/><path class="d" d="M-1630.452,494.47c0-.366-.427-.663-.954-.663s-.953.3-.953.663.427.663.953.663.954-.3.954-.663Z" transform="translate(1956.392 -353.862)"/><path class="d" d="M-1827.715,406.483c0-.366-.427-.663-.954-.663s-.953.3-.953.663.427.663.953.663.954-.3.954-.663Z" transform="translate(2100.992 -289.364)"/><path class="d" d="M-1621.212,393.036c0-.366-.427-.663-.954-.663s-.953.3-.953.663.427.663.953.663.954-.3.954-.663Z" transform="translate(1949.618 -279.507)"/><path class="d" d="M-1795.376,391.4c0-.366-.427-.663-.954-.663s-.953.3-.953.663.427.663.953.663.954-.3.954-.663Z" transform="translate(2077.287 -278.309)"/><path class="d" d="M-1637.158,601.131c0-.366-.427-.663-.954-.663s-.954.3-.954.663.427.663.954.663.954-.3.954-.663Z" transform="translate(1961.308 -432.048)"/><path class="d" d="M-1779.781,742.582c0,.366.427.663.954.663s.953-.3.953-.663-.427-.663-.953-.663-.954.3-.954.663Z" transform="translate(2064.457 -535.736)"/><path class="d" d="M-1732.019,572.086c0,.366.427.663.954.663s.953-.3.953-.663-.427-.663-.953-.663-.954.3-.954.663Z" transform="translate(2029.446 -410.757)"/><path class="d" d="M-2309.669,676.227c0,.366.427.663.954.663s.954-.3.954-.663-.427-.664-.954-.664-.954.3-.954.664Z" transform="translate(2452.883 -487.095)"/><path class="d" d="M-1713.526,451.459c0,.367.427.663.954.663s.954-.3.954-.663-.427-.663-.954-.663-.954.3-.954.663Z" transform="translate(2015.89 -322.333)"/><path class="d" d="M-1819.839,444.859c0,.366.427.663.954.663s.954-.3.954-.663-.427-.663-.954-.663-.954.3-.954.663Z" transform="translate(2093.821 -317.495)"/><path class="d" d="M-1547.623,547.669c0,.366.427.663.954.663s.953-.3.953-.663-.427-.663-.953-.663-.954.3-.954.663Z" transform="translate(1894.277 -392.858)"/><path class="d" d="M-1501.342,395.51c0,.366.427.663.954.663s.953-.3.953-.663-.427-.663-.953-.663-.954.3-.954.663Z" transform="translate(1860.352 -281.321)"/><path class="d" d="M-1863.528,435.009c0,.366.427.663.954.663s.953-.3.953-.663-.427-.663-.953-.663-.954.3-.954.663Z" transform="translate(2125.846 -310.275)"/><path class="d" d="M-1555.305,415.819c0,.366.427.663.954.663s.954-.3.954-.663-.427-.663-.954-.663-.954.3-.954.663Z" transform="translate(1899.909 -296.208)"/><path class="d" d="M-1421.741,477.758c0,.366.427.663.954.663s.953-.3.953-.663-.427-.663-.953-.663-.954.3-.954.663Z" transform="translate(1802.002 -341.611)"/><path class="d" d="M-1272.277,502.436c0,.366.427.663.954.663s.954-.3.954-.663-.427-.663-.954-.663-.954.3-.954.663Z" transform="translate(1692.439 -359.701)"/><path class="d" d="M-1177.755,473.646c0,.366.427.663.954.663s.954-.3.954-.663-.427-.663-.954-.663-.954.3-.954.663Z" transform="translate(1623.152 -338.597)"/><path class="d" d="M-1125.848,477.505c0,.366.427.663.954.663s.954-.3.954-.663-.427-.663-.954-.663-.954.3-.954.663Z" transform="translate(1585.102 -341.426)"/><path class="d" d="M-928.585,565.491c0,.366.427.663.954.663s.954-.3.954-.663-.427-.663-.954-.663-.954.3-.954.663Z" transform="translate(1440.502 -405.923)"/><path class="d" d="M-1189.009,575.087c0,.366.427.663.954.663s.953-.3.953-.663-.427-.663-.953-.663-.954.3-.954.663Z" transform="translate(1631.401 -412.957)"/><path class="d" d="M-960.923,440.748c0,.366.427.663.954.663s.953-.3.953-.663-.427-.663-.953-.663-.954.3-.954.663Z" transform="translate(1464.207 -314.482)"/><path class="d" d="M-1119.142,370.842c0,.366.427.663.954.663s.954-.3.954-.663-.427-.664-.954-.664-.954.3-.954.664Z" transform="translate(1580.187 -263.238)"/><path class="d" d="M-1034.23,1027.355c0,.279-.325.505-.726.505s-.726-.226-.726-.505.325-.505.726-.505.726.226.726.505Z" transform="translate(1519.008 -744.6)"/><path class="d" d="M-1146.111,1073.613c0,.279-.325.505-.726.505s-.726-.226-.726-.505.325-.505.726-.505.726.226.726.505Z" transform="translate(1601.02 -778.509)"/><path class="d" d="M-1118.8,1093.505c0,.366-.427.663-.954.663s-.953-.3-.953-.663.427-.663.953-.663.954.3.954.663Z" transform="translate(1581.335 -792.975)"/><path class="d" d="M-1042.774,955.91c0,.366-.427.663-.954.663s-.954-.3-.954-.663.427-.663.954-.663.954.3.954.663Z" transform="translate(1525.604 -692.113)"/><path class="d" d="M-936.461,1089.134c0,.366-.427.663-.954.663s-.954-.3-.954-.663.427-.663.954-.663.954.3.954.663Z" transform="translate(1447.673 -789.771)"/><path class="d" d="M-1286.531,1055.019c0,.279-.325.505-.726.505s-.726-.226-.726-.505.325-.505.726-.505.726.226.726.505Z" transform="translate(1703.952 -764.879)"/><path class="d" d="M-1254.959,1039.786c0,.366-.427.663-.954.663s-.954-.3-.954-.663.427-.663.954-.663.954.3.954.663Z" transform="translate(1681.143 -753.597)"/><path class="d" d="M-892.772,939.46c0,.366-.427.663-.954.663s-.953-.3-.953-.663.427-.663.953-.663.954.3.954.663Z" transform="translate(1415.648 -680.054)"/><path class="d" d="M-1201,920.269c0,.366-.427.663-.954.663s-.954-.3-.954-.663.427-.663.954-.663.954.3.954.663Z" transform="translate(1641.586 -665.987)"/><path class="d" d="M-1334.558,1122.034c0,.366-.427.663-.954.663s-.953-.3-.953-.663.427-.663.953-.663.954.3.954.663Z" transform="translate(1739.492 -813.887)"/><path class="d" d="M-1484.023,1006.886c0,.366-.427.663-.954.663s-.953-.3-.953-.663.427-.663.953-.663.954.3.954.663Z" transform="translate(1849.054 -729.48)"/><path class="d" d="M-1578.545,1117.921c0,.367-.427.663-.954.663s-.953-.3-.953-.663.427-.663.953-.663.954.3.954.663Z" transform="translate(1918.342 -810.872)"/><path class="d" d="M-1630.452,981.956c0,.366-.427.663-.954.663s-.953-.3-.953-.663.427-.663.953-.663.954.3.954.663Z" transform="translate(1956.392 -711.205)"/><path class="d" d="M-1757.936,1068.591c0,.279-.325.505-.726.505s-.726-.226-.726-.505.325-.505.726-.505.726.226.726.505Z" transform="translate(2049.508 -774.828)"/><path class="d" d="M-1440.7,1075.905c0,.279-.325.5-.726.5s-.726-.226-.726-.5.325-.505.726-.505.726.226.726.505Z" transform="translate(1816.967 -780.189)"/><path class="d" d="M-1795.376,1085.023c0,.366-.427.663-.954.663s-.953-.3-.953-.663.427-.663.953-.663.954.3.954.663Z" transform="translate(2077.287 -786.757)"/><path class="d" d="M-1637.158,875.292c0,.366-.427.663-.954.663s-.954-.3-.954-.663.427-.663.954-.663.954.3.954.663Z" transform="translate(1961.308 -633.017)"/><path class="d" d="M-1878.939,965.084c0-.366.427-.663.954-.663s.954.3.954.663-.427.663-.954.663-.954-.3-.954-.663Z" transform="translate(2137.143 -698.838)"/><path class="d" d="M-1732.019,904.338c0-.366.427-.663.954-.663s.953.3.953.663-.427.663-.953.663-.954-.3-.954-.663Z" transform="translate(2029.446 -654.309)"/><path class="d" d="M-2706.84,752.112c0-.366.427-.663.954-.663s.953.3.953.663-.427.663-.953.663-.954-.3-.954-.663Z" transform="translate(2744.022 -542.722)"/><path class="d" d="M-2740.322,759.258c0-.278.325-.5.726-.5s.726.226.726.5-.325.505-.726.505-.726-.226-.726-.505Z" transform="translate(2768.565 -548.076)"/><path class="d" d="M-1819.839,1031.566c0-.366.427-.663.954-.663s.954.3.954.663-.427.663-.954.663-.954-.3-.954-.663Z" transform="translate(2093.821 -747.571)"/><path class="d" d="M-1547.623,928.756c0-.366.427-.663.954-.663s.953.3.953.663-.427.663-.953.663-.954-.3-.954-.663Z" transform="translate(1894.277 -672.208)"/><path class="d" d="M-1501.342,1080.914c0-.366.427-.663.954-.663s.953.3.953.663-.427.663-.953.663-.954-.3-.954-.663Z" transform="translate(1860.352 -783.745)"/><path class="d" d="M-1785.207,1046.868c0-.279.325-.505.726-.505s.726.226.726.505-.325.505-.726.505-.726-.226-.726-.505Z" transform="translate(2068.434 -758.904)"/><path class="d" d="M-1550.492,1061.482c0-.279.325-.505.726-.505s.726.226.726.505-.325.505-.726.505-.726-.226-.726-.505Z" transform="translate(1896.38 -769.617)"/><path class="d" d="M-1421.741,998.666c0-.366.427-.663.954-.663s.953.3.953.663-.427.663-.953.663-.954-.3-.954-.663Z" transform="translate(1802.002 -723.454)"/><path class="d" d="M-1272.277,1113.813c0-.367.427-.663.954-.663s.954.3.954.663-.427.663-.954.663-.954-.3-.954-.663Z" transform="translate(1692.439 -807.861)"/><path class="d" d="M-1177.755,1002.779c0-.366.427-.663.954-.663s.954.3.954.663-.427.663-.954.663-.954-.3-.954-.663Z" transform="translate(1623.152 -726.469)"/><path class="d" d="M-1125.848,1138.745c0-.366.427-.663.954-.663s.954.3.954.663-.427.663-.954.663-.954-.3-.954-.663Z" transform="translate(1585.102 -826.136)"/><path class="d" d="M-928.585,910.933c0-.366.427-.663.954-.663s.954.3.954.663-.427.663-.954.663-.954-.3-.954-.663Z" transform="translate(1440.502 -659.143)"/><path class="d" d="M-1515.241,829.8c0-.366.427-.663.954-.663s.953.3.953.663-.427.663-.953.663-.954-.3-.954-.663Z" transform="translate(1870.54 -599.671)"/><path class="d" d="M-960.923,1035.676c0-.367.427-.663.954-.663s.953.3.953.663-.427.663-.953.663-.954-.3-.954-.663Z" transform="translate(1464.207 -750.584)"/><path class="d" d="M-1218.349,1095.732c0-.279.325-.505.727-.505s.726.226.726.505-.325.5-.726.5-.727-.226-.727-.5Z" transform="translate(1652.908 -794.723)"/><path class="d" d="M-928.249,646.372c0-.366-.427-.663-.954-.663s-.954.3-.954.663.427.663.954.663.954-.3.954-.663Z" transform="translate(1441.653 -465.211)"/><path class="d" d="M-914.846,812.239c0-.367-.427-.663-.954-.663s-.954.3-.954.663.427.663.954.663.954-.3.954-.663Z" transform="translate(1431.828 -586.797)"/><path class="d" d="M-885.1,742.328c0-.366-.427-.663-.954-.663s-.954.3-.954.663.427.663.954.663.954-.3.954-.663Z" transform="translate(1410.022 -535.55)"/><path class="d" d="M-1557.024,677.9c0-.366-.427-.663-.954-.663s-.953.3-.953.663.427.663.953.663.954-.3.954-.663Z" transform="translate(1902.567 -488.324)"/><path class="d" d="M-1601.691,808.385c0-.366-.427-.663-.954-.663s-.953.3-.953.663.427.663.953.663.954-.3.954-.663Z" transform="translate(1935.309 -583.972)"/><path class="d" d="M-1819.514,732.313c0-.366-.427-.663-.954-.663s-.954.3-.954.663.427.663.954.663.954-.3.954-.663Z" transform="translate(2094.981 -528.209)"/><path class="d" d="M-2347.312,1027.356c0,.279-.325.505-.726.505s-.726-.226-.726-.505.325-.5.726-.5.726.226.726.5Z" transform="translate(2481.542 -744.601)"/><path class="d" d="M-2459.193,1073.614c0,.279-.325.5-.726.5s-.727-.226-.727-.5.325-.505.727-.505.726.226.726.505Z" transform="translate(2563.554 -778.51)"/><path class="d" d="M-2708.052,1093.506c0,.366-.427.663-.954.663s-.953-.3-.953-.663.427-.663.953-.663.954.3.954.663Z" transform="translate(2746.309 -792.975)"/><path class="d" d="M-2632.024,955.91c0,.366-.427.663-.954.663s-.954-.3-.954-.663.427-.663.954-.663.954.3.954.663Z" transform="translate(2690.578 -692.113)"/><path class="d" d="M-2525.711,1089.135c0,.366-.427.663-.954.663s-.954-.3-.954-.663.427-.663.954-.663.954.3.954.663Z" transform="translate(2612.647 -789.771)"/><path class="d" d="M-2599.613,1055.021c0,.279-.325.5-.726.5s-.726-.226-.726-.5.325-.5.726-.5.726.226.726.5Z" transform="translate(2666.486 -764.88)"/><path class="d" d="M-2844.21,1039.786c0,.366-.427.663-.953.663s-.954-.3-.954-.663.427-.663.954-.663.953.3.953.663Z" transform="translate(2846.117 -753.597)"/><path class="d" d="M-2482.023,939.461c0,.366-.427.663-.953.663s-.954-.3-.954-.663.427-.663.954-.663.953.3.953.663Z" transform="translate(2580.622 -680.055)"/><path class="d" d="M-2767.007,1002.779c0-.366.427-.663.954-.663s.953.3.953.663-.427.663-.953.663-.954-.3-.954-.663Z" transform="translate(2788.126 -726.469)"/><path class="d" d="M-2715.1,1138.745c0-.366.427-.663.954-.663s.953.3.953.663-.427.663-.953.663-.954-.3-.954-.663Z" transform="translate(2750.077 -826.136)"/><path class="d" d="M-2517.836,910.934c0-.366.427-.663.954-.663s.953.3.953.663-.427.663-.953.663-.954-.3-.954-.663Z" transform="translate(2605.476 -659.144)"/><path class="d" d="M-2778.259,901.339c0-.366.427-.663.954-.663s.954.3.954.663-.427.664-.954.664-.954-.3-.954-.664Z" transform="translate(2796.375 -652.111)"/><path class="d" d="M-2550.175,1035.678c0-.366.427-.663.954-.663s.954.3.954.663-.427.663-.954.663-.954-.3-.954-.663Z" transform="translate(2629.182 -750.585)"/><path class="d" d="M-2531.431,1095.733c0-.279.325-.5.727-.5s.726.226.726.5-.325.505-.726.505-.727-.226-.727-.505Z" transform="translate(2615.442 -794.724)"/><path class="d" d="M-2466.613,460.634c0-.366-.427-.663-.954-.663s-.954.3-.954.663.427.663.954.663.954-.3.954-.663Z" transform="translate(2569.326 -329.059)"/><path class="d" d="M-2613.531,399.888c0-.366-.427-.663-.954-.663s-.954.3-.954.663.427.663.954.663.954-.3.954-.663Z" transform="translate(2677.023 -284.53)"/><path class="d" d="M-2708.052,382.92c0-.366-.427-.663-.954-.663s-.953.3-.953.663.427.664.953.664.954-.3.954-.664Z" transform="translate(2746.309 -272.092)"/><path class="d" d="M-2632.024,520.515c0-.366-.427-.663-.954-.663s-.954.3-.954.663.427.663.954.663.954-.3.954-.663Z" transform="translate(2690.578 -372.954)"/><path class="d" d="M-2525.711,387.291c0-.366-.427-.663-.954-.663s-.954.3-.954.663.427.663.954.663.954-.3.954-.663Z" transform="translate(2612.647 -275.296)"/><path class="d" d="M-2797.927,424.306c0-.366-.427-.663-.954-.663s-.954.3-.954.663.427.663.954.663.954-.3.954-.663Z" transform="translate(2812.19 -302.429)"/><path class="d" d="M-2844.21,436.64c0-.366-.427-.663-.953-.663s-.954.3-.954.663.427.663.954.663.953-.3.953-.663Z" transform="translate(2846.117 -311.471)"/><path class="d" d="M-2482.023,536.965c0-.366-.427-.663-.953-.663s-.954.3-.954.663.427.663.954.663.953-.3.953-.663Z" transform="translate(2580.622 -385.012)"/><path class="d" d="M-2790.246,556.156c0-.366-.427-.663-.954-.663s-.953.3-.953.663.427.663.953.663.954-.3.954-.663Z" transform="translate(2806.56 -399.08)"/><path class="d" d="M-2767.007,473.646c0,.366.427.663.954.663s.953-.3.953-.663-.427-.663-.953-.663-.954.3-.954.663Z" transform="translate(2788.126 -338.597)"/><path class="d" d="M-2715.1,477.505c0,.366.427.663.954.663s.953-.3.953-.663-.427-.663-.953-.663-.954.3-.954.663Z" transform="translate(2750.077 -341.426)"/><path class="d" d="M-2517.836,565.492c0,.366.427.663.954.663s.953-.3.953-.663-.427-.663-.953-.663-.954.3-.954.663Z" transform="translate(2605.476 -405.923)"/><path class="d" d="M-2550.175,440.748c0,.366.427.663.954.663s.954-.3.954-.663-.427-.663-.954-.663-.954.3-.954.663Z" transform="translate(2629.182 -314.482)"/><path class="d" d="M-2708.392,370.843c0,.366.427.663.953.663s.954-.3.954-.663-.427-.663-.954-.663-.953.3-.953.663Z" transform="translate(2745.16 -263.239)"/><path class="d" d="M-2517.5,830.053c0,.366-.427.663-.954.663s-.953-.3-.953-.663.427-.663.953-.663.954.3.954.663Z" transform="translate(2606.627 -599.856)"/><path class="d" d="M-2504.1,664.186c0,.367-.427.663-.954.663s-.954-.3-.954-.663.427-.663.954-.663.954.3.954.663Z" transform="translate(2596.803 -478.269)"/><path class="d" d="M-2474.348,734.1c0,.366-.427.663-.954.663s-.953-.3-.953-.663.427-.663.953-.663.954.3.954.663Z" transform="translate(2574.996 -529.517)"/><path class="d" d="M-1308.617,460.633c0-.367-.427-.663-.954-.663s-.954.3-.954.663.427.663.954.663.954-.3.954-.663Z" transform="translate(1720.476 -329.058)"/><path class="d" d="M-1455.536,399.888c0-.367-.427-.663-.953-.663s-.954.3-.954.663.427.663.954.663.953-.3.953-.663Z" transform="translate(1828.172 -284.53)"/><path class="d" d="M-1550.057,382.92c0-.366-.427-.663-.954-.663s-.954.3-.954.663.427.663.954.663.954-.3.954-.663Z" transform="translate(1897.46 -272.092)"/><path class="d" d="M-1474.029,520.515c0-.367-.427-.663-.954-.663s-.953.3-.953.663.427.663.953.663.954-.3.954-.663Z" transform="translate(1841.729 -372.954)"/><path class="d" d="M-1367.717,387.29c0-.366-.427-.663-.954-.663s-.954.3-.954.663.427.663.954.663.954-.3.954-.663Z" transform="translate(1763.798 -275.295)"/><path class="d" d="M-2312.1,651.3c0-.366-.427-.663-.954-.663s-.953.3-.953.663.427.663.953.663.954-.3.954-.663Z" transform="translate(2456.065 -468.826)"/><path class="d" d="M-2358.385,663.637c0-.366-.427-.663-.954-.663s-.954.3-.954.663.427.663.954.663.954-.3.954-.663Z" transform="translate(2489.992 -477.867)"/><path class="d" d="M-1324.028,536.964c0-.366-.427-.663-.954-.663s-.954.3-.954.663.427.663.954.663.954-.3.954-.663Z" transform="translate(1731.773 -385.011)"/><path class="d" d="M-1862.935,422.935c0-.366-.427-.663-.954-.663s-.954.3-.954.663.427.663.954.663.954-.3.954-.663Z" transform="translate(2126.81 -301.424)"/><path class="d" d="M-1765.814,494.215c0-.366-.427-.663-.954-.663s-.954.3-.954.663.427.663.954.663.954-.3.954-.663Z" transform="translate(2055.617 -353.675)"/><path class="d" d="M-1816.121,700.779c0-.366-.427-.663-.954-.663s-.953.3-.953.663.427.663.953.663.954-.3.954-.663Z" transform="translate(2092.493 -505.093)"/><path class="d" d="M-1910.642,729.569c0-.366-.427-.663-.954-.663s-.954.3-.954.663.427.663.954.663.954-.3.954-.663Z" transform="translate(2161.781 -526.197)"/><path class="d" d="M-2061.708,494.47c0-.366-.427-.663-.954-.663s-.954.3-.954.663.427.663.954.663.954-.3.954-.663Z" transform="translate(2272.517 -353.862)"/><path class="d" d="M-2258.971,406.483c0-.366-.427-.663-.954-.663s-.954.3-.954.663.427.663.954.663.954-.3.954-.663Z" transform="translate(2417.117 -289.364)"/><path class="d" d="M-2052.467,393.036c0-.366-.427-.663-.954-.663s-.953.3-.953.663.427.663.953.663.954-.3.954-.663Z" transform="translate(2265.743 -279.507)"/><path class="d" d="M-2226.632,391.4c0-.366-.427-.663-.954-.663s-.953.3-.953.663.427.663.953.663.954-.3.954-.663Z" transform="translate(2393.412 -278.309)"/><path class="d" d="M-2068.415,601.131c0-.366-.427-.663-.954-.663s-.954.3-.954.663.427.663.954.663.954-.3.954-.663Z" transform="translate(2277.434 -432.048)"/><path class="d" d="M-2310.194,511.341c0,.366.427.663.953.663s.954-.3.954-.663-.427-.663-.954-.663-.953.3-.953.663Z" transform="translate(2453.268 -366.229)"/><path class="d" d="M-2163.275,572.086c0,.366.427.663.954.663s.954-.3.954-.663-.427-.663-.954-.663-.954.3-.954.663Z" transform="translate(2345.571 -410.757)"/><path class="d" d="M-2068.753,449.229c0,.366.427.663.954.663s.954-.3.954-.663-.427-.663-.954-.663-.954.3-.954.663Z" transform="translate(2276.283 -320.699)"/><path class="d" d="M-2144.782,451.459c0,.367.427.663.954.663s.954-.3.954-.663-.427-.663-.954-.663-.954.3-.954.663Z" transform="translate(2332.015 -322.333)"/><path class="d" d="M-1056.826,809.822c0,.366.427.663.954.663s.954-.3.954-.663-.427-.663-.954-.663-.954.3-.954.663Z" transform="translate(1534.507 -585.025)"/><path class="d" d="M-1879.721,778.91c0,.366.427.663.954.663s.954-.3.954-.663-.427-.663-.954-.663-.954.3-.954.663Z" transform="translate(2137.716 -562.366)"/><path class="d" d="M-1932.6,395.51c0,.366.427.663.954.663s.954-.3.954-.663-.427-.663-.954-.663-.954.3-.954.663Z" transform="translate(2176.476 -281.321)"/><path class="d" d="M-1100.515,799.973c0,.366.427.663.954.663s.953-.3.953-.663-.427-.663-.953-.663-.954.3-.954.663Z" transform="translate(1566.532 -577.805)"/><path class="d" d="M-1986.56,415.819c0,.366.427.663.954.663s.954-.3.954-.663-.427-.663-.954-.663-.954.3-.954.663Z" transform="translate(2216.033 -296.208)"/><path class="d" d="M-1753.839,709c0,.366.427.663.954.663s.954-.3.954-.663-.427-.663-.954-.663-.954.3-.954.663Z" transform="translate(2045.441 -511.119)"/><path class="d" d="M-1703.532,502.436c0,.366.427.663.954.663s.953-.3.953-.663-.427-.663-.953-.663-.954.3-.954.663Z" transform="translate(2008.564 -359.701)"/><path class="d" d="M-2281.181,700.644c0,.366.427.663.954.663s.954-.3.954-.663-.427-.663-.954-.663-.954.3-.954.663Z" transform="translate(2432 -504.994)"/><path class="d" d="M-2229.275,704.5c0,.366.427.663.954.663s.954-.3.954-.663-.427-.663-.954-.663-.954.3-.954.663Z" transform="translate(2393.952 -507.822)"/><path class="d" d="M-1359.84,565.491c0,.366.427.663.954.663s.954-.3.954-.663-.427-.663-.954-.663-.954.3-.954.663Z" transform="translate(1756.626 -405.923)"/><path class="d" d="M-1620.264,575.087c0,.366.427.663.954.663s.954-.3.954-.663-.427-.663-.954-.663-.954.3-.954.663Z" transform="translate(1947.526 -412.957)"/><path class="d" d="M-1081.958,655.966c0-.366-.427-.663-.954-.663s-.953.3-.953.663.427.663.953.663.954-.3.954-.663Z" transform="translate(1554.327 -472.244)"/><path class="d" d="M-1133.865,652.108c0-.366-.427-.663-.954-.663s-.953.3-.953.663.427.664.953.664.954-.3.954-.664Z" transform="translate(1592.377 -469.416)"/><path class="d" d="M-1051.036,705.307c0,.366.427.663.954.663s.954-.3.954-.663-.427-.663-.954-.663-.954.3-.954.663Z" transform="translate(1530.262 -508.412)"/><path class="d" d="M-977.442,678.153c0-.366-.427-.663-.954-.663s-.953.3-.953.663.427.663.953.663.954-.3.954-.663Z" transform="translate(1477.713 -488.508)"/><path class="d" d="M-1206.945,660.074c0,.366.427.663.954.663s.953-.3.953-.663-.427-.663-.953-.663-.954.3-.954.663Z" transform="translate(1644.549 -475.255)"/><path class="d" d="M-1123.677,732.725c0,.366.427.663.954.663s.953-.3.953-.663-.427-.663-.953-.663-.954.3-.954.663Z" transform="translate(1583.511 -528.511)"/><path class="d" d="M-1392.179,440.748c0,.366.427.663.954.663s.954-.3.954-.663-.427-.663-.954-.663-.954.3-.954.663Z" transform="translate(1780.332 -314.482)"/><path class="d" d="M-1550.4,370.842c0,.366.427.663.954.663s.954-.3.954-.663-.427-.664-.954-.664-.954.3-.954.664Z" transform="translate(1896.311 -263.238)"/><path class="d" d="M-1465.486,1027.355c0,.279-.325.505-.726.505s-.726-.226-.726-.505.325-.505.726-.505.726.226.726.505Z" transform="translate(1835.133 -744.6)"/><path class="d" d="M-1577.366,1073.613c0,.279-.325.505-.726.505s-.726-.226-.726-.505.325-.505.726-.505.726.226.726.505Z" transform="translate(1917.145 -778.509)"/><path class="d" d="M-1550.057,1093.505c0,.366-.427.663-.954.663s-.954-.3-.954-.663.427-.663.954-.663.954.3.954.663Z" transform="translate(1897.46 -792.975)"/><path class="d" d="M-1474.029,955.91c0,.366-.427.663-.954.663s-.953-.3-.953-.663.427-.663.953-.663.954.3.954.663Z" transform="translate(1841.729 -692.113)"/><path class="d" d="M-1367.717,1089.134c0,.366-.427.663-.954.663s-.954-.3-.954-.663.427-.663.954-.663.954.3.954.663Z" transform="translate(1763.798 -789.771)"/><path class="d" d="M-2787.129,779.936c0,.279-.325.505-.726.505s-.727-.226-.727-.505.325-.505.727-.505.726.226.726.505Z" transform="translate(2803.942 -563.234)"/><path class="d" d="M-2755.557,764.7c0,.366-.427.663-.954.663s-.954-.3-.954-.663.427-.663.954-.663.954.3.954.663Z" transform="translate(2781.132 -551.951)"/><path class="d" d="M-1324.028,939.46c0,.366-.427.663-.954.663s-.954-.3-.954-.663.427-.663.954-.663.954.3.954.663Z" transform="translate(1731.773 -680.054)"/><path class="d" d="M-1632.251,920.269c0,.366-.427.663-.953.663s-.954-.3-.954-.663.427-.663.954-.663.953.3.953.663Z" transform="translate(1957.71 -665.987)"/><path class="d" d="M-1765.814,1122.034c0,.366-.427.663-.954.663s-.954-.3-.954-.663.427-.663.954-.663.954.3.954.663Z" transform="translate(2055.617 -813.887)"/><path class="d" d="M-1915.279,1006.886c0,.366-.427.663-.954.663s-.953-.3-.953-.663.427-.663.953-.663.954.3.954.663Z" transform="translate(2165.18 -729.48)"/><path class="d" d="M-2009.8,1117.921c0,.367-.427.663-.954.663s-.953-.3-.953-.663.427-.663.953-.663.954.3.954.663Z" transform="translate(2234.466 -810.872)"/><path class="d" d="M-2061.708,981.956c0,.366-.427.663-.954.663s-.954-.3-.954-.663.427-.663.954-.663.954.3.954.663Z" transform="translate(2272.517 -711.205)"/><path class="d" d="M-2189.191,1068.591c0,.279-.325.505-.726.505s-.726-.226-.726-.505.325-.505.726-.505.726.226.726.505Z" transform="translate(2365.633 -774.828)"/><path class="d" d="M-1871.96,1075.905c0,.279-.325.5-.726.5s-.726-.226-.726-.5.325-.505.726-.505.726.226.726.505Z" transform="translate(2133.092 -780.189)"/><path class="d" d="M-2226.632,1085.023c0,.366-.427.663-.954.663s-.953-.3-.953-.663.427-.663.953-.663.954.3.954.663Z" transform="translate(2393.412 -786.757)"/><path class="d" d="M-2068.415,875.292c0,.366-.427.663-.954.663s-.954-.3-.954-.663.427-.663.954-.663.954.3.954.663Z" transform="translate(2277.434 -633.017)"/><path class="d" d="M-2310.194,965.084c0-.366.427-.663.953-.663s.954.3.954.663-.427.663-.954.663-.953-.3-.953-.663Z" transform="translate(2453.268 -698.838)"/><path class="d" d="M-2163.275,904.338c0-.366.427-.663.954-.663s.954.3.954.663-.427.663-.954.663-.954-.3-.954-.663Z" transform="translate(2345.571 -654.309)"/><path class="d" d="M-2068.753,1027.195c0-.367.427-.664.954-.664s.954.3.954.664-.427.663-.954.663-.954-.3-.954-.663Z" transform="translate(2276.283 -744.366)"/><path class="d" d="M-2102.235,1034.341c0-.279.325-.5.727-.5s.726.226.726.5-.325.505-.726.505-.727-.226-.727-.505Z" transform="translate(2300.827 -749.721)"/><path class="d" d="M-2251.094,1031.566c0-.366.427-.663.954-.663s.953.3.953.663-.427.663-.953.663-.954-.3-.954-.663Z" transform="translate(2409.946 -747.571)"/><path class="d" d="M-1978.879,928.756c0-.366.427-.663.954-.663s.953.3.953.663-.427.663-.953.663-.954-.3-.954-.663Z" transform="translate(2210.403 -672.208)"/><path class="d" d="M-1932.6,1080.914c0-.366.427-.663.954-.663s.954.3.954.663-.427.663-.954.663-.954-.3-.954-.663Z" transform="translate(2176.476 -783.745)"/><path class="d" d="M-2216.463,1046.868c0-.279.325-.505.727-.505s.726.226.726.505-.325.505-.726.505-.727-.226-.727-.505Z" transform="translate(2384.559 -758.904)"/><path class="d" d="M-2223.777,785.732c0-.279.325-.505.726-.505s.726.226.726.505-.325.505-.726.505-.726-.226-.726-.505Z" transform="translate(2389.921 -567.483)"/><path class="d" d="M-1853,998.666c0-.366.427-.663.954-.663s.953.3.953.663-.427.663-.953.663-.954-.3-.954-.663Z" transform="translate(2118.126 -723.454)"/><path class="d" d="M-1703.532,1113.813c0-.367.427-.663.954-.663s.953.3.953.663-.427.663-.953.663-.954-.3-.954-.663Z" transform="translate(2008.564 -807.861)"/><path class="d" d="M-2678.353,727.7c0-.367.427-.663.954-.663s.954.3.954.663-.427.663-.954.663-.954-.3-.954-.663Z" transform="translate(2723.141 -524.824)"/><path class="d" d="M-1557.1,1138.745c0-.366.427-.663.954-.663s.954.3.954.663-.427.663-.954.663-.954-.3-.954-.663Z" transform="translate(1901.227 -826.136)"/><path class="d" d="M-1359.84,910.933c0-.366.427-.663.954-.663s.954.3.954.663-.427.663-.954.663-.954-.3-.954-.663Z" transform="translate(1756.626 -659.143)"/><path class="d" d="M-1946.5,829.8c0-.366.427-.663.954-.663s.954.3.954.663-.427.663-.954.663-.954-.3-.954-.663Z" transform="translate(2186.666 -599.671)"/><path class="d" d="M-1392.179,1035.676c0-.367.427-.663.954-.663s.954.3.954.663-.427.663-.954.663-.954-.3-.954-.663Z" transform="translate(1780.332 -750.584)"/><path class="d" d="M-1649.6,1095.732c0-.279.325-.505.726-.505s.726.226.726.505-.325.5-.726.5-.726-.226-.726-.5Z" transform="translate(1969.033 -794.723)"/><path class="d" d="M-1359.5,646.372c0-.366-.427-.663-.954-.663s-.954.3-.954.663.427.663.954.663.954-.3.954-.663Z" transform="translate(1757.778 -465.211)"/><path class="d" d="M-1346.1,812.239c0-.367-.427-.663-.954-.663s-.953.3-.953.663.427.663.953.663.954-.3.954-.663Z" transform="translate(1747.953 -586.797)"/><path class="d" d="M-1316.353,742.328c0-.366-.427-.663-.954-.663s-.953.3-.953.663.427.663.953.663.954-.3.954-.663Z" transform="translate(1726.147 -535.55)"/><path class="d" d="M-1988.279,677.9c0-.366-.427-.663-.954-.663s-.953.3-.953.663.427.663.953.663.954-.3.954-.663Z" transform="translate(2218.691 -488.324)"/><path class="d" d="M-2032.946,808.385c0-.366-.427-.663-.954-.663s-.953.3-.953.663.427.663.953.663.954-.3.954-.663Z" transform="translate(2251.433 -583.972)"/><path class="d" d="M-2349.927,501.072c0-.366-.427-.663-.954-.663s-.954.3-.954.663.427.663.954.663.954-.3.954-.663Z" transform="translate(2483.791 -358.701)"/><path class="d" d="M-2035.357,60.058c0-.366-.427-.663-.954-.663s-.954.3-.954.663.427.663.954.663.954-.3.954-.663Z" transform="translate(2253.2 -35.423)"/><path class="d" d="M-2182.276-.688c0-.366-.427-.663-.954-.663s-.953.3-.953.663.427.663.953.663.954-.3.954-.663Z" transform="translate(2360.898 9.106)"/><path class="d" d="M-2276.8-17.656c0-.366-.427-.663-.954-.663s-.954.3-.954.663.427.664.954.664.954-.3.954-.664Z" transform="translate(2430.185 21.544)"/><path class="d" d="M-2200.77,119.939c0-.366-.427-.663-.954-.663s-.954.3-.954.663.427.663.954.663.954-.3.954-.663Z" transform="translate(2374.454 -79.318)"/><path class="d" d="M-2094.456-13.285c0-.366-.427-.663-.954-.663s-.953.3-.953.663.427.663.953.663.954-.3.954-.663Z" transform="translate(2296.522 18.34)"/><path class="d" d="M-2412.954,36.064c0-.366-.427-.663-.954-.663s-.954.3-.954.663.427.663.954.663.954-.3.954-.663Z" transform="translate(2529.992 -17.835)"/><path class="d" d="M-2050.768,136.39c0-.366-.427-.663-.954-.663s-.954.3-.954.663.427.663.954.663.954-.3.954-.663Z" transform="translate(2264.498 -91.377)"/><path class="d" d="M-2358.991,155.58c0-.366-.427-.663-.954-.663s-.954.3-.954.663.427.664.954.664.954-.3.954-.664Z" transform="translate(2490.435 -105.444)"/><path class="d" d="M-2086.58,164.916c0,.366.427.663.954.663s.954-.3.954-.663-.427-.663-.954-.663-.954.3-.954.663Z" transform="translate(2289.351 -112.288)"/><path class="d" d="M-2118.919,40.172c0,.366.427.663.954.663s.953-.3.953-.663-.427-.663-.953-.663-.954.3-.954.663Z" transform="translate(2313.057 -20.846)"/><path class="d" d="M-2277.137-29.733c0,.366.427.663.954.663s.954-.3.954-.663-.427-.663-.954-.663-.954.3-.954.663Z" transform="translate(2429.036 30.397)"/><path class="d" d="M-2072.841,263.61c0,.367-.427.663-.954.663s-.954-.3-.954-.663.427-.663.954-.663.954.3.954.663Z" transform="translate(2280.678 -184.634)"/><path class="d" d="M-2043.093,333.521c0,.367-.427.663-.954.663s-.954-.3-.954-.663.427-.663.954-.663.954.3.954.663Z" transform="translate(2258.871 -235.881)"/><path class="d" d="M-877.361,60.058c0-.367-.427-.663-.954-.663s-.953.3-.953.663.427.663.953.663.954-.3.954-.663Z" transform="translate(1404.351 -35.423)"/><path class="d" d="M-1024.281-.688c0-.366-.427-.663-.954-.663s-.954.3-.954.663.427.663.954.663.954-.3.954-.663Z" transform="translate(1512.048 9.106)"/><path class="d" d="M-1118.8-17.656c0-.366-.427-.663-.954-.663s-.953.3-.953.663.427.663.953.663.954-.3.954-.663Z" transform="translate(1581.335 21.544)"/><path class="d" d="M-1042.774,119.939c0-.367-.427-.663-.954-.663s-.954.3-.954.663.427.663.954.663.954-.3.954-.663Z" transform="translate(1525.604 -79.318)"/><path class="d" d="M-936.461-13.286c0-.366-.427-.663-.954-.663s-.954.3-.954.663.427.663.954.663.954-.3.954-.663Z" transform="translate(1447.673 18.34)"/><path class="d" d="M-1208.677,23.729c0-.366-.427-.663-.954-.663s-.953.3-.953.663.427.663.953.663.954-.3.954-.663Z" transform="translate(1647.216 -8.793)"/><path class="d" d="M-1254.959,36.063c0-.367-.427-.663-.954-.663s-.954.3-.954.663.427.663.954.663.954-.3.954-.663Z" transform="translate(1681.143 -17.834)"/><path class="d" d="M-892.772,136.388c0-.366-.427-.663-.954-.663s-.953.3-.953.663.427.663.953.663.954-.3.954-.663Z" transform="translate(1415.648 -91.376)"/><path class="d" d="M-1431.679,22.359c0-.367-.427-.663-.954-.663s-.954.3-.954.663.427.663.954.663.954-.3.954-.663Z" transform="translate(1810.685 -7.789)"/><path class="d" d="M-1334.558,93.639c0-.366-.427-.663-.954-.663s-.953.3-.953.663.427.663.953.663.954-.3.954-.663Z" transform="translate(1739.492 -60.039)"/><path class="d" d="M-1484.023,68.962c0-.366-.427-.663-.954-.663s-.953.3-.953.663.427.664.953.664.954-.3.954-.664Z" transform="translate(1849.054 -41.95)"/><path class="d" d="M-1578.545,97.752c0-.366-.427-.663-.954-.663s-.953.3-.953.663.427.663.953.663.954-.3.954-.663Z" transform="translate(1918.342 -63.054)"/><path class="d" d="M-1630.452,93.894c0-.366-.427-.663-.954-.663s-.953.3-.953.663.427.663.953.663.954-.3.954-.663Z" transform="translate(1956.392 -60.226)"/><path class="d" d="M-1827.715,5.907c0-.366-.427-.663-.954-.663s-.953.3-.953.663.427.663.953.663.954-.3.954-.663Z" transform="translate(2100.992 4.271)"/><path class="d" d="M-1621.212-7.54c0-.366-.427-.663-.954-.663s-.953.3-.953.663.427.663.953.663.954-.3.954-.663Z" transform="translate(1949.618 14.128)"/><path class="d" d="M-1795.376-9.175c0-.366-.427-.663-.954-.663s-.953.3-.953.663.427.663.953.663.954-.3.954-.663Z" transform="translate(2077.287 15.327)"/><path class="d" d="M-1637.158,200.555c0-.366-.427-.663-.954-.663s-.954.3-.954.663.427.663.954.663.954-.3.954-.663Z" transform="translate(1961.308 -138.412)"/><path class="d" d="M-1779.781,342.005c0,.366.427.663.954.663s.953-.3.953-.663-.427-.663-.953-.663-.954.3-.954.663Z" transform="translate(2064.457 -242.1)"/><path class="d" d="M-1732.019,171.51c0,.366.427.663.954.663s.953-.3.953-.663-.427-.663-.953-.663-.954.3-.954.663Z" transform="translate(2029.446 -117.121)"/><path class="d" d="M-2309.669,275.651c0,.366.427.663.954.663s.954-.3.954-.663-.427-.664-.954-.664-.954.3-.954.664Z" transform="translate(2452.883 -193.459)"/><path class="d" d="M-1713.526,50.884c0,.367.427.663.954.663s.954-.3.954-.663-.427-.663-.954-.663-.954.3-.954.663Z" transform="translate(2015.89 -28.698)"/><path class="d" d="M-1819.839,44.283c0,.366.427.663.954.663s.954-.3.954-.663-.427-.663-.954-.663-.954.3-.954.663Z" transform="translate(2093.821 -23.86)"/><path class="d" d="M-1547.623,147.093c0,.366.427.663.954.663s.953-.3.953-.663-.427-.663-.953-.663-.954.3-.954.663Z" transform="translate(1894.277 -99.223)"/><path class="d" d="M-1501.342-5.066c0,.366.427.663.954.663s.953-.3.953-.663-.427-.663-.953-.663-.954.3-.954.663Z" transform="translate(1860.352 12.315)"/><path class="d" d="M-1863.528,34.433c0,.366.427.663.954.663s.953-.3.953-.663-.427-.663-.953-.663-.954.3-.954.663Z" transform="translate(2125.846 -16.639)"/><path class="d" d="M-1555.305,15.243c0,.366.427.663.954.663s.954-.3.954-.663-.427-.663-.954-.663-.954.3-.954.663Z" transform="translate(1899.909 -2.572)"/><path class="d" d="M-1421.741,77.182c0,.366.427.663.954.663s.953-.3.953-.663-.427-.663-.953-.663-.954.3-.954.663Z" transform="translate(1802.002 -47.976)"/><path class="d" d="M-1272.277,101.86c0,.366.427.663.954.663s.954-.3.954-.663-.427-.663-.954-.663-.954.3-.954.663Z" transform="translate(1692.439 -66.066)"/><path class="d" d="M-1177.755,73.07c0,.366.427.663.954.663s.954-.3.954-.663-.427-.663-.954-.663-.954.3-.954.663Z" transform="translate(1623.152 -44.961)"/><path class="d" d="M-1125.848,76.929c0,.366.427.663.954.663s.954-.3.954-.663-.427-.663-.954-.663-.954.3-.954.663Z" transform="translate(1585.102 -47.79)"/><path class="d" d="M-928.585,164.915c0,.366.427.663.954.663s.954-.3.954-.663-.427-.663-.954-.663-.954.3-.954.663Z" transform="translate(1440.502 -112.287)"/><path class="d" d="M-1189.009,174.511c0,.367.427.663.954.663s.953-.3.953-.663-.427-.663-.953-.663-.954.3-.954.663Z" transform="translate(1631.401 -119.321)"/><path class="d" d="M-960.923,40.172c0,.366.427.663.954.663s.953-.3.953-.663-.427-.663-.953-.663-.954.3-.954.663Z" transform="translate(1464.207 -20.846)"/><path class="d" d="M-1119.142-29.734c0,.366.427.663.954.663s.954-.3.954-.663-.427-.664-.954-.664-.954.3-.954.664Z" transform="translate(1580.187 30.398)"/><path class="d" d="M-2706.84,351.535c0-.367.427-.663.954-.663s.953.3.953.663-.427.663-.953.663-.954-.3-.954-.663Z" transform="translate(2744.022 -249.086)"/><path class="d" d="M-2740.322,358.682c0-.279.325-.5.726-.5s.726.226.726.5-.325.505-.726.505-.726-.226-.726-.505Z" transform="translate(2768.565 -254.441)"/><path class="d" d="M-928.249,245.8c0-.366-.427-.663-.954-.663s-.954.3-.954.663.427.663.954.663.954-.3.954-.663Z" transform="translate(1441.653 -171.575)"/><path class="d" d="M-885.1,341.753c0-.366-.427-.663-.954-.663s-.954.3-.954.663.427.663.954.663.954-.3.954-.663Z" transform="translate(1410.022 -241.915)"/><path class="d" d="M-1557.024,277.326c0-.366-.427-.663-.954-.663s-.953.3-.953.663.427.663.953.663.954-.3.954-.663Z" transform="translate(1902.567 -194.688)"/><path class="d" d="M-1819.514,331.737c0-.366-.427-.663-.954-.663s-.954.3-.954.663.427.663.954.663.954-.3.954-.663Z" transform="translate(2094.981 -234.573)"/><path class="d" d="M-2466.613,60.058c0-.366-.427-.663-.954-.663s-.954.3-.954.663.427.663.954.663.954-.3.954-.663Z" transform="translate(2569.326 -35.423)"/><path class="d" d="M-2613.531-.688c0-.366-.427-.663-.954-.663s-.954.3-.954.663.427.663.954.663.954-.3.954-.663Z" transform="translate(2677.023 9.106)"/><path class="d" d="M-2708.052-17.656c0-.366-.427-.663-.954-.663s-.953.3-.953.663.427.664.953.664.954-.3.954-.664Z" transform="translate(2746.309 21.544)"/><path class="d" d="M-2632.024,119.939c0-.366-.427-.663-.954-.663s-.954.3-.954.663.427.663.954.663.954-.3.954-.663Z" transform="translate(2690.578 -79.318)"/><path class="d" d="M-2525.711-13.285c0-.366-.427-.663-.954-.663s-.954.3-.954.663.427.663.954.663.954-.3.954-.663Z" transform="translate(2612.647 18.34)"/><path class="d" d="M-2797.927,23.73c0-.366-.427-.663-.954-.663s-.954.3-.954.663.427.663.954.663.954-.3.954-.663Z" transform="translate(2812.19 -8.794)"/><path class="d" d="M-2844.21,36.064c0-.366-.427-.663-.953-.663s-.954.3-.954.663.427.663.954.663.953-.3.953-.663Z" transform="translate(2846.117 -17.835)"/><path class="d" d="M-2482.023,136.39c0-.366-.427-.663-.953-.663s-.954.3-.954.663.427.663.954.663.953-.3.953-.663Z" transform="translate(2580.622 -91.377)"/><path class="d" d="M-2790.246,155.58c0-.366-.427-.663-.954-.663s-.953.3-.953.663.427.664.953.664.954-.3.954-.664Z" transform="translate(2806.56 -105.444)"/><path class="d" d="M-2767.007,73.07c0,.366.427.663.954.663s.953-.3.953-.663-.427-.663-.953-.663-.954.3-.954.663Z" transform="translate(2788.126 -44.961)"/><path class="d" d="M-2715.1,76.929c0,.366.427.663.954.663s.953-.3.953-.663-.427-.663-.953-.663-.954.3-.954.663Z" transform="translate(2750.077 -47.79)"/><path class="d" d="M-2517.836,164.916c0,.366.427.663.954.663s.953-.3.953-.663-.427-.663-.953-.663-.954.3-.954.663Z" transform="translate(2605.476 -112.288)"/><path class="d" d="M-2550.175,40.172c0,.366.427.663.954.663s.954-.3.954-.663-.427-.663-.954-.663-.954.3-.954.663Z" transform="translate(2629.182 -20.846)"/><path class="d" d="M-2708.392-29.733c0,.366.427.663.953.663s.954-.3.954-.663-.427-.663-.954-.663-.953.3-.953.663Z" transform="translate(2745.16 30.397)"/><path class="d" d="M-2504.1,263.61c0,.367-.427.663-.954.663s-.954-.3-.954-.663.427-.663.954-.663.954.3.954.663Z" transform="translate(2596.803 -184.634)"/><path class="d" d="M-2474.348,333.521c0,.367-.427.663-.954.663s-.953-.3-.953-.663.427-.663.953-.663.954.3.954.663Z" transform="translate(2574.996 -235.881)"/><path class="d" d="M-1308.617,60.058c0-.367-.427-.663-.954-.663s-.954.3-.954.663.427.663.954.663.954-.3.954-.663Z" transform="translate(1720.476 -35.423)"/><path class="d" d="M-1455.536-.688c0-.366-.427-.663-.953-.663s-.954.3-.954.663.427.663.954.663.953-.3.953-.663Z" transform="translate(1828.172 9.106)"/><path class="d" d="M-1550.057-17.656c0-.366-.427-.663-.954-.663s-.954.3-.954.663.427.663.954.663.954-.3.954-.663Z" transform="translate(1897.46 21.544)"/><path class="d" d="M-1474.029,119.939c0-.367-.427-.663-.954-.663s-.953.3-.953.663.427.663.953.663.954-.3.954-.663Z" transform="translate(1841.729 -79.318)"/><path class="d" d="M-1367.717-13.286c0-.366-.427-.663-.954-.663s-.954.3-.954.663.427.663.954.663.954-.3.954-.663Z" transform="translate(1763.798 18.34)"/><path class="d" d="M-2312.1,250.727c0-.366-.427-.663-.954-.663s-.953.3-.953.663.427.663.953.663.954-.3.954-.663Z" transform="translate(2456.065 -175.19)"/><path class="d" d="M-2358.385,263.061c0-.367-.427-.663-.954-.663s-.954.3-.954.663.427.663.954.663.954-.3.954-.663Z" transform="translate(2489.992 -184.231)"/><path class="d" d="M-1324.028,136.388c0-.366-.427-.663-.954-.663s-.954.3-.954.663.427.663.954.663.954-.3.954-.663Z" transform="translate(1731.773 -91.376)"/><path class="d" d="M-1862.935,22.359c0-.367-.427-.663-.954-.663s-.954.3-.954.663.427.663.954.663.954-.3.954-.663Z" transform="translate(2126.81 -7.789)"/><path class="d" d="M-1765.814,93.639c0-.366-.427-.663-.954-.663s-.954.3-.954.663.427.663.954.663.954-.3.954-.663Z" transform="translate(2055.617 -60.039)"/><path class="d" d="M-1816.121,300.2c0-.366-.427-.663-.954-.663s-.953.3-.953.663.427.664.953.664.954-.3.954-.664Z" transform="translate(2092.493 -211.458)"/><path class="d" d="M-1910.642,328.993c0-.366-.427-.663-.954-.663s-.954.3-.954.663.427.663.954.663.954-.3.954-.663Z" transform="translate(2161.781 -232.562)"/><path class="d" d="M-2061.708,93.894c0-.366-.427-.663-.954-.663s-.954.3-.954.663.427.663.954.663.954-.3.954-.663Z" transform="translate(2272.517 -60.226)"/><path class="d" d="M-2258.971,5.907c0-.366-.427-.663-.954-.663s-.954.3-.954.663.427.663.954.663.954-.3.954-.663Z" transform="translate(2417.117 4.271)"/><path class="d" d="M-2052.467-7.54c0-.366-.427-.663-.954-.663s-.953.3-.953.663.427.663.953.663.954-.3.954-.663Z" transform="translate(2265.743 14.128)"/><path class="d" d="M-2226.632-9.175c0-.366-.427-.663-.954-.663s-.953.3-.953.663.427.663.953.663.954-.3.954-.663Z" transform="translate(2393.412 15.327)"/><path class="d" d="M-2068.415,200.555c0-.366-.427-.663-.954-.663s-.954.3-.954.663.427.663.954.663.954-.3.954-.663Z" transform="translate(2277.434 -138.412)"/><path class="d" d="M-2310.194,110.765c0,.366.427.663.953.663s.954-.3.954-.663-.427-.663-.954-.663-.953.3-.953.663Z" transform="translate(2453.268 -72.593)"/><path class="d" d="M-2163.275,171.51c0,.366.427.663.954.663s.954-.3.954-.663-.427-.663-.954-.663-.954.3-.954.663Z" transform="translate(2345.571 -117.121)"/><path class="d" d="M-2068.753,48.653c0,.366.427.663.954.663s.954-.3.954-.663-.427-.663-.954-.663-.954.3-.954.663Z" transform="translate(2276.283 -27.063)"/><path class="d" d="M-2144.782,50.884c0,.367.427.663.954.663s.954-.3.954-.663-.427-.663-.954-.663-.954.3-.954.663Z" transform="translate(2332.015 -28.698)"/><path class="d" d="M-1932.6-5.066c0,.366.427.663.954.663s.954-.3.954-.663-.427-.663-.954-.663-.954.3-.954.663Z" transform="translate(2176.476 12.315)"/><path class="d" d="M-1986.56,15.243c0,.366.427.663.954.663s.954-.3.954-.663-.427-.663-.954-.663-.954.3-.954.663Z" transform="translate(2216.033 -2.572)"/><path class="d" d="M-1753.839,308.423c0,.366.427.663.954.663s.954-.3.954-.663-.427-.663-.954-.663-.954.3-.954.663Z" transform="translate(2045.441 -217.483)"/><path class="d" d="M-1703.532,101.86c0,.366.427.663.954.663s.953-.3.953-.663-.427-.663-.953-.663-.954.3-.954.663Z" transform="translate(2008.564 -66.066)"/><path class="d" d="M-2281.181,300.068c0,.366.427.663.954.663s.954-.3.954-.663-.427-.663-.954-.663-.954.3-.954.663Z" transform="translate(2432 -211.359)"/><path class="d" d="M-2229.275,303.926c0,.366.427.663.954.663s.954-.3.954-.663-.427-.663-.954-.663-.954.3-.954.663Z" transform="translate(2393.952 -214.187)"/><path class="d" d="M-1359.84,164.915c0,.366.427.663.954.663s.954-.3.954-.663-.427-.663-.954-.663-.954.3-.954.663Z" transform="translate(1756.626 -112.287)"/><path class="d" d="M-1620.264,174.511c0,.367.427.663.954.663s.954-.3.954-.663-.427-.663-.954-.663-.954.3-.954.663Z" transform="translate(1947.526 -119.321)"/><path class="d" d="M-1081.958,255.39c0-.366-.427-.663-.954-.663s-.953.3-.953.663.427.663.953.663.954-.3.954-.663Z" transform="translate(1554.327 -178.608)"/><path class="d" d="M-1133.865,251.532c0-.367-.427-.663-.954-.663s-.953.3-.953.663.427.663.953.663.954-.3.954-.663Z" transform="translate(1592.377 -175.78)"/><path class="d" d="M-1051.036,304.731c0,.366.427.663.954.663s.954-.3.954-.663-.427-.663-.954-.663-.954.3-.954.663Z" transform="translate(1530.262 -214.777)"/><path class="d" d="M-977.442,277.577c0-.366-.427-.663-.954-.663s-.953.3-.953.663.427.663.953.663.954-.3.954-.663Z" transform="translate(1477.713 -194.872)"/><path class="d" d="M-1206.945,259.5c0,.366.427.663.954.663s.953-.3.953-.663-.427-.663-.953-.663-.954.3-.954.663Z" transform="translate(1644.549 -181.619)"/><path class="d" d="M-1123.677,332.149c0,.366.427.663.954.663s.953-.3.953-.663-.427-.663-.953-.663-.954.3-.954.663Z" transform="translate(1583.511 -234.875)"/><path class="d" d="M-1392.179,40.172c0,.366.427.663.954.663s.954-.3.954-.663-.427-.663-.954-.663-.954.3-.954.663Z" transform="translate(1780.332 -20.846)"/><path class="d" d="M-1550.4-29.734c0,.366.427.663.954.663s.954-.3.954-.663-.427-.664-.954-.664-.954.3-.954.664Z" transform="translate(1896.311 30.398)"/><path class="d" d="M-2755.557,364.127c0,.366-.427.663-.954.663s-.954-.3-.954-.663.427-.663.954-.663.954.3.954.663Z" transform="translate(2781.132 -258.316)"/><path class="d" d="M-2678.353,327.12c0-.367.427-.663.954-.663s.954.3.954.663-.427.663-.954.663-.954-.3-.954-.663Z" transform="translate(2723.141 -231.189)"/><path class="d" d="M-1359.5,245.8c0-.366-.427-.663-.954-.663s-.954.3-.954.663.427.663.954.663.954-.3.954-.663Z" transform="translate(1757.778 -171.575)"/><path class="d" d="M-1316.353,341.753c0-.366-.427-.663-.954-.663s-.953.3-.953.663.427.663.953.663.954-.3.954-.663Z" transform="translate(1726.147 -241.915)"/><path class="d" d="M-1988.279,277.326c0-.366-.427-.663-.954-.663s-.953.3-.953.663.427.663.953.663.954-.3.954-.663Z" transform="translate(2218.691 -194.688)"/><path class="d" d="M-2349.927,100.5c0-.366-.427-.663-.954-.663s-.954.3-.954.663.427.663.954.663.954-.3.954-.663Z" transform="translate(2483.791 -65.066)"/></g><path class="e" d="M-2233.46,640.309l-.688-4.348-.688,4.348-4.581,1.266,4.581,1.266.688,6.291.688-6.291,4.58-1.266Z" transform="translate(-444.731 -488.464)"/><path class="e" d="M-1661.631,810.512l-.556-3.512-.556,3.512-3.7,1.023,3.7,1.023.556,5.08.556-5.08,3.7-1.023Z" transform="translate(-864.741 -613.841)"/><path class="f" d="M-1588.33,435.665l4.779-.774-4.684-.633,2.838-3.787-4.009,2.725-.719-4.792-.715,4.766-3.755-2.9,2.845,3.953-4.965.671,5.063.791-3.3,4.177,4.191-3,.622,5.028.8-5.048,3.954,2.744Zm1.808-4.12-1.979,2.641.058.044-.824-.111-.1-.642Zm-6.836,0,2.431,1.877.062-.081-.116.774-.479.065Zm2.5,5.064-2.769,1.984,2.218-2.805-.106-.084.622.1.113.916Zm.194-1.032-4.275-.668,4.181-.565.633-4.217.632,4.217,4.2.568-4.106.665-.709,4.473Zm1.486.223.685-.111-.089.067,2.035,2.708-2.75-1.909Z" transform="translate(-915.854 -336.316)"/><g class="g" transform="translate(-2661.397 47.073)"><path class="d" d="M-1919.518,539.328l-.347,2.088-.347-2.088-2.309-.608,2.309-.608.347-3.021.347,3.021,2.309.608Z" transform="translate(1984.37 -461.596)"/><g transform="translate(44.582 53.483)"><path class="h" d="M-1964.316,536.772c-7.237,0-12.048-2.028-14.811-3.729a15.1,15.1,0,0,1-4.368-3.806l-.208-.307.2-.306c.067-.1,6.862-10.144,18.9-10.32l.3,0c11.834,0,19.079,10.21,19.15,10.313h0l.215.31-.212.312C-1945.189,529.311-1950.436,536.772-1964.316,536.772Zm-18.692-7.844a14.619,14.619,0,0,0,4.184,3.624c2.7,1.662,7.406,3.644,14.508,3.644,13.206,0,18.411-6.883,18.691-7.268-.324-.453-7.355-10.051-18.664-10.051l-.3,0C-1976.084,519.047-1982.709,528.492-1983.008,528.928Z" transform="translate(1984.637 -502.771)"/><path class="h" d="M-1935.7,536.59a8.774,8.774,0,0,1-8.964-8.549,8.774,8.774,0,0,1,8.964-8.55,8.775,8.775,0,0,1,8.964,8.55A8.774,8.774,0,0,1-1935.7,536.59Zm0-16.523a8.2,8.2,0,0,0-8.388,7.974,8.2,8.2,0,0,0,8.388,7.973,8.2,8.2,0,0,0,8.388-7.973A8.2,8.2,0,0,0-1935.7,520.067Z" transform="translate(1956.02 -503.643)"/><path class="h" d="M-1927.617,539.244a5.368,5.368,0,0,1-5.479-5.237,5.368,5.368,0,0,1,5.479-5.236,5.367,5.367,0,0,1,5.478,5.236A5.368,5.368,0,0,1-1927.617,539.244Zm0-9.9a4.792,4.792,0,0,0-4.9,4.66,4.792,4.792,0,0,0,4.9,4.661,4.792,4.792,0,0,0,4.9-4.661A4.791,4.791,0,0,0-1927.617,529.347Z" transform="translate(1947.541 -510.446)"/><g transform="translate(0 8.351)"><rect class="h" width="1.097" height="3.17" transform="matrix(0.628, -0.778, 0.778, 0.628, 0, 13.948)"/><rect class="h" width="1.097" height="4.22" transform="matrix(0.799, -0.602, 0.602, 0.799, 1.977, 9.915)"/><rect class="h" width="1.097" height="4.736" transform="matrix(0.877, -0.48, 0.48, 0.877, 5.074, 6.873)"/><rect class="h" width="1.096" height="5.036" transform="translate(8.724 4.328) rotate(-22.323)"/><rect class="h" width="1.097" height="5.453" transform="translate(13.043 2.151) rotate(-12.34)"/><rect class="h" width="1.098" height="6.528" transform="translate(17.643 0.032) rotate(-1.674)"/><rect class="h" width="5.521" height="1.097" transform="translate(21.746 6.298) rotate(-82.93)"/><rect class="h" width="4.69" height="1.097" transform="translate(25.758 6.563) rotate(-72.855)"/><rect class="h" width="3.895" height="1.097" transform="translate(30.054 7.934) rotate(-52.019)"/><rect class="h" width="3.432" height="1.097" transform="matrix(0.715, -0.699, 0.699, 0.715, 33.202, 10.319)"/><rect class="h" width="2.756" height="1.098" transform="translate(36.314 12.902) rotate(-28.759)"/></g><path class="h" d="M-1913.607,466.444h-5.433l2.716-6.315Zm-4.558-.576h3.683l-1.842-4.282Z" transform="translate(1937.237 -460.129)"/><path class="h" d="M-1884.305,474.254h-5.433l2.717-6.315Zm-4.558-.576h3.683l-1.841-4.281Z" transform="translate(1915.758 -465.854)"/><path class="h" d="M-1941.805,474.254h-5.433l2.717-6.315Zm-4.558-.576h3.683l-1.841-4.281Z" transform="translate(1957.908 -465.854)"/></g><path class="h" d="M-1974.212,501.175c-12.137,0-22.012-9.636-22.012-21.481s9.875-21.481,22.012-21.481,22.012,9.636,22.012,21.481S-1962.074,501.175-1974.212,501.175Zm0-42.387c-11.82,0-21.436,9.378-21.436,20.906s9.616,20.905,21.436,20.905,21.436-9.378,21.436-20.905S-1962.392,458.788-1974.212,458.788Z" transform="translate(2038.398 -405.241)"/><path class="h" d="M-1979.256,498.045c-13.15,0-23.849-10.44-23.849-23.273s10.7-23.274,23.849-23.274,23.849,10.441,23.849,23.274S-1966.106,498.045-1979.256,498.045Zm0-45.971c-12.833,0-23.273,10.183-23.273,22.7s10.44,22.7,23.273,22.7,23.273-10.182,23.273-22.7S-1966.423,452.074-1979.256,452.074Z" transform="translate(2043.442 -400.319)"/><path class="h" d="M-2089.284,410.827l-6.347-51.336-16.35,29.491,7.361-33.411-35.544,31.049,28.137-39.3-28.962,1.877,24.977-9.388-38.183-7.029,38.393-2.864-27.424-11.619,31.15,2.744-36.433-40.306,43.8,32.21-12.859-38.058,21.416,33.613,6.458-48.7,6.87,48.71,21.421-33.621-12.859,38.058,43.8-32.21-36.433,40.306,31.15-2.744-27.424,11.619,38.393,2.864-38.184,7.029,24.978,9.388-28.964-1.877,28.137,39.3-35.545-31.049,7.362,33.411-16.345-29.48Zm-5.993-53.163,5.974,48.315,5.588-48.326,15.3,27.592-6.887-31.26,33.132,28.941-25.962-36.264,26.306,1.705-23.289-8.754,35.833-6.6-36.311-2.709,26.251-11.122-28.975,2.554,33.6-37.173-40.682,29.921,11.924-35.291-19.707,30.933-6.5-46.087-6.113,46.1L-2115.51,279.2l11.924,35.291-40.682-29.921,33.6,37.173-28.975-2.554,26.251,11.122-36.311,2.709,35.833,6.6-23.289,8.754,26.305-1.705-25.961,36.264,33.131-28.941-6.887,31.26Z" transform="translate(2154.197 -259.793)"/><path class="h" d="M-1968.564,304.178l4.083,17.44,1.494,6.4c.219,1.026.446,2.015.634,2.959l.542,2.657.435,2.251c.129.67.238,1.255.321,1.738.168.966.263,1.518.263,1.518l-.056.013-.4-1.487c-.129-.473-.279-1.049-.445-1.711l-.56-2.223-.635-2.636c-.23-.935-.443-1.926-.679-2.949l-1.359-6.435-3.689-17.528Z" transform="translate(2018.163 -292.329)"/><path class="h" d="M-1945.65,315.7s.7,6.516,1.34,13.037c.166,1.63.332,3.259.487,4.787.058.766.129,1.5.169,2.208s.086,1.367.125,1.98.057,1.177.083,1.675.042.934.049,1.293c.017.718.026,1.128.026,1.128l-.058.005-.17-1.116c-.055-.355-.113-.786-.176-1.282s-.143-1.054-.209-1.664l-.22-1.972c-.083-.7-.14-1.44-.216-2.2-.111-1.532-.23-3.165-.349-4.8-.5-6.533-.938-13.071-.938-13.071Z" transform="translate(2001.367 -300.772)"/><path class="h" d="M-1983.687,326.011s2.444,6.08,4.84,12.179l1.773,4.474c.264.721.534,1.413.764,2.078l.659,1.871c.206.579.375,1.117.536,1.59s.294.888.4,1.231l.332,1.079-.054.02-.467-1.027c-.149-.327-.323-.726-.518-1.186s-.424-.975-.655-1.545l-.749-1.837c-.27-.651-.527-1.347-.808-2.061-.525-1.443-1.084-2.983-1.643-4.523-2.256-6.152-4.462-12.322-4.462-12.322Z" transform="translate(2029.247 -308.333)"/><path class="h" d="M-1877.2,304.191l-3.689,17.528c-.463,2.191-.925,4.381-1.359,6.435-.236,1.023-.449,2.014-.679,2.949s-.438,1.82-.635,2.636-.393,1.561-.56,2.223-.316,1.238-.445,1.711l-.405,1.487-.056-.013.263-1.518c.083-.483.192-1.068.321-1.738l.435-2.251c.168-.823.349-1.714.542-2.657s.415-1.933.633-2.959l1.495-6.4,4.083-17.44Z" transform="translate(1956.885 -292.329)"/><path class="h" d="M-1885.032,315.7s-.444,6.538-.939,13.071c-.119,1.634-.238,3.268-.349,4.8-.076.764-.133,1.5-.216,2.2s-.152,1.361-.22,1.972-.148,1.169-.209,1.664-.121.927-.176,1.282l-.17,1.116-.058-.005s.01-.41.026-1.128c.008-.359.025-.794.049-1.293s.042-1.063.083-1.675.081-1.278.125-1.98.111-1.442.169-2.208c.156-1.528.322-3.157.488-4.787.644-6.52,1.341-13.037,1.341-13.037Z" transform="translate(1958.603 -300.772)"/><path class="h" d="M-1866.272,326.031s-2.207,6.17-4.462,12.322l-1.643,4.523c-.281.715-.538,1.411-.808,2.061l-.749,1.837c-.23.57-.461,1.084-.655,1.545s-.369.859-.518,1.186l-.468,1.027-.054-.02.332-1.079c.1-.343.24-.758.4-1.231s.33-1.011.536-1.59l.659-1.871c.23-.666.5-1.357.764-2.078l1.773-4.474c2.4-6.1,4.839-12.179,4.839-12.179Z" transform="translate(1949.996 -308.333)"/><path class="h" d="M-2036.16,361.666l8.276,11.547,3.035,4.243c.468.688.933,1.345,1.351,1.984l1.188,1.793c.37.554.691,1.074.985,1.528s.545.854.748,1.186l.637,1.044-.048.033-.756-.961c-.241-.305-.528-.681-.852-1.114s-.7-.916-1.09-1.456l-1.267-1.738c-.453-.614-.907-1.279-1.39-1.957l-2.921-4.322-7.945-11.777Z" transform="translate(2067.707 -334.469)"/><path class="h" d="M-2032.107,400.389s3.614,3.152,7.192,6.343c.9.792,1.8,1.579,2.637,2.332.407.387.812.75,1.176,1.114l1.035,1.018c.322.314.6.617.859.877s.476.492.653.687c.359.384.557.611.557.611l-.039.042s-.243-.178-.656-.5c-.209-.16-.457-.36-.739-.593s-.606-.489-.946-.784l-1.1-.947c-.393-.333-.788-.706-1.208-1.08-.821-.768-1.679-1.6-2.544-2.434-3.477-3.3-6.918-6.639-6.918-6.639Z" transform="translate(2064.73 -362.855)"/><path class="h" d="M-2006.111,379.9s2.187,4.268,4.326,8.557c.541,1.069,1.09,2.135,1.584,3.144.235.51.476,1,.679,1.471l.584,1.329c.183.411.331.8.473,1.133s.259.634.352.88c.191.49.291.774.291.774l-.052.025s-.16-.256-.422-.711c-.135-.226-.291-.5-.466-.825s-.382-.679-.588-1.078l-.671-1.288c-.242-.455-.47-.948-.721-1.45-.477-1.017-.964-2.113-1.459-3.2-2-4.354-3.962-8.732-3.962-8.732Z" transform="translate(2045.683 -347.837)"/><path class="h" d="M-1831.723,361.7l-7.945,11.777-2.921,4.322c-.483.678-.937,1.343-1.389,1.957l-1.267,1.738c-.391.539-.766,1.021-1.09,1.456s-.611.808-.852,1.114l-.757.961-.047-.033.637-1.044c.2-.332.455-.731.748-1.186s.616-.974.986-1.528l1.188-1.793c.418-.639.883-1.3,1.351-1.984l3.035-4.243,8.276-11.547Z" transform="translate(1929.738 -334.469)"/><path class="h" d="M-1829.962,400.431s-3.442,3.339-6.919,6.639c-.864.831-1.723,1.667-2.543,2.434-.42.374-.815.746-1.208,1.08l-1.1.947c-.34.295-.665.549-.946.784s-.53.433-.739.593c-.413.326-.655.5-.655.5l-.039-.042s.2-.227.557-.611c.177-.195.4-.426.653-.687s.537-.564.859-.877l1.036-1.018c.365-.364.769-.727,1.176-1.114.833-.754,1.738-1.54,2.637-2.332,3.578-3.191,7.191-6.343,7.191-6.343Z" transform="translate(1926.893 -362.855)"/><path class="h" d="M-1840,379.927s-1.957,4.377-3.962,8.732c-.495,1.092-.982,2.187-1.459,3.2-.251.5-.479,1-.721,1.45l-.671,1.288c-.206.4-.414.757-.588,1.078s-.331.6-.466.825c-.262.456-.421.711-.421.711l-.052-.025s.1-.285.291-.774c.092-.247.211-.543.352-.88s.29-.723.473-1.133l.584-1.329c.2-.473.444-.96.679-1.471.494-1.009,1.043-2.075,1.584-3.144,2.139-4.29,4.326-8.557,4.326-8.557Z" transform="translate(1929.991 -347.837)"/><path class="h" d="M-2095.889,439.914l-17.508-8.464-6.427-3.112c-1.017-.514-2.006-1-2.932-1.481l-2.615-1.351c-3.233-1.688-5.354-2.88-5.354-2.88l.026-.052s2.232.969,5.532,2.523l2.658,1.266c.945.445,1.928.941,2.953,1.439l6.365,3.236,17.328,8.825Z" transform="translate(2136.991 -379.116)"/><path class="h" d="M-2112.351,464.45l13.383,2.586,4.913.954c.781.172,1.538.323,2.25.493l2.01.468c.623.143,1.189.295,1.694.419s.943.237,1.3.337l1.132.31-.012.056-1.161-.168c-.37-.053-.817-.125-1.329-.213s-1.092-.176-1.72-.294l-2.03-.374c-.721-.129-1.475-.293-2.259-.447l-4.885-1.09-13.3-2.981Z" transform="translate(2123.531 -409.814)"/><path class="h" d="M-2089.954,415.379l10.839,8.265,3.977,3.038c.622.5,1.233.973,1.8,1.442l1.592,1.313c.494.4.935.793,1.331,1.128s.739.632,1.017.881l.876.781-.035.045-.966-.667c-.308-.212-.676-.475-1.1-.781s-.9-.643-1.41-1.028l-1.651-1.237c-.589-.436-1.191-.918-1.825-1.4l-3.891-3.148-10.59-8.582Z" transform="translate(2107.131 -373.843)"/><path class="h" d="M-1822.278,439.862l17.329-8.825,6.365-3.236c1.024-.5,2.008-.994,2.953-1.439l2.658-1.266c3.3-1.554,5.532-2.523,5.532-2.523l.026.052s-2.122,1.192-5.354,2.88l-2.615,1.351c-.926.483-1.916.967-2.932,1.481l-6.427,3.112-17.508,8.464Z" transform="translate(1910.889 -379.116)"/><path class="h" d="M-1783.354,464.507l-13.3,2.981-4.885,1.09c-.783.154-1.538.318-2.259.447l-2.029.374c-.628.118-1.208.205-1.72.294s-.959.159-1.329.213l-1.161.168-.012-.056,1.132-.31c.36-.1.8-.212,1.3-.337s1.071-.276,1.694-.419l2.01-.468c.712-.17,1.469-.321,2.249-.493l4.913-.954,13.383-2.586Z" transform="translate(1901.926 -409.814)"/><path class="h" d="M-1791.363,415.424l-10.59,8.582-3.891,3.148c-.634.487-1.236.969-1.825,1.4l-1.651,1.237c-.51.385-.991.721-1.41,1.028s-.788.569-1.1.781l-.965.667-.036-.045.876-.781c.278-.249.621-.545,1.017-.881s.837-.723,1.331-1.128l1.592-1.313c.562-.469,1.173-.941,1.8-1.442l3.977-3.038,10.839-8.265Z" transform="translate(1903.961 -373.843)"/><path class="h" d="M-2116.588,503.708l-16.977-2.863-6.233-1.056c-.991-.188-1.952-.355-2.858-.54l-2.556-.511-2.156-.454c-.641-.135-1.2-.258-1.66-.364l-1.443-.334.01-.057,1.469.192c.468.06,1.034.141,1.682.239l2.179.329,2.573.416c.914.144,1.872.324,2.867.494l6.208,1.193,16.906,3.26Z" transform="translate(2151.466 -434.061)"/><path class="h" d="M-2140.746,520.434s5.757-.228,11.515-.4l4.228-.144c.675,0,1.327-.021,1.946-.011l1.744.017c.541,0,1.036.028,1.475.038s.822.026,1.137.043c.631.028.991.055.991.055v.058s-.359.039-.989.09c-.314.029-.7.057-1.135.083s-.933.068-1.473.09l-1.742.078c-.618.032-1.271.037-1.946.057l-4.231,0c-5.76.026-11.521,0-11.521,0Z" transform="translate(2144.337 -450.44)"/><path class="h" d="M-2133.4,482.993s5.511,1.678,11.007,3.4l4.041,1.255c.638.219,1.26.416,1.841.63l1.642.59c.509.181.969.367,1.38.521s.768.294,1.06.415c.586.234.918.378.918.378l-.018.055s-.352-.081-.963-.24c-.307-.076-.677-.176-1.1-.294s-.9-.243-1.42-.4l-1.671-.5c-.595-.173-1.213-.383-1.856-.585l-4-1.387c-5.449-1.869-10.881-3.788-10.881-3.788Z" transform="translate(2138.969 -423.406)"/><path class="h" d="M-2115.471,560.323l-16.938,1.425-6.22.519c-.995.063-1.954.139-2.866.183l-2.57.138-2.173.093c-.647.028-1.211.048-1.676.057l-1.463.033,0-.057,1.452-.178c.462-.057,1.023-.118,1.667-.184l2.164-.22,2.563-.233c.909-.087,1.87-.149,2.862-.23l6.23-.38,16.968-1.023Z" transform="translate(2150.667 -480.05)"/><path class="h" d="M-2101.281,553.828s-6.053-.144-12.1-.341l-4.444-.13c-.708-.041-1.394-.065-2.042-.115l-1.828-.13c-.567-.038-1.085-.094-1.545-.133s-.86-.078-1.19-.117l-1.036-.119,0-.058,1.042-.026c.332-.009.734-.012,1.2-.01s.982-.007,1.55.006l1.833.034c.65.008,1.335.045,2.044.068l4.438.269c6.043.345,12.085.744,12.085.744Z" transform="translate(2133.139 -474.466)"/><path class="h" d="M-2093.174,564.908s-5.4,1.175-10.808,2.3l-3.969.839c-.637.114-1.25.24-1.837.332l-1.651.271c-.511.086-.983.144-1.4.206s-.781.11-1.082.145c-.6.076-.946.109-.946.109l-.011-.057s.333-.1.918-.251c.292-.081.648-.171,1.058-.269s.87-.22,1.375-.331l1.633-.365c.579-.133,1.194-.246,1.828-.378l4-.7c5.437-.977,10.885-1.9,10.885-1.9Z" transform="translate(2125.375 -483.411)"/><path class="h" d="M-2090.6,592.419l-15.408,9.675-5.66,3.548c-.913.549-1.789,1.093-2.633,1.585l-2.373,1.4-2.018,1.161-1.563.883-1.371.755-.03-.049,1.3-.878,1.5-.991,1.951-1.27,2.323-1.479c.822-.529,1.7-1.061,2.609-1.625l5.733-3.43,15.618-9.331Z" transform="translate(2130.343 -503.583)"/><path class="h" d="M-2083.031,593.764s-5.889,2.669-11.8,5.29l-4.334,1.938c-.7.291-1.369.586-2.016.841l-1.817.729c-.562.228-1.085.417-1.545.595s-.863.327-1.2.445l-1.049.372-.023-.053.992-.505c.316-.161.7-.35,1.146-.562s.943-.461,1.495-.712l1.779-.817c.63-.294,1.305-.576,2-.884l4.389-1.811c5.969-2.484,11.958-4.92,11.958-4.92Z" transform="translate(2119.461 -504.566)"/><path class="h" d="M-2090.577,595.379s-4.834,1.1-9.679,2.141l-3.555.782c-.571.105-1.12.222-1.646.305l-1.481.247c-.458.079-.882.13-1.256.186s-.7.1-.971.13c-.539.068-.849.1-.849.1l-.011-.057s.3-.093.821-.238c.261-.076.58-.161.946-.254s.778-.208,1.231-.311l1.462-.341c.518-.125,1.069-.229,1.637-.351l3.582-.646c4.874-.9,9.758-1.746,9.758-1.746Z" transform="translate(2121.817 -505.748)"/><path class="h" d="M-2066,601.655s-4.894,4.225-9.822,8.41l-3.609,3.085c-.588.477-1.148.95-1.7,1.377l-1.537,1.213c-.474.377-.923.706-1.313,1.007s-.735.558-1.022.765l-.9.654-.037-.044.809-.765c.257-.244.574-.534.941-.863s.774-.709,1.232-1.105l1.475-1.287c.521-.46,1.089-.922,1.666-1.412l3.7-2.978c5.022-4.07,10.079-8.1,10.079-8.1Z" transform="translate(2104.162 -510.357)"/><path class="h" d="M-2054.747,615.972s-2.952,3.477-5.943,6.919c-.742.865-1.479,1.736-2.185,2.538-.364.391-.7.78-1.047,1.13l-.958.995c-.3.309-.582.579-.827.825s-.464.457-.648.627c-.363.345-.578.535-.578.535l-.043-.039s.166-.234.47-.631c.149-.2.336-.44.554-.711s.456-.584.732-.911l.887-1.059c.311-.379.661-.758,1.012-1.162.721-.789,1.508-1.614,2.288-2.444,3.1-3.342,6.243-6.649,6.243-6.649Z" transform="translate(2090.261 -520.856)"/><path class="h" d="M-2028.9,628.029l-9.7,15.335-3.567,5.628c-.586.887-1.139,1.753-1.687,2.56l-1.534,2.278-1.317,1.913-1.027,1.467-.909,1.269-.048-.031.788-1.348.921-1.536,1.209-1.982,1.454-2.331c.512-.829,1.077-1.688,1.648-2.585l3.684-5.553L-2028.944,628Z" transform="translate(2076.856 -529.7)"/><path class="h" d="M-2004.858,648.533s-2.113,5.912-4.275,11.806l-1.574,4.333c-.27.684-.517,1.351-.776,1.974l-.72,1.759c-.221.545-.443,1.038-.63,1.479s-.356.822-.5,1.135l-.451.983-.054-.021.316-1.034c.1-.329.229-.726.381-1.18s.314-.969.511-1.524l.631-1.793c.22-.638.479-1.3.732-1.991l1.7-4.284c2.3-5.84,4.652-11.662,4.652-11.662Z" transform="translate(2051.309 -544.737)"/><path class="h" d="M-2036.209,644.2s-3.939,4.388-7.916,8.74l-2.909,3.206c-.479.5-.931.99-1.379,1.437l-1.255,1.269c-.388.395-.758.742-1.078,1.057s-.6.586-.842.805l-.746.69-.042-.039.64-.789c.2-.252.456-.551.749-.892s.616-.732.985-1.144l1.186-1.335c.417-.477.879-.959,1.345-1.469l3.011-3.112c4.086-4.25,8.21-8.465,8.21-8.465Z" transform="translate(2079.559 -541.548)"/><path class="h" d="M-1959.109,650.156l-3.548,14.771-1.307,5.423c-.228.86-.433,1.7-.655,2.481l-.613,2.216c-.188.687-.38,1.312-.541,1.868s-.306,1.04-.431,1.437l-.392,1.247-.056-.014.251-1.283c.08-.409.183-.9.308-1.468s.254-1.206.417-1.9l.52-2.24c.18-.8.4-1.628.61-2.493l1.442-5.388,3.939-14.672Z" transform="translate(2016.72 -545.932)"/><path class="h" d="M-1939.914,663.649s-.161,6.323-.375,12.643c-.048,1.58-.1,3.161-.142,4.642-.043.74-.069,1.456-.121,2.134s-.093,1.319-.135,1.91-.1,1.133-.137,1.613-.081.9-.12,1.243c-.077.689-.122,1.083-.122,1.083l-.057,0s-.008-.4-.023-1.089c-.008-.347-.01-.767-.007-1.249s0-1.026.01-1.619.025-1.235.039-1.915.049-1.395.074-2.135c.09-1.48.185-3.058.281-4.636.363-6.314.778-12.625.778-12.625Z" transform="translate(1998.03 -555.831)"/><path class="h" d="M-1971.635,663.517s-2.062,4.741-4.172,9.459l-1.536,3.471c-.263.546-.5,1.079-.757,1.574l-.7,1.4c-.216.434-.433.823-.615,1.172s-.347.651-.487.9c-.274.5-.44.775-.44.775l-.052-.024s.106-.307.308-.836c.1-.266.224-.586.372-.951s.307-.781.5-1.226l.616-1.439c.215-.513.468-1.041.715-1.593l1.662-3.413c2.245-4.655,4.539-9.289,4.539-9.289Z" transform="translate(2026.796 -555.719)"/><path class="h" d="M-1803.546,503.651l16.906-3.26,6.208-1.193c.995-.171,1.953-.351,2.867-.494l2.573-.416,2.178-.329c.649-.1,1.215-.179,1.682-.239l1.469-.192.01.057-1.443.334c-.459.107-1.018.229-1.66.364l-2.156.454-2.556.511c-.906.185-1.867.352-2.858.54l-6.233,1.056-16.977,2.863Z" transform="translate(1897.158 -434.061)"/><path class="h" d="M-1749.572,520.492s-5.761.026-11.522,0l-4.231,0c-.675-.021-1.327-.025-1.945-.057l-1.743-.078c-.539-.022-1.034-.064-1.472-.09s-.82-.054-1.135-.083c-.629-.05-.989-.09-.989-.09v-.058s.36-.027.991-.055c.315-.018.7-.032,1.137-.043s.935-.034,1.474-.038l1.745-.017c.619-.01,1.271.008,1.946.011l4.228.144c5.758.176,11.515.4,11.515.4Z" transform="translate(1874.48 -450.44)"/><path class="h" d="M-1753.79,483.048s-5.432,1.919-10.881,3.788l-4,1.387c-.644.2-1.262.412-1.856.585l-1.671.5c-.517.156-1,.279-1.42.4s-.793.218-1.1.294c-.611.159-.963.24-.963.24l-.018-.055s.332-.144.918-.378c.292-.121.649-.26,1.06-.415s.871-.34,1.38-.521l1.641-.59c.581-.213,1.2-.411,1.842-.63l4.04-1.255c5.5-1.727,11.007-3.4,11.007-3.4Z" transform="translate(1876.743 -423.406)"/><path class="h" d="M-1804.7,560.266l16.968,1.023,6.23.38c.993.081,1.953.143,2.863.23l2.563.233,2.164.22c.644.065,1.206.127,1.667.184l1.452.178,0,.057-1.462-.033c-.465-.01-1.03-.03-1.677-.057l-2.174-.093-2.57-.138c-.912-.045-1.872-.121-2.866-.183l-6.22-.519-16.939-1.425Z" transform="translate(1898.006 -480.05)"/><path class="h" d="M-1792.206,553.771s6.042-.4,12.085-.744l4.438-.269c.709-.023,1.394-.06,2.044-.068l1.833-.034c.568-.013,1.089,0,1.55-.006s.864,0,1.2.01l1.042.026,0,.058-1.036.119c-.329.038-.73.077-1.19.117s-.978.095-1.544.133l-1.828.13c-.649.05-1.334.074-2.042.115l-4.444.13c-6.05.2-12.1.341-12.1.341Z" transform="translate(1888.845 -474.466)"/><path class="h" d="M-1793.469,564.852s5.447.925,10.885,1.9l4,.7c.634.132,1.249.244,1.828.378l1.633.365c.506.111.966.234,1.376.331s.766.189,1.057.269c.586.153.919.251.919.251l-.011.057s-.345-.033-.946-.109c-.3-.034-.665-.083-1.082-.145s-.889-.12-1.4-.206l-1.651-.271c-.587-.092-1.2-.218-1.837-.332l-3.969-.839c-5.409-1.123-10.808-2.3-10.808-2.3Z" transform="translate(1889.779 -483.411)"/><path class="h" d="M-1821.71,592.37l15.619,9.331,5.733,3.43c.9.564,1.786,1.1,2.609,1.625l2.323,1.479,1.951,1.27,1.5.991,1.3.878-.03.049-1.371-.755-1.563-.883-2.018-1.161-2.373-1.4c-.844-.492-1.719-1.036-2.633-1.585l-5.66-3.548-15.408-9.675Z" transform="translate(1910.495 -503.583)"/><path class="h" d="M-1809.3,593.711s5.989,2.436,11.958,4.92l4.389,1.811c.693.307,1.368.59,2,.884l1.779.817c.552.251,1.049.5,1.494.712s.831.4,1.147.562l.992.505-.023.053-1.049-.372c-.334-.118-.737-.268-1.2-.445s-.983-.367-1.545-.595l-1.817-.729c-.646-.255-1.317-.55-2.016-.841l-4.334-1.938c-5.909-2.621-11.8-5.29-11.8-5.29Z" transform="translate(1901.392 -504.566)"/><path class="h" d="M-1789.875,595.323s4.884.847,9.758,1.746l3.582.646c.568.123,1.12.226,1.637.351l1.462.341c.453.1.864.219,1.231.311s.685.178.946.254c.524.145.821.238.821.238l-.011.057s-.31-.028-.849-.1c-.27-.03-.6-.074-.971-.13s-.8-.107-1.256-.186l-1.48-.247c-.526-.083-1.075-.2-1.646-.305l-3.555-.782c-4.845-1.045-9.679-2.141-9.679-2.141Z" transform="translate(1887.145 -505.748)"/><path class="h" d="M-1815.766,601.611s5.056,4.03,10.079,8.1l3.7,2.978c.577.49,1.145.953,1.666,1.412l1.476,1.287c.458.4.865.777,1.232,1.105s.684.619.941.863l.809.765-.037.044-.9-.654c-.287-.208-.631-.466-1.022-.765s-.839-.63-1.314-1.007l-1.537-1.213c-.548-.427-1.107-.9-1.7-1.377l-3.609-3.085c-4.927-4.185-9.821-8.41-9.821-8.41Z" transform="translate(1906.143 -510.357)"/><path class="h" d="M-1805.849,615.934s3.141,3.307,6.243,6.649c.781.831,1.568,1.656,2.289,2.444.351.4.7.783,1.012,1.162l.887,1.059c.276.327.513.64.732.911s.4.51.554.711c.3.4.47.631.47.631l-.043.039s-.215-.19-.577-.535c-.184-.17-.4-.381-.648-.627s-.532-.516-.827-.825l-.958-.995c-.343-.35-.683-.739-1.047-1.13-.707-.8-1.443-1.672-2.186-2.538-2.991-3.442-5.943-6.919-5.943-6.919Z" transform="translate(1898.878 -520.856)"/><path class="h" d="M-1852.467,628l10.042,15.116,3.683,5.553c.571.9,1.136,1.756,1.648,2.585l1.454,2.331,1.209,1.982.92,1.536.788,1.348-.048.031-.909-1.269-1.027-1.467-1.317-1.913-1.535-2.278c-.548-.806-1.1-1.672-1.687-2.56l-3.567-5.628-9.7-15.335Z" transform="translate(1933.054 -529.7)"/><path class="h" d="M-1846.808,648.512s2.35,5.822,4.652,11.662l1.7,4.284c.253.691.512,1.353.732,1.991l.631,1.793c.2.554.358,1.07.511,1.524s.281.85.381,1.18l.316,1.034-.054.021-.451-.983c-.144-.312-.312-.695-.5-1.135s-.409-.933-.63-1.479l-.72-1.759c-.26-.623-.506-1.29-.776-1.974l-1.574-4.333c-2.162-5.893-4.275-11.806-4.275-11.806Z" transform="translate(1928.91 -544.737)"/><path class="h" d="M-1835.2,644.162s4.124,4.215,8.209,8.465l3.011,3.112c.466.51.928.992,1.345,1.469l1.185,1.335c.369.412.691.8.985,1.144s.546.64.749.892l.64.789-.042.039-.746-.69c-.238-.219-.521-.49-.842-.805s-.691-.662-1.078-1.057l-1.256-1.269c-.448-.447-.9-.939-1.379-1.437l-2.91-3.206c-3.977-4.352-7.916-8.74-7.916-8.74Z" transform="translate(1920.394 -541.548)"/><path class="h" d="M-1888.606,650.142l3.938,14.672,1.442,5.388c.21.865.429,1.7.61,2.493l.52,2.24c.163.693.292,1.334.417,1.9s.228,1.059.308,1.468c.16.816.251,1.283.251,1.283l-.056.014-.392-1.247c-.125-.4-.27-.88-.43-1.437s-.353-1.181-.541-1.868l-.613-2.216c-.222-.786-.427-1.621-.655-2.481l-1.307-5.423-3.548-14.771Z" transform="translate(1959.551 -545.932)"/><path class="h" d="M-1890.5,663.646s.415,6.311.777,12.625c.1,1.578.191,3.156.281,4.636.025.741.064,1.456.074,2.135s.027,1.322.039,1.915.006,1.137.01,1.619,0,.9-.007,1.249c-.015.693-.023,1.089-.023,1.089l-.058,0s-.044-.394-.122-1.083c-.04-.344-.08-.763-.12-1.243s-.1-1.022-.137-1.613l-.135-1.91c-.052-.677-.078-1.394-.121-2.134-.045-1.481-.094-3.062-.142-4.642-.213-6.32-.375-12.643-.375-12.643Z" transform="translate(1960.937 -555.831)"/><path class="h" d="M-1879.435,663.493s2.293,4.633,4.538,9.289l1.662,3.413c.247.553.5,1.081.715,1.593l.616,1.439c.192.445.35.862.5,1.226s.275.685.372.951c.2.529.308.836.308.836l-.052.024s-.167-.279-.44-.775c-.141-.246-.3-.549-.487-.9s-.4-.738-.615-1.172l-.7-1.4c-.253-.495-.494-1.028-.757-1.574l-1.536-3.471c-2.11-4.718-4.173-9.459-4.173-9.459Z" transform="translate(1952.825 -555.719)"/><rect class="h" width="0.576" height="49.344" transform="translate(64.217 2.127) rotate(-0.463)"/><circle class="h" cx="0.998" cy="0.998" r="0.998" transform="translate(63.706 37.397)"/><path class="h" d="M-2031.777,428.7a1,1,0,0,1-1,1,1,1,0,0,1-1-1,1,1,0,0,1,1-1A1,1,0,0,1-2031.777,428.7Z" transform="translate(2065.923 -382.877)"/><circle class="h" cx="0.998" cy="0.998" r="0.998" transform="translate(24.931 73.454)"/><circle class="h" cx="0.998" cy="0.998" r="0.998" transform="translate(35.867 100.385)"/><circle class="h" cx="0.998" cy="0.998" r="0.998" transform="translate(63.706 20.216)"/><rect class="h" width="0.576" height="49.345" transform="translate(64.217 97.44) rotate(-0.463)"/><circle class="h" cx="0.998" cy="0.998" r="0.998" transform="translate(63.706 123.568)"/><circle class="h" cx="0.998" cy="0.998" r="0.998" transform="translate(63.706 106.387)"/><rect class="h" width="0.576" height="52.702" transform="matrix(0.675, -0.738, 0.738, 0.675, 7.613, 23.068)"/><rect class="h" width="0.576" height="38.44" transform="translate(2.231 73.391) rotate(-86.712)"/><rect class="h" width="46.806" height="0.576" transform="matrix(0.668, -0.744, 0.744, 0.668, 15.504, 124.796)"/><path class="h" d="M-1801.166,432.179a1,1,0,0,0,1,1,1,1,0,0,0,1-1,1,1,0,0,0-1-1A1,1,0,0,0-1801.166,432.179Z" transform="translate(1895.413 -385.426)"/><circle class="h" cx="0.998" cy="0.998" r="0.998" transform="translate(101.563 73.454)"/><circle class="h" cx="0.998" cy="0.998" r="0.998" transform="translate(91.206 100.126)"/><rect class="h" width="52.702" height="0.576" transform="matrix(0.739, -0.674, 0.674, 0.739, 81.476, 59.111)"/><rect class="h" width="38.441" height="0.576" transform="matrix(0.998, -0.057, 0.057, 0.998, 87.85, 75.007)"/><rect class="h" width="0.576" height="46.806" transform="translate(81.861 90.1) rotate(-41.945)"/></g><path class="i" d="M-1676.382,266.13a10.653,10.653,0,0,1,2.489,7.319,9.783,9.783,0,0,1-.252,1.969,10.8,10.8,0,0,1-.61,1.9,11.793,11.793,0,0,1-.95,1.756l-.592.807-.665.75-.734.684-.8.613a11.9,11.9,0,0,1-1.745.995,10.924,10.924,0,0,1-1.9.658,9.933,9.933,0,0,1-1.992.3,10.923,10.923,0,0,1-7.553-2.393l.575-.576a10.192,10.192,0,0,0,7.431,3.654l.505.008.556-.035a6.592,6.592,0,0,0,1.061-.123,9.255,9.255,0,0,0,2.02-.559,11.189,11.189,0,0,0,1.878-.957,11.314,11.314,0,0,0,1.65-1.315,12.79,12.79,0,0,0,1.346-1.63,10.151,10.151,0,0,0,1-1.871,9.358,9.358,0,0,0,.587-2.044,6.527,6.527,0,0,0,.131-1.06,9.6,9.6,0,0,0,.041-1.079,10.334,10.334,0,0,0-.971-4.171,10.94,10.94,0,0,0-2.579-3.521Zm-.008-.009a10.524,10.524,0,0,1,2.965,3.374,10.966,10.966,0,0,1,1.3,4.379,7.707,7.707,0,0,1,.014,1.147,7.234,7.234,0,0,1-.1,1.153,10.243,10.243,0,0,1-.562,2.25,11.141,11.141,0,0,1-1.021,2.091c-.2.335-.447.637-.669.958-.246.3-.517.584-.776.876a12.426,12.426,0,0,1-1.813,1.476,10.278,10.278,0,0,1-2.085,1.06,10.321,10.321,0,0,1-2.273.591,7.067,7.067,0,0,1-1.152.11l-.557.021-.608-.021a11.182,11.182,0,0,1-8.013-4.16l-2.482-3.118,3.058,2.542a10.342,10.342,0,0,0,3.274,1.836,9.827,9.827,0,0,0,3.729.524,9.3,9.3,0,0,0,1.88-.246,10.293,10.293,0,0,0,1.806-.587,11.3,11.3,0,0,0,1.672-.911l.768-.567.716-.634.653-.7.587-.757a11.361,11.361,0,0,0,.955-1.662,10.367,10.367,0,0,0,.635-1.812,9.427,9.427,0,0,0,.293-1.9,10.447,10.447,0,0,0-2.265-7.237l-.246-.308Z" transform="translate(-844.376 -217.188)"/><path class="f" d="M-2189.486,763.159c-.682-.03-1.656-.094-2.825-.134s-2.533-.083-3.994-.108c-.731-.009-1.486-.03-2.253-.03l-1.465-.008.647-.631c.419-.4.818-.816,1.212-1.207.782-.787,1.5-1.532,2.111-2.18,1.222-1.291,1.993-2.2,1.993-2.2s-.935.735-2.272,1.905c-.671.583-1.444,1.273-2.261,2.024-.406.378-.833.761-1.254,1.164l-.689.654c0-.505-.005-1.012-.008-1.511,0-.767-.021-1.522-.03-2.253-.025-1.461-.063-2.825-.108-3.994s-.1-2.143-.134-2.826-.068-1.072-.068-1.072-.031.39-.068,1.072-.094,1.656-.133,2.826-.083,2.533-.108,3.994c-.009.731-.029,1.486-.031,2.253,0,.483-.005.975-.008,1.465l-.631-.647c-.405-.419-.816-.818-1.208-1.212-.787-.782-1.532-1.5-2.18-2.111-1.291-1.222-2.2-1.993-2.2-1.993s.735.935,1.906,2.272c.582.672,1.273,1.444,2.024,2.261.378.406.76.833,1.164,1.254l.653.689-1.51.008c-.767,0-1.523.021-2.253.031-1.461.025-2.825.063-3.995.108s-2.143.1-2.826.133-1.071.068-1.071.068.39.031,1.071.068,1.656.094,2.826.133,2.533.083,3.995.108c.73.009,1.486.029,2.253.031l1.464.008-.647.63c-.42.4-.819.816-1.212,1.207-.783.787-1.5,1.532-2.111,2.18-1.221,1.291-1.992,2.2-1.992,2.2s.935-.735,2.273-1.9c.671-.583,1.444-1.273,2.26-2.024.406-.378.834-.76,1.254-1.164l.688-.653c0,.505.005,1.012.008,1.51,0,.767.021,1.522.03,2.253.024,1.461.062,2.825.108,3.995s.1,2.143.134,2.825.068,1.072.068,1.072.031-.389.069-1.072.094-1.656.134-2.825.083-2.533.107-3.995c.009-.731.03-1.486.031-2.253,0-.483,0-.975.008-1.464l.631.647c.4.42.816.818,1.207,1.212.786.782,1.532,1.5,2.179,2.111,1.291,1.221,2.2,1.992,2.2,1.992s-.735-.935-1.905-2.273c-.583-.671-1.273-1.444-2.024-2.261-.378-.406-.761-.834-1.164-1.254l-.654-.689,1.51-.008c.767,0,1.522-.021,2.253-.03,1.461-.025,2.825-.062,3.994-.108s2.144-.1,2.825-.134,1.072-.069,1.072-.069S-2188.8,763.2-2189.486,763.159Z" transform="translate(-463.836 -572.613)"/><g class="j" transform="translate(-2693.336 62.233)"><path class="d" d="M-2195.164,373.811l-.157-.992-.157.992-1.045.289,1.045.289.157,1.435.157-1.435,1.045-.289Z" transform="translate(2217.162 -357.805)"/><path class="d" d="M-2239.217,345.956l-.115-.728-.115.728-.767.212.767.212.115,1.053.115-1.053.767-.212Z" transform="translate(2249.188 -337.58)"/><g transform="translate(0)"><g transform="translate(4.263)"><path class="h" d="M-2248.211,326.825l.168.038a10.539,10.539,0,0,1,4.693-4.435,10.4,10.4,0,0,1,5.35-.985l.036-.164a10.565,10.565,0,0,0-5.457,1A10.708,10.708,0,0,0-2248.211,326.825Z" transform="translate(2250.788 -319.997)"/><path class="h" d="M-2246.292,370.757l.037-.164a10.559,10.559,0,0,1-5.817-5.408,10.685,10.685,0,0,1-1-4.949l-.164-.037a10.854,10.854,0,0,0,1.018,5.057A10.726,10.726,0,0,0-2246.292,370.757Z" transform="translate(2254.48 -348.554)"/><path class="h" d="M-2194.479,325.918l-.037.168a10.56,10.56,0,0,1,4.587,4.85,10.664,10.664,0,0,1,.986,3.816l.168.038a10.865,10.865,0,0,0-1-3.925A10.727,10.727,0,0,0-2194.479,325.918Z" transform="translate(2211.428 -323.425)"/><path class="h" d="M-2201.915,377.517l-.164-.037a10.573,10.573,0,0,1-5.188,5.452,10.422,10.422,0,0,1-4,1.01l-.038.169a10.582,10.582,0,0,0,4.111-1.029A10.737,10.737,0,0,0-2201.915,377.517Z" transform="translate(2223.736 -361.222)"/><path class="h" d="M-2257.7,345.909a11.922,11.922,0,0,1,1.432-5.682l-.131-.1a12.084,12.084,0,0,0-1.466,5.786,12.093,12.093,0,0,0,3.5,8.522l.1-.133A11.926,11.926,0,0,1-2257.7,345.909Z" transform="translate(2257.864 -333.838)"/><path class="h" d="M-2175.916,341.178a11.941,11.941,0,0,1-.945,4.668l.134.105a12.1,12.1,0,0,0,.977-4.774,12.081,12.081,0,0,0-2.6-7.508l-.1.135A11.918,11.918,0,0,1-2175.916,341.178Z" transform="translate(2199.658 -329.108)"/><path class="h" d="M-2226.622,397.724a11.62,11.62,0,0,1-4.824-1.047l-.1.135a11.776,11.776,0,0,0,4.929,1.079,11.843,11.843,0,0,0,8.114-3.217l-.131-.1A11.681,11.681,0,0,1-2226.622,397.724Z" transform="translate(2238.575 -373.749)"/><path class="h" d="M-2233.026,316.747a11.629,11.629,0,0,1,6.016,1.672l.1-.132a11.792,11.792,0,0,0-6.118-1.706,11.816,11.816,0,0,0-7.261,2.492l.134.105A11.652,11.652,0,0,1-2233.026,316.747Z" transform="translate(2244.979 -316.58)"/><path class="h" d="M-2245.215,322.129l.153.077a11.262,11.262,0,0,1,6.195-3.566,11.17,11.17,0,0,1,5.938.411l.074-.15a11.331,11.331,0,0,0-6.044-.424A11.427,11.427,0,0,0-2245.215,322.129Z" transform="translate(2248.592 -317.804)"/><path class="h" d="M-2210.648,387.317l-.149-.075a11.29,11.29,0,0,1-6.9,4.441,11.167,11.167,0,0,1-4.644-.042l-.076.153a11.333,11.333,0,0,0,4.752.052A11.457,11.457,0,0,0-2210.648,387.317Z" transform="translate(2231.881 -368.378)"/><path class="h" d="M-2185.2,328.808l-.076.154a11.419,11.419,0,0,1,3.7,6.4,11.5,11.5,0,0,1,0,4.47l.153.078a11.67,11.67,0,0,0,0-4.581A11.582,11.582,0,0,0-2185.2,328.808Z" transform="translate(2204.651 -325.544)"/><path class="h" d="M-2251.134,362.118l.074-.15a11.425,11.425,0,0,1-4.765-7.229,11.5,11.5,0,0,1,.266-5.565l-.15-.076a11.664,11.664,0,0,0-.279,5.674A11.591,11.591,0,0,0-2251.134,362.118Z" transform="translate(2256.653 -340.417)"/></g><path class="h" d="M-2239.37,343.972a9.582,9.582,0,0,1-9.571-9.571,9.582,9.582,0,0,1,9.571-9.572,9.582,9.582,0,0,1,9.571,9.572A9.582,9.582,0,0,1-2239.37,343.972Zm0-18.951a9.39,9.39,0,0,0-9.38,9.38,9.39,9.39,0,0,0,9.38,9.38,9.391,9.391,0,0,0,9.38-9.38A9.391,9.391,0,0,0-2239.37,325.02Z" transform="translate(2255.586 -322.627)"/><path class="h" d="M-2270.271,354.342c-1.771,0-3.43-.179-3.554-.835-.2-1.069,3.816-2.431,6.228-3.147l.055.183c-4.64,1.378-6.191,2.417-6.095,2.929.037.2.495.833,4.816.645a84.6,84.6,0,0,0,11.254-1.431c9.37-1.758,15.456-4.052,15.261-5.092-.09-.477-1.729-.878-6.058-.573l-.013-.191c2.257-.158,6.072-.275,6.26.729.275,1.465-7.621,3.853-15.414,5.315a84.822,84.822,0,0,1-11.281,1.434C-2269.287,354.328-2269.783,354.342-2270.271,354.342Z" transform="translate(2273.832 -338.677)"/><path class="h" d="M-2264.5,373.108a.651.651,0,0,1-.651.651.651.651,0,0,1-.651-.651.651.651,0,0,1,.651-.651A.651.651,0,0,1-2264.5,373.108Z" transform="translate(2267.945 -357.54)"/><path class="h" d="M-2168.42,344.282a1.018,1.018,0,0,1-1.017,1.018,1.018,1.018,0,0,1-1.018-1.018,1.018,1.018,0,0,1,1.018-1.018A1.018,1.018,0,0,1-2168.42,344.282Z" transform="translate(2198.053 -336.14)"/></g></g><g class="k" transform="translate(-2530.479 168.453)"><path class="d" d="M-1617.822,762.621l.29-.666-.482.543-.749-.231.524.583-.463.936.654-.813.749.231Z" transform="translate(1630.786 -749.274)"/><path class="d" d="M-1633.461,728.162l.213-.488-.353.4-.55-.169.385.427-.339.686.48-.6.549.169Z" transform="translate(1642.067 -724.145)"/><g transform="translate(0)"><g transform="translate(2.308)"><path class="h" d="M-1636.459,718.755l.088.088a7.619,7.619,0,0,1,4.585-.876,7.521,7.521,0,0,1,3.644,1.481l.086-.086a7.641,7.641,0,0,0-3.714-1.515A7.739,7.739,0,0,0-1636.459,718.755Z" transform="translate(1641.45 -716.9)"/><path class="h" d="M-1650.289,739.588l.086-.086a7.633,7.633,0,0,1-1.44-5.559,7.724,7.724,0,0,1,1.315-3.406l-.085-.086a7.844,7.844,0,0,0-1.348,3.477A7.753,7.753,0,0,0-1650.289,739.588Z" transform="translate(1652.717 -726.181)"/><path class="h" d="M-1597.578,732.459l-.088.088a7.638,7.638,0,0,1,.908,4.74,7.726,7.726,0,0,1-.885,2.709l.087.088a7.837,7.837,0,0,0,.916-2.782A7.755,7.755,0,0,0-1597.578,732.459Z" transform="translate(1613.014 -727.653)"/><path class="h" d="M-1629.1,770.827l-.085-.086a7.644,7.644,0,0,1-5.283,1.3,7.528,7.528,0,0,1-2.832-.942l-.089.089a7.645,7.645,0,0,0,2.905.973A7.763,7.763,0,0,0-1629.1,770.827Z" transform="translate(1642.128 -755.715)"/><path class="h" d="M-1653.673,721.564a8.617,8.617,0,0,1,3.084-2.905l-.04-.114a8.74,8.74,0,0,0-3.145,2.955,8.743,8.743,0,0,0-1.186,6.553l.114-.041A8.622,8.622,0,0,1-1653.673,721.564Z" transform="translate(1655.155 -717.453)"/><path class="h" d="M-1602.363,749.053a8.63,8.63,0,0,1-2.393,2.477l.041.116a8.751,8.751,0,0,0,2.453-2.529,8.736,8.736,0,0,0,1.335-5.589l-.116.042A8.617,8.617,0,0,1-1602.363,749.053Z" transform="translate(1618.211 -735.767)"/><path class="h" d="M-1647.324,767.3a8.4,8.4,0,0,1-2.533-2.515l-.116.042a8.52,8.52,0,0,0,2.584,2.575,8.564,8.564,0,0,0,6.2,1.2l-.04-.114A8.444,8.444,0,0,1-1647.324,767.3Z" transform="translate(1651.357 -751.35)"/><path class="h" d="M-1619.981,715.9a8.409,8.409,0,0,1,3.015,3.36l.114-.041a8.521,8.521,0,0,0-3.064-3.421,8.544,8.544,0,0,0-5.394-1.308l.041.116A8.424,8.424,0,0,1-1619.981,715.9Z" transform="translate(1633.278 -714.455)"/><path class="h" d="M-1630.984,715.968l.063.107a8.143,8.143,0,0,1,5.162.238,8.077,8.077,0,0,1,3.458,2.561l.1-.062a8.194,8.194,0,0,0-3.518-2.611A8.261,8.261,0,0,0-1630.984,715.968Z" transform="translate(1637.437 -715.327)"/><path class="h" d="M-1636.008,770.981l-.061-.1a8.164,8.164,0,0,1-5.933.021,8.075,8.075,0,0,1-2.813-1.833l-.106.064a8.2,8.2,0,0,0,2.875,1.881A8.283,8.283,0,0,0-1636.008,770.981Z" transform="translate(1647.654 -754.486)"/><path class="h" d="M-1598.45,737.874l-.106.064a8.257,8.257,0,0,1-.237,5.34A8.309,8.309,0,0,1-1600.53,746l.063.107a8.439,8.439,0,0,0,1.785-2.79A8.381,8.381,0,0,0-1598.45,737.874Z" transform="translate(1615.113 -731.622)"/><path class="h" d="M-1653.285,732.969l.1-.063a8.26,8.26,0,0,1-.091-6.259,8.31,8.31,0,0,1,2.329-3.288l-.062-.1a8.429,8.429,0,0,0-2.378,3.349A8.381,8.381,0,0,0-1653.285,732.969Z" transform="translate(1654.281 -720.906)"/></g><path class="h" d="M-1644.987,733.2a6.928,6.928,0,0,1-2.108-9.557,6.928,6.928,0,0,1,9.557-2.107,6.928,6.928,0,0,1,2.107,9.557A6.928,6.928,0,0,1-1644.987,733.2Zm7.375-11.548a6.789,6.789,0,0,0-9.366,2.065,6.79,6.79,0,0,0,2.065,9.366,6.789,6.789,0,0,0,9.366-2.065A6.789,6.789,0,0,0-1637.612,721.648Z" transform="translate(1652.351 -718.847)"/><path class="h" d="M-1661.938,730.755c-1.079-.689-2.021-1.444-1.841-1.892.294-.73,3.272,0,5.02.506l-.038.133c-3.364-.966-4.713-.937-4.854-.587-.055.136-.023.7,2.683,2.267a61.176,61.176,0,0,0,7.414,3.507c6.394,2.576,10.995,3.546,11.281,2.836.131-.325-.712-1.208-3.468-2.707l.066-.121c1.437.782,3.807,2.2,3.531,2.88-.4,1-6.143-.618-11.461-2.76a61.335,61.335,0,0,1-7.432-3.516C-1661.334,731.129-1661.641,730.945-1661.938,730.755Z" transform="translate(1663.801 -724.791)"/><path class="h" d="M-1659.328,734.419a.471.471,0,0,1-.651.143.471.471,0,0,1-.144-.651.471.471,0,0,1,.651-.143A.472.472,0,0,1-1659.328,734.419Z" transform="translate(1661.158 -728.558)"/><path class="h" d="M-1590.071,754.52a.736.736,0,0,1-1.016.224.736.736,0,0,1-.224-1.016.736.736,0,0,1,1.016-.224A.736.736,0,0,1-1590.071,754.52Z" transform="translate(1610.749 -742.994)"/></g></g><g transform="translate(-2607.313 203.583)"><path class="l" d="M-1940.986,846.046a10.62,10.62,0,0,0-10.62,10.62,10.62,10.62,0,0,0,10.62,10.619Z" transform="translate(1951.606 -846.046)"/><path class="m" d="M-1911.827,846.046a10.619,10.619,0,0,1,10.619,10.62,10.619,10.619,0,0,1-10.619,10.619Z" transform="translate(1922.447 -846.046)"/></g><g transform="translate(-2609.729 14.286)"><path class="n" d="M12.613,0A12.613,12.613,0,1,1,0,12.613,12.613,12.613,0,0,1,12.613,0Z" transform="translate(0)"/><path class="o" d="M7.407,0c4.091,0,7.407,5.139,7.407,11.479S11.5,22.958,7.407,22.958,0,17.819,0,11.479,3.316,0,7.407,0Z" transform="translate(10.414 1.134)"/></g><path class="p" d="M-2181.5,231.157l-.992-.849a95.134,95.134,0,0,1,58.536-32.361l.188,1.292A93.83,93.83,0,0,0-2181.5,231.157Z" transform="translate(-486.458 -167.385)"/><path class="p" d="M-2249.766,504.5a94.518,94.518,0,0,1-18.28-56.117,94.631,94.631,0,0,1,7.606-37.358l1.2.513a93.337,93.337,0,0,0-7.5,36.846,93.229,93.229,0,0,0,18.027,55.347Z" transform="translate(-423.746 -323.578)"/><path class="p" d="M-2079.016,853.718a95.2,95.2,0,0,1-42.361-17.277l.771-1.055a93.9,93.9,0,0,0,41.777,17.04Z" transform="translate(-531.258 -634.649)"/><path class="p" d="M-1861.938,813.621l-.181-1.293a93.8,93.8,0,0,0,58.056-31.724l.99.853A95.11,95.11,0,0,1-1861.938,813.621Z" transform="translate(-721.304 -594.492)"/><path class="p" d="M-1594.957,536.481l-1.168-.583a92.981,92.981,0,0,0,9.8-41.835,94.46,94.46,0,0,0-2.23-20.439l1.276-.283a95.8,95.8,0,0,1,2.26,20.722A94.287,94.287,0,0,1-1594.957,536.481Z" transform="translate(-916.286 -369.258)"/><path class="p" d="M-1611.745,368.677a93.679,93.679,0,0,0-11.35-21.744l1.069-.75a95.04,95.04,0,0,1,11.509,22.047Z" transform="translate(-896.516 -276.046)"/><path class="p" d="M-1800.3,230.572a94.036,94.036,0,0,0-55.787-30.728l.2-1.291a95.345,95.345,0,0,1,56.563,31.155Z" transform="translate(-725.727 -167.83)"/><path class="q" d="M-1679.422,248.577l-.212-1.337-.212,1.337-1.408.389,1.408.389.212,1.934.212-1.934,1.408-.389Z" transform="translate(-853.884 -203.518)"/><path class="e" d="M-1648.535,267.281l-.151-.955-.151.955-1.006.278,1.006.278.151,1.382.151-1.382,1.006-.278Z" transform="translate(-876.908 -217.509)"/><path class="e" d="M-1659.348,224.385l-.284-1.8-.284,1.8-1.891.523,1.891.523.284,2.6.284-2.6,1.891-.523Z" transform="translate(-868.138 -185.448)"/></g></g></svg>