<svg xmlns="http://www.w3.org/2000/svg" width="607.881" height="449.718" viewBox="0 0 607.881 449.718"><defs><style>.a{fill:#eff6ff;}.b,.c{fill:#9759FF;}.b{fill-rule:evenodd;}</style></defs><g transform="translate(112.408 -357.579)"><path class="a" d="M0,0H375V449.718H0Z" transform="translate(0 357.579)"/><g transform="translate(-3643.568 -332.508)"><g transform="translate(3531.16 692.19)"><path class="b" d="M3626.2,965.344c-.542,0-.981-.276-.981-.616s.439-.615.981-.615.979.276.979.615-.439.616-.979.616Z" transform="translate(-3566.983 -753.942)"/><path class="b" d="M3818.213,868.6c-.542,0-.979-.276-.979-.616s.438-.616.979-.616.98.276.98.616-.438.616-.98.616Z" transform="translate(-3640.115 -737.293)"/><path class="b" d="M3570.3,866.989c-.71,0-1.286-.362-1.286-.809s.576-.808,1.286-.808,1.287.362,1.287.808-.576.809-1.287.809Z" transform="translate(-3545.577 -736.95)"/><path class="b" d="M3685.424,887.773c-.71,0-1.287-.362-1.287-.809s.577-.808,1.287-.808,1.287.362,1.287.808-.577.809-1.287.809Z" transform="translate(-3589.424 -740.527)"/><path class="b" d="M3804.675,850.672c-.71,0-1.287-.362-1.287-.809s.576-.808,1.287-.808,1.287.362,1.287.808-.576.809-1.287.809Z" transform="translate(-3634.841 -734.142)"/><path class="b" d="M3603.052,896.372c-.541,0-.979-.276-.979-.616s.438-.615.979-.615.98.276.98.615-.438.616-.98.616Z" transform="translate(-3558.168 -742.073)"/><path class="b" d="M3615.246,829.768c-.71,0-1.287-.363-1.287-.809s.577-.808,1.287-.808,1.287.362,1.287.808-.576.809-1.287.809Z" transform="translate(-3562.695 -730.545)"/><path class="b" d="M3699.188,928.779c-.711,0-1.287-.362-1.287-.808s.575-.809,1.287-.809,1.286.363,1.286.809-.576.808-1.286.808Z" transform="translate(-3594.666 -747.583)"/><path class="b" d="M3646.21,849.777c.71,0,1.287.362,1.287.809s-.577.808-1.287.808-1.287-.362-1.287-.808.576-.809,1.287-.809Z" transform="translate(-3574.488 -734.267)"/><path class="b" d="M3532.448,863.967c.71,0,1.287.362,1.287.809s-.576.808-1.287.808-1.287-.362-1.287-.808.576-.809,1.287-.809Z" transform="translate(-3531.161 -736.709)"/><path class="b" d="M3723.057,917.893c.71,0,1.287.363,1.287.809s-.577.809-1.287.809-1.287-.363-1.287-.809.576-.809,1.287-.809Z" transform="translate(-3603.756 -745.988)"/><path class="b" d="M3731.085,846.7c.71,0,1.286.362,1.286.809s-.576.808-1.286.808-1.288-.362-1.288-.808.576-.809,1.288-.809Z" transform="translate(-3606.814 -733.737)"/><path class="b" d="M3618.685,909.053c.711,0,1.286.362,1.286.809s-.575.808-1.286.808-1.287-.362-1.287-.808.576-.809,1.287-.809Z" transform="translate(-3564.005 -744.467)"/><path class="b" d="M3799.707,848.013c.542,0,.979.276.979.615s-.438.616-.979.616-.979-.276-.979-.616.438-.615.979-.615Z" transform="translate(-3633.067 -733.963)"/><path class="b" d="M4099.82,932.992c.71,0,1.287-.362,1.287-.808s-.576-.809-1.287-.809-1.287.363-1.287.809.576.808,1.287.808Z" transform="translate(-3747.251 -748.309)"/><path class="b" d="M4150.645,892.829c.709,0,1.287-.362,1.287-.809s-.578-.808-1.287-.808-1.288.362-1.288.808.577.809,1.288.809Z" transform="translate(-3766.608 -741.397)"/><path class="b" d="M4164.843,866.989c.71,0,1.287-.362,1.287-.809s-.577-.808-1.287-.808-1.287.362-1.287.808.576.809,1.287.809Z" transform="translate(-3772.016 -736.95)"/><path class="b" d="M4049.717,887.773c.71,0,1.287-.362,1.287-.809s-.577-.808-1.287-.808-1.287.362-1.287.808.576.809,1.287.809Z" transform="translate(-3728.169 -740.527)"/><path class="b" d="M4161.186,916.836c.71,0,1.287-.362,1.287-.808s-.577-.809-1.287-.809-1.287.362-1.287.809.577.808,1.287.808Z" transform="translate(-3770.623 -745.528)"/><path class="b" d="M3824.854,1168.9c.71,0,1.285-.363,1.285-.809s-.575-.808-1.285-.808-1.288.362-1.288.808.576.809,1.288.809Z" transform="translate(-3642.527 -788.905)"/><path class="b" d="M4119.9,829.768c.71,0,1.286-.363,1.286-.809s-.576-.808-1.286-.808-1.288.362-1.288.808.576.809,1.288.809Z" transform="translate(-3754.897 -730.545)"/><path class="b" d="M4035.954,928.779c.711,0,1.287-.362,1.287-.808s-.576-.809-1.287-.809-1.287.363-1.287.809.576.808,1.287.808Z" transform="translate(-3722.927 -747.583)"/><path class="b" d="M4019.9,844.52c.71,0,1.287-.362,1.287-.809s-.577-.808-1.287-.808-1.288.362-1.288.808.577.809,1.288.809Z" transform="translate(-3716.811 -733.084)"/><path class="b" d="M3783.569,1176.257c-.71,0-1.287.362-1.287.809s.576.808,1.287.808,1.288-.362,1.288-.808-.576-.809-1.288-.809Z" transform="translate(-3626.803 -790.449)"/><path class="b" d="M3780.341,1190.447c-.71,0-1.287.362-1.287.809s.577.808,1.287.808,1.287-.362,1.287-.808-.576-.809-1.287-.809Z" transform="translate(-3625.574 -792.891)"/><path class="b" d="M4012.085,917.893c-.71,0-1.287.363-1.287.809s.577.809,1.287.809,1.287-.363,1.287-.809-.576-.809-1.287-.809Z" transform="translate(-3713.836 -745.988)"/><path class="b" d="M4116.458,909.053c-.71,0-1.286.362-1.286.809s.576.808,1.286.808,1.289-.362,1.289-.808-.577-.809-1.289-.809Z" transform="translate(-3753.588 -744.467)"/><path class="b" d="M4174.948,865.8c-.711,0-1.287.362-1.287.808s.576.809,1.287.809,1.286-.362,1.286-.809-.575-.808-1.286-.808Z" transform="translate(-3775.864 -737.024)"/><path class="b" d="M3790.728,919.081c-.71,0-1.286-.362-1.286-.809s.576-.808,1.286-.808,1.287.362,1.287.808-.576.809-1.287.809Z" transform="translate(-3629.53 -745.914)"/><path class="b" d="M3929.509,922.745c-.711,0-1.288-.362-1.288-.808s.577-.809,1.288-.809,1.286.362,1.286.809-.575.808-1.286.808Z" transform="translate(-3682.386 -746.545)"/><path class="b" d="M3871.015,930.877c-.711,0-1.287-.362-1.287-.808s.576-.809,1.287-.809,1.287.363,1.287.809-.576.808-1.287.808Z" transform="translate(-3660.108 -747.944)"/><path class="b" d="M4099.82,1249.556c.711,0,1.287-.362,1.287-.808s-.576-.809-1.287-.809-1.287.362-1.287.809.576.808,1.287.808Z" transform="translate(-3747.251 -802.784)"/><path class="b" d="M4150.646,1209.393c.71,0,1.287-.362,1.287-.809s-.577-.808-1.287-.808-1.288.362-1.288.808.577.809,1.288.809Z" transform="translate(-3766.608 -795.873)"/><path class="b" d="M4164.843,1183.553c.711,0,1.287-.362,1.287-.809s-.576-.808-1.287-.808-1.287.362-1.287.808.576.809,1.287.809Z" transform="translate(-3772.016 -791.426)"/><path class="b" d="M4049.717,1204.337c.711,0,1.287-.362,1.287-.809s-.576-.808-1.287-.808-1.287.362-1.287.808.576.809,1.287.809Z" transform="translate(-3728.169 -795.003)"/><path class="b" d="M4161.186,1233.4c.711,0,1.288-.362,1.288-.809s-.577-.808-1.288-.808-1.287.362-1.287.808.577.809,1.287.809Z" transform="translate(-3770.623 -800.004)"/><path class="b" d="M4130.217,1158.984c.71,0,1.286-.362,1.286-.809s-.575-.808-1.286-.808-1.287.362-1.287.808.576.809,1.287.809Z" transform="translate(-3758.828 -787.198)"/><path class="b" d="M4119.9,1146.332c.711,0,1.288-.363,1.288-.809s-.577-.808-1.288-.808-1.288.362-1.288.808.576.809,1.288.809Z" transform="translate(-3754.897 -785.021)"/><path class="b" d="M4035.955,1245.344c.71,0,1.286-.363,1.286-.809s-.576-.809-1.286-.809-1.288.362-1.288.809.576.809,1.288.809Z" transform="translate(-3722.927 -802.059)"/><path class="b" d="M4131.362,1098.021c.711,0,1.287-.362,1.287-.808s-.576-.809-1.287-.809-1.287.362-1.287.809.575.808,1.287.808Z" transform="translate(-3759.264 -776.707)"/><path class="b" d="M4071.722,1124.571c.71,0,1.287-.362,1.287-.809s-.577-.808-1.287-.808-1.287.362-1.287.808.577.809,1.287.809Z" transform="translate(-3736.549 -781.276)"/><path class="b" d="M4092.37,1083.712c.71,0,1.286-.362,1.286-.809s-.576-.808-1.286-.808-1.287.362-1.287.808.575.809,1.287.809Z" transform="translate(-3744.414 -774.245)"/><path class="b" d="M4068.281,1057.872c.711,0,1.287-.362,1.287-.809s-.576-.808-1.287-.808-1.287.362-1.287.808.576.809,1.287.809Z" transform="translate(-3735.24 -769.798)"/><path class="b" d="M4071.51,1043.682c.711,0,1.286-.362,1.286-.809s-.575-.808-1.286-.808-1.288.362-1.288.808.577.809,1.288.809Z" transform="translate(-3736.469 -767.356)"/><path class="b" d="M4145.128,989.756c.71,0,1.286-.362,1.286-.809s-.576-.808-1.286-.808-1.288.362-1.288.808.577.809,1.288.809Z" transform="translate(-3764.507 -758.077)"/><path class="b" d="M4156.379,1046.208c.711,0,1.286-.362,1.286-.809s-.575-.808-1.286-.808-1.287.362-1.287.808.576.809,1.287.809Z" transform="translate(-3768.792 -767.791)"/><path class="b" d="M4157.747,998.6c.711,0,1.287-.362,1.287-.808s-.575-.809-1.287-.809-1.287.362-1.287.809.576.808,1.287.808Z" transform="translate(-3769.313 -759.598)"/><path class="b" d="M3982.266,1041.849c.71,0,1.287-.362,1.287-.809s-.577-.808-1.287-.808-1.287.362-1.287.808.576.809,1.287.809Z" transform="translate(-3702.48 -767.041)"/><path class="b" d="M3863.915,1001.764c-.709,0-1.286.362-1.286.809s.576.808,1.286.808,1.288-.361,1.288-.808-.576-.809-1.288-.809Z" transform="translate(-3657.405 -760.421)"/><path class="b" d="M4006.568,1014.821c-.71,0-1.287.362-1.287.808s.577.809,1.287.809,1.287-.362,1.287-.809-.576-.808-1.287-.808Z" transform="translate(-3711.735 -762.668)"/><path class="b" d="M3919.434,856.907c-.71,0-1.287.362-1.287.809s.577.808,1.287.808,1.287-.362,1.287-.808-.576-.809-1.287-.809Z" transform="translate(-3678.549 -735.493)"/><path class="b" d="M4107.5,1019.876c-.711,0-1.288.362-1.288.809s.577.808,1.288.808,1.286-.362,1.286-.808-.575-.809-1.286-.809Z" transform="translate(-3750.174 -763.538)"/><path class="b" d="M4113.018,990.813c-.709,0-1.287.362-1.287.809s.577.808,1.287.808,1.288-.362,1.288-.808-.576-.809-1.288-.809Z" transform="translate(-3752.278 -758.537)"/><path class="b" d="M4027,1065.229c-.71,0-1.287.363-1.287.809s.576.809,1.287.809,1.287-.363,1.287-.809-.576-.809-1.287-.809Z" transform="translate(-3719.516 -771.343)"/><path class="b" d="M4154.308,1077.882c-.709,0-1.286.362-1.286.808s.577.809,1.286.809,1.288-.362,1.288-.809-.576-.808-1.288-.808Z" transform="translate(-3768.004 -773.52)"/><path class="b" d="M4121.259,978.87c-.71,0-1.286.362-1.286.809s.576.808,1.286.808,1.287-.362,1.287-.808-.576-.809-1.287-.809Z" transform="translate(-3755.417 -756.482)"/><path class="b" d="M4137.315,1063.13c-.709,0-1.286.362-1.286.808s.576.809,1.286.809,1.289-.363,1.289-.809-.576-.808-1.289-.808Z" transform="translate(-3761.533 -770.981)"/><path class="b" d="M4085.492,1099.642c-.711,0-1.288.362-1.288.809s.577.808,1.288.808,1.287-.362,1.287-.808-.576-.809-1.287-.809Z" transform="translate(-3741.793 -777.265)"/><path class="b" d="M4064.844,1140.5c-.71,0-1.287.362-1.287.808s.577.809,1.287.809,1.287-.362,1.287-.809-.576-.808-1.287-.808Z" transform="translate(-3733.93 -784.296)"/><path class="b" d="M4088.932,1166.341c-.71,0-1.287.362-1.287.809s.576.808,1.287.808,1.287-.362,1.287-.808-.575-.809-1.287-.809Z" transform="translate(-3743.104 -788.743)"/><path class="b" d="M4085.7,1180.531c-.71,0-1.287.363-1.287.809s.576.808,1.287.808,1.287-.362,1.287-.808-.577-.809-1.287-.809Z" transform="translate(-3741.875 -791.184)"/><path class="b" d="M4012.087,1234.458c-.712,0-1.288.362-1.288.808s.576.809,1.288.809,1.286-.363,1.286-.809-.576-.808-1.286-.808Z" transform="translate(-3713.837 -800.464)"/><path class="b" d="M4004.058,1163.265c-.71,0-1.287.362-1.287.809s.576.808,1.287.808,1.287-.362,1.287-.808-.576-.809-1.287-.809Z" transform="translate(-3710.779 -788.213)"/><path class="b" d="M4116.458,1225.617c-.71,0-1.287.362-1.287.809s.577.808,1.287.808,1.288-.362,1.288-.808-.577-.809-1.288-.809Z" transform="translate(-3753.588 -798.943)"/><path class="b" d="M4174.948,1182.365c-.711,0-1.287.362-1.287.808s.576.808,1.287.808,1.288-.361,1.288-.808-.577-.808-1.288-.808Z" transform="translate(-3775.864 -791.5)"/><path class="b" d="M3626.2,1206.411c-.542,0-.98-.276-.98-.616s.438-.615.98-.615.98.276.98.615-.439.616-.98.616Z" transform="translate(-3566.984 -795.426)"/><path class="b" d="M3587.5,1175.826c-.542,0-.979-.276-.979-.616s.438-.615.979-.615.98.276.98.615-.438.616-.98.616Z" transform="translate(-3552.243 -790.163)"/><path class="b" d="M3570.3,1183.553c-.711,0-1.287-.362-1.287-.809s.576-.808,1.287-.808,1.287.362,1.287.808-.577.809-1.287.809Z" transform="translate(-3545.577 -791.426)"/><path class="b" d="M3685.425,1204.337c-.711,0-1.288-.362-1.288-.809s.577-.808,1.288-.808,1.287.362,1.287.808-.575.809-1.287.809Z" transform="translate(-3589.424 -795.003)"/><path class="b" d="M3573.957,1233.4c-.711,0-1.286-.362-1.286-.809s.576-.808,1.286-.808,1.287.362,1.287.808-.576.809-1.287.809Z" transform="translate(-3546.97 -800.004)"/><path class="b" d="M3603.053,1137.439c-.541,0-.98-.276-.98-.616s.439-.615.98-.615.98.276.98.615-.438.616-.98.616Z" transform="translate(-3558.168 -783.557)"/><path class="b" d="M3615.247,1146.332c-.711,0-1.288-.363-1.288-.809s.577-.808,1.288-.808,1.286.362,1.286.808-.576.809-1.286.809Z" transform="translate(-3562.695 -785.021)"/><path class="b" d="M3699.189,1245.344c-.711,0-1.287-.363-1.287-.809s.576-.809,1.287-.809,1.286.362,1.286.809-.575.809-1.286.809Z" transform="translate(-3594.666 -802.059)"/><path class="b" d="M3715.245,1161.084c-.71,0-1.287-.363-1.287-.809s.577-.808,1.287-.808,1.287.362,1.287.808-.575.809-1.287.809Z" transform="translate(-3600.781 -787.56)"/><path class="b" d="M3546.43,1124.571c-.711,0-1.287-.362-1.287-.809s.576-.808,1.287-.808,1.287.362,1.287.808-.576.809-1.287.809Z" transform="translate(-3536.486 -781.276)"/><path class="b" d="M3642.773,1083.712c-.711,0-1.287-.362-1.287-.809s.576-.808,1.287-.808,1.287.362,1.287.808-.576.809-1.287.809Z" transform="translate(-3573.179 -774.245)"/><path class="b" d="M3549.871,1057.872c-.711,0-1.287-.362-1.287-.809s.576-.808,1.287-.808,1.287.362,1.287.808-.576.809-1.287.809Z" transform="translate(-3537.796 -769.798)"/><path class="b" d="M3663.633,1043.682c-.711,0-1.287-.362-1.287-.809s.576-.808,1.287-.808,1.287.362,1.287.808-.576.809-1.287.809Z" transform="translate(-3581.124 -767.356)"/><path class="b" d="M3591.7,1008.57c-.541,0-.979-.276-.979-.616s.439-.615.979-.615.981.276.981.615-.439.616-.981.616Z" transform="translate(-3553.844 -761.381)"/><path class="b" d="M3585.578,1095.292c-.541,0-.979-.275-.979-.615s.438-.616.979-.616.98.276.98.616-.438.615-.98.615Z" transform="translate(-3551.513 -776.304)"/><path class="b" d="M3577.4,998.6c-.71,0-1.287-.362-1.287-.808s.576-.809,1.287-.809,1.287.362,1.287.809-.576.808-1.287.808Z" transform="translate(-3548.28 -759.598)"/><path class="b" d="M3752.877,1041.849c-.711,0-1.286-.362-1.286-.809s.575-.808,1.286-.808,1.287.362,1.287.808-.576.809-1.287.809Z" transform="translate(-3615.114 -767.041)"/><path class="b" d="M3677.75,974.657c.71,0,1.287.362,1.287.809s-.577.808-1.287.808-1.287-.362-1.287-.808.576-.809,1.287-.809Z" transform="translate(-3586.5 -755.757)"/><path class="b" d="M3728.575,1014.821c.71,0,1.286.362,1.286.808s-.576.809-1.286.809-1.288-.362-1.288-.809.576-.808,1.288-.808Z" transform="translate(-3605.858 -762.668)"/><path class="b" d="M3855.942,748.331c.711,0,1.287.363,1.287.809s-.576.809-1.287.809-1.286-.363-1.286-.809.576-.809,1.286-.809Z" transform="translate(-3654.368 -716.809)"/><path class="b" d="M3850.515,739.179c.541,0,.979.275.979.615s-.439.616-.979.616-.981-.276-.981-.616.439-.615.981-.615Z" transform="translate(-3652.417 -715.234)"/><path class="b" d="M3622.125,990.813c.71,0,1.286.362,1.286.809s-.576.808-1.286.808-1.288-.362-1.288-.808.576-.809,1.288-.809Z" transform="translate(-3565.314 -758.537)"/><path class="b" d="M3708.145,1065.229c.711,0,1.286.363,1.286.809s-.575.809-1.286.809-1.288-.363-1.288-.809.577-.809,1.288-.809Z" transform="translate(-3598.077 -771.343)"/><path class="b" d="M3580.835,1077.882c.71,0,1.287.362,1.287.808s-.577.809-1.287.809-1.287-.362-1.287-.809.575-.808,1.287-.808Z" transform="translate(-3549.59 -773.52)"/><path class="b" d="M3609.873,1000.281c.542,0,.98.276.98.615s-.438.616-.98.616-.98-.276-.98-.616.439-.615.98-.615Z" transform="translate(-3560.766 -760.166)"/><path class="b" d="M3597.646,1064.445c.542,0,.98.276.98.616s-.439.616-.98.616-.98-.276-.98-.616.439-.616.98-.616Z" transform="translate(-3556.109 -771.208)"/><path class="b" d="M3649.652,1099.642c.711,0,1.286.362,1.286.809s-.575.808-1.286.808-1.287-.362-1.287-.808.577-.809,1.287-.809Z" transform="translate(-3575.799 -777.265)"/><path class="b" d="M3553.308,1140.5c.711,0,1.287.362,1.287.808s-.576.809-1.287.809-1.287-.362-1.287-.809.577-.808,1.287-.808Z" transform="translate(-3539.105 -784.296)"/><path class="b" d="M3646.209,1166.341c.712,0,1.288.362,1.288.809s-.576.808-1.288.808-1.286-.362-1.286-.808.577-.809,1.286-.809Z" transform="translate(-3574.488 -788.743)"/><path class="b" d="M3532.448,1180.531c.71,0,1.287.363,1.287.809s-.576.808-1.287.808-1.287-.362-1.287-.808.576-.809,1.287-.809Z" transform="translate(-3531.161 -791.184)"/><path class="b" d="M3723.057,1234.458c.71,0,1.287.362,1.287.808s-.577.809-1.287.809-1.287-.363-1.287-.809.577-.808,1.287-.808Z" transform="translate(-3603.756 -800.464)"/><path class="b" d="M3790.939,1074.082c.71,0,1.287.362,1.287.809s-.576.808-1.287.808-1.288-.362-1.288-.808.577-.809,1.288-.809Z" transform="translate(-3629.61 -772.866)"/><path class="b" d="M3618.685,1225.617c.71,0,1.287.362,1.287.809s-.576.808-1.287.808-1.287-.362-1.287-.808.575-.809,1.287-.809Z" transform="translate(-3564.005 -798.943)"/><path class="b" d="M3568.989,1155.244c.542,0,.98.276.98.616s-.438.615-.98.615-.979-.276-.979-.615.438-.616.979-.616Z" transform="translate(-3545.195 -786.833)"/><path class="b" d="M3944.414,1235.645c.71,0,1.287-.362,1.287-.809s-.577-.808-1.287-.808-1.287.362-1.287.808.576.809,1.287.809Z" transform="translate(-3688.063 -800.391)"/><path class="b" d="M3805.634,1239.309c.711,0,1.287-.362,1.287-.808s-.576-.809-1.287-.809-1.287.362-1.287.809.577.808,1.287.808Z" transform="translate(-3635.207 -801.021)"/><path class="b" d="M3864.127,1247.441c.71,0,1.287-.362,1.287-.808s-.577-.809-1.287-.809-1.287.363-1.287.809.577.808,1.287.808Z" transform="translate(-3657.485 -802.42)"/><path class="b" d="M3918.033,1063.755c.71,0,1.287-.362,1.287-.808s-.576-.809-1.287-.809-1.287.362-1.287.809.576.808,1.287.808Z" transform="translate(-3678.015 -770.811)"/><path class="b" d="M3808.858,1051.545c.711,0,1.287-.363,1.287-.809s-.576-.808-1.287-.808-1.287.362-1.287.808.577.809,1.287.809Z" transform="translate(-3636.435 -768.709)"/><path class="b" d="M3872.508,992c.71,0,1.286-.362,1.286-.809s-.576-.808-1.286-.808-1.288.362-1.288.808.576.809,1.288.809Z" transform="translate(-3660.676 -758.462)"/><path class="b" d="M3626.2,847.451c-.542,0-.981-.276-.981-.616s.439-.616.981-.616.979.276.979.616-.439.616-.979.616Z" transform="translate(-3566.983 -733.654)"/><path class="b" d="M3587.5,816.866c-.542,0-.979-.276-.979-.616s.438-.616.979-.616.98.276.98.616-.439.616-.98.616Z" transform="translate(-3552.243 -728.391)"/><path class="b" d="M3570.3,749.1c-.71,0-1.286-.362-1.286-.809s.576-.808,1.286-.808,1.287.362,1.287.808-.576.809-1.287.809Z" transform="translate(-3545.577 -716.662)"/><path class="b" d="M3685.424,769.88c-.71,0-1.287-.362-1.287-.809s.577-.808,1.287-.808,1.287.362,1.287.808-.577.809-1.287.809Z" transform="translate(-3589.424 -720.239)"/><path class="b" d="M3573.957,798.943c-.711,0-1.286-.362-1.286-.809s.576-.808,1.286-.808,1.287.362,1.287.808-.576.809-1.287.809Z" transform="translate(-3546.97 -725.24)"/><path class="b" d="M3603.052,778.479c-.541,0-.979-.276-.979-.616s.438-.615.979-.615.98.275.98.615-.438.616-.98.616Z" transform="translate(-3558.168 -721.785)"/><path class="b" d="M3615.246,711.874c-.71,0-1.287-.362-1.287-.808s.577-.809,1.287-.809,1.287.362,1.287.809-.576.808-1.287.808Z" transform="translate(-3562.695 -710.257)"/><path class="b" d="M3699.188,810.886c-.711,0-1.287-.362-1.287-.809s.575-.808,1.287-.808,1.286.362,1.286.808-.576.809-1.286.809Z" transform="translate(-3594.666 -727.296)"/><path class="b" d="M3646.21,731.884c.71,0,1.287.362,1.287.809s-.577.808-1.287.808-1.287-.362-1.287-.808.576-.809,1.287-.809Z" transform="translate(-3574.488 -713.979)"/><path class="b" d="M3532.448,746.074c.71,0,1.287.362,1.287.809s-.576.808-1.287.808-1.287-.362-1.287-.808.576-.809,1.287-.809Z" transform="translate(-3531.161 -716.421)"/><path class="b" d="M3723.057,800c.71,0,1.287.362,1.287.809s-.577.808-1.287.808-1.287-.362-1.287-.808.576-.809,1.287-.809Z" transform="translate(-3603.756 -725.701)"/><path class="b" d="M3731.085,728.808c.71,0,1.286.362,1.286.808s-.576.809-1.286.809-1.288-.363-1.288-.809.576-.808,1.288-.808Z" transform="translate(-3606.814 -713.449)"/><path class="b" d="M3618.685,791.16c.711,0,1.286.362,1.286.808s-.575.809-1.286.809-1.287-.362-1.287-.809.576-.808,1.287-.808Z" transform="translate(-3564.005 -724.179)"/><path class="b" d="M3568.989,796.284c.541,0,.979.276.979.615s-.438.616-.979.616-.98-.276-.98-.616.438-.615.98-.615Z" transform="translate(-3545.195 -725.061)"/><path class="b" d="M4099.82,815.1c.71,0,1.287-.362,1.287-.809s-.576-.808-1.287-.808-1.287.362-1.287.808.576.809,1.287.809Z" transform="translate(-3747.251 -728.021)"/><path class="b" d="M4150.645,774.935c.709,0,1.287-.362,1.287-.808s-.578-.809-1.287-.809-1.288.362-1.288.809.577.808,1.288.808Z" transform="translate(-3766.608 -721.109)"/><path class="b" d="M4164.843,749.1c.71,0,1.287-.362,1.287-.809s-.577-.808-1.287-.808-1.287.362-1.287.808.576.809,1.287.809Z" transform="translate(-3772.016 -716.662)"/><path class="b" d="M4049.717,769.88c.71,0,1.287-.362,1.287-.809s-.577-.808-1.287-.808-1.287.362-1.287.808.576.809,1.287.809Z" transform="translate(-3728.169 -720.239)"/><path class="b" d="M4161.186,798.943c.71,0,1.287-.362,1.287-.809s-.577-.808-1.287-.808-1.287.362-1.287.808.577.809,1.287.809Z" transform="translate(-3770.623 -725.24)"/><path class="b" d="M4130.216,724.526c.711,0,1.286-.362,1.286-.808s-.575-.809-1.286-.809-1.288.363-1.288.809.576.808,1.288.808Z" transform="translate(-3758.828 -712.434)"/><path class="b" d="M4119.9,711.874c.71,0,1.286-.362,1.286-.808s-.576-.809-1.286-.809-1.288.362-1.288.809.576.808,1.288.808Z" transform="translate(-3754.897 -710.257)"/><path class="b" d="M4035.954,810.886c.711,0,1.287-.362,1.287-.809s-.576-.808-1.287-.808-1.287.362-1.287.808.576.809,1.287.809Z" transform="translate(-3722.927 -727.296)"/><path class="b" d="M4019.9,726.626c.71,0,1.287-.362,1.287-.808s-.577-.809-1.287-.809-1.288.362-1.288.809.577.808,1.288.808Z" transform="translate(-3716.811 -712.796)"/><path class="b" d="M4088.932,731.884c-.71,0-1.287.362-1.287.809s.576.808,1.287.808,1.287-.362,1.287-.808-.576-.809-1.287-.809Z" transform="translate(-3743.104 -713.979)"/><path class="b" d="M4085.7,746.074c-.71,0-1.286.362-1.286.809s.576.808,1.286.808,1.288-.362,1.288-.808-.576-.809-1.288-.809Z" transform="translate(-3741.875 -716.421)"/><path class="b" d="M4012.085,800c-.71,0-1.287.362-1.287.809s.577.808,1.287.808,1.287-.362,1.287-.808-.576-.809-1.287-.809Z" transform="translate(-3713.836 -725.701)"/><path class="b" d="M4116.458,791.16c-.71,0-1.286.362-1.286.808s.576.809,1.286.809,1.289-.362,1.289-.809-.577-.808-1.289-.808Z" transform="translate(-3753.588 -724.179)"/><path class="b" d="M4174.948,747.907c-.711,0-1.287.362-1.287.809s.576.808,1.287.808,1.286-.362,1.286-.808-.575-.809-1.286-.809Z" transform="translate(-3775.864 -716.736)"/><path class="b" d="M3790.728,801.188c-.71,0-1.286-.363-1.286-.809s.576-.808,1.286-.808,1.287.362,1.287.808-.576.809-1.287.809Z" transform="translate(-3629.53 -725.627)"/><path class="b" d="M3929.509,804.852c-.711,0-1.288-.362-1.288-.809s.577-.808,1.288-.808,1.286.362,1.286.808-.575.809-1.286.809Z" transform="translate(-3682.386 -726.257)"/><path class="b" d="M3871.015,812.984c-.711,0-1.287-.362-1.287-.809s.576-.808,1.287-.808,1.287.362,1.287.808-.576.809-1.287.809Z" transform="translate(-3660.108 -727.656)"/><path class="b" d="M4099.82,1131.663c.711,0,1.287-.362,1.287-.809s-.576-.808-1.287-.808-1.287.362-1.287.808.576.809,1.287.809Z" transform="translate(-3747.251 -782.497)"/><path class="b" d="M4150.646,1091.5c.71,0,1.287-.362,1.287-.808s-.577-.809-1.287-.809-1.288.362-1.288.809.577.808,1.288.808Z" transform="translate(-3766.608 -775.585)"/><path class="b" d="M4164.843,1065.66c.711,0,1.287-.362,1.287-.809s-.576-.808-1.287-.808-1.287.362-1.287.808.576.809,1.287.809Z" transform="translate(-3772.016 -771.138)"/><path class="b" d="M4049.717,1086.444c.711,0,1.287-.362,1.287-.809s-.576-.808-1.287-.808-1.287.362-1.287.808.576.809,1.287.809Z" transform="translate(-3728.169 -774.715)"/><path class="b" d="M4161.186,1115.507c.711,0,1.288-.362,1.288-.809s-.577-.808-1.288-.808-1.287.362-1.287.808.577.809,1.287.809Z" transform="translate(-3770.623 -779.716)"/><path class="b" d="M3940.289,857.338c.71,0,1.287-.363,1.287-.809s-.577-.809-1.287-.809-1.287.363-1.287.809.576.809,1.287.809Z" transform="translate(-3686.492 -735.289)"/><path class="b" d="M3929.969,844.685c.71,0,1.286-.362,1.286-.808s-.576-.809-1.286-.809-1.288.362-1.288.809.576.808,1.288.808Z" transform="translate(-3682.561 -733.112)"/><path class="b" d="M4035.955,1127.45c.71,0,1.286-.362,1.286-.808s-.576-.809-1.286-.809-1.288.362-1.288.809.576.808,1.288.808Z" transform="translate(-3722.927 -781.772)"/><path class="b" d="M4131.362,980.128c.711,0,1.287-.362,1.287-.809s-.576-.808-1.287-.808-1.287.362-1.287.808.575.809,1.287.809Z" transform="translate(-3759.264 -756.42)"/><path class="b" d="M4071.722,1006.678c.71,0,1.287-.362,1.287-.809s-.577-.808-1.287-.808-1.287.362-1.287.808.577.809,1.287.809Z" transform="translate(-3736.549 -760.989)"/><path class="b" d="M3898.893,992.925c.71,0,1.286-.362,1.286-.808s-.576-.809-1.286-.809-1.288.362-1.288.809.576.808,1.288.808Z" transform="translate(-3670.725 -758.622)"/><path class="b" d="M3874.8,967.086c.71,0,1.286-.363,1.286-.809s-.576-.808-1.286-.808-1.288.362-1.288.808.577.809,1.288.809Z" transform="translate(-3661.551 -754.175)"/><path class="b" d="M4071.51,925.789c.711,0,1.286-.362,1.286-.809s-.575-.808-1.286-.808-1.288.362-1.288.808.577.809,1.288.809Z" transform="translate(-3736.469 -747.069)"/><path class="b" d="M4145.128,871.862c.71,0,1.286-.362,1.286-.808s-.576-.809-1.286-.809-1.288.363-1.288.809.577.808,1.288.808Z" transform="translate(-3764.507 -737.789)"/><path class="b" d="M4156.379,928.315c.711,0,1.286-.362,1.286-.809s-.575-.808-1.286-.808-1.287.362-1.287.808.576.809,1.287.809Z" transform="translate(-3768.792 -747.503)"/><path class="b" d="M4157.747,880.7c.711,0,1.287-.362,1.287-.809s-.575-.808-1.287-.808-1.287.362-1.287.808.576.809,1.287.809Z" transform="translate(-3769.313 -739.31)"/><path class="b" d="M3982.266,923.955c.71,0,1.287-.362,1.287-.808s-.577-.809-1.287-.809-1.287.362-1.287.809.576.808,1.287.808Z" transform="translate(-3702.48 -746.753)"/><path class="b" d="M4057.394,856.764c-.711,0-1.286.362-1.286.808s.575.809,1.286.809,1.287-.363,1.287-.809-.576-.808-1.287-.808Z" transform="translate(-3731.093 -735.469)"/><path class="b" d="M4006.568,896.927c-.71,0-1.287.362-1.287.809s.577.808,1.287.808,1.287-.362,1.287-.808-.576-.809-1.287-.809Z" transform="translate(-3711.735 -742.38)"/><path class="b" d="M4109.361,922.767c-.71,0-1.287.362-1.287.809s.577.808,1.287.808,1.288-.362,1.288-.808-.577-.809-1.288-.809Z" transform="translate(-3750.885 -746.827)"/><path class="b" d="M4107.5,901.983c-.711,0-1.288.362-1.288.809s.577.808,1.288.808,1.286-.362,1.286-.808-.575-.809-1.286-.809Z" transform="translate(-3750.174 -743.25)"/><path class="b" d="M3807.656,1199.4c-.71,0-1.287.362-1.287.808s.577.809,1.287.809,1.287-.362,1.287-.809-.576-.808-1.287-.808Z" transform="translate(-3635.977 -794.432)"/><path class="b" d="M3833.521,974.443c-.71,0-1.287.362-1.287.809s.576.808,1.287.808,1.287-.362,1.287-.808-.576-.809-1.287-.809Z" transform="translate(-3645.828 -755.72)"/><path class="b" d="M4154.308,959.988c-.709,0-1.286.362-1.286.809s.577.808,1.286.808,1.288-.362,1.288-.808-.576-.809-1.288-.809Z" transform="translate(-3768.004 -753.232)"/><path class="b" d="M3815.9,1187.457c-.71,0-1.287.362-1.287.808s.577.809,1.287.809,1.287-.363,1.287-.809-.576-.808-1.287-.808Z" transform="translate(-3639.115 -792.376)"/><path class="b" d="M4137.315,945.236c-.709,0-1.286.363-1.286.809s.576.808,1.286.808,1.289-.362,1.289-.808-.576-.809-1.289-.809Z" transform="translate(-3761.533 -750.694)"/><path class="b" d="M3892.014,1008.856c-.711,0-1.287.362-1.287.808s.576.809,1.287.809,1.288-.362,1.288-.809-.577-.808-1.288-.808Z" transform="translate(-3668.106 -761.642)"/><path class="b" d="M4064.844,1022.608c-.71,0-1.287.362-1.287.809s.577.808,1.287.808,1.287-.362,1.287-.808-.576-.809-1.287-.809Z" transform="translate(-3733.93 -764.008)"/><path class="b" d="M3899,864.7c-.71,0-1.287.362-1.287.809s.577.808,1.287.808,1.287-.362,1.287-.808-.576-.809-1.287-.809Z" transform="translate(-3670.769 -736.834)"/><path class="b" d="M3895.775,878.885c-.709,0-1.286.362-1.286.809s.577.808,1.286.808,1.288-.362,1.288-.808-.576-.809-1.288-.809Z" transform="translate(-3669.539 -739.276)"/><path class="b" d="M4012.087,1116.564c-.712,0-1.288.363-1.288.809s.576.808,1.288.808,1.286-.362,1.286-.808-.576-.809-1.286-.809Z" transform="translate(-3713.837 -780.177)"/><path class="b" d="M4004.058,1045.372c-.71,0-1.287.362-1.287.808s.576.809,1.287.809,1.287-.363,1.287-.809-.576-.808-1.287-.808Z" transform="translate(-3710.779 -767.925)"/><path class="b" d="M3936.388,1193.625c.709,0,1.286-.362,1.286-.808s-.576-.809-1.286-.809-1.288.362-1.288.809.577.808,1.288.808Z" transform="translate(-3685.005 -793.159)"/><path class="b" d="M3939.615,1179.435c.711,0,1.286-.362,1.286-.808s-.575-.809-1.286-.809-1.287.362-1.287.809.576.808,1.287.808Z" transform="translate(-3686.235 -790.718)"/><path class="b" d="M3895.1,1200.983c-.71,0-1.287.362-1.287.808s.577.809,1.287.809,1.287-.362,1.287-.809-.576-.808-1.287-.808Z" transform="translate(-3669.283 -794.704)"/><path class="b" d="M3917.823,1222.2c.71,0,1.286-.362,1.286-.809s-.576-.808-1.286-.808-1.288.362-1.288.808.576.809,1.288.809Z" transform="translate(-3677.936 -798.076)"/><path class="b" d="M3932.949,1158.362c-.71,0-1.287.362-1.287.808s.577.809,1.287.809,1.288-.363,1.288-.809-.576-.808-1.288-.808Z" transform="translate(-3683.696 -787.369)"/><path class="b" d="M3872.164,1181.125c-.711,0-1.287.362-1.287.808s.576.809,1.287.809,1.286-.362,1.286-.809-.576-.808-1.286-.808Z" transform="translate(-3660.545 -791.287)"/><path class="b" d="M4116.458,1107.724c-.71,0-1.287.362-1.287.808s.577.809,1.287.809,1.288-.362,1.288-.809-.577-.808-1.288-.808Z" transform="translate(-3753.588 -778.655)"/><path class="b" d="M4174.948,1064.471c-.711,0-1.287.363-1.287.809s.576.808,1.287.808,1.288-.362,1.288-.808-.577-.809-1.288-.809Z" transform="translate(-3775.864 -771.212)"/><path class="b" d="M3626.2,1088.518c-.542,0-.98-.276-.98-.616s.438-.616.98-.616.98.277.98.616-.439.616-.98.616Z" transform="translate(-3566.984 -775.138)"/><path class="b" d="M3587.5,1057.933c-.542,0-.979-.276-.979-.616s.438-.615.979-.615.98.275.98.615-.438.616-.98.616Z" transform="translate(-3552.243 -769.875)"/><path class="b" d="M3570.3,1065.66c-.711,0-1.287-.362-1.287-.809s.576-.808,1.287-.808,1.287.362,1.287.808-.577.809-1.287.809Z" transform="translate(-3545.577 -771.138)"/><path class="b" d="M3685.425,1086.444c-.711,0-1.288-.362-1.288-.809s.577-.808,1.288-.808,1.287.362,1.287.808-.575.809-1.287.809Z" transform="translate(-3589.424 -774.715)"/><path class="b" d="M3573.957,1115.507c-.711,0-1.286-.362-1.286-.809s.576-.808,1.286-.808,1.287.362,1.287.808-.576.809-1.287.809Z" transform="translate(-3546.97 -779.716)"/><path class="b" d="M3833.213,727.217c-.542,0-.979-.276-.979-.616s.438-.615.979-.615.981.276.981.615-.439.616-.981.616Z" transform="translate(-3645.828 -712.964)"/><path class="b" d="M3845.407,736.11c-.71,0-1.286-.363-1.286-.809s.576-.809,1.286-.809,1.287.363,1.287.809-.576.809-1.287.809Z" transform="translate(-3650.355 -714.428)"/><path class="b" d="M3699.189,1127.45c-.711,0-1.287-.362-1.287-.808s.576-.809,1.287-.809,1.286.362,1.286.809-.575.808-1.286.808Z" transform="translate(-3594.666 -781.772)"/><path class="b" d="M3715.245,1043.19c-.71,0-1.287-.361-1.287-.808s.577-.809,1.287-.809,1.287.362,1.287.809-.575.808-1.287.808Z" transform="translate(-3600.781 -767.272)"/><path class="b" d="M3546.43,1006.678c-.711,0-1.287-.362-1.287-.809s.576-.808,1.287-.808,1.287.362,1.287.808-.576.809-1.287.809Z" transform="translate(-3536.486 -760.989)"/><path class="b" d="M3642.773,965.818c-.711,0-1.287-.362-1.287-.808s.576-.809,1.287-.809,1.287.362,1.287.809-.576.808-1.287.808Z" transform="translate(-3573.179 -753.957)"/><path class="b" d="M3549.871,939.979c-.711,0-1.287-.362-1.287-.809s.576-.808,1.287-.808,1.287.362,1.287.808-.576.809-1.287.809Z" transform="translate(-3537.796 -749.511)"/><path class="b" d="M3663.633,925.789c-.711,0-1.287-.362-1.287-.809s.576-.808,1.287-.808,1.287.362,1.287.808-.576.809-1.287.809Z" transform="translate(-3581.124 -747.069)"/><path class="b" d="M3591.7,890.677c-.541,0-.979-.276-.979-.616s.439-.615.979-.615.981.275.981.615-.439.616-.981.616Z" transform="translate(-3553.844 -741.093)"/><path class="b" d="M3585.578,977.4c-.541,0-.979-.276-.979-.616s.438-.615.979-.615.98.276.98.615-.438.616-.98.616Z" transform="translate(-3551.513 -756.016)"/><path class="b" d="M3577.4,880.7c-.71,0-1.287-.362-1.287-.809s.576-.808,1.287-.808,1.287.362,1.287.808-.576.809-1.287.809Z" transform="translate(-3548.28 -739.31)"/><path class="b" d="M3752.877,923.955c-.711,0-1.286-.362-1.286-.808s.575-.809,1.286-.809,1.287.362,1.287.809-.576.808-1.287.808Z" transform="translate(-3615.114 -746.753)"/><path class="b" d="M3677.75,856.764c.71,0,1.287.362,1.287.808s-.577.809-1.287.809-1.287-.363-1.287-.809.576-.808,1.287-.808Z" transform="translate(-3586.5 -735.469)"/><path class="b" d="M3728.575,896.927c.71,0,1.286.362,1.286.809s-.576.808-1.286.808-1.288-.362-1.288-.808.576-.809,1.288-.809Z" transform="translate(-3605.858 -742.38)"/><path class="b" d="M3625.782,922.767c.711,0,1.287.362,1.287.809s-.576.808-1.287.808-1.286-.362-1.286-.808.575-.809,1.286-.809Z" transform="translate(-3566.709 -746.827)"/><path class="b" d="M3620.354,913.614c.541,0,.979.276.979.616s-.438.615-.979.615-.98-.276-.98-.615.438-.616.98-.616Z" transform="translate(-3564.758 -745.252)"/><path class="b" d="M3622.125,872.92c.71,0,1.286.362,1.286.808s-.576.809-1.286.809-1.288-.362-1.288-.809.576-.808,1.288-.808Z" transform="translate(-3565.314 -738.249)"/><path class="b" d="M3708.145,947.336c.711,0,1.286.362,1.286.809s-.575.808-1.286.808-1.288-.362-1.288-.808.577-.809,1.288-.809Z" transform="translate(-3598.077 -751.055)"/><path class="b" d="M3580.835,959.988c.71,0,1.287.362,1.287.809s-.577.808-1.287.808-1.287-.362-1.287-.808.575-.809,1.287-.809Z" transform="translate(-3549.59 -753.232)"/><path class="b" d="M3609.873,882.387c.542,0,.98.276.98.616s-.438.615-.98.615-.98-.275-.98-.615.439-.616.98-.616Z" transform="translate(-3560.766 -739.878)"/><path class="b" d="M3828.365,880.388c.541,0,.979.276.979.615s-.438.616-.979.616-.98-.276-.98-.616.438-.615.98-.615Z" transform="translate(-3643.981 -739.534)"/><path class="b" d="M3649.652,981.749c.711,0,1.286.362,1.286.809s-.575.808-1.286.808-1.287-.362-1.287-.808.577-.809,1.287-.809Z" transform="translate(-3575.799 -756.977)"/><path class="b" d="M3553.308,1022.608c.711,0,1.287.362,1.287.809s-.576.808-1.287.808-1.287-.362-1.287-.808.577-.809,1.287-.809Z" transform="translate(-3539.105 -764.008)"/><path class="b" d="M3876.371,756.119c.711,0,1.287.362,1.287.809s-.575.808-1.287.808-1.288-.362-1.288-.808.577-.809,1.288-.809Z" transform="translate(-3662.148 -718.149)"/><path class="b" d="M3532.448,1062.638c.71,0,1.287.362,1.287.809s-.576.808-1.287.808-1.287-.362-1.287-.808.576-.809,1.287-.809Z" transform="translate(-3531.161 -770.897)"/><path class="b" d="M3723.057,1116.564c.71,0,1.287.363,1.287.809s-.577.808-1.287.808-1.287-.362-1.287-.808.577-.809,1.287-.809Z" transform="translate(-3603.756 -780.177)"/><path class="b" d="M3790.939,956.188c.71,0,1.287.363,1.287.809s-.576.809-1.287.809-1.288-.363-1.288-.809.577-.809,1.288-.809Z" transform="translate(-3629.61 -752.578)"/><path class="b" d="M3618.685,1107.724c.71,0,1.287.362,1.287.808s-.576.809-1.287.809-1.287-.362-1.287-.809.575-.808,1.287-.808Z" transform="translate(-3564.005 -778.655)"/><path class="b" d="M3568.989,1037.351c.542,0,.98.276.98.616s-.438.615-.98.615-.979-.276-.979-.615.438-.616.979-.616Z" transform="translate(-3545.195 -766.545)"/><path class="b" d="M3944.414,1117.752c.71,0,1.287-.362,1.287-.809s-.577-.808-1.287-.808-1.287.362-1.287.808.576.809,1.287.809Z" transform="translate(-3688.063 -780.103)"/><path class="b" d="M3805.634,1121.416c.711,0,1.287-.362,1.287-.809s-.576-.808-1.287-.808-1.287.362-1.287.808.577.809,1.287.809Z" transform="translate(-3635.207 -780.733)"/><path class="b" d="M3864.127,1129.548c.71,0,1.287-.362,1.287-.809s-.577-.808-1.287-.808-1.287.362-1.287.808.577.809,1.287.809Z" transform="translate(-3657.485 -782.133)"/><path class="b" d="M3918.033,945.862c.71,0,1.287-.362,1.287-.809s-.576-.808-1.287-.808-1.287.362-1.287.808.576.809,1.287.809Z" transform="translate(-3678.015 -750.523)"/><path class="b" d="M3808.858,933.651c.711,0,1.287-.362,1.287-.809s-.576-.808-1.287-.808-1.287.362-1.287.808.577.809,1.287.809Z" transform="translate(-3636.435 -748.422)"/><path class="b" d="M4065.984,847c.711,0,1.288-.363,1.288-.809s-.576-.808-1.288-.808-1.287.362-1.287.808.577.809,1.287.809Z" transform="translate(-3734.365 -733.51)"/><path class="b" d="M4434.98,932.992c.71,0,1.287-.362,1.287-.808s-.577-.809-1.287-.809-1.287.363-1.287.809.576.808,1.287.808Z" transform="translate(-3874.901 -748.309)"/><path class="b" d="M4485.805,892.829c.709,0,1.286-.362,1.286-.809s-.576-.808-1.286-.808-1.288.362-1.288.808.577.809,1.288.809Z" transform="translate(-3894.258 -741.397)"/><path class="b" d="M4500,866.989c.71,0,1.287-.362,1.287-.809s-.577-.808-1.287-.808-1.288.362-1.288.808.576.809,1.288.809Z" transform="translate(-3899.666 -736.95)"/><path class="b" d="M4384.877,887.773c.709,0,1.287-.362,1.287-.809s-.577-.808-1.287-.808-1.288.362-1.288.808.577.809,1.288.809Z" transform="translate(-3855.818 -740.527)"/><path class="b" d="M4496.346,916.836c.71,0,1.285-.362,1.285-.808s-.575-.809-1.285-.809-1.288.362-1.288.809.576.808,1.288.808Z" transform="translate(-3898.272 -745.528)"/><path class="b" d="M4455.056,829.768c.71,0,1.286-.363,1.286-.809s-.576-.808-1.286-.808-1.288.362-1.288.808.575.809,1.288.809Z" transform="translate(-3882.547 -730.545)"/><path class="b" d="M4371.114,928.779c.71,0,1.287-.362,1.287-.808s-.577-.809-1.287-.809-1.287.363-1.287.809.576.808,1.287.808Z" transform="translate(-3850.577 -747.583)"/><path class="b" d="M4355.057,844.52c.71,0,1.286-.362,1.286-.809s-.576-.808-1.286-.808-1.288.362-1.288.808.577.809,1.288.809Z" transform="translate(-3844.461 -733.084)"/><path class="b" d="M4347.246,917.893c-.711,0-1.288.363-1.288.809s.577.809,1.288.809,1.286-.363,1.286-.809-.575-.809-1.286-.809Z" transform="translate(-3841.486 -745.988)"/><path class="b" d="M4451.618,909.053c-.71,0-1.287.362-1.287.809s.577.808,1.287.808,1.286-.362,1.286-.808-.576-.809-1.286-.809Z" transform="translate(-3881.238 -744.467)"/><path class="b" d="M4510.106,865.8c-.711,0-1.286.362-1.286.808s.575.809,1.286.809,1.288-.362,1.288-.809-.576-.808-1.288-.808Z" transform="translate(-3903.514 -737.024)"/><path class="b" d="M4264.668,922.745c-.711,0-1.287-.362-1.287-.808s.576-.809,1.287-.809,1.287.362,1.287.809-.576.808-1.287.808Z" transform="translate(-3810.036 -746.545)"/><path class="b" d="M4206.175,930.877c-.71,0-1.287-.362-1.287-.808s.577-.809,1.287-.809,1.287.363,1.287.809-.575.808-1.287.808Z" transform="translate(-3787.758 -747.944)"/><path class="b" d="M4434.98,1249.556c.712,0,1.287-.362,1.287-.808s-.575-.809-1.287-.809-1.287.362-1.287.809.576.808,1.287.808Z" transform="translate(-3874.901 -802.784)"/><path class="b" d="M4485.806,1209.393c.711,0,1.287-.362,1.287-.809s-.576-.808-1.287-.808-1.288.362-1.288.808.577.809,1.288.809Z" transform="translate(-3894.258 -795.873)"/><path class="b" d="M4500,1183.553c.71,0,1.286-.362,1.286-.809s-.576-.808-1.286-.808-1.287.362-1.287.808.576.809,1.287.809Z" transform="translate(-3899.666 -791.426)"/><path class="b" d="M4384.877,1204.337c.711,0,1.287-.362,1.287-.809s-.576-.808-1.287-.808-1.288.362-1.288.808.577.809,1.288.809Z" transform="translate(-3855.818 -795.003)"/><path class="b" d="M4496.346,1233.4c.711,0,1.287-.362,1.287-.809s-.576-.808-1.287-.808-1.287.362-1.287.808.576.809,1.287.809Z" transform="translate(-3898.273 -800.004)"/><path class="b" d="M4465.377,1158.984c.71,0,1.285-.362,1.285-.809s-.575-.808-1.285-.808-1.287.362-1.287.808.575.809,1.287.809Z" transform="translate(-3886.478 -787.198)"/><path class="b" d="M4455.056,1146.332c.71,0,1.286-.363,1.286-.809s-.576-.808-1.286-.808-1.288.362-1.288.808.577.809,1.288.809Z" transform="translate(-3882.547 -785.021)"/><path class="b" d="M4371.114,1245.344c.71,0,1.287-.363,1.287-.809s-.577-.809-1.287-.809-1.287.362-1.287.809.576.809,1.287.809Z" transform="translate(-3850.577 -802.059)"/><path class="b" d="M4466.521,1098.021c.711,0,1.287-.362,1.287-.808s-.576-.809-1.287-.809-1.287.362-1.287.809.577.808,1.287.808Z" transform="translate(-3886.914 -776.707)"/><path class="b" d="M4406.882,1124.571c.711,0,1.287-.362,1.287-.809s-.576-.808-1.287-.808-1.287.362-1.287.808.576.809,1.287.809Z" transform="translate(-3864.199 -781.276)"/><path class="b" d="M4427.53,1083.712c.71,0,1.286-.362,1.286-.809s-.576-.808-1.286-.808-1.288.362-1.288.808.576.809,1.288.809Z" transform="translate(-3872.063 -774.245)"/><path class="b" d="M4403.441,1057.872c.71,0,1.286-.362,1.286-.809s-.576-.808-1.286-.808-1.288.362-1.288.808.577.809,1.288.809Z" transform="translate(-3862.888 -769.798)"/><path class="b" d="M4406.669,1043.682c.711,0,1.287-.362,1.287-.809s-.576-.808-1.287-.808-1.288.362-1.288.808.577.809,1.288.809Z" transform="translate(-3864.118 -767.356)"/><path class="b" d="M4480.289,989.756c.71,0,1.286-.362,1.286-.809s-.576-.808-1.286-.808-1.288.362-1.288.808.577.809,1.288.809Z" transform="translate(-3892.157 -758.077)"/><path class="b" d="M4491.539,1046.208c.711,0,1.287-.362,1.287-.809s-.576-.808-1.287-.808-1.287.362-1.287.808.576.809,1.287.809Z" transform="translate(-3896.442 -767.791)"/><path class="b" d="M4492.906,998.6c.71,0,1.287-.362,1.287-.808s-.577-.809-1.287-.809-1.288.362-1.288.809.577.808,1.288.808Z" transform="translate(-3896.962 -759.598)"/><path class="b" d="M4317.426,1041.849c.71,0,1.287-.362,1.287-.809s-.577-.808-1.287-.808-1.287.362-1.287.808.576.809,1.287.809Z" transform="translate(-3830.129 -767.041)"/><path class="b" d="M4199.075,1001.764c-.71,0-1.287.362-1.287.809s.577.808,1.287.808,1.287-.361,1.287-.808-.576-.809-1.287-.809Z" transform="translate(-3785.053 -760.421)"/><path class="b" d="M4341.729,1014.821c-.711,0-1.288.362-1.288.808s.577.809,1.288.809,1.286-.362,1.286-.809-.576-.808-1.286-.808Z" transform="translate(-3839.385 -762.668)"/><path class="b" d="M4254.593,856.907c-.71,0-1.286.362-1.286.809s.576.808,1.286.808,1.288-.362,1.288-.808-.576-.809-1.288-.809Z" transform="translate(-3806.199 -735.493)"/><path class="b" d="M4442.656,1019.876c-.711,0-1.286.362-1.286.809s.575.808,1.286.808,1.287-.362,1.287-.808-.575-.809-1.287-.809Z" transform="translate(-3877.825 -763.538)"/><path class="b" d="M4448.179,990.813c-.711,0-1.288.362-1.288.809s.577.808,1.288.808,1.286-.362,1.286-.808-.575-.809-1.286-.809Z" transform="translate(-3879.927 -758.537)"/><path class="b" d="M4362.157,1065.229c-.709,0-1.287.363-1.287.809s.577.809,1.287.809,1.288-.363,1.288-.809-.576-.809-1.288-.809Z" transform="translate(-3847.165 -771.343)"/><path class="b" d="M4489.468,1077.882c-.71,0-1.287.362-1.287.808s.577.809,1.287.809,1.287-.362,1.287-.809-.577-.808-1.287-.808Z" transform="translate(-3895.654 -773.52)"/><path class="b" d="M4456.419,978.87c-.71,0-1.287.362-1.287.809s.576.808,1.287.808,1.288-.362,1.288-.808-.576-.809-1.288-.809Z" transform="translate(-3883.067 -756.482)"/><path class="b" d="M4472.476,1063.13c-.71,0-1.287.362-1.287.808s.577.809,1.287.809,1.288-.363,1.288-.809-.577-.808-1.288-.808Z" transform="translate(-3889.182 -770.981)"/><path class="b" d="M4420.651,1099.642c-.711,0-1.288.362-1.288.809s.576.808,1.288.808,1.286-.362,1.286-.808-.576-.809-1.286-.809Z" transform="translate(-3869.443 -777.265)"/><path class="b" d="M4400,1140.5c-.709,0-1.287.362-1.287.808s.577.809,1.287.809,1.287-.362,1.287-.809-.575-.808-1.287-.808Z" transform="translate(-3861.58 -784.296)"/><path class="b" d="M4424.092,1166.341c-.71,0-1.286.362-1.286.809s.576.808,1.286.808,1.287-.362,1.287-.808-.575-.809-1.287-.809Z" transform="translate(-3870.755 -788.743)"/><path class="b" d="M4420.864,1180.531c-.71,0-1.287.363-1.287.809s.577.808,1.287.808,1.287-.362,1.287-.808-.575-.809-1.287-.809Z" transform="translate(-3869.525 -791.184)"/><path class="b" d="M4347.246,1234.458c-.711,0-1.288.362-1.288.808s.577.809,1.288.809,1.286-.363,1.286-.809-.575-.808-1.286-.808Z" transform="translate(-3841.486 -800.464)"/><path class="b" d="M4339.218,1163.265c-.71,0-1.287.362-1.287.809s.576.808,1.287.808,1.287-.362,1.287-.808-.577-.809-1.287-.809Z" transform="translate(-3838.429 -788.213)"/><path class="b" d="M4451.618,1225.617c-.71,0-1.287.362-1.287.809s.577.808,1.287.808,1.287-.362,1.287-.808-.576-.809-1.287-.809Z" transform="translate(-3881.237 -798.943)"/><path class="b" d="M4510.106,1182.365c-.709,0-1.286.362-1.286.808s.577.808,1.286.808,1.289-.361,1.289-.808-.577-.808-1.289-.808Z" transform="translate(-3903.514 -791.5)"/><path class="b" d="M4191.1,748.331c.711,0,1.286.363,1.286.809s-.575.809-1.286.809-1.287-.363-1.287-.809.575-.809,1.287-.809Z" transform="translate(-3782.017 -716.809)"/><path class="b" d="M4185.674,739.179c.541,0,.979.275.979.615s-.438.616-.979.616-.98-.276-.98-.616.439-.615.98-.615Z" transform="translate(-3780.066 -715.234)"/><path class="b" d="M4279.572,1235.645c.711,0,1.288-.362,1.288-.809s-.577-.808-1.288-.808-1.287.362-1.287.808.576.809,1.287.809Z" transform="translate(-3815.712 -800.391)"/><path class="b" d="M4199.288,1247.441c.71,0,1.287-.362,1.287-.808s-.576-.809-1.287-.809-1.287.363-1.287.809.576.808,1.287.808Z" transform="translate(-3785.135 -802.42)"/><path class="b" d="M4253.191,1063.755c.711,0,1.287-.362,1.287-.808s-.576-.809-1.287-.809-1.288.362-1.288.809.577.808,1.288.808Z" transform="translate(-3805.664 -770.811)"/><path class="b" d="M4207.667,992c.711,0,1.287-.362,1.287-.809s-.576-.808-1.287-.808-1.288.362-1.288.808.577.809,1.288.809Z" transform="translate(-3788.325 -758.462)"/><path class="b" d="M4434.98,815.1c.71,0,1.287-.362,1.287-.809s-.577-.808-1.287-.808-1.287.362-1.287.808.576.809,1.287.809Z" transform="translate(-3874.901 -728.021)"/><path class="b" d="M4485.805,774.935c.709,0,1.286-.362,1.286-.808s-.576-.809-1.286-.809-1.288.362-1.288.809.577.808,1.288.808Z" transform="translate(-3894.258 -721.109)"/><path class="b" d="M4500,749.1c.71,0,1.287-.362,1.287-.809s-.577-.808-1.287-.808-1.288.362-1.288.808.576.809,1.288.809Z" transform="translate(-3899.666 -716.662)"/><path class="b" d="M4384.877,769.88c.709,0,1.287-.362,1.287-.809s-.577-.808-1.287-.808-1.288.362-1.288.808.577.809,1.288.809Z" transform="translate(-3855.818 -720.239)"/><path class="b" d="M4496.346,798.943c.71,0,1.285-.362,1.285-.809s-.575-.808-1.285-.808-1.288.362-1.288.808.576.809,1.288.809Z" transform="translate(-3898.272 -725.24)"/><path class="b" d="M4465.376,724.526c.71,0,1.286-.362,1.286-.808s-.576-.809-1.286-.809-1.287.363-1.287.809.576.808,1.287.808Z" transform="translate(-3886.478 -712.434)"/><path class="b" d="M4455.056,711.874c.71,0,1.286-.362,1.286-.808s-.576-.809-1.286-.809-1.288.362-1.288.809.575.808,1.288.808Z" transform="translate(-3882.547 -710.257)"/><path class="b" d="M4371.114,810.886c.71,0,1.287-.362,1.287-.809s-.577-.808-1.287-.808-1.287.362-1.287.808.576.809,1.287.809Z" transform="translate(-3850.577 -727.296)"/><path class="b" d="M4355.057,726.626c.71,0,1.286-.362,1.286-.808s-.576-.809-1.286-.809-1.288.362-1.288.809.577.808,1.288.808Z" transform="translate(-3844.461 -712.796)"/><path class="b" d="M4424.092,731.884c-.71,0-1.287.362-1.287.809s.577.808,1.287.808,1.287-.362,1.287-.808-.576-.809-1.287-.809Z" transform="translate(-3870.754 -713.979)"/><path class="b" d="M4420.863,746.074c-.71,0-1.286.362-1.286.809s.576.808,1.286.808,1.288-.362,1.288-.808-.576-.809-1.288-.809Z" transform="translate(-3869.525 -716.421)"/><path class="b" d="M4347.246,800c-.711,0-1.288.362-1.288.809s.577.808,1.288.808,1.286-.362,1.286-.808-.575-.809-1.286-.809Z" transform="translate(-3841.486 -725.701)"/><path class="b" d="M4451.618,791.16c-.71,0-1.287.362-1.287.808s.577.809,1.287.809,1.286-.362,1.286-.809-.576-.808-1.286-.808Z" transform="translate(-3881.238 -724.179)"/><path class="b" d="M4510.106,747.907c-.711,0-1.286.362-1.286.809s.575.808,1.286.808,1.288-.362,1.288-.808-.576-.809-1.288-.809Z" transform="translate(-3903.514 -716.736)"/><path class="b" d="M4264.668,804.852c-.711,0-1.287-.362-1.287-.809s.576-.808,1.287-.808,1.287.362,1.287.808-.576.809-1.287.809Z" transform="translate(-3810.036 -726.257)"/><path class="b" d="M4206.175,812.984c-.71,0-1.287-.362-1.287-.809s.577-.808,1.287-.808,1.287.362,1.287.808-.575.809-1.287.809Z" transform="translate(-3787.758 -727.656)"/><path class="b" d="M4434.98,1131.663c.712,0,1.287-.362,1.287-.809s-.575-.808-1.287-.808-1.287.362-1.287.808.576.809,1.287.809Z" transform="translate(-3874.901 -782.497)"/><path class="b" d="M4485.806,1091.5c.711,0,1.287-.362,1.287-.808s-.576-.809-1.287-.809-1.288.362-1.288.809.577.808,1.288.808Z" transform="translate(-3894.258 -775.585)"/><path class="b" d="M4500,1065.66c.71,0,1.286-.362,1.286-.809s-.576-.808-1.286-.808-1.287.362-1.287.808.576.809,1.287.809Z" transform="translate(-3899.666 -771.138)"/><path class="b" d="M4384.877,1086.444c.711,0,1.287-.362,1.287-.809s-.576-.808-1.287-.808-1.288.362-1.288.808.577.809,1.288.809Z" transform="translate(-3855.818 -774.715)"/><path class="b" d="M4496.346,1115.507c.711,0,1.287-.362,1.287-.809s-.576-.808-1.287-.808-1.287.362-1.287.808.576.809,1.287.809Z" transform="translate(-3898.273 -779.716)"/><path class="b" d="M4275.448,857.338c.71,0,1.287-.363,1.287-.809s-.576-.809-1.287-.809-1.287.363-1.287.809.575.809,1.287.809Z" transform="translate(-3814.141 -735.289)"/><path class="b" d="M4265.127,844.685c.712,0,1.288-.362,1.288-.808s-.575-.809-1.288-.809-1.287.362-1.287.809.577.808,1.287.808Z" transform="translate(-3810.21 -733.112)"/><path class="b" d="M4371.114,1127.45c.71,0,1.287-.362,1.287-.808s-.577-.809-1.287-.809-1.287.362-1.287.809.576.808,1.287.808Z" transform="translate(-3850.577 -781.772)"/><path class="b" d="M4466.521,980.128c.711,0,1.287-.362,1.287-.809s-.576-.808-1.287-.808-1.287.362-1.287.808.577.809,1.287.809Z" transform="translate(-3886.914 -756.42)"/><path class="b" d="M4406.882,1006.678c.711,0,1.287-.362,1.287-.809s-.576-.808-1.287-.808-1.287.362-1.287.808.576.809,1.287.809Z" transform="translate(-3864.199 -760.989)"/><path class="b" d="M4234.053,992.925c.71,0,1.286-.362,1.286-.808s-.576-.809-1.286-.809-1.288.362-1.288.809.576.808,1.288.808Z" transform="translate(-3798.375 -758.622)"/><path class="b" d="M4209.963,967.086c.71,0,1.287-.363,1.287-.809s-.576-.808-1.287-.808-1.288.362-1.288.808.577.809,1.288.809Z" transform="translate(-3789.2 -754.175)"/><path class="b" d="M4406.669,925.789c.711,0,1.287-.362,1.287-.809s-.576-.808-1.287-.808-1.288.362-1.288.808.577.809,1.288.809Z" transform="translate(-3864.118 -747.069)"/><path class="b" d="M4480.289,871.862c.71,0,1.286-.362,1.286-.808s-.576-.809-1.286-.809-1.288.363-1.288.809.577.808,1.288.808Z" transform="translate(-3892.157 -737.789)"/><path class="b" d="M4491.539,928.315c.711,0,1.287-.362,1.287-.809s-.576-.808-1.287-.808-1.287.362-1.287.808.576.809,1.287.809Z" transform="translate(-3896.442 -747.503)"/><path class="b" d="M4492.906,880.7c.71,0,1.287-.362,1.287-.809s-.577-.808-1.287-.808-1.288.362-1.288.808.577.809,1.288.809Z" transform="translate(-3896.962 -739.31)"/><path class="b" d="M4317.426,923.955c.71,0,1.287-.362,1.287-.808s-.577-.809-1.287-.809-1.287.362-1.287.809.576.808,1.287.808Z" transform="translate(-3830.129 -746.753)"/><path class="b" d="M4392.553,856.764c-.71,0-1.287.362-1.287.808s.576.809,1.287.809,1.287-.363,1.287-.809-.576-.808-1.287-.808Z" transform="translate(-3858.742 -735.469)"/><path class="b" d="M4341.729,896.927c-.711,0-1.288.362-1.288.809s.577.808,1.288.808,1.286-.362,1.286-.808-.576-.809-1.286-.809Z" transform="translate(-3839.385 -742.38)"/><path class="b" d="M4444.521,922.767c-.71,0-1.287.362-1.287.809s.577.808,1.287.808,1.288-.362,1.288-.808-.577-.809-1.288-.809Z" transform="translate(-3878.534 -746.827)"/><path class="b" d="M4442.656,901.983c-.711,0-1.286.362-1.286.809s.575.808,1.286.808,1.287-.362,1.287-.808-.575-.809-1.287-.809Z" transform="translate(-3877.825 -743.25)"/><path class="b" d="M4489.468,959.988c-.71,0-1.287.362-1.287.809s.577.808,1.287.808,1.287-.362,1.287-.808-.577-.809-1.287-.809Z" transform="translate(-3895.654 -753.232)"/><path class="b" d="M4472.476,945.236c-.71,0-1.287.363-1.287.809s.577.808,1.287.808,1.288-.362,1.288-.808-.577-.809-1.288-.809Z" transform="translate(-3889.182 -750.694)"/><path class="b" d="M4227.173,1008.856c-.711,0-1.287.362-1.287.808s.576.809,1.287.809,1.288-.362,1.288-.809-.577-.808-1.288-.808Z" transform="translate(-3795.755 -761.642)"/><path class="b" d="M4400,1022.608c-.709,0-1.287.362-1.287.809s.577.808,1.287.808,1.287-.362,1.287-.808-.575-.809-1.287-.809Z" transform="translate(-3861.58 -764.008)"/><path class="b" d="M4234.165,864.7c-.711,0-1.287.362-1.287.809s.576.808,1.287.808,1.287-.362,1.287-.808-.576-.809-1.287-.809Z" transform="translate(-3798.418 -736.834)"/><path class="b" d="M4230.936,878.885c-.71,0-1.287.362-1.287.809s.577.808,1.287.808,1.287-.362,1.287-.808-.576-.809-1.287-.809Z" transform="translate(-3797.188 -739.276)"/><path class="b" d="M4347.246,1116.564c-.711,0-1.288.363-1.288.809s.577.808,1.288.808,1.286-.362,1.286-.808-.575-.809-1.286-.809Z" transform="translate(-3841.486 -780.177)"/><path class="b" d="M4339.218,1045.372c-.71,0-1.287.362-1.287.808s.576.809,1.287.809,1.287-.363,1.287-.809-.577-.808-1.287-.808Z" transform="translate(-3838.429 -767.925)"/><path class="b" d="M4271.546,1193.625c.71,0,1.288-.362,1.288-.808s-.577-.809-1.288-.809-1.287.362-1.287.809.576.808,1.287.808Z" transform="translate(-3812.656 -793.159)"/><path class="b" d="M4274.774,1179.435c.711,0,1.288-.362,1.288-.808s-.577-.809-1.288-.809-1.287.362-1.287.809.577.808,1.287.808Z" transform="translate(-3813.885 -790.718)"/><path class="b" d="M4230.262,1200.983c-.71,0-1.287.362-1.287.808s.577.809,1.287.809,1.287-.362,1.287-.809-.576-.808-1.287-.808Z" transform="translate(-3796.931 -794.704)"/><path class="b" d="M4252.983,1222.2c.711,0,1.287-.362,1.287-.809s-.576-.808-1.287-.808-1.287.362-1.287.808.576.809,1.287.809Z" transform="translate(-3805.585 -798.076)"/><path class="b" d="M4268.109,1158.362c-.71,0-1.288.362-1.288.808s.578.809,1.288.809,1.287-.363,1.287-.809-.576-.808-1.287-.808Z" transform="translate(-3811.346 -787.369)"/><path class="b" d="M4207.323,1181.125c-.711,0-1.287.362-1.287.808s.576.809,1.287.809,1.286-.362,1.286-.809-.575-.808-1.286-.808Z" transform="translate(-3788.195 -791.287)"/><path class="b" d="M4451.618,1107.724c-.71,0-1.287.362-1.287.808s.577.809,1.287.809,1.287-.362,1.287-.809-.576-.808-1.287-.808Z" transform="translate(-3881.237 -778.655)"/><path class="b" d="M4510.106,1064.471c-.709,0-1.286.363-1.286.809s.577.808,1.286.808,1.289-.362,1.289-.808-.577-.809-1.289-.809Z" transform="translate(-3903.514 -771.212)"/><path class="b" d="M4180.567,736.11c-.71,0-1.287-.363-1.287-.809s.577-.809,1.287-.809,1.287.363,1.287.809-.576.809-1.287.809Z" transform="translate(-3778.005 -714.428)"/><path class="b" d="M4211.53,756.119c.711,0,1.287.362,1.287.809s-.576.808-1.287.808-1.287-.362-1.287-.808.577-.809,1.287-.809Z" transform="translate(-3789.797 -718.149)"/><path class="b" d="M4279.572,1117.752c.711,0,1.288-.362,1.288-.809s-.577-.808-1.288-.808-1.287.362-1.287.808.576.809,1.287.809Z" transform="translate(-3815.712 -780.103)"/><path class="b" d="M4199.288,1129.548c.71,0,1.287-.362,1.287-.809s-.576-.808-1.287-.808-1.287.362-1.287.808.576.809,1.287.809Z" transform="translate(-3785.135 -782.133)"/><path class="b" d="M4253.191,945.862c.711,0,1.287-.362,1.287-.809s-.576-.808-1.287-.808-1.288.362-1.288.808.577.809,1.288.809Z" transform="translate(-3805.664 -750.523)"/><path class="b" d="M4401.145,847c.711,0,1.287-.363,1.287-.809s-.576-.808-1.287-.808-1.287.362-1.287.808.575.809,1.287.809Z" transform="translate(-3862.014 -733.51)"/></g><path class="b" d="M4174.271,820.808l.015.485a3.278,3.278,0,0,1,.405,1.578l.064,24.821a3.287,3.287,0,0,0,.008,3.436l.1,38.219a3.322,3.322,0,0,1-3.3,3.321h0a3.264,3.264,0,0,1-.621-.057,6.214,6.214,0,0,1-.688.118v.091l-13.672.034-6.2.016-.014-5.679-.006-2.628,6.2-.016.007,2.629,8.665-.022c.058-.24.109-.484.155-.73l-.022-8.683-8.822.022.007,2.63-6.2.016-.007-2.629-.015-5.679,4.785-.012a89.574,89.574,0,0,1,10.747-.027l2.342-.005-.024-9.369c-.124-1.074-.217-2.142-.246-3.183a25,25,0,0,1,.228-4.1l-.011-4.26a3.293,3.293,0,0,0-.009-3.437l-.049-19.51c-.094-2.3-.122-4.767-.043-7.542-7.168-2.518-17.412-5.371-16.573-15.17,1.4-16.405,37.5-16.342,39.347.035,1.072,9.513-10.2,12.667-16.54,15.287Zm4.677-22.888c7.663,3.249,7.664,10.412,3.967,14.519-3.564,3.956-14.06,4.77-19.42,2.824-5.658-2.054-8.833-9.694-4.08-14.9,3.417-3.744,14.291-4.665,19.533-2.441Z" transform="translate(-235.814 -31.594)"/><g transform="translate(3690.223 890.651)"><path class="c" d="M3791.957,1102.878c1.426-.336,35.092-8.153,49.406-2.268,6.333,2.6,21.316,10.05,37.177,17.934,19.833,9.859,40.342,20.053,44.26,20.9,7.119,1.548,46.655-1.016,59.483-2.787,10.586-1.463,52.051-18.193,59.6-28.936a4.434,4.434,0,0,0,1.059-3.356,5.232,5.232,0,0,0-2.973-3.77c-6.655-3.34-21.7,1.449-27.548,4.146a52.876,52.876,0,0,0-6.984,3.717,5.342,5.342,0,0,1-2.05.954c-.558.106-2.821.415-5.954.84-5.858.8-14.711,2-17.314,2.586-2.226.5-5.513-.065-9.318-.721a66.707,66.707,0,0,0-9.871-1.191c-7.739-.138-13.5.724-14.06,1.239a24.117,24.117,0,0,0-2.181,3.288l-.813-.466a25.643,25.643,0,0,1,2.333-3.486c1.045-1.043,8.465-1.624,14.738-1.511a67.327,67.327,0,0,1,10.013,1.2c3.708.639,6.909,1.191,8.954.731,2.642-.6,11.167-1.754,17.392-2.6,3-.409,5.373-.731,5.9-.832a4.485,4.485,0,0,0,1.724-.825,53.566,53.566,0,0,1,7.095-3.776c5.971-2.757,21.4-7.625,28.358-4.133a6.2,6.2,0,0,1,3.471,4.415,5.314,5.314,0,0,1-1.209,4.088c-4.746,6.749-21.662,14.947-28.714,18.159-12.442,5.665-25.7,10.361-31.529,11.166-12.876,1.778-52.615,4.339-59.811,2.775-4.031-.876-24.593-11.1-44.478-20.982-15.845-7.876-30.812-15.316-37.115-17.907-14.039-5.771-48.49,2.231-48.836,2.313Z" transform="translate(-3789.551 -1038.489)"/><path class="c" d="M4099.953,1054.28c.133-.087,13.319-8.768,16.043-11.538l2.791-2.839c.545-.841,14.826-22.22,28.2-20.739,2.129.235,3.5,1.126,4.077,2.646,2.653,7-13.29,26.113-23.031,36.888-8.989,9.942-26.967,23.155-27.147,23.287l-.554-.755c.18-.132,18.082-13.29,27.006-23.161,23.193-25.651,23.707-33.67,22.851-35.928-.448-1.181-1.529-1.849-3.3-2.046-12.8-1.417-27.223,20.176-27.367,20.395l-2.848,2.909c-2.793,2.841-15.651,11.3-16.2,11.665Z" transform="translate(-3906.855 -1008.274)"/><path class="c" d="M3788.072,1016.612c.392-.194,39.629-19.331,73.389-14.079,20.433,3.18,34.911,13.806,46.544,22.345,7.651,5.616,14.26,10.468,20.355,11.417,2.805.438,6.36.89,10.124,1.369,17.642,2.244,41.8,5.316,43.9,13.2,1.033,3.883.845,6.8-.573,8.9-1.756,2.606-5.351,4.074-12.02,4.908-10.083,1.262-26.349.875-37.835-.9-11.6-1.792-28.845-2.229-33.534-1.554-4.82.694-13.531-.405-13.9-.452l.118-.928c.089.011,8.955,1.129,13.648.452,4.854-.7,21.933-.28,33.811,1.556,11.412,1.765,27.566,2.15,37.576.9,6.372-.8,9.77-2.145,11.359-4.5,1.259-1.869,1.4-4.528.445-8.139-1.934-7.27-26.714-10.421-43.112-12.506-3.771-.48-7.333-.933-10.15-1.372-6.321-.986-13.015-5.9-20.765-11.588-11.552-8.479-25.927-19.031-46.134-22.174-33.47-5.208-72.441,13.8-72.831,13.992Z" transform="translate(-3788.072 -1001.621)"/><path class="c" d="M4086.917,1089.324h0c.449-.035.729-.059.729-.059s7.769-2.9,7.6-6.492c-.235-5.053-8.209-6.529-8.209-6.529s-11.913-.773-14.6,1.853-2.156,9.087.107,10.7C4074.485,1090.182,4084.2,1089.536,4086.917,1089.324Z" transform="translate(-3895.684 -1030.001)"/><path class="c" d="M4177.115,1114.648s11.68-9.329,14.813-9.7-2.67,6.419-7.18,9.722a70.866,70.866,0,0,1-8.935,5.526S4173.54,1119.209,4177.115,1114.648Z" transform="translate(-3935.477 -1040.969)"/><path class="c" d="M4168.549,1032.643s6.656-13.593,9.987-14.1-3.122,12.021-5.2,15.283-3.044,4.687-3.044,4.687S4167.443,1038.806,4168.549,1032.643Z" transform="translate(-3932.884 -1008.06)"/><path class="c" d="M4123.734,1048.627c.813,2,1.46,3.654,1.847,4.7l.878-.325c-.083-.227-.937-2.4-2.212-5.53Z" transform="translate(-3915.913 -1019.083)"/><path class="c" d="M3935.751,1009.859c-.24-.087-.486-.183-.716-.259a171.566,171.566,0,0,0-28.523-6.508l-.116.928a170.692,170.692,0,0,1,28.343,6.469c.473.157.966.342,1.474.541Z" transform="translate(-3833.137 -1002.181)"/></g><path class="c" d="M4072.295,906.048l.026-.058-.1,0-29.466-26.4-.844-.756-.116,1.141-.031.307-4.147,2.412,20.529-79.2-.615-.25c-5.694-4.8-11.489-9.467-17.342-14.058-5.823-4.644-11.772-9.124-17.753-13.562l-.636.607-7.852,3.485-7.934,3.613c-5.294,2.4-10.535,4.907-15.806,7.355l-.088,1.106-16.854,19.04-.826.933.83-.111-18.39,37.295-.013.01-.278.219.1.334,12.241,39.63c-3.049-1.2-6.091-2.425-9.144-3.624l-1.381-1-.585-.424-.167.56-.078-.034q-6.2,10.639-12.281,21.352l-.1-.029.045.121-.028.048.054.022c1.9,5.113,3.809,10.222,5.792,15.3,1.051,2.763,2.135,5.512,3.226,8.259l2.052,1.224c-1.4-3.307-2.811-6.612-4.265-9.9-2.14-4.951-4.353-9.873-6.575-14.791,1.791.749,3.6,1.432,5.417,2.095l3.551,7.447,7.162,18.3,1.12.792-5.036-12.289.624,1.307,5.77,11.941,2.849,2.015-7.109-14.687-7.148-14.573c4.71-.961,9.4-2.033,14.069-3.169.938-.219,1.87-.469,2.805-.7l11.647-2.595,1.45,7.743c.206,1.3.417,2.591.625,3.886l6.567,36.8,1.994.292-8.04-54,.318-1.049.167-.551-.516-.207c-4.648-1.869-9.314-3.7-13.972-5.538l-12.042-39.94,16.62-12.935,37.8-29.254-2.031,39.628-2,41.356-1.553,37.232-1.4,27.216,1.372.2,1.233-27.371,2.034-37.2,1.986-41.356,1.822-40.381,37.376,10.223-10.326,38.107-8.561,32.017-17.22,10.015-.637.37.2.686.384,1.327-.417,53.794-.251.943,1.292.209-.038-4.929-.383-49.32,2.835,9.789,2.73,10.617,1.255,4.734,4.773,17.708-5.3,12.352,1.318.214,5.581-13.324,1.148-2.844L4028.77,936c.293-.678.594-1.353.877-2.034,1.288-3.049,2.6-6.089,3.833-9.157,2.417-5.871,4.808-11.752,7.08-17.68l.287-.194c3.173.008,6.347-.025,9.521-.078q-2,7.392-4.03,14.777l-.191.7c-1.5,5.477-3.008,10.953-4.444,16.447-.395,1.49-.772,2.984-1.158,4.476-1.063,4-2.131,8-3.126,12.012l-1.29,5.133.072.044,1.26.579,1.488-5.35c1.123-3.98,2.173-7.979,3.225-11.978.4-1.49.816-2.977,1.211-4.47,1.471-5.484,2.869-10.989,4.276-16.491l.179-.7q.527-2.056,1.057-4.112l-.666,4.505c-.786,5.483-1.556,10.969-2.268,16.462l-3.259,25.531,1.267.774,3.706-26.074c.77-5.486,1.481-10.979,2.175-16.475l1.834-15.014.114-.8c1.44-.027,2.881-.048,4.321-.079,2.679-.033,5.357-.157,8.036-.235,2.633-.084,5.267-.213,7.9-.36l-27.439,59.43.995.607,26.635-60.048.152-.008Zm-121.856-4.063c-.069.288-.143.575-.214.862l-1.308,4.375c-1.8-.435-3.61-.853-5.437-1.207q5.377-8.4,10.689-16.839l-2.156,7.037c-.3.953-.546,1.918-.813,2.879S3950.67,901.014,3950.438,901.984Zm19.177,1-2.3.484c-.947.176-1.9.335-2.842.523-4.59.873-9.167,1.81-13.721,2.846l.963-3.572c.091-.282.177-.564.271-.845.314-.947.6-1.9.875-2.861s.575-1.91.824-2.875l2.846-10.843,3.5,2.373c.554.436,1.1.875,1.662,1.306,1.879,1.495,3.832,2.884,5.744,4.332.408.31.83.6,1.246.9l9.357,6.461Zm17.428,34.55c-.115-.623-.218-1.249-.334-1.873-1.047-5.726-2.191-11.434-3.282-17.153q-.877-4.416-1.764-8.83l-1.357-7.83.056-.184,1.33-4.4Zm-6.255-41.605-1.487,4.344-13.4-9.363h0c-1.182-.781-2.367-1.559-3.577-2.3-.6-.377-1.2-.745-1.8-1.118l-1.812-1.311c2.391,1.065,4.789,2.117,7.184,3.174h0Zm-9.077-60.232-15.236,12,17.013-36.072.206-.027,18.717-2.516c5.2-.695,10.4-1.361,15.588-2.113Zm20.5-27.974-17.434,2.754,15.334-18.386q8.927,6.376,17.987,12.557l.674.484C4003.245,805.934,3997.732,806.85,3992.213,807.725Zm19.309-2.739-.031-.022c-.811-.564-1.636-1.109-2.454-1.663q-8.387-5.953-16.87-11.771c4.783-2.391,9.583-4.745,14.342-7.189l7.763-3.969,7.07-3.7-.032.032,21.43,30.309,5.928,8.732Zm31.873,1.565L4025.383,779.9c4.586,3.555,9.194,7.081,13.889,10.494q8.719,6.446,17.645,12.621l-7.229,12.473Zm-3.058,48.9,10.2-38.563,5.134-9-18.994,75.353-4.489,2.611ZM4028.8,933.585l-.016.046c-.257.7-.495,1.4-.743,2.106l-1.293,3.374-.778,2.018L4019.1,917.4l-2.315-7.729-2.967-11.118,7.557,2.424,2.311.748,15.229,4.894Zm10.492-28.656-14.2-4.246-3.3-.979-7.433-2.226,13.163-8.153,5.371-3.327,3.659-2.267h0l.955-.591,4.239-2.626Zm24.867.69c-2.679-.077-5.356-.2-8.036-.235-5.042-.108-10.084-.193-15.127-.181l1.872-24,29.083,24.774C4069.353,905.83,4066.755,905.7,4064.158,905.62Z" transform="translate(-156.933 -24.895)"/></g></g></svg>