<svg xmlns="http://www.w3.org/2000/svg" width="375" height="487.666" viewBox="0 0 375 487.666"><defs><style>.a{fill:#eff6ff;}.b{fill:#9759FF;}.c{fill:none;}</style></defs><g transform="translate(0 -357.579)"><path class="a" d="M0,0H375V487.666H0Z" transform="translate(0 357.579)"/><g transform="translate(-54.494 390.723)"><g transform="translate(78.494 132.776)"><g transform="translate(194.585 2.015)"><path class="b" d="M606.633,672.5q.978-2.456,1.961-4.909l-.257.268a12.046,12.046,0,0,1-1.521,1.38A28.31,28.31,0,0,0,606.633,672.5Z" transform="translate(-516.419 -640.959)"/><path class="b" d="M614.454,638.231c.94-1.447,2.116-3.506,1.4-4.472C614.954,635.005,613,637.348,614.454,638.231Z" transform="translate(-520.282 -623.06)"/><path class="c" d="M609.229,644.322a26.3,26.3,0,0,0-1.893,6.505c.241-.3.495-.592.759-.88l.857-.934a2.472,2.472,0,0,1,.7-.4q.937-2.327,1.884-4.651c1.214-2.969,2.3-6.117,3.728-9.034-.09.039-.175.077-.251.117a11.537,11.537,0,0,1-1.552.718C612.911,638.864,610.479,641.457,609.229,644.322Z" transform="translate(-516.792 -623.677)"/><path class="b" d="M526.346,636.724a3.9,3.9,0,0,1,.477.183,1.759,1.759,0,0,0-2.03-.827,2.112,2.112,0,0,0-1.253,1.056A3.246,3.246,0,0,1,526.346,636.724Z" transform="translate(-472.455 -624.244)"/><path class="c" d="M612.889,629.624c2.6-4.981,5.919-10.574,10.194-14.444-.2-.015-.4-.025-.6-.033-.678.639-1.433,1.15-2.151,1.741a5.719,5.719,0,0,0-1.8,1.843,3.026,3.026,0,0,0-.079,1.328.212.212,0,0,1-.357.151c-.927-.773-.129-2.122.526-2.792a9.716,9.716,0,0,1,3.308-2.282c-7.01-.032-12.247,4.566-14.951,11.02-2.8,6.693-5.4,13.477-8.149,20.191a.557.557,0,0,1-.619.361c.029.438.321,1.458.316,1.61-.174,4.671-3.641,9.268-6,13.111-.672,1.1-1.331,2.207-1.95,3.333a34.115,34.115,0,0,1,5.016-4.632c2.513-1.979,5.306-3.738,7.492-6.1a16.669,16.669,0,0,0,2.924-3.94c.5-1.029.769-2.12,1.209-3.153C607.307,641.148,610.288,634.614,612.889,629.624Z" transform="translate(-507.925 -613.207)"/><path class="c" d="M650.055,615.626a11.894,11.894,0,0,1,3.642-1.649,14.69,14.69,0,0,0-5.93.262.567.567,0,0,1-.089.179c-1.959,2.579-4.289,4.825-6.157,7.5a62.617,62.617,0,0,0-4.655,7.664,66.213,66.213,0,0,0-3.183,7.343,57.529,57.529,0,0,1,7.778-10.8,66.414,66.414,0,0,1,8-7.656C648.727,617.673,649.224,616.215,650.055,615.626Z" transform="translate(-530.731 -612.484)"/><path class="b" d="M670.265,616.056c-1.234.572-1.911,1.218-1.845,2.5q2.431-1.92,5.042-3.621c-.13-.052-.258-.086-.388-.13C672.191,615.313,671.179,615.632,670.265,616.056Z" transform="translate(-549.108 -613.032)"/><path class="c" d="M505.993,659.406c-.13-.1-1.484-8.041,1.212-14.406a37.632,37.632,0,0,1,2.85-5.448c.138-.218.35-.529.591-.893a1.7,1.7,0,0,1-.794-2.018,8.992,8.992,0,0,1,1.6-2.695c-2.861.982-7.483,7.02-9.757,11.547-4.017,7.993-2.052,13.718-2.5,14.237a81.546,81.546,0,0,0-7.4,9.813c-1.851,2.95-3.378,6.337-5.578,9.032-.067.082-.185,0-.169-.091.734-3.985,3.34-7.84,5.531-11.177a71.339,71.339,0,0,1,4.711-6.357c-1.488,1.207-3.23,2.193-4.633,3.477-1.963,1.8-3.689,3.826-5.648,5.616-.157.144-.349-.063-.264-.23a24.672,24.672,0,0,1,5.783-6.823,74.152,74.152,0,0,1,6.122-4.326,30.419,30.419,0,0,1,2.419-12.995,1,1,0,0,0-.182.142,67.176,67.176,0,0,1-28.39,20.7c-5.135,1.872-10.4,3.43-15.435,5.581a57.3,57.3,0,0,0-13.912,8.688.166.166,0,0,1-.242-.221c4.8-6.946,11.984-9.541,20.045-12.273.383-.627.582-.994.885-1.545,2.888-5.259,6.262-10.321,8.319-15.995a23.707,23.707,0,0,0,1.482-6.913,15.141,15.141,0,0,0-.1-3.546,5.06,5.06,0,0,0-1.188-2.734,2.024,2.024,0,0,0-3.521,1.458c-3.665,14.727-17.5,23.11-28.965,31.668-6.862,5.12-13.829,10.936-17.519,18.87-4.025,8.656-4.064,16.626-1.145,25.6.109.337.881,9.044,2.026,19.086.809,7.1,1.978,14.159,2.966,21.24,1.909,13.671,4.251,27.358,5.794,41.076,7.18-2.687,7.949-11.442,12.214-16.973,3.624-4.7,11.085-4.662,13.71-10.216l.008-.013a96.786,96.786,0,0,1-4.574-23.295c-.526-6.865-1.18-15.1.2-22,1.3-2.626,6-7.911,9.325-11.015a107.955,107.955,0,0,1,10.129-8.43,106.764,106.764,0,0,1,12.615-7.967c4.075-2.17,8.9-4.474,9.468-9.007.63-5,1.683-9.647,4.139-13.961,1.392-2.444,2.93-4.8,4.337-7.234C503.865,664.17,504.824,661.732,505.993,659.406Zm-44.631,28.533c-7.073,3.342-15.405,5.248-20.345,11.816-4.094,5.445-6.181,11.749-5.038,18.54a.3.3,0,0,1-.583.121c-1.781-7.084-.481-15.346,4.467-20.9,5.408-6.071,13.515-8.951,21.435-9.779C461.4,687.726,461.462,687.892,461.362,687.939Zm23.033-7.742c-.482,1.89-3.128,3.026-4.856,3.509a9.858,9.858,0,0,1-5.673.21.122.122,0,0,1,.015-.241,21.65,21.65,0,0,0,6.46-1.846c1.267-.677,2.234-1.825,3.661-2.055A.366.366,0,0,1,484.395,680.2Z" transform="translate(-416.69 -623.159)"/><path class="b" d="M479.827,748.174c-7.92.828-16.027,3.708-21.435,9.779-4.949,5.555-6.249,13.817-4.467,20.9a.3.3,0,0,0,.583-.121c-1.142-6.791.944-13.1,5.038-18.54,4.94-6.569,13.272-8.474,20.345-11.816C479.992,748.33,479.931,748.164,479.827,748.174Z" transform="translate(-435.22 -683.597)"/><path class="b" d="M546.5,731.264c-1.428.23-2.394,1.378-3.661,2.054a21.649,21.649,0,0,1-6.46,1.846.122.122,0,0,0-.015.241,9.858,9.858,0,0,0,5.673-.21c1.728-.483,4.374-1.62,4.856-3.509A.366.366,0,0,0,546.5,731.264Z" transform="translate(-479.191 -674.648)"/><path class="b" d="M541.114,612.011a11.767,11.767,0,0,0-9.367,0c-.139-.057-.263.142-.469.083-5.666-1.634-15.107,3.06-17.016,8.778a9.812,9.812,0,0,0-2.438,1.281c.013-.327-.005-.656-.024-1-.068-1.215-1.458-.612-1.805-.437A25.831,25.831,0,0,0,499.669,631.1a46.686,46.686,0,0,0-4.612,4.439c-8.675,8.707-16.357,14.052-27.6,18.156-1.677.613-3.446,1.205-5.252,1.817.083-.056,5.271-8.9,7.286-13.289a31.581,31.581,0,0,0,2.912-12.259c.053-1.726-.461-4.224-2.007-5.607a3.627,3.627,0,0,0-2.775-2.129c-1.407-.161-2.226,1.324-2.408,2.627a.747.747,0,0,0-.082.191c-3.783,17.653-22.052,26.129-34.662,36.719-5.954,5-10.934,10.949-13.561,18.34a32.694,32.694,0,0,0-.095,21.44c.531,8.461,1.321,13.137,2.173,19.6.931,7.065,2.079,14.1,3,21.169,1.878,14.36,5.825,43.523,6.48,44.044.013.067-.015.222.05.2,6.93-2.533,10.831-11.468,10.866-11.543,2.264-4.921,2.352-6.362,7.333-9.815,6.935-2.322,10.3-7.308,10.183-7.731a139.1,139.1,0,0,1-4.756-23.675,110.45,110.45,0,0,1-.447-12.076c.043-3.206.441-6.406.538-9.608a79.641,79.641,0,0,1,10.755-11.248,104.445,104.445,0,0,1,13.967-10.714c4.216-2.729,9.01-4.675,12.956-7.787,1.926-1.52,4.117-3.832,4.112-6.827a22.161,22.161,0,0,1,.754-6.084.136.136,0,0,0,.236-.031c2.776-6.223,7.363-9.4,12.61-13.4,3.273-2.493,8.124-7.224,7.888-11.888,0,0,0-.007,0-.011.357-1.11.645-2.252.931-3.394.058-.028,3.066-5.471,4.706-8.044a62.582,62.582,0,0,1,19.694-19.247C541.668,612.966,541.466,612.167,541.114,612.011Zm-29.393,11.111a11.525,11.525,0,0,0,1.552-.718c.076-.04.162-.079.251-.117-1.432,2.916-2.513,6.065-3.728,9.034q-.951,2.322-1.884,4.651a2.472,2.472,0,0,0-.7.4l-.857.934c-.264.287-.518.579-.759.88a26.291,26.291,0,0,1,1.893-6.505C508.743,628.818,511.175,626.225,511.722,623.122Zm-4.491,14.546q-.983,2.453-1.961,4.909a28.3,28.3,0,0,1,.183-3.261,12.036,12.036,0,0,0,1.521-1.38Zm3.4-15.931c.714.966-.461,3.025-1.4,4.472C507.775,625.327,509.728,622.984,510.629,621.737Zm-43.235,1.137a1.759,1.759,0,0,1,2.03.827,3.9,3.9,0,0,0-.477-.183,3.246,3.246,0,0,0-2.806.412A2.112,2.112,0,0,1,467.394,622.875Zm25.047,52.644c-.571,4.533-5.394,6.837-9.468,9.007a106.78,106.78,0,0,0-12.615,7.967,107.949,107.949,0,0,0-10.129,8.43c-3.323,3.1-8.029,8.389-9.325,11.015-1.379,6.9-.725,15.132-.2,22a96.786,96.786,0,0,0,4.574,23.295l-.008.013c-2.625,5.553-10.086,5.516-13.71,10.216-4.265,5.531-5.033,14.286-12.214,16.973-1.543-13.718-3.885-27.405-5.794-41.076-.988-7.08-2.157-14.137-2.966-21.24-1.145-10.042-1.917-18.749-2.026-19.086-2.92-8.972-2.881-16.942,1.145-25.6,3.69-7.935,10.658-13.75,17.519-18.87,11.469-8.558,25.3-16.942,28.965-31.668a2.024,2.024,0,0,1,3.521-1.458,5.06,5.06,0,0,1,1.188,2.734,15.143,15.143,0,0,1,.1,3.546,23.708,23.708,0,0,1-1.482,6.913c-2.057,5.673-5.43,10.736-8.319,15.995-.3.551-.5.918-.885,1.545-8.061,2.732-15.244,5.327-20.045,12.273a.166.166,0,0,0,.242.221,57.3,57.3,0,0,1,13.912-8.688c5.03-2.151,10.3-3.708,15.435-5.581a67.177,67.177,0,0,0,28.39-20.7,1,1,0,0,1,.182-.142,30.419,30.419,0,0,0-2.419,12.995,74.154,74.154,0,0,0-6.122,4.326,24.671,24.671,0,0,0-5.783,6.823c-.085.167.106.374.264.23,1.959-1.79,3.686-3.821,5.648-5.616,1.4-1.284,3.145-2.27,4.633-3.477a71.354,71.354,0,0,0-4.711,6.357c-2.191,3.337-4.8,7.192-5.531,11.177-.017.091.1.174.169.091,2.2-2.695,3.727-6.083,5.578-9.032a81.545,81.545,0,0,1,7.4-9.813c.448-.519-1.517-6.245,2.5-14.237,2.275-4.527,6.9-10.565,9.758-11.547a8.992,8.992,0,0,0-1.6,2.695,1.7,1.7,0,0,0,.794,2.018c-.242.364-.454.675-.591.893a37.644,37.644,0,0,0-2.85,5.448c-2.7,6.366-1.342,14.3-1.212,14.406-1.169,2.326-2.128,4.764-3.443,7.038-1.407,2.435-2.945,4.79-4.337,7.234C494.124,665.871,493.07,670.521,492.441,675.518Zm21.909-30.743c-.44,1.033-.711,2.124-1.209,3.153a16.684,16.684,0,0,1-2.925,3.94c-2.186,2.358-4.979,4.118-7.492,6.1a34.119,34.119,0,0,0-5.016,4.632c.62-1.127,1.278-2.237,1.95-3.333,2.356-3.844,5.823-8.44,6-13.111.006-.153-.286-1.173-.315-1.61a.557.557,0,0,0,.619-.361c2.751-6.715,5.345-13.5,8.149-20.191,2.7-6.455,7.941-11.052,14.951-11.02a9.715,9.715,0,0,0-3.308,2.282c-.654.669-1.453,2.018-.526,2.792a.212.212,0,0,0,.357-.151,3.025,3.025,0,0,1,.079-1.328,5.72,5.72,0,0,1,1.8-1.843c.717-.591,1.473-1.1,2.15-1.741.2.008.4.017.6.033-4.275,3.87-7.6,9.462-10.194,14.443S514.437,638.98,514.35,644.776Zm19.435-27.753a66.391,66.391,0,0,0-8,7.656,57.537,57.537,0,0,0-7.778,10.8,66.229,66.229,0,0,1,3.183-7.343,62.664,62.664,0,0,1,4.655-7.664c1.869-2.671,4.2-4.918,6.157-7.5a.566.566,0,0,0,.089-.179,14.69,14.69,0,0,1,5.93-.262,11.893,11.893,0,0,0-3.642,1.649C533.549,614.77,533.052,616.228,533.785,617.023Zm.581-.459c-.065-1.283.612-1.929,1.845-2.5.915-.424,1.927-.743,2.809-1.25.13.045.258.078.388.13Q536.794,614.637,534.366,616.564Z" transform="translate(-415.056 -611.038)"/></g><path class="b" d="M181.416,671.154q-.862-2.5-1.731-4.995l.244.28a12.057,12.057,0,0,0,1.456,1.449A28.272,28.272,0,0,1,181.416,671.154Z" transform="translate(-146.695 -638.188)"/><path class="b" d="M174.949,636.563c-.872-1.489-1.951-3.6-1.192-4.532C174.6,633.318,176.441,635.748,174.949,636.563Z" transform="translate(-143.422 -620.131)"/><path class="c" d="M173.437,642.576a26.282,26.282,0,0,1,1.589,6.587c-.227-.311-.467-.615-.717-.914l-.813-.972a2.459,2.459,0,0,0-.677-.435q-.828-2.368-1.666-4.734c-1.076-3.022-2.009-6.218-3.3-9.2.088.043.171.085.246.129a11.512,11.512,0,0,0,1.516.79C170.013,636.954,172.322,639.657,173.437,642.576Z" transform="translate(-140.433 -620.597)"/><path class="b" d="M261.746,639.153a3.794,3.794,0,0,0-.485.161,1.759,1.759,0,0,1,2.066-.732,2.114,2.114,0,0,1,1.2,1.113A3.247,3.247,0,0,0,261.746,639.153Z" transform="translate(-189.857 -623.539)"/><path class="c" d="M142.872,626.485c-2.363-5.1-5.421-10.837-9.512-14.9.2-.006.4-.006.6,0,.647.67,1.378,1.215,2.067,1.839a5.714,5.714,0,0,1,1.711,1.924,3.029,3.029,0,0,1,.016,1.33.212.212,0,0,0,.349.168c.962-.729.227-2.114-.4-2.813a9.714,9.714,0,0,0-3.2-2.433c7,.293,12.021,5.129,14.423,11.7,2.491,6.815,4.766,13.712,7.2,20.548a.558.558,0,0,0,.6.388c-.049.437-.388,1.441-.39,1.594-.043,4.674,3.207,9.426,5.382,13.375.621,1.127,1.227,2.266,1.794,3.42a34.109,34.109,0,0,0-4.8-4.859c-2.418-2.094-5.126-3.98-7.2-6.437a16.707,16.707,0,0,1-2.738-4.071c-.449-1.052-.67-2.153-1.061-3.206C147.914,638.257,145.239,631.59,142.872,626.485Z" transform="translate(-122.184 -609.309)"/><path class="c" d="M120.406,611.478a11.91,11.91,0,0,0-3.562-1.816,14.682,14.682,0,0,1,5.912.537.566.566,0,0,0,.08.183c1.837,2.667,4.06,5.018,5.8,7.774a62.678,62.678,0,0,1,4.295,7.872,66.205,66.205,0,0,1,2.839,7.483,57.557,57.557,0,0,0-7.268-11.146,66.385,66.385,0,0,0-7.637-8.019C121.637,613.585,121.208,612.106,120.406,611.478Z" transform="translate(-113.446 -608.23)"/><path class="b" d="M117,611.679c1.206.629,1.852,1.3,1.727,2.584q-2.339-2.031-4.869-3.851c.133-.046.262-.074.394-.113C115.113,610.847,116.109,611.212,117,611.679Z" transform="translate(-111.867 -608.633)"/><path class="c" d="M183.145,665.174c1.293,2.5,2.72,4.921,4,7.428,2.253,4.422,3.089,9.116,3.486,14.137.36,4.555,5.07,7.08,9.04,9.437A106.785,106.785,0,0,1,211.9,704.72a107.979,107.979,0,0,1,9.727,8.891c3.175,3.255,7.631,8.753,8.8,11.436,1.057,6.952.022,15.15-.823,21.983a96.765,96.765,0,0,1-5.651,23.058s.005.008.007.013c2.365,5.67,9.819,5.978,13.221,10.842,4,5.722,4.365,14.5,11.413,17.522,2.178-13.632,5.154-27.2,7.694-40.763,1.316-7.026,2.81-14.022,3.949-21.079,1.609-9.978,2.784-18.64,2.91-18.971,3.333-8.827,3.664-16.79.045-25.624-3.318-8.1-10.008-14.23-16.625-19.663-11.06-9.081-24.486-18.1-27.464-32.978a2.024,2.024,0,0,0-3.45-1.62,5.061,5.061,0,0,0-1.313,2.676,15.151,15.151,0,0,0-.263,3.537,23.7,23.7,0,0,0,1.16,6.974c1.792,5.763,4.927,10.976,7.567,16.364.277.565.459.94.813,1.585,7.925,3.1,14.98,6.028,19.453,13.189a.166.166,0,0,1-.252.21,57.273,57.273,0,0,0-13.494-9.323c-4.924-2.383-10.116-4.183-15.159-6.292a67.17,67.17,0,0,1-27.4-22,1.02,1.02,0,0,0-.175-.15,30.423,30.423,0,0,1,1.814,13.093,74.179,74.179,0,0,1,5.914,4.605,24.67,24.67,0,0,1,5.46,7.084c.078.171-.123.368-.274.217-1.874-1.879-3.5-3.988-5.381-5.872-1.342-1.348-3.036-2.414-4.467-3.689a71.383,71.383,0,0,1,4.411,6.569c2.034,3.435,4.458,7.406,5.006,11.421.013.091-.11.168-.173.083-2.072-2.794-3.44-6.249-5.153-9.281a81.521,81.521,0,0,0-6.941-10.146c-.423-.539,1.805-6.168-1.836-14.339-2.063-4.627-6.4-10.873-9.211-11.987a8.991,8.991,0,0,1,1.47,2.766,1.7,1.7,0,0,1-.887,1.979c.224.375.422.7.549.92a37.629,37.629,0,0,1,2.594,5.574c2.4,6.484.677,14.351.542,14.447C181.093,660.361,181.938,662.841,183.145,665.174Zm40.22,23.184c7.872,1.2,15.837,4.448,20.958,10.764,4.685,5.779,5.6,14.092,3.493,21.085a.3.3,0,0,1-.577-.147c1.457-6.732-.335-13.126-4.172-18.755-4.629-6.79-12.865-9.08-19.775-12.748C223.194,688.505,223.262,688.342,223.365,688.358Zm-22.309-9.006c1.415.3,2.328,1.488,3.561,2.223a21.673,21.673,0,0,0,6.368,2.144.122.122,0,0,1,0,.241,9.86,9.86,0,0,1-5.657-.473c-1.7-.563-4.295-1.821-4.688-3.731A.365.365,0,0,1,201.056,679.351Z" transform="translate(-144.621 -620.272)"/><path class="b" d="M276.713,751.345c7.872,1.2,15.837,4.448,20.958,10.764,4.685,5.779,5.6,14.092,3.493,21.086a.3.3,0,0,1-.577-.147c1.456-6.732-.335-13.126-4.172-18.755-4.629-6.79-12.865-9.08-19.775-12.748C276.541,751.493,276.609,751.329,276.713,751.345Z" transform="translate(-197.968 -683.259)"/><path class="b" d="M229,732.213c1.415.3,2.328,1.488,3.561,2.223a21.671,21.671,0,0,0,6.367,2.144.122.122,0,0,1,0,.241,9.861,9.861,0,0,1-5.657-.473c-1.7-.563-4.295-1.821-4.688-3.731A.366.366,0,0,1,229,732.213Z" transform="translate(-172.567 -673.134)"/><path class="b" d="M110.165,608.96A62.579,62.579,0,0,1,128.944,629.1c1.519,2.646,4.271,8.222,4.328,8.253.233,1.154.467,2.308.772,3.433,0,0,0,.007,0,.011-.453,4.648,4.175,9.6,7.328,12.241,5.057,4.238,9.492,7.622,11.975,13.968a.137.137,0,0,0,.235.041,22.192,22.192,0,0,1,.47,6.113c-.144,2.992,1.936,5.4,3.79,7.011,3.8,3.292,8.5,5.458,12.581,8.38a104.449,104.449,0,0,1,13.455,11.35,79.68,79.68,0,0,1,10.221,11.736c-.052,3.2.2,6.418.092,9.623a110.476,110.476,0,0,1-1.007,12.042,139.136,139.136,0,0,1-5.849,23.43c-.136.417,2.993,5.553,9.813,8.2,4.815,3.681,4.837,5.123,6.869,10.145.031.077,3.513,9.182,10.318,12.035.064.027.044-.13.059-.2.679-.49,5.974-29.438,8.517-43.7,1.251-7.016,2.725-13.993,3.983-21.006,1.151-6.417,2.157-11.051,3.08-19.478a32.694,32.694,0,0,0,.9-21.422c-2.281-7.5-6.98-13.679-12.7-18.949-12.105-11.164-29.961-20.479-32.921-38.288a.742.742,0,0,0-.073-.194c-.121-1.31-.871-2.831-2.283-2.736a3.627,3.627,0,0,0-2.872,2c-1.608,1.31-2.238,3.781-2.265,5.508a31.58,31.58,0,0,0,2.34,12.381c1.809,4.482,6.581,13.552,6.661,13.613-1.776-.695-3.515-1.369-5.162-2.058-11.036-4.621-18.462-10.316-26.724-19.418a46.651,46.651,0,0,0-4.4-4.648,25.827,25.827,0,0,0-9.833-10.847c-.338-.19-1.7-.858-1.824.354-.035.34-.068.668-.071.995a9.813,9.813,0,0,0-2.376-1.392c-1.642-5.8-10.854-10.927-16.59-9.558-.208.05-.322-.155-.464-.1a11.768,11.768,0,0,0-9.357-.436C109.6,607.669,109.363,608.457,110.165,608.96Zm32.467,19.78a26.281,26.281,0,0,1,1.589,6.586c-.227-.311-.467-.615-.717-.914l-.813-.972a2.468,2.468,0,0,0-.677-.435q-.828-2.368-1.666-4.733c-1.076-3.022-2.009-6.218-3.3-9.2.088.043.171.085.246.129a11.514,11.514,0,0,0,1.516.79C139.208,623.118,141.517,625.821,142.632,628.74Zm.229,6.271a12.057,12.057,0,0,0,1.456,1.449,28.272,28.272,0,0,1,.031,3.266q-.862-2.5-1.731-4.995Zm-1.707-11.819c-.872-1.49-1.951-3.6-1.192-4.532C140.8,619.947,142.646,622.377,141.154,623.192Zm43.146-.276a3.247,3.247,0,0,0-2.784-.542,3.793,3.793,0,0,0-.485.161,1.759,1.759,0,0,1,2.066-.732A2.114,2.114,0,0,1,184.3,622.916ZM152.149,659.09c-1.277-2.507-2.7-4.931-4-7.428-1.207-2.333-2.052-4.813-3.113-7.19.135-.1,1.856-7.963-.542-14.447a37.628,37.628,0,0,0-2.594-5.574c-.127-.225-.325-.545-.549-.92a1.7,1.7,0,0,0,.887-1.979,8.993,8.993,0,0,0-1.47-2.766c2.813,1.114,7.148,7.36,9.211,11.987,3.641,8.171,1.413,13.8,1.836,14.338a81.519,81.519,0,0,1,6.941,10.146c1.712,3.033,3.08,6.488,5.153,9.281.063.085.186.008.173-.083-.548-4.015-2.972-7.986-5.006-11.421a71.391,71.391,0,0,0-4.411-6.569c1.431,1.275,3.125,2.341,4.467,3.689,1.877,1.884,3.507,3.993,5.381,5.872.151.151.352-.046.274-.217a24.67,24.67,0,0,0-5.46-7.084,74.167,74.167,0,0,0-5.914-4.605,30.423,30.423,0,0,0-1.814-13.093,1.02,1.02,0,0,1,.175.15,67.169,67.169,0,0,0,27.4,22c5.043,2.109,10.235,3.909,15.159,6.292a57.275,57.275,0,0,1,13.494,9.323.166.166,0,0,0,.252-.209c-4.474-7.161-11.528-10.087-19.453-13.189-.354-.644-.536-1.02-.813-1.585-2.641-5.388-5.775-10.6-7.567-16.364a23.7,23.7,0,0,1-1.16-6.974,15.15,15.15,0,0,1,.263-3.537,5.06,5.06,0,0,1,1.313-2.676,2.024,2.024,0,0,1,3.45,1.62c2.978,14.881,16.4,23.9,27.464,32.978,6.617,5.433,13.307,11.566,16.625,19.663,3.619,8.833,3.288,16.8-.045,25.624-.125.331-1.3,8.993-2.91,18.971-1.138,7.057-2.633,14.053-3.948,21.079-2.541,13.567-5.516,27.131-7.695,40.763-7.048-3.017-7.409-11.8-11.413-17.522-3.4-4.864-10.857-5.172-13.221-10.842,0,0,0-.008-.007-.013a96.765,96.765,0,0,0,5.651-23.058c.844-6.833,1.879-15.031.823-21.983-1.173-2.684-5.629-8.181-8.8-11.436a107.977,107.977,0,0,0-9.727-8.891,106.8,106.8,0,0,0-12.232-8.544c-3.97-2.357-8.68-4.882-9.04-9.437C155.238,668.205,154.4,663.512,152.149,659.09Zm-21.833-35.154c-2.363-5.1-5.421-10.837-9.512-14.9.2-.006.4-.006.6,0,.647.67,1.378,1.215,2.067,1.839a5.71,5.71,0,0,1,1.711,1.924,3.029,3.029,0,0,1,.016,1.33.212.212,0,0,0,.349.168c.962-.729.227-2.114-.4-2.813a9.714,9.714,0,0,0-3.2-2.433c7,.293,12.021,5.129,14.423,11.7,2.491,6.815,4.766,13.712,7.2,20.548a.558.558,0,0,0,.6.388c-.049.437-.388,1.441-.39,1.594-.043,4.674,3.207,9.426,5.382,13.375.621,1.127,1.227,2.266,1.794,3.42a34.109,34.109,0,0,0-4.8-4.859c-2.418-2.094-5.126-3.98-7.2-6.437a16.708,16.708,0,0,1-2.738-4.071c-.449-1.052-.67-2.153-1.061-3.206C135.357,635.707,132.683,629.041,130.315,623.936Zm-13.728-13.927a11.91,11.91,0,0,0-3.562-1.816,14.68,14.68,0,0,1,5.912.537.576.576,0,0,0,.08.183c1.837,2.667,4.06,5.018,5.8,7.774a62.687,62.687,0,0,1,4.295,7.872,66.209,66.209,0,0,1,2.839,7.483,57.56,57.56,0,0,0-7.268-11.146,66.4,66.4,0,0,0-7.637-8.019C117.819,612.115,117.39,610.636,116.588,610.008Zm-4.967-1.469c.133-.046.262-.074.394-.113.858.548,1.854.913,2.748,1.38,1.206.629,1.852,1.3,1.727,2.584Q114.151,610.359,111.621,608.539Z" transform="translate(-109.628 -606.76)"/></g><g transform="translate(103.029 9.659)"><path class="b" d="M452.724,247.27l-3.119-6.239-3.12,5.989-6.341,1.209,4.344,4.281-.534,6.858,5.4-3.24,5.74,3.24-.293-6.449,3.913-4.776Z" transform="translate(-285.607 -132.078)"/><path class="b" d="M384.454,673.992l-3.119-6.239-3.12,5.989-6.341,1.209,4.344,4.281-.534,6.858,5.4-3.24,5.74,3.24-.293-6.449,3.913-4.776Z" transform="translate(-249.485 -357.857)"/><path class="b" d="M401.045,143.255l-2.061-4.123-2.061,3.958-4.191.8,2.872,2.829-.353,4.532,3.568-2.141,3.793,2.141-.193-4.262L405,143.833Z" transform="translate(-260.52 -78.163)"/><path class="b" d="M589.045,19.255l-2.061-4.123-2.061,3.958-4.191.8,2.872,2.829-.353,4.532,3.568-2.141,3.793,2.141-.193-4.262L593,19.833Z" transform="translate(-359.991 -12.555)"/><path class="b" d="M324,30.141l-2.061-4.123-2.061,3.958-4.191.8,2.872,2.829-.353,4.532L321.77,36l3.793,2.141-.193-4.262,2.585-3.156Z" transform="translate(-219.753 -18.314)"/><path class="b" d="M392.195,453.02l-1.546-3.092L389.1,452.9l-3.143.6,2.153,2.122-.264,3.4,2.677-1.606,2.844,1.606-.146-3.2,1.94-2.367Z" transform="translate(-256.937 -242.605)"/><path class="b" d="M398.8,523.431l-2.029-4.059-2.029,3.9-4.125.787,2.826,2.785L393.1,531.3l3.514-2.107,3.733,2.107-.191-4.2L402.7,524Z" transform="translate(-259.402 -279.349)"/><path class="b" d="M349.711,583.247l-1.546-3.092-1.546,2.969-3.143.6,2.153,2.122-.264,3.4,2.677-1.606,2.844,1.606-.146-3.2,1.94-2.367Z" transform="translate(-234.459 -311.508)"/><path class="b" d="M448.23,532.2l-.876-1.752-.876,1.682-1.781.34,1.22,1.2-.15,1.926,1.517-.91,1.612.91-.083-1.811,1.1-1.341Z" transform="translate(-288.015 -285.21)"/><path class="b" d="M350.091,186.909l-1.546-3.092L347,186.785l-3.143.6,2.153,2.122-.264,3.4,2.677-1.606,2.844,1.606-.146-3.2,1.94-2.367Z" transform="translate(-234.66 -101.806)"/><path class="b" d="M424.538,82.359l-1.546-3.092-1.546,2.969-3.143.6,2.153,2.122-.264,3.4,2.677-1.606,2.844,1.606-.146-3.2,1.94-2.367Z" transform="translate(-274.05 -46.488)"/><path class="b" d="M449.72,22.854l-1.546-3.092-1.546,2.969-3.143.6,2.153,2.122-.264,3.4,2.677-1.606,2.845,1.606-.146-3.2,1.94-2.367Z" transform="translate(-287.374 -15.004)"/><path class="b" d="M257.829,114.587l-1.546-3.092-1.546,2.969-3.143.6,2.153,2.122-.264,3.4,2.677-1.606L259,120.584l-.146-3.2,1.94-2.367Z" transform="translate(-185.844 -63.54)"/><path class="b" d="M502.3,72.638l-1.546-3.092-1.546,2.969-3.143.6,2.153,2.122-.264,3.4,2.677-1.606,2.844,1.606-.146-3.2,1.94-2.367Z" transform="translate(-315.195 -41.345)"/><path class="b" d="M418.9,623.2l-1.16-2.319-1.159,2.226-2.357.45,1.615,1.591-.2,2.549,2.008-1.2,2.133,1.2-.109-2.4,1.455-1.775Z" transform="translate(-271.893 -333.058)"/><path class="b" d="M472.513,188.405c.809,0,.712-1.247-.089-1.247S471.712,188.405,472.513,188.405Z" transform="translate(-302.389 -103.574)"/><path class="b" d="M204.078,122.862c2.851,0,2.914-4.42.06-4.42S201.223,122.862,204.078,122.862Z" transform="translate(-159.587 -67.216)"/><path class="b" d="M114.078,16.862c2.851,0,2.914-4.42.06-4.42S111.223,16.862,114.078,16.862Z" transform="translate(-111.968 -11.131)"/><path class="b" d="M280.878,253.942a5.019,5.019,0,0,0,2.13-1.972,2.97,2.97,0,0,0-.3-3.041,4.245,4.245,0,0,0-1.434-1.228,3.633,3.633,0,0,0-5.554,2.784C275.556,253.027,278.492,255.342,280.878,253.942Z" transform="translate(-198.604 -135.323)"/><path class="b" d="M401.744,373.021c4.159,0,3.9-6.427-.234-6.427C397.352,366.594,397.613,373.021,401.744,373.021Z" transform="translate(-263.581 -198.513)"/><path class="b" d="M351.928,156.514c2.339,0,2.1-3.611-.22-3.611C349.37,152.9,349.611,156.514,351.928,156.514Z" transform="translate(-237.947 -85.449)"/><path class="b" d="M373.916,339.719l4.236-2.541,4.5,2.541-.23-5.059,3.07-3.747-4.7-.685-2.447-4.894-2.447,4.7-4.974.949,3.408,3.358Z" transform="translate(-248.983 -176.683)"/><path class="b" d="M319.033,414.992l4.236-2.541,4.5,2.541-.23-5.059,3.07-3.747-4.7-.685-2.447-4.894-2.447,4.7-4.974.949,3.408,3.358Z" transform="translate(-219.945 -216.51)"/><path class="b" d="M297.832,182.132l-2.061-4.123-2.061,3.958-4.191.8,2.872,2.829-.353,4.532,3.569-2.141,3.793,2.141-.194-4.262,2.585-3.156Z" transform="translate(-205.91 -98.733)"/><path class="b" d="M227.495,30.043l-2.061-4.123-2.061,3.958-4.191.8,2.872,2.829-.353,4.532,3.569-2.141,3.793,2.141-.193-4.262,2.585-3.156Z" transform="translate(-168.695 -18.263)"/><path class="b" d="M301.774,139.53c-4.187,0-3.755,6.464.395,6.464C306.356,145.994,305.924,139.53,301.774,139.53Z" transform="translate(-210.841 -78.374)"/><path class="b" d="M388.457,232.8a4.024,4.024,0,0,0,4.232,3.651,5.091,5.091,0,0,0,3.281-1.664c1.408-1.455.9-3.582-.341-4.9A4.1,4.1,0,0,0,388.457,232.8Z" transform="translate(-258.253 -125.44)"/><path class="b" d="M451.786,298.6a2.6,2.6,0,0,0,2.732,2.356,3.286,3.286,0,0,0,2.117-1.074,2.275,2.275,0,0,0-.22-3.16A2.646,2.646,0,0,0,451.786,298.6Z" transform="translate(-291.762 -161.066)"/><path class="b" d="M461.12,328.6a2.6,2.6,0,0,0,2.731,2.356,3.287,3.287,0,0,0,2.118-1.074,2.276,2.276,0,0,0-.22-3.16A2.646,2.646,0,0,0,461.12,328.6Z" transform="translate(-296.701 -176.939)"/><path class="b" d="M487.12,265.27a2.6,2.6,0,0,0,2.731,2.356,3.286,3.286,0,0,0,2.118-1.074,2.276,2.276,0,0,0-.22-3.16A2.646,2.646,0,0,0,487.12,265.27Z" transform="translate(-310.458 -143.43)"/><path class="b" d="M478.451,223.413a1.487,1.487,0,0,0,1.564,1.349,1.881,1.881,0,0,0,1.212-.615,1.3,1.3,0,0,0-.126-1.809A1.515,1.515,0,0,0,478.451,223.413Z" transform="translate(-305.872 -121.913)"/><path class="b" d="M352.457,354.8a4.024,4.024,0,0,0,4.232,3.651,5.091,5.091,0,0,0,3.281-1.664c1.408-1.455.9-3.582-.341-4.9A4.1,4.1,0,0,0,352.457,354.8Z" transform="translate(-239.205 -189.99)"/><path class="b" d="M413.032,589.932a4.024,4.024,0,0,0,4.233,3.651,5.091,5.091,0,0,0,3.281-1.664c1.408-1.456.9-3.582-.341-4.9A4.1,4.1,0,0,0,413.032,589.932Z" transform="translate(-271.255 -314.399)"/><path class="b" d="M355.032,461.932a4.024,4.024,0,0,0,4.233,3.651,5.091,5.091,0,0,0,3.281-1.664c1.408-1.456.9-3.582-.341-4.9A4.1,4.1,0,0,0,355.032,461.932Z" transform="translate(-240.568 -246.674)"/><path class="b" d="M237.034,131.237c-3.733,0-3.969,5.8-.221,5.8S240.782,131.237,237.034,131.237Z" transform="translate(-176.596 -73.986)"/><path class="b" d="M272.153,66.5c-3.733,0-3.968,5.8-.221,5.8S275.9,66.5,272.153,66.5Z" transform="translate(-195.178 -39.735)"/><path class="b" d="M252.153,10.5c-3.733,0-3.968,5.8-.221,5.8S255.9,10.5,252.153,10.5Z" transform="translate(-184.596 -10.105)"/><path class="b" d="M456.646,141.938a2.7,2.7,0,0,0-1.793-2.652c-1.953-.8-4.212.061-4.354,2.322a2.893,2.893,0,0,0,2.694,3.055l1.987-.508A2.614,2.614,0,0,0,456.646,141.938Z" transform="translate(-291.082 -78.09)"/><path class="b" d="M532.688,68.182A2.7,2.7,0,0,0,530.9,65.53c-1.954-.8-4.212.06-4.354,2.321a2.892,2.892,0,0,0,2.693,3.055l1.987-.508A2.613,2.613,0,0,0,532.688,68.182Z" transform="translate(-331.316 -39.066)"/><path class="b" d="M554.688,25.182A2.7,2.7,0,0,0,552.9,22.53c-1.954-.8-4.212.06-4.354,2.321a2.892,2.892,0,0,0,2.694,3.055l1.987-.508A2.613,2.613,0,0,0,554.688,25.182Z" transform="translate(-342.957 -16.314)"/><path class="b" d="M646.942,17.858a2.7,2.7,0,0,0-1.792-2.652c-1.954-.8-4.212.06-4.355,2.321a2.893,2.893,0,0,0,2.694,3.055l1.987-.508A2.613,2.613,0,0,0,646.942,17.858Z" transform="translate(-391.768 -12.439)"/><path class="b" d="M372.586,89.166a2.7,2.7,0,0,0-1.792-2.652c-1.954-.8-4.212.061-4.355,2.322a2.893,2.893,0,0,0,2.694,3.055l1.987-.508A2.614,2.614,0,0,0,372.586,89.166Z" transform="translate(-246.606 -50.169)"/><path class="b" d="M176.271,66.562a2.7,2.7,0,0,0-1.793-2.652c-1.953-.8-4.212.06-4.354,2.321a2.893,2.893,0,0,0,2.694,3.055l1.987-.508A2.614,2.614,0,0,0,176.271,66.562Z" transform="translate(-142.736 -38.209)"/><path class="b" d="M353.346,216.424c-2.288,0-2.2,3.541.087,3.541S355.628,216.424,353.346,216.424Z" transform="translate(-238.797 -119.058)"/><path class="b" d="M315.065,223.111a1.553,1.553,0,0,0-.042,3.1A1.553,1.553,0,0,0,315.065,223.111Z" transform="translate(-218.621 -122.597)"/><path class="b" d="M265.881,159.622a3.125,3.125,0,0,0-.369-1.108.869.869,0,0,0-1.376-.024,3.24,3.24,0,0,0-.39,1.157,1.077,1.077,0,1,0,2.135-.025Z" transform="translate(-192.264 -88.233)"/><path class="b" d="M246.623,91.761a3.125,3.125,0,0,0-.369-1.108.869.869,0,0,0-1.376-.024,3.244,3.244,0,0,0-.39,1.157,1.077,1.077,0,1,0,2.135-.025Z" transform="translate(-182.075 -52.328)"/><path class="b" d="M196.4,67.46a3.125,3.125,0,0,0-.368-1.108.869.869,0,0,0-1.376-.024,3.228,3.228,0,0,0-.39,1.157,1.077,1.077,0,1,0,2.135-.025Z" transform="translate(-155.502 -39.47)"/><path class="b" d="M222.686,18.012a3.9,3.9,0,0,0-.461-1.384,1.086,1.086,0,0,0-1.72-.03,4.043,4.043,0,0,0-.488,1.446,1.346,1.346,0,1,0,2.669-.032Z" transform="translate(-169.126 -13.114)"/><path class="b" d="M294.9,67.407a3.121,3.121,0,0,0-.369-1.108.869.869,0,0,0-1.376-.024,3.234,3.234,0,0,0-.39,1.157,1.077,1.077,0,1,0,2.135-.025Z" transform="translate(-207.618 -39.442)"/><path class="b" d="M265.269,26.758a3.126,3.126,0,0,0-.369-1.108.869.869,0,0,0-1.376-.024,3.247,3.247,0,0,0-.39,1.157,1.077,1.077,0,1,0,2.135-.025Z" transform="translate(-191.941 -17.935)"/><path class="b" d="M369.052,69.717a3.127,3.127,0,0,0-.369-1.108.869.869,0,0,0-1.376-.024,3.247,3.247,0,0,0-.39,1.157,1.077,1.077,0,1,0,2.135-.025Z" transform="translate(-246.852 -40.664)"/><path class="b" d="M285.269,29.758a3.126,3.126,0,0,0-.369-1.108.869.869,0,0,0-1.376-.024,3.246,3.246,0,0,0-.39,1.157,1.077,1.077,0,1,0,2.135-.025Z" transform="translate(-202.523 -19.522)"/><path class="b" d="M378.042,127.72a1.613,1.613,0,0,0-2.228-.443c-.38.3-.754.6-1.129.9a1.738,1.738,0,0,0,1.167,2.99,1.621,1.621,0,0,0,1.239-.484c.242-.354.563-.68.831-1.02A1.634,1.634,0,0,0,378.042,127.72Z" transform="translate(-250.69 -71.743)"/><path class="b" d="M255.245,174.9c-1.949,0-2.144,3.025-.19,3.025S257.2,174.9,255.245,174.9Z" transform="translate(-186.95 -97.087)"/><path class="b" d="M208.791,27.577c-1.949,0-2.144,3.025-.19,3.025S210.746,27.577,208.791,27.577Z" transform="translate(-162.371 -19.139)"/><path class="b" d="M138.791,12.577c-1.949,0-2.144,3.025-.19,3.025S140.746,12.577,138.791,12.577Z" transform="translate(-125.334 -11.203)"/><path class="b" d="M295.229,127.828a1.37,1.37,0,0,0,0,2.739A1.37,1.37,0,0,0,295.229,127.828Z" transform="translate(-208.232 -72.182)"/><path class="b" d="M323.7,101.5a1.37,1.37,0,0,0,0,2.739A1.37,1.37,0,0,0,323.7,101.5Z" transform="translate(-223.294 -58.252)"/><path class="b" d="M224.873,86.92a1.37,1.37,0,0,0,0,2.739A1.37,1.37,0,0,0,224.873,86.92Z" transform="translate(-171.006 -50.538)"/><path class="b" d="M369.59,242.919c-2.122,0-1.736,3.267.358,3.267C372.07,246.186,371.683,242.919,369.59,242.919Z" transform="translate(-247.528 -133.077)"/><path class="b" d="M335.234,126.15a1.306,1.306,0,0,0-1.117,2.126l.449.5a.682.682,0,0,0,1.075.012l.527-.6A1.305,1.305,0,0,0,335.234,126.15Z" transform="translate(-229.344 -71.291)"/><path class="b" d="M303.273,87.258a1.306,1.306,0,0,0-1.117,2.126l.449.5a.682.682,0,0,0,1.075.013l.527-.6A1.305,1.305,0,0,0,303.273,87.258Z" transform="translate(-212.434 -50.714)"/><path class="b" d="M518.045,135.5a1.564,1.564,0,0,0-.8.01,1.644,1.644,0,0,0-.86.647c-.073.078-.251.274-.291.318-.184.208-.348.815-.056,1.022q.277.326.544.662a1.536,1.536,0,0,0,1.5.377,1.57,1.57,0,0,0-.039-3.036Z" transform="translate(-325.677 -76.217)"/><path class="b" d="M578.637,60.979a1.564,1.564,0,0,0-.8.01,1.64,1.64,0,0,0-.86.647c-.072.078-.251.274-.291.318-.184.208-.349.815-.057,1.022q.277.326.544.662a1.536,1.536,0,0,0,1.5.377,1.57,1.57,0,0,0-.039-3.036Z" transform="translate(-357.736 -36.787)"/><path class="b" d="M559.995,72.329a1.564,1.564,0,0,0-.8.01,1.644,1.644,0,0,0-.86.647c-.072.078-.251.274-.291.318-.183.208-.349.815-.057,1.022q.277.326.544.662a1.536,1.536,0,0,0,1.5.377,1.57,1.57,0,0,0-.039-3.036Z" transform="translate(-347.872 -42.792)"/><path class="b" d="M574.974,9.706a1.573,1.573,0,0,0-.8.01,1.64,1.64,0,0,0-.86.647c-.072.078-.252.274-.291.318-.184.208-.349.815-.057,1.022q.278.326.544.662a1.535,1.535,0,0,0,1.5.377,1.57,1.57,0,0,0-.039-3.036Z" transform="translate(-355.797 -9.659)"/><path class="b" d="M316.96,291.647a1.37,1.37,0,0,0,0,2.739A1.37,1.37,0,0,0,316.96,291.647Z" transform="translate(-219.73 -158.859)"/><path class="b" d="M465.589,181.2a1.5,1.5,0,0,0-2.112-.158l-.664.692a1.514,1.514,0,0,0-.2,2.084,1.486,1.486,0,0,0,2.084.2l.738-.71A1.521,1.521,0,0,0,465.589,181.2Z" transform="translate(-297.318 -100.143)"/><path class="b" d="M495.617,237.927a1.5,1.5,0,0,0-2.112-.158l-.664.692a1.514,1.514,0,0,0-.2,2.083,1.485,1.485,0,0,0,2.083.2l.738-.71A1.52,1.52,0,0,0,495.617,237.927Z" transform="translate(-313.206 -130.159)"/><path class="b" d="M447.716,205.158a1.187,1.187,0,0,0,.058,2.372A1.187,1.187,0,0,0,447.716,205.158Z" transform="translate(-289.021 -113.098)"/><path class="b" d="M416.886,20a1.187,1.187,0,0,0,.058,2.372A1.187,1.187,0,0,0,416.886,20Z" transform="translate(-272.709 -15.13)"/><path class="b" d="M450.169,70.541a1.187,1.187,0,0,0,.058,2.372A1.187,1.187,0,0,0,450.169,70.541Z" transform="translate(-290.319 -41.872)"/><path class="b" d="M474.763,27.962a1.187,1.187,0,0,0,.058,2.372A1.187,1.187,0,0,0,474.763,27.962Z" transform="translate(-303.331 -19.343)"/><path class="b" d="M523.073,83.5a1.187,1.187,0,0,0,.058,2.372A1.187,1.187,0,0,0,523.073,83.5Z" transform="translate(-328.892 -48.729)"/><path class="b" d="M433.7,204.556c-1.889,0-2.233,2.939-.33,2.939S435.6,204.556,433.7,204.556Z" transform="translate(-281.349 -112.779)"/><path class="b" d="M447.482,218.359c-1.949,0-2.144,3.025-.19,3.025S449.436,218.359,447.482,218.359Z" transform="translate(-288.662 -120.082)"/><path class="b" d="M431.368,230.529a1.6,1.6,0,0,0-1.485,2.012,1.247,1.247,0,0,1,.081.455c.087,1.618,2.744,1.727,2.859.089a1.956,1.956,0,0,1,.109-.609A1.593,1.593,0,0,0,431.368,230.529Z" transform="translate(-280.152 -126.521)"/><path class="b" d="M434.368,352.066a1.6,1.6,0,0,0-1.484,2.012,1.256,1.256,0,0,1,.08.455c.087,1.618,2.744,1.727,2.859.088a1.957,1.957,0,0,1,.109-.609A1.592,1.592,0,0,0,434.368,352.066Z" transform="translate(-281.739 -190.826)"/><path class="b" d="M398.2,430.392c-2.465,0-2.616,3.832-.137,3.832C400.523,434.224,400.675,430.392,398.2,430.392Z" transform="translate(-262.393 -232.269)"/><path class="b" d="M391.6,405.911a2.611,2.611,0,0,0-1.164-.713.293.293,0,0,0-.578,0v.007c-.8.334-1.5.765-1.583,1.743a1.88,1.88,0,1,0,3.326-1.035Z" transform="translate(-258.157 -218.808)"/><path class="b" d="M474.215,140.92a1.134,1.134,0,0,0-1.572.137l-.587.621a1.089,1.089,0,1,0,1.6,1.474l.694-.661A1.118,1.118,0,0,0,474.215,140.92Z" transform="translate(-302.34 -78.974)"/><path class="b" d="M402.255,572.712a1.134,1.134,0,0,0-1.571.137l-.587.621a1.089,1.089,0,1,0,1.6,1.474l.694-.661A1.117,1.117,0,0,0,402.255,572.712Z" transform="translate(-264.267 -307.435)"/><path class="b" d="M377.964,501.375a1.134,1.134,0,0,0-1.571.137l-.587.621a1.089,1.089,0,0,0,1.6,1.474l.694-.661A1.117,1.117,0,0,0,377.964,501.375Z" transform="translate(-251.414 -269.691)"/><path class="b" d="M502.107,17.375a1.134,1.134,0,0,0-1.572.137l-.587.621a1.089,1.089,0,1,0,1.6,1.474l.694-.661A1.117,1.117,0,0,0,502.107,17.375Z" transform="translate(-317.098 -13.606)"/><path class="b" d="M617.7,49.252a1.134,1.134,0,0,0-1.571.138l-.587.62a1.089,1.089,0,0,0,1.6,1.475l.694-.661A1.117,1.117,0,0,0,617.7,49.252Z" transform="translate(-378.26 -30.472)"/><path class="b" d="M440.307,312.959c-1.662,0-1.359,2.559.281,2.559C442.25,315.518,441.947,312.959,440.307,312.959Z" transform="translate(-285.106 -170.135)"/><path class="b" d="M408.433,325.08c-2.609,0-2.136,4.028.452,4.028C411.494,329.108,411.021,325.08,408.433,325.08Z" transform="translate(-267.908 -176.548)"/><path class="b" d="M357.656,118.049a2.558,2.558,0,0,0-.741-1.123c-.027-.335-1.394-.683-1.744-.73a2.34,2.34,0,0,0-1.627.225,2.1,2.1,0,0,0-1.062,1.881c.167,1.222.463,2.3,1.574,2.855a2.573,2.573,0,0,0,3.675-1.763A2.561,2.561,0,0,0,357.656,118.049Z" transform="translate(-239.217 -66.003)"/><path class="b" d="M326.934,259.887c-3.382,0-4,5.261-.59,5.261C329.725,265.148,330.341,259.887,326.934,259.887Z" transform="translate(-224.193 -142.055)"/><path class="b" d="M296.257,218.1a1.972,1.972,0,1,0,2.045,1.9A1.985,1.985,0,0,0,296.257,218.1Z" transform="translate(-208.472 -119.943)"/><path class="b" d="M502.739,172.962a2.789,2.789,0,0,0-2.6,2.937,2.819,2.819,0,0,0,2.937,2.6,2.789,2.789,0,0,0,2.6-2.937A2.819,2.819,0,0,0,502.739,172.962Z" transform="translate(-317.345 -96.063)"/><path class="b" d="M404.378,489.356a2.788,2.788,0,0,0-2.6,2.937,2.819,2.819,0,0,0,2.937,2.6,2.788,2.788,0,0,0,2.6-2.937A2.819,2.819,0,0,0,404.378,489.356Z" transform="translate(-265.302 -263.467)"/><path class="b" d="M431.6,392.764A2.788,2.788,0,0,0,429,395.7a2.819,2.819,0,0,0,2.936,2.6,2.789,2.789,0,0,0,2.6-2.937A2.819,2.819,0,0,0,431.6,392.764Z" transform="translate(-279.705 -212.36)"/><path class="b" d="M361.162,517.537a2.788,2.788,0,0,0-2.6,2.937,2.819,2.819,0,0,0,2.937,2.6,2.788,2.788,0,0,0,2.6-2.937A2.819,2.819,0,0,0,361.162,517.537Z" transform="translate(-242.437 -278.377)"/><path class="b" d="M414.226,114.14c-2.116,0-2.548,3.3-.407,3.3C415.935,117.437,416.366,114.14,414.226,114.14Z" transform="translate(-270.932 -64.94)"/><path class="b" d="M406.633,65.337c-2.116,0-2.548,3.3-.407,3.3C408.341,68.634,408.773,65.337,406.633,65.337Z" transform="translate(-266.915 -39.118)"/><path class="b" d="M456.973,116.027l-2.381-1.309a1.935,1.935,0,0,0,.449,3.812,1.888,1.888,0,0,0,1.754-1.056,1.476,1.476,0,0,0,.281-.688A1.459,1.459,0,0,0,456.973,116.027Z" transform="translate(-292.475 -65.246)"/><path class="b" d="M353.492,291.916c-2.207,0-2.386,3.428-.169,3.428S355.71,291.916,353.492,291.916Z" transform="translate(-238.835 -159.001)"/><path class="b" d="M353.288,244.842c-2.235,0-2.326,3.467-.085,3.467S355.529,244.842,353.288,244.842Z" transform="translate(-238.74 -134.094)"/><path class="b" d="M374.629,282.491a3.739,3.739,0,0,0-1.051-.278,1.625,1.625,0,1,0-.14,3.22,5.683,5.683,0,0,0,1.134-.273A1.454,1.454,0,0,0,374.629,282.491Z" transform="translate(-249.381 -153.858)"/><path class="b" d="M383.324,289.976c-2.177,0-2.443,3.386-.25,3.386C385.252,293.362,385.517,289.976,383.324,289.976Z" transform="translate(-254.606 -157.975)"/><path class="b" d="M387.74,262.774a1.935,1.935,0,1,0-2.8,2.672,3.209,3.209,0,0,0,2.322.9,1.434,1.434,0,0,0,.712-.254l.272-.249a1.426,1.426,0,0,0,.309-.652A3.589,3.589,0,0,0,387.74,262.774Z" transform="translate(-256.112 -143.266)"/><path class="b" d="M393.391,22.329A1.935,1.935,0,1,0,390.59,25a3.211,3.211,0,0,0,2.322.9,1.432,1.432,0,0,0,.712-.254l.272-.249a1.426,1.426,0,0,0,.309-.652A3.589,3.589,0,0,0,393.391,22.329Z" transform="translate(-259.102 -16.047)"/><path class="b" d="M399.143,301.721a1.648,1.648,0,0,0-1.9,1.293q-.078.329-.155.658a1.592,1.592,0,0,0,3.1.731q.124-.391.248-.782A1.626,1.626,0,0,0,399.143,301.721Z" transform="translate(-262.804 -164.174)"/><path class="b" d="M420.965,430.473a1.649,1.649,0,0,0-1.9,1.293q-.078.329-.154.658a1.592,1.592,0,0,0,3.1.731l.248-.782A1.627,1.627,0,0,0,420.965,430.473Z" transform="translate(-274.35 -232.296)"/><path class="b" d="M370.043,37.932a1.649,1.649,0,0,0-1.9,1.293c-.052.219-.1.438-.155.658a1.592,1.592,0,0,0,3.1.731q.124-.391.248-.782A1.627,1.627,0,0,0,370.043,37.932Z" transform="translate(-247.407 -24.603)"/><path class="b" d="M416.688,271.881c-2.335,0-2.052,3.6.266,3.6C419.288,275.485,419.006,271.881,416.688,271.881Z" transform="translate(-272.34 -148.401)"/><path class="b" d="M395.182,629c-2.335,0-2.052,3.6.266,3.6C397.782,632.6,397.5,629,395.182,629Z" transform="translate(-260.961 -337.353)"/><path class="b" d="M429.182,469c-2.335,0-2.052,3.6.266,3.6C431.782,472.6,431.5,469,429.182,469Z" transform="translate(-278.95 -252.697)"/><path class="b" d="M373.784,187.045a2.615,2.615,0,0,0-1.082-.875,1.625,1.625,0,1,0-.126,3.008,2.7,2.7,0,0,0,1.219-.946A1.13,1.13,0,0,0,373.784,187.045Z" transform="translate(-248.707 -102.973)"/><path class="b" d="M523.507,115.225c-2.312,0-2.125,3.574.176,3.574S525.808,115.225,523.507,115.225Z" transform="translate(-328.844 -65.514)"/><path class="b" d="M531.3,36c-2.312,0-2.125,3.574.176,3.574S533.6,36,531.3,36Z" transform="translate(-332.964 -23.596)"/><path class="b" d="M554.045,127.828c2.207,0,2.386,3.428.169,3.428S551.827,127.828,554.045,127.828Z" transform="translate(-345.036 -72.182)"/><path class="b" d="M462.738,85.3c2.207,0,2.386,3.428.168,3.428S460.52,85.3,462.738,85.3Z" transform="translate(-296.726 -49.681)"/><path class="b" d="M461.842,207.207c2.8,0,2.588,4.34-.209,4.34S459.046,207.207,461.842,207.207Z" transform="translate(-295.919 -114.182)"/><path class="b" d="M411.842,32.207c2.8,0,2.588,4.34-.209,4.34S409.046,32.207,411.842,32.207Z" transform="translate(-269.464 -21.589)"/><path class="b" d="M423.657,172.766c2.824,0,2.495,4.371-.318,4.371S420.844,172.766,423.657,172.766Z" transform="translate(-275.676 -95.959)"/><path class="b" d="M484.657,45.766c2.824,0,2.495,4.371-.318,4.371S481.844,45.766,484.657,45.766Z" transform="translate(-307.952 -28.763)"/><path class="b" d="M407.552,192.895c2.631,0,3.073,4.106.409,4.106C405.329,197,404.888,192.895,407.552,192.895Z" transform="translate(-267.412 -106.609)"/><path class="b" d="M345.849,77.2c2.631,0,3.073,4.106.408,4.106C343.626,81.305,343.185,77.2,345.849,77.2Z" transform="translate(-234.765 -45.394)"/><path class="b" d="M342.849,20.2c2.631,0,3.073,4.106.408,4.106C340.626,24.305,340.185,20.2,342.849,20.2Z" transform="translate(-233.178 -15.236)"/><path class="b" d="M166.71,28.911a2.153,2.153,0,0,0-.381.307,1.766,1.766,0,0,0-.523,1.521,1.151,1.151,0,0,0,1.25,1,1.171,1.171,0,0,0,1.017-1.077,2.978,2.978,0,0,0,.233-.2.615.615,0,0,0,.6-.487C169.113,29.011,167.151,28.665,166.71,28.911Z" transform="translate(-140.444 -19.805)"/><path class="b" d="M186.482,47.2a.8.8,0,0,0-.717-.882c-1.226-.158-1.12.611-1.1,1.147a.9.9,0,0,0,.768.775.907.907,0,0,0,1-.721l0,.017c0-.007,0-.014,0-.02s.009-.028.012-.043v-.013l.007-.032h0v0A.986.986,0,0,0,186.482,47.2Z" transform="translate(-150.427 -29.046)"/><path class="b" d="M192.893,22.037a.9.9,0,0,0-.281-.558,1.907,1.907,0,0,0-.561-.251,1.3,1.3,0,0,0-1.285.3,1.325,1.325,0,0,0,1.8,1.944A1.317,1.317,0,0,0,192.893,22.037Z" transform="translate(-153.441 -15.743)"/><path class="b" d="M381.249,214.314c-1.025,0-.964,1.588.06,1.588S382.273,214.314,381.249,214.314Z" transform="translate(-254.054 -117.942)"/><path class="b" d="M388.8,204.343a1.252,1.252,0,0,0-.028,2.5A1.252,1.252,0,0,0,388.8,204.343Z" transform="translate(-257.79 -112.666)"/><path class="b" d="M396.249,95.314c-1.025,0-.964,1.588.06,1.588S397.273,95.314,396.249,95.314Z" transform="translate(-261.99 -54.979)"/><path class="b" d="M478.571,67.956c-.636,0-.559.983.073.983S479.2,67.956,478.571,67.956Z" transform="translate(-305.705 -40.504)"/><path class="b" d="M425.164,517.5a1.217,1.217,0,0,0-.458-.808,1.319,1.319,0,0,0-.9-.248c-.095,0-.189,0-.283,0a1.207,1.207,0,0,0-.648,2.134,1.3,1.3,0,0,0,.884.268,1.283,1.283,0,0,0,1.153-.454A1.217,1.217,0,0,0,425.164,517.5Z" transform="translate(-276.239 -277.798)"/><path class="b" d="M418.325,537.08c-.466.006-.936.046-1.154.541a.905.905,0,0,0,.1.9.934.934,0,0,0,.83.357q-.118.02.029.013a.927.927,0,0,0,1-.807A.91.91,0,0,0,418.325,537.08Z" transform="translate(-273.411 -288.718)"/><g transform="translate(121.8 258.417)"><path class="b" d="M371.175,558.563a1.186,1.186,0,0,0,.578,2.189l.244.007a1.132,1.132,0,0,0,1-.957A1.327,1.327,0,0,0,371.175,558.563Z" transform="translate(-370.623 -558.433)"/><path class="b" d="M373.088,563.367c-.04,0-.08-.005-.119-.008C372.878,563.356,372.916,563.359,373.088,563.367Z" transform="translate(-371.839 -561.038)"/></g><path class="b" d="M373.46,578.778c-.949,0-.8,1.464.145,1.464S374.4,578.778,373.46,578.778Z" transform="translate(-249.984 -310.78)"/><path class="b" d="M355.507,557.5a1.61,1.61,0,0,0-.82.321,1.31,1.31,0,0,0,.745,2.309l1.438-1.409A1.162,1.162,0,0,0,355.507,557.5Z" transform="translate(-240.143 -299.517)"/><path class="b" d="M333.842,456.964c-2.056,0-1.847,3.173.191,3.173C336.089,460.137,335.88,456.964,333.842,456.964Z" transform="translate(-228.598 -246.328)"/><path class="b" d="M319.109,376.14c-2.149,0-1.976,3.322.163,3.322S321.248,376.14,319.109,376.14Z" transform="translate(-220.758 -203.564)"/><path class="b" d="M338.557,390.707c-1.391,0-1.53,2.16-.135,2.16S339.953,390.707,338.557,390.707Z" transform="translate(-231.267 -211.272)"/><circle class="b" cx="1.177" cy="1.177" r="1.177" transform="translate(106.674 174.943)"/><path class="b" d="M333.468,341.729q-.945-1.637-2.145-1.023a1.479,1.479,0,0,0,.625,2.783l1.5-1.124A1.246,1.246,0,0,0,333.468,341.729Z" transform="translate(-227.621 -184.728)"/><path class="b" d="M474.834,315.338a.155.155,0,0,0,0,.309A.155.155,0,0,0,474.834,315.338Z" transform="translate(-303.881 -171.394)"/></g></g></g></svg>