<svg xmlns="http://www.w3.org/2000/svg" width="25" height="25" viewBox="0 0 25 25"><defs><style>.a{fill:#f0f0f7;}</style></defs><path class="a" d="M12.428,37.915a6.41,6.41,0,1,0,6.408,6.41A6.4,6.4,0,0,0,12.428,37.915Zm0,10.577a4.167,4.167,0,1,1,4.166-4.167A4.174,4.174,0,0,1,12.428,48.492Zm8.165-10.839a1.495,1.495,0,1,1-1.495-1.5A1.491,1.491,0,0,1,20.593,37.653Zm4.244,1.517a7.4,7.4,0,0,0-2.019-5.238,7.445,7.445,0,0,0-5.237-2.019c-2.064-.117-8.249-.117-10.312,0a7.434,7.434,0,0,0-5.237,2.014A7.424,7.424,0,0,0,.013,39.165C-.1,41.229-.1,47.415.013,49.48a7.4,7.4,0,0,0,2.019,5.238,7.454,7.454,0,0,0,5.237,2.019c2.064.117,8.249.117,10.312,0a7.4,7.4,0,0,0,5.237-2.019,7.448,7.448,0,0,0,2.019-5.238C24.954,47.415,24.954,41.235,24.837,39.17ZM22.171,51.694A4.218,4.218,0,0,1,19.8,54.071c-1.645.653-5.549.5-7.368.5s-5.728.145-7.368-.5a4.218,4.218,0,0,1-2.376-2.376c-.653-1.646-.5-5.551-.5-7.369s-.145-5.729.5-7.369A4.218,4.218,0,0,1,5.06,34.579c1.645-.653,5.549-.5,7.368-.5s5.728-.145,7.368.5a4.218,4.218,0,0,1,2.376,2.376c.653,1.646.5,5.551.5,7.369S22.824,50.054,22.171,51.694Z" transform="translate(0.075 -31.825)"/></svg>