<svg xmlns="http://www.w3.org/2000/svg" width="25" height="25" viewBox="0 0 25 25"><defs><style>.a{fill:#f0f0f7;}</style></defs><path class="a" d="M23.214,32H1.78A1.793,1.793,0,0,0,0,33.8V55.2A1.793,1.793,0,0,0,1.78,57H23.214A1.8,1.8,0,0,0,25,55.2V33.8A1.8,1.8,0,0,0,23.214,32ZM7.556,53.429H3.85V41.5H7.561V53.429ZM5.7,39.868A2.148,2.148,0,1,1,7.852,37.72,2.149,2.149,0,0,1,5.7,39.868Zm15.742,13.56H17.74v-5.8c0-1.384-.028-3.164-1.925-3.164-1.931,0-2.227,1.507-2.227,3.064v5.9H9.883V41.5h3.555v1.629h.05A3.9,3.9,0,0,1,17,41.2c3.75,0,4.448,2.472,4.448,5.686Z" transform="translate(0 -32)"/></svg>