<svg xmlns="http://www.w3.org/2000/svg" width="30" height="30" viewBox="0 0 30 30"><defs><style>.a{opacity:0.5;}.b{fill:none;}.c{fill:#43425d;}</style></defs><g class="a" transform="translate(-354 -6167)"><g transform="translate(354 6167)"><rect class="b" width="30" height="30"/></g><path class="c" d="M13.006,3.443,10.057.494A1.687,1.687,0,0,0,8.864,0H1.688A1.687,1.687,0,0,0,0,1.688V16.313A1.687,1.687,0,0,0,1.688,18H11.813A1.687,1.687,0,0,0,13.5,16.313V4.636a1.687,1.687,0,0,0-.494-1.193ZM11.676,4.5H9V1.824ZM1.688,16.313V1.688H7.313V5.344a.844.844,0,0,0,.844.844h3.656V16.313ZM6.75,13.64a.422.422,0,0,1-.72.3L4.781,12.673H3.8a.422.422,0,0,1-.422-.422V10.283A.422.422,0,0,1,3.8,9.861h.984l1.249-1.3a.422.422,0,0,1,.72.3ZM8.2,11.983a.843.843,0,0,0,0-1.176A.844.844,0,0,1,9.408,9.63a2.53,2.53,0,0,1,0,3.53A.844.844,0,0,1,8.2,11.983Z" transform="translate(362 6173)"/></g></svg>