<svg xmlns="http://www.w3.org/2000/svg" width="30" height="30" viewBox="0 0 30 30"><defs><style>.a{fill:none;}.b{fill:#43425d;}</style></defs><rect class="a" width="30" height="30"/><path class="b" d="M13.006,3.443,10.057.494A1.687,1.687,0,0,0,8.864,0H1.688A1.687,1.687,0,0,0,0,1.688V16.313A1.687,1.687,0,0,0,1.688,18H11.813A1.687,1.687,0,0,0,13.5,16.313V4.636a1.687,1.687,0,0,0-.494-1.193ZM11.676,4.5H9V1.824ZM1.688,16.313V1.688H7.312V5.344a.844.844,0,0,0,.844.844h3.656V16.313Zm8.04-7.429L7.875,10.736V9.422a.7.7,0,0,0-.7-.7H3.516a.7.7,0,0,0-.7.7v3.656a.7.7,0,0,0,.7.7H7.172a.7.7,0,0,0,.7-.7V11.764l1.852,1.852a.563.563,0,0,0,.96-.4V9.282a.563.563,0,0,0-.96-.4Z" transform="translate(8 6)"/></svg>