<svg xmlns="http://www.w3.org/2000/svg" xmlns:xlink="http://www.w3.org/1999/xlink" width="163" height="163" viewBox="0 0 163 163"><defs><style>.a{fill:#fff;}.b{opacity:0.5;}.c,.e{fill:#43425d;}.c{font-size:14px;font-family:Montserrat-Medium, Montserrat;font-weight:500;letter-spacing:0.02em;}.d{fill:none;}.f{filter:url(#a);}</style><filter id="a" x="0" y="0" width="163" height="163" filterUnits="userSpaceOnUse"><feOffset dy="3" input="SourceAlpha"/><feGaussianBlur stdDeviation="3" result="b"/><feFlood flood-opacity="0.051"/><feComposite operator="in" in2="b"/><feComposite in="SourceGraphic"/></filter></defs><g transform="translate(9 6)"><g class="f" transform="matrix(1, 0, 0, 1, -9, -6)"><circle class="a" cx="72.5" cy="72.5" r="72.5" transform="translate(9 6)"/></g><g class="b" transform="translate(33 31)"><text class="c" transform="translate(1 69)"><tspan x="0" y="0" style="font-size: 14px; font-weight: 500;color: #43425D; letter-spacing: 0.28px;">Add Photo</tspan></text><g transform="translate(25 10)"><rect class="d" width="30" height="30"/><path class="e" d="M18.667,2.333h-5.25V1.167A1.165,1.165,0,0,0,12.25,0H8.75A1.165,1.165,0,0,0,7.583,1.167V2.333H2.333A2.335,2.335,0,0,0,0,4.667V16.333a2.335,2.335,0,0,0,2.333,2.333H18.667A2.335,2.335,0,0,0,21,16.333V4.667A2.335,2.335,0,0,0,18.667,2.333ZM9.333,1.75h2.333V4.083H9.333ZM19.25,16.333a.585.585,0,0,1-.583.583H14.554a.683.683,0,0,0,.029-.117v-.7a2.3,2.3,0,0,0-2.45-2.1,8.8,8.8,0,0,1-1.633.292A8.674,8.674,0,0,1,8.867,14a2.3,2.3,0,0,0-2.45,2.1v.7a.456.456,0,0,0,.029.117H2.333a.585.585,0,0,1-.583-.583V4.667a.585.585,0,0,1,.583-.583h5.25v1.75h5.833V4.083h5.25a.585.585,0,0,1,.583.583ZM10.5,8.167A2.333,2.333,0,1,0,12.833,10.5,2.335,2.335,0,0,0,10.5,8.167Z" transform="translate(5 5)"/></g></g></g></svg>