<svg xmlns="http://www.w3.org/2000/svg" width="28" height="32" viewBox="0 0 28 32"><defs><style>.a{fill:none;}.b{fill:#c7c7c7;}</style></defs><rect class="a" width="28" height="32" rx="5"/><path class="b" d="M6.375,2.125C6.375,1.1,7.438,1.361,7.438,0,7.836,0,8.5.979,8.5,1.859S8.027,3.188,7.438,3.188A1.059,1.059,0,0,1,6.375,2.125Zm5.313,1.063c.589,0,1.063-.448,1.063-1.328S12.086,0,11.688,0c0,1.361-1.062,1.1-1.062,2.125A1.059,1.059,0,0,0,11.688,3.188Zm3.188,5.844V17H0V9.031A1.594,1.594,0,0,1,1.594,7.438h.8V3.719H3.984V7.438H6.641V3.719H8.234V7.438h2.656V3.719h1.594V7.438h.8A1.594,1.594,0,0,1,14.875,9.031Zm-13.281.2v1.887a1.332,1.332,0,0,0,.888.437c.843,0,1-1.062,2.482-1.062,1.46,0,1.652,1.063,2.474,1.063.85,0,1-1.062,2.482-1.062s1.638,1.063,2.482,1.063a1.329,1.329,0,0,0,.88-.438V9.231a.2.2,0,0,0-.2-.2H1.793A.2.2,0,0,0,1.594,9.23Zm11.688,6.176V12.721a2.246,2.246,0,0,1-.88.162c-1.479,0-1.64-1.062-2.482-1.062s-1.007,1.063-2.482,1.063S5.785,11.82,4.964,11.82c-.85,0-1,1.063-2.482,1.063a2.266,2.266,0,0,1-.888-.163v2.686ZM3.188,3.188c.589,0,1.063-.448,1.063-1.328S3.586,0,3.188,0c0,1.361-1.062,1.1-1.062,2.125A1.059,1.059,0,0,0,3.188,3.188Z" transform="translate(7 8)"/></svg>