<svg xmlns="http://www.w3.org/2000/svg" xmlns:xlink="http://www.w3.org/1999/xlink" width="48" height="48" viewBox="0 0 48 48"><defs><style>.a{fill:#43425d;}.b{fill:#fff;fill-rule:evenodd;}.c{filter:url(#a);}</style><filter id="a" x="0" y="0" width="48" height="48" filterUnits="userSpaceOnUse"><feOffset dy="3" input="SourceAlpha"/><feGaussianBlur stdDeviation="3" result="b"/><feFlood flood-opacity="0.102"/><feComposite operator="in" in2="b"/><feComposite in="SourceGraphic"/></filter></defs><g transform="translate(9 6)"><g class="c" transform="matrix(1, 0, 0, 1, -9, -6)"><rect class="a" width="30" height="30" rx="10" transform="translate(9 6)"/></g><path class="b" d="M14.522,12.763a2.49,2.49,0,0,0,.775,1.529.715.715,0,0,1,.258.749.705.705,0,0,1-.589.521,3.564,3.564,0,0,1-.421.022,4.6,4.6,0,0,1-3.382-1.432h-.892a7.788,7.788,0,0,1-3.506-.784.708.708,0,1,1,.64-1.262,6.373,6.373,0,0,0,2.867.631h1.2c.016,0,.03.008.045.009a.7.7,0,0,1,.142.028.494.494,0,0,1,.23.113.728.728,0,0,1,.111.1c.01.012.025.018.034.03a2.845,2.845,0,0,0,1.367.971,4.656,4.656,0,0,1-.334-1.454l0-.027c0-.016,0-.028-.006-.044a.64.64,0,0,1,.013-.1.683.683,0,0,1,.02-.147.7.7,0,0,1,.057-.123.709.709,0,0,1,.067-.114.687.687,0,0,1,.111-.1.7.7,0,0,1,.072-.066,4.06,4.06,0,0,0,2.182-3.322,2.912,2.912,0,0,0-1.113-2.25.708.708,0,0,1,.809-1.162A4.3,4.3,0,0,1,17,8.492,5.247,5.247,0,0,1,14.522,12.763Zm-7.792-1.44h-.89a4.6,4.6,0,0,1-3.383,1.432,3.545,3.545,0,0,1-.421-.022.708.708,0,0,1-.323-1.277,2.494,2.494,0,0,0,.766-1.523A5.244,5.244,0,0,1,0,5.661C0,2.539,3.019,0,6.729,0s6.729,2.539,6.729,5.661S10.439,11.323,6.729,11.323Zm0-9.907c-2.93,0-5.312,1.9-5.312,4.246A4.059,4.059,0,0,0,3.6,8.984a.625.625,0,0,1,.072.065.716.716,0,0,1,.11.1.633.633,0,0,1,.068.115.656.656,0,0,1,.057.122.7.7,0,0,1,.021.148.852.852,0,0,1,.013.1c0,.016-.006.028-.006.044l0,.028a4.681,4.681,0,0,1-.334,1.454,2.849,2.849,0,0,0,1.368-.973c.01-.012.024-.018.035-.03a1.1,1.1,0,0,1,.216-.168.711.711,0,0,1,.128-.043.663.663,0,0,1,.138-.028c.016,0,.03-.009.047-.009h1.2c2.929,0,5.311-1.9,5.311-4.246S9.659,1.415,6.729,1.415Z" transform="translate(7 7)"/></g></svg>