<svg xmlns="http://www.w3.org/2000/svg" xmlns:xlink="http://www.w3.org/1999/xlink" width="48" height="48" viewBox="0 0 48 48"><defs><style>.a{fill:#43425d;}.b,.c{fill:none;stroke-linejoin:round;}.b{opacity:0.999;}.d,.e{stroke:none;}.e{fill:#fff;}.f{filter:url(#a);}</style><filter id="a" x="0" y="0" width="48" height="48" filterUnits="userSpaceOnUse"><feOffset dy="3" input="SourceAlpha"/><feGaussianBlur stdDeviation="3" result="b"/><feFlood flood-opacity="0.102"/><feComposite operator="in" in2="b"/><feComposite in="SourceGraphic"/></filter></defs><g transform="translate(9 6)"><g class="f" transform="matrix(1, 0, 0, 1, -9, -6)"><rect class="a" width="30" height="30" rx="10" transform="translate(9 6)"/></g><g transform="translate(6 9)"><g transform="translate(0 0)"><g class="b" transform="translate(-403 -94.971)"><path class="d" d="M419.425,105.789,416,103.43V98.511l3.425-2.362a1,1,0,0,1,1.575.806v8.028A1,1,0,0,1,419.425,105.789Z"/><path class="e" d="M 419.4999694824219 104.0195159912109 L 419.4999694824219 97.91912841796875 L 417.4998779296875 99.29872894287109 L 417.4998779296875 102.6417465209961 L 419.4999694824219 104.0195159912109 M 419.9954528808594 105.968864440918 C 419.8023376464844 105.968864440918 419.6044616699219 105.9129257202148 419.4249267578125 105.7892761230469 L 415.9998779296875 103.4299087524414 L 415.9998779296875 98.51116180419922 L 419.4249267578125 96.14866638183594 C 419.6048278808594 96.02536010742188 419.8026428222656 95.96958923339844 419.9953918457031 95.96958923339844 C 420.5158081054688 95.96958923339844 420.9999694824219 96.37567901611328 420.9999694824219 96.95491027832031 L 420.9999694824219 104.9830474853516 C 420.9999694824219 105.5639724731445 420.5149536132812 105.968864440918 419.9954528808594 105.968864440918 Z"/></g><g class="c" transform="translate(0 -64)"><path class="d" d="M0,74.506V65.494A1.494,1.494,0,0,1,1.494,64h9.013A1.494,1.494,0,0,1,12,65.494v9.012A1.494,1.494,0,0,1,10.506,76H1.494A1.494,1.494,0,0,1,0,74.506Z"/><path class="e" d="M 10.49999809265137 74.49998474121094 L 10.49995803833008 65.49997711181641 L 1.499998092651367 65.50001525878906 L 1.500038027763367 74.49998474121094 L 10.49999809265137 74.49998474121094 M 10.50624847412109 75.99998474121094 L 1.493748068809509 75.99998474121094 C 0.668778121471405 75.99998474121094 -1.9073486328125e-06 75.33121490478516 -1.9073486328125e-06 74.50624084472656 L -1.9073486328125e-06 65.49375915527344 C -1.9073486328125e-06 64.66876983642578 0.668778121471405 63.99997711181641 1.493748068809509 63.99997711181641 L 10.50624847412109 63.99997711181641 C 11.33122825622559 63.99997711181641 11.99999809265137 64.66876983642578 11.99999809265137 65.49375915527344 L 11.99999809265137 74.50624084472656 C 11.99999809265137 75.33121490478516 11.33122825622559 75.99998474121094 10.50624847412109 75.99998474121094 Z"/></g></g></g></g></svg>