<svg xmlns="http://www.w3.org/2000/svg" width="28" height="32" viewBox="0 0 28 32"><defs><style>.a{fill:none;}.b{fill:#c7c7c7;}</style></defs><rect class="a" width="28" height="32" rx="5"/><path class="b" d="M15.406,35.188H12.75V33.594A1.594,1.594,0,0,0,11.156,32H5.844A1.594,1.594,0,0,0,4.25,33.594v1.594H1.594A1.594,1.594,0,0,0,0,36.781v8.5a1.594,1.594,0,0,0,1.594,1.594H15.406A1.594,1.594,0,0,0,17,45.281v-8.5A1.594,1.594,0,0,0,15.406,35.188ZM5.844,33.594h5.313v1.594H5.844ZM1.793,36.781H15.207a.2.2,0,0,1,.2.2v2.457H1.594V36.98A.2.2,0,0,1,1.793,36.781Zm13.414,8.5H1.793a.2.2,0,0,1-.2-.2V41.031H6.375v.8a.8.8,0,0,0,.8.8H9.828a.8.8,0,0,0,.8-.8v-.8h4.781v4.051A.2.2,0,0,1,15.207,45.281Z" transform="translate(6 -23)"/></svg>