<svg xmlns="http://www.w3.org/2000/svg" width="30" height="30" viewBox="0 0 30 30"><defs><style>.a{fill:none;}.b{fill:#656b72;fill-rule:evenodd;}</style></defs><rect class="a" width="30" height="30"/><g transform="translate(-241.445 -62)"><rect class="a" width="30" height="30" transform="translate(241.445 62)"/><path class="b" d="M14.908,13.1a2.556,2.556,0,0,0,.8,1.57.734.734,0,0,1,.265.769.724.724,0,0,1-.605.535,3.659,3.659,0,0,1-.433.023,4.719,4.719,0,0,1-3.472-1.47h-.916a8,8,0,0,1-3.6-.805.727.727,0,1,1,.657-1.3,6.543,6.543,0,0,0,2.944.648H11.78c.017,0,.031.008.047.009a.714.714,0,0,1,.146.029.508.508,0,0,1,.236.116.748.748,0,0,1,.114.1c.01.012.025.018.035.031a2.921,2.921,0,0,0,1.4,1,4.78,4.78,0,0,1-.343-1.492l0-.028c0-.016-.005-.029-.006-.045a.656.656,0,0,1,.014-.1.7.7,0,0,1,.02-.151.716.716,0,0,1,.059-.127.728.728,0,0,1,.069-.117.706.706,0,0,1,.114-.1.723.723,0,0,1,.073-.068A4.168,4.168,0,0,0,16,8.718a2.99,2.99,0,0,0-1.142-2.31.727.727,0,0,1,.83-1.193,4.417,4.417,0,0,1,1.766,3.5A5.386,5.386,0,0,1,14.908,13.1Zm-8-1.478H5.994a4.723,4.723,0,0,1-3.473,1.47,3.639,3.639,0,0,1-.432-.023.726.726,0,0,1-.332-1.311A2.561,2.561,0,0,0,2.544,10.2,5.384,5.384,0,0,1,0,5.812C0,2.607,3.1,0,6.908,0s6.908,2.607,6.908,5.812S10.718,11.624,6.908,11.624Zm0-10.171c-3.008,0-5.454,1.955-5.454,4.359A4.168,4.168,0,0,0,3.693,9.223a.641.641,0,0,1,.073.067.735.735,0,0,1,.113.1.65.65,0,0,1,.07.119.673.673,0,0,1,.058.125.716.716,0,0,1,.022.152.875.875,0,0,1,.014.1c0,.016-.006.029-.007.045l0,.029a4.806,4.806,0,0,1-.343,1.492,2.924,2.924,0,0,0,1.4-1c.01-.012.025-.018.036-.031a1.125,1.125,0,0,1,.222-.172.73.73,0,0,1,.131-.044.681.681,0,0,1,.142-.028c.017,0,.031-.009.048-.009H6.91c3.007,0,5.453-1.955,5.453-4.36S9.916,1.453,6.908,1.453Z" transform="translate(247.445 69)"/></g></svg>