<svg xmlns="http://www.w3.org/2000/svg" width="28" height="32" viewBox="0 0 28 32"><defs><style>.a{fill:none;}.b{fill:#c7c7c7;}</style></defs><rect class="a" width="28" height="32" rx="5"/><path class="b" d="M6.375,0A6.375,6.375,0,0,0,0,6.375c0,2.361.8,3.1,5.023,9.875a1.6,1.6,0,0,0,2.7,0c4.228-6.78,5.023-7.515,5.023-9.875A6.375,6.375,0,0,0,6.375,0Zm0,15.406C2.144,8.622,1.594,8.194,1.594,6.375a4.781,4.781,0,1,1,9.563,0C11.156,8.186,10.653,8.547,6.375,15.406ZM3.719,6.375A2.656,2.656,0,1,1,6.375,9.031,2.656,2.656,0,0,1,3.719,6.375Z" transform="translate(8 8)"/></svg>