<svg xmlns="http://www.w3.org/2000/svg" width="28" height="32" viewBox="0 0 28 32"><defs><style>.a{fill:none;}.b{fill:#c7c7c7;}</style></defs><rect class="a" width="28" height="32" rx="5"/><path class="b" d="M20.54,66.846l-8.734-2.694a3.294,3.294,0,0,0-1.945,0L1.127,66.846a1.553,1.553,0,0,0,0,2.987l.766.236a2.681,2.681,0,0,0-.193.552,1.077,1.077,0,0,0-.617.968,1.064,1.064,0,0,0,.469.868L.688,76.346a.542.542,0,0,0,.529.659h1.9a.542.542,0,0,0,.529-.659l-.865-3.889A1.038,1.038,0,0,0,2.8,70.73,1.593,1.593,0,0,1,2.96,70.4l1.858.573-.484,3.868c0,1.2,2.91,2.167,6.5,2.167s6.5-.97,6.5-2.167L16.85,70.97l3.69-1.138a1.553,1.553,0,0,0,0-2.986Zm-4.885,7.67c-2.021,1.158-7.648,1.144-9.644,0l.383-3.059,3.467,1.069a3.288,3.288,0,0,0,1.945,0l3.467-1.069.382,3.059Zm-4.328-3.543a1.689,1.689,0,0,1-.988,0L5.235,69.4l5.7-1.068a.541.541,0,1,0-.2-1.064l-6.9,1.293a2.681,2.681,0,0,0-.633.212l-1.4-.433L10.34,65.7a1.689,1.689,0,0,1,.988,0l8.539,2.635Z" transform="translate(3 -54.005)"/></svg>