<svg xmlns="http://www.w3.org/2000/svg" width="28" height="32" viewBox="0 0 28 32"><defs><style>.a,.b{fill:none;}.b{stroke-linecap:round;stroke-linejoin:round;}.c,.d{stroke:none;}.d{fill:#c7c7c7;}</style></defs><rect class="a" width="28" height="32" rx="5"/><g class="b" transform="translate(-13.891 7)"><path class="c" d="M31.4,9.563l.472-3.077H28.918v-2a1.538,1.538,0,0,1,1.735-1.662h1.342V.208A16.366,16.366,0,0,0,29.613,0c-2.431,0-4.02,1.474-4.02,4.141V6.486h-2.7V9.563h2.7V17h3.326V9.563Z"/><path class="d" d="M 28.91835975646973 17 L 28.91835975646973 9.5625 L 31.39830017089844 9.5625 L 31.87045097351074 6.485899925231934 L 28.91835975646973 6.485899925231934 L 28.91835975646973 4.489389896392822 C 28.91835975646973 3.647700071334839 29.33073997497559 2.827250003814697 30.65288925170898 2.827250003814697 L 31.99496078491211 2.827250003814697 L 31.99496078491211 0.207849994301796 C 31.99496078491211 0.207849994301796 30.77707099914551 0 29.61264038085938 0 C 27.18149948120117 0 25.59239959716797 1.473549962043762 25.59239959716797 4.141089916229248 L 25.59239959716797 6.485899925231934 L 22.88999938964844 6.485899925231934 L 22.88999938964844 9.5625 L 25.59239959716797 9.5625 L 25.59239959716797 17 L 28.91835975646973 17 M 28.91835975646973 18.29999923706055 L 25.59239959716797 18.29999923706055 C 24.87442970275879 18.29999923706055 24.29240036010742 17.71796989440918 24.29240036010742 17 L 24.29240036010742 10.86250019073486 L 22.88999938964844 10.86250019073486 C 22.17202949523926 10.86250019073486 21.59000015258789 10.28046989440918 21.59000015258789 9.5625 L 21.59000015258789 6.485899925231934 C 21.59000015258789 5.767930030822754 22.17202949523926 5.185900211334229 22.88999938964844 5.185900211334229 L 24.29240036010742 5.185900211334229 L 24.29240036010742 4.141089916229248 C 24.29240036010742 0.8357499837875366 26.3807201385498 -1.299999952316284 29.61264038085938 -1.299999952316284 C 30.87272071838379 -1.299999952316284 32.15950012207031 -1.082870006561279 32.21366119384766 -1.073619961738586 C 32.83821105957031 -0.9670299887657166 33.29496002197266 -0.4257299900054932 33.29496002197266 0.207849994301796 L 33.29496002197266 2.827250003814697 C 33.29496002197266 3.545219898223877 32.71292877197266 4.127250194549561 31.99496078491211 4.127250194549561 L 30.65288925170898 4.127250194549561 C 30.39804077148438 4.127250194549561 30.28831100463867 4.17933988571167 30.27288055419922 4.193290233612061 C 30.26156997680664 4.206069946289062 30.21836090087891 4.294579982757568 30.21836090087891 4.489389896392822 L 30.21836090087891 5.185900211334229 L 31.87045097351074 5.185900211334229 C 32.24966049194336 5.185900211334229 32.60998153686523 5.351480007171631 32.85694885253906 5.639249801635742 C 33.10391998291016 5.927010059356689 33.21292877197266 6.30826997756958 33.15541076660156 6.68310022354126 L 32.68326187133789 9.759699821472168 C 32.58589935302734 10.3940896987915 32.04013061523438 10.86250019073486 31.39830017089844 10.86250019073486 L 30.21836090087891 10.86250019073486 L 30.21836090087891 17 C 30.21836090087891 17.71796989440918 29.63632965087891 18.29999923706055 28.91835975646973 18.29999923706055 Z"/></g></svg>