<svg xmlns="http://www.w3.org/2000/svg" width="40" height="40" viewBox="0 0 40 40"><defs><style>.a{fill:none;}.b{fill:#a09fad;}</style></defs><rect class="a" width="40" height="40"/><path class="b" d="M17.857,32H2.143A2.143,2.143,0,0,0,0,34.143V49.857A2.143,2.143,0,0,0,2.143,52H8.27V45.2H5.458V42H8.27V39.561c0-2.775,1.652-4.307,4.182-4.307a17.039,17.039,0,0,1,2.479.216v2.723h-1.4a1.6,1.6,0,0,0-1.8,1.729V42H14.8l-.491,3.2H11.73V52h6.127A2.143,2.143,0,0,0,20,49.857V34.143A2.143,2.143,0,0,0,17.857,32Z" transform="translate(10 -22)"/></svg>