<svg xmlns="http://www.w3.org/2000/svg" width="30" height="30" viewBox="0 0 30 30"><defs><style>.a{fill:none;}.b{fill:#1d1c2f;}</style></defs><rect class="a" width="30" height="30"/><path class="b" d="M17.906,33.241A5.884,5.884,0,0,0,10,33.827a5.88,5.88,0,0,0-7.906-.586,5.91,5.91,0,0,0-.414,8.641l6.852,6.98a2.052,2.052,0,0,0,2.938,0l6.852-6.98A5.915,5.915,0,0,0,17.906,33.241Zm-.922,7.324-6.852,6.98a.161.161,0,0,1-.266,0l-6.852-6.98A4.028,4.028,0,0,1,3.3,34.678a3.96,3.96,0,0,1,5.332.41L10,36.483l1.367-1.395a3.958,3.958,0,0,1,5.332-.414A4.046,4.046,0,0,1,16.984,40.565Z" transform="translate(5 -24.979)"/></svg>