<svg xmlns="http://www.w3.org/2000/svg" width="28" height="32" viewBox="0 0 28 32"><defs><style>.a{fill:none;}.b{fill:#c7c7c7;}</style></defs><rect class="a" width="28" height="32" rx="5"/><path class="b" d="M8.513,8.167a.8.8,0,0,0-.8.8,24.279,24.279,0,0,1-.92,7.024.8.8,0,1,0,1.534.431A25.7,25.7,0,0,0,9.31,8.964.8.8,0,0,0,8.513,8.167ZM8.485,5.453A3.321,3.321,0,0,0,5.059,8.81a21.784,21.784,0,0,1-.444,4.733.8.8,0,1,0,1.561.323,23.376,23.376,0,0,0,.477-5.081A1.73,1.73,0,0,1,8.461,7.047a1.922,1.922,0,0,1,1.913,1.842,26.694,26.694,0,0,1-.352,4.766.8.8,0,1,0,1.572.259,28.322,28.322,0,0,0,.374-5.051A3.528,3.528,0,0,0,8.485,5.453ZM4.809,4.8a.8.8,0,0,0-1.121.116A5.759,5.759,0,0,0,2.4,8.631a19.283,19.283,0,0,1-.3,3.72.8.8,0,1,0,1.569.283A20.884,20.884,0,0,0,4,8.606a4.1,4.1,0,0,1,.93-2.688A.8.8,0,0,0,4.809,4.8Zm3.635-2.07a5.935,5.935,0,0,0-1.52.165.8.8,0,1,0,.367,1.551A4.765,4.765,0,0,1,8.42,4.32a4.648,4.648,0,0,1,4.611,4.468,29.254,29.254,0,0,1-.185,3.773.8.8,0,1,0,1.583.182,30.849,30.849,0,0,0,.2-3.979A6.253,6.253,0,0,0,8.444,2.727Zm8.37,4.033a.8.8,0,1,0-1.556.343,8.28,8.28,0,0,1,.156,2.045.8.8,0,0,0,.79.8h.007a.8.8,0,0,0,.8-.79,9.867,9.867,0,0,0-.194-2.4ZM15.481,3.747A8.832,8.832,0,0,0,8.4,0,8.317,8.317,0,0,0,2.349,2.422,7.919,7.919,0,0,0,.014,8.19l0,.713a.8.8,0,0,0,.773.82H.807a.8.8,0,0,0,.8-.774l.005-.785A6.334,6.334,0,0,1,3.476,3.549a6.729,6.729,0,0,1,4.9-1.954,7.234,7.234,0,0,1,5.8,3.068.8.8,0,1,0,1.3-.915Z" transform="translate(5.99 8)"/></svg>