<svg xmlns="http://www.w3.org/2000/svg" width="30" height="30" viewBox="0 0 30 30"><defs><style>.a,.b{fill:none;}.b{stroke:#c7c7c7;stroke-linecap:square;stroke-linejoin:round;stroke-width:1.4px;}</style></defs><rect class="a" width="30" height="30"/><path class="b" d="M14.572,10.606,11.291,9.2a.7.7,0,0,0-.82.2L9.017,11.177A10.859,10.859,0,0,1,3.826,5.986L5.6,4.533a.7.7,0,0,0,.2-.82L4.4.431A.708.708,0,0,0,3.592.024L.545.727A.7.7,0,0,0,0,1.412,13.592,13.592,0,0,0,13.594,15.006a.7.7,0,0,0,.686-.545l.7-3.047a.712.712,0,0,0-.41-.809Z" transform="translate(7.5 7.494)"/></svg>