<svg xmlns="http://www.w3.org/2000/svg" width="30" height="30" viewBox="0 0 30 30"><defs><style>.a,.b{fill:none;}.b{stroke-linejoin:round;}.c,.d{stroke:none;}.d{fill:#c7c7c7;}</style></defs><rect class="a" width="30" height="30"/><g class="b" transform="translate(-17.857 -19.572)"><path class="c" d="M33.363,28.571H24.351a1.494,1.494,0,0,0-1.494,1.494v9.012a1.494,1.494,0,0,0,1.494,1.494h9.013a1.494,1.494,0,0,0,1.494-1.494V30.065A1.494,1.494,0,0,0,33.363,28.571Zm5.919,1.178-3.425,2.362v4.919l3.425,2.359a1,1,0,0,0,1.575-.806V30.556A1,1,0,0,0,39.282,29.75Z"/><path class="d" d="M 24.35088729858398 29.97142028808594 C 24.29919815063477 29.97142028808594 24.25714874267578 30.01347732543945 24.25714874267578 30.06517028808594 L 24.25714874267578 39.07765960693359 C 24.25714874267578 39.12935638427734 24.29919815063477 39.17141723632812 24.35088729858398 39.17141723632812 L 33.36339569091797 39.17141723632812 C 33.41508483886719 39.17141723632812 33.45714569091797 39.12935638427734 33.45714569091797 39.07765960693359 L 33.45714569091797 30.06517028808594 C 33.45714569091797 30.01347732543945 33.41508483886719 29.97142028808594 33.36339569091797 29.97142028808594 L 24.35088729858398 29.97142028808594 M 39.45714569091797 31.32958602905273 L 37.25714874267578 32.84710693359375 L 37.25714874267578 36.29518508911133 L 39.45714569091797 37.81069183349609 L 39.45714569091797 31.32958602905273 M 24.35088729858398 28.57141876220703 L 33.36339569091797 28.57141876220703 C 34.18839645385742 28.57141876220703 34.85714721679688 29.24016952514648 34.85714721679688 30.06517028808594 L 34.85714721679688 39.07765960693359 C 34.85714721679688 39.90266799926758 34.18839645385742 40.57141876220703 33.36339569091797 40.57141876220703 L 24.35088729858398 40.57141876220703 C 23.52589797973633 40.57141876220703 22.85714721679688 39.90266799926758 22.85714721679688 39.07765960693359 L 22.85714721679688 30.06517028808594 C 22.85714721679688 29.24016952514648 23.52589797973633 28.57141876220703 24.35088729858398 28.57141876220703 Z M 39.85260772705078 29.57047271728516 C 40.37297058105469 29.57047653198242 40.85714721679688 29.97661590576172 40.85714721679688 30.55578994750977 L 40.85714721679688 38.58391952514648 C 40.85714721679688 39.16489410400391 40.37221908569336 39.56974792480469 39.8526611328125 39.56974792480469 C 39.65958404541016 39.56974792480469 39.46163940429688 39.5137825012207 39.28214645385742 39.39016723632812 L 35.85714721679688 37.03079986572266 L 35.85714721679688 32.1120491027832 L 39.28214645385742 29.74954986572266 C 39.46208190917969 29.62621307373047 39.65982437133789 29.57047271728516 39.85260772705078 29.57047271728516 Z"/></g><rect class="a" width="30" height="30"/></svg>