<svg xmlns="http://www.w3.org/2000/svg" width="28" height="32" viewBox="0 0 28 32"><defs><style>.a{fill:none;}.b{fill:#c7c7c7;}</style></defs><rect class="a" width="28" height="32" rx="5"/><path class="b" d="M13.281,6.375H12.219V4.827a4.781,4.781,0,1,0-9.562-.046V6.375H1.594A1.594,1.594,0,0,0,0,7.968v7.437A1.594,1.594,0,0,0,1.594,17H13.281a1.594,1.594,0,0,0,1.594-1.594V7.968A1.594,1.594,0,0,0,13.281,6.375ZM4.25,4.781a3.187,3.187,0,1,1,6.375,0V6.375H4.25Zm9.031,10.625H1.594V7.968H13.281Z" transform="translate(7 7)"/></svg>