<svg xmlns="http://www.w3.org/2000/svg" width="40" height="40" viewBox="0 0 40 40"><defs><style>.a{isolation:isolate;}.b{fill:none;}.c{fill:#a09fad;}</style></defs><g class="a" transform="translate(-6903 -1916)"><rect class="b" width="40" height="40" transform="translate(6903 1916)"/><path class="c" d="M10,39.619A2.381,2.381,0,1,0,12.382,42,2.381,2.381,0,0,0,10,39.619Zm5.567-1.83a2.411,2.411,0,0,0-1.358-1.358A15.843,15.843,0,0,0,10,36.144a15.725,15.725,0,0,0-4.21.287,2.411,2.411,0,0,0-1.358,1.358A15.874,15.874,0,0,0,4.145,42a15.812,15.812,0,0,0,.289,4.212,2.411,2.411,0,0,0,1.358,1.358,15.845,15.845,0,0,0,4.21.287,15.72,15.72,0,0,0,4.21-.287,2.411,2.411,0,0,0,1.358-1.358A15.745,15.745,0,0,0,15.856,42a15.754,15.754,0,0,0-.287-4.211ZM10,45.661a3.656,3.656,0,1,1,2.59-1.071A3.661,3.661,0,0,1,10,45.661Zm3.812-6.621a.85.85,0,1,1,.606-.249.854.854,0,0,1-.606.249ZM17.857,32H2.143A2.143,2.143,0,0,0,0,34.143V49.857A2.143,2.143,0,0,0,2.143,52H17.857A2.143,2.143,0,0,0,20,49.857V34.143A2.143,2.143,0,0,0,17.857,32Zm-.764,12.946a4.248,4.248,0,0,1-1.154,2.991,4.25,4.25,0,0,1-2.991,1.154c-1.179.067-4.714.067-5.893,0a4.256,4.256,0,0,1-2.991-1.154A4.235,4.235,0,0,1,2.91,44.946c-.067-1.179-.067-4.715,0-5.893a4.234,4.234,0,0,1,1.154-2.991,4.258,4.258,0,0,1,2.991-1.151c1.179-.067,4.714-.067,5.893,0a4.25,4.25,0,0,1,2.991,1.154,4.25,4.25,0,0,1,1.154,2.993C17.159,40.234,17.159,43.766,17.093,44.946Z" transform="translate(6913 1894)"/></g></svg>