<svg xmlns="http://www.w3.org/2000/svg" width="40" height="40" viewBox="0 0 40 40"><defs><style>.a{isolation:isolate;}.b{fill:none;}.c{fill:#a09fad;}</style></defs><g class="a" transform="translate(-6903 -1916)"><rect class="b" width="40" height="40" transform="translate(6903 1916)"/><path class="c" d="M20,34.143V49.857A2.143,2.143,0,0,1,17.857,52H2.143A2.143,2.143,0,0,1,0,49.857V34.143A2.143,2.143,0,0,1,2.143,32H17.857A2.143,2.143,0,0,1,20,34.143Zm-6.429,9.643a2.491,2.491,0,0,0-1.687.655L8.851,42.62a2.515,2.515,0,0,0,0-1.241l3.034-1.82a2.493,2.493,0,1,0-.736-1.225l-3.034,1.82a2.5,2.5,0,1,0,0,3.69l3.034,1.82a2.5,2.5,0,1,0,2.422-1.88Z" transform="translate(6913 1894)"/></g></svg>