<svg xmlns="http://www.w3.org/2000/svg" width="30" height="30" viewBox="0 0 30 30"><defs><style>.a{fill:none;}.b{fill:#1f1e34;fill-rule:evenodd;}</style></defs><rect class="a" width="30" height="30" rx="15"/><path class="b" d="M18.639,16.381a3.2,3.2,0,0,0,.995,1.963.918.918,0,0,1,.331.962.905.905,0,0,1-.756.669,4.573,4.573,0,0,1-.541.028,5.9,5.9,0,0,1-4.341-1.837H13.181a10,10,0,0,1-4.5-1.006.908.908,0,1,1,.822-1.62,8.18,8.18,0,0,0,3.68.81h1.545c.021,0,.038.01.058.012a.892.892,0,0,1,.183.036.634.634,0,0,1,.3.145.935.935,0,0,1,.143.125c.013.015.032.023.044.038a3.651,3.651,0,0,0,1.755,1.246,5.976,5.976,0,0,1-.429-1.866l-.005-.035c0-.02-.006-.036-.007-.056a.821.821,0,0,1,.017-.125.877.877,0,0,1,.025-.189.9.9,0,0,1,.074-.158.91.91,0,0,1,.086-.146.882.882,0,0,1,.143-.13.9.9,0,0,1,.092-.085A5.211,5.211,0,0,0,20,10.9a3.738,3.738,0,0,0-1.428-2.888.908.908,0,0,1,1.038-1.491A5.522,5.522,0,0,1,21.82,10.9,6.734,6.734,0,0,1,18.639,16.381Zm-10-1.848H7.494A5.9,5.9,0,0,1,3.152,16.37a4.549,4.549,0,0,1-.54-.028A.908.908,0,0,1,2.2,14.7a3.2,3.2,0,0,0,.983-1.955A6.731,6.731,0,0,1,0,7.266C0,3.259,3.875,0,8.637,0s8.637,3.259,8.637,7.266S13.4,14.533,8.637,14.533Zm0-12.717c-3.76,0-6.819,2.445-6.819,5.45a5.21,5.21,0,0,0,2.8,4.265.8.8,0,0,1,.092.084.919.919,0,0,1,.142.13.812.812,0,0,1,.087.148.842.842,0,0,1,.073.156.9.9,0,0,1,.027.19,1.094,1.094,0,0,1,.017.124c0,.02-.007.036-.008.056l-.005.036a6.009,6.009,0,0,1-.428,1.866A3.656,3.656,0,0,0,6.37,13.073c.013-.015.031-.023.045-.038a1.406,1.406,0,0,1,.277-.215.912.912,0,0,1,.164-.055.851.851,0,0,1,.177-.035c.021,0,.039-.012.06-.012H8.639c3.759,0,6.817-2.445,6.817-5.45S12.4,1.817,8.637,1.817Z" transform="translate(4 5)"/></svg>