<svg id="Layer_1" data-name="Layer 1" xmlns="http://www.w3.org/2000/svg" width="30" height="30" viewBox="0 0 30 30"><defs><style>.cls-1{fill:none;}.cls-2{fill:#c7c7c7;}</style></defs><title>menu-chat_gray</title><path class="cls-1" d="M15,0h0A15,15,0,0,1,30,15h0A15,15,0,0,1,15,30h0A15,15,0,0,1,0,15H0A15,15,0,0,1,15,0Z"/><path class="cls-2" d="M22.64,21.38a3.2,3.2,0,0,0,1,2,.92.92,0,0,1,.33,1,.9.9,0,0,1-.76.67,4.57,4.57,0,0,1-.54,0,5.9,5.9,0,0,1-4.34-1.84H17.18a10,10,0,0,1-4.5-1,.91.91,0,0,1,.82-1.62,8.18,8.18,0,0,0,3.68.81h1.6l.18,0a.63.63,0,0,1,.3.15l.14.13,0,0A3.65,3.65,0,0,0,21.21,23a6,6,0,0,1-.43-1.87v0s0,0,0-.06a.82.82,0,0,1,0-.12.88.88,0,0,1,0-.19.9.9,0,0,1,.07-.16.91.91,0,0,1,.09-.15l.14-.13.09-.09A5.21,5.21,0,0,0,24,15.9,3.74,3.74,0,0,0,22.57,13a.91.91,0,0,1,1-1.49,5.52,5.52,0,0,1,2.21,4.38A6.73,6.73,0,0,1,22.64,21.38Zm-10-1.85H11.49a5.9,5.9,0,0,1-4.34,1.84,4.55,4.55,0,0,1-.54,0A.91.91,0,0,1,6.2,19.7a3.2,3.2,0,0,0,1-2A6.73,6.73,0,0,1,4,12.27C4,8.26,7.88,5,12.64,5s8.64,3.26,8.64,7.27-3.87,7.27-8.64,7.27Zm0-12.72c-3.76,0-6.82,2.44-6.82,5.45a5.21,5.21,0,0,0,2.8,4.26l.09.08.14.13a.81.81,0,0,1,.09.15A.84.84,0,0,1,9,17a.9.9,0,0,1,0,.19,1.09,1.09,0,0,1,0,.12s0,0,0,.06v0a6,6,0,0,1-.43,1.87,3.66,3.66,0,0,0,1.75-1.25l0,0a1.41,1.41,0,0,1,.28-.22l.16-.06.18,0h1.61c3.76,0,6.82-2.44,6.82-5.45S16.4,6.82,12.64,6.82Z"/></svg>