<svg id="Layer_1" data-name="Layer 1" xmlns="http://www.w3.org/2000/svg" width="30" height="30" viewBox="0 0 30 30"><defs><style>.cls-1{fill:none;}.cls-2{fill:#c7c7c7;}</style></defs><title>menu-call_gray</title><path class="cls-1" d="M15,0h0A15,15,0,0,1,30,15h0A15,15,0,0,1,15,30h0A15,15,0,0,1,0,15H0A15,15,0,0,1,15,0Z"/><path class="cls-2" d="M24,17.25l-3.8-1.62a1.7,1.7,0,0,0-2,.49L17,17.6A11.54,11.54,0,0,1,12.4,13l1.48-1.21a1.7,1.7,0,0,0,.49-2L12.75,6a1.69,1.69,0,0,0-1.94-1l-3.5.81A1.69,1.69,0,0,0,6,7.51,16.49,16.49,0,0,0,22.49,24h0a1.69,1.69,0,0,0,1.66-1.32l.81-3.5A1.7,1.7,0,0,0,24,17.25Zm-1.54,5A14.71,14.71,0,0,1,7.78,7.57l3.36-.78,1.56,3.64L10.17,12.5a13.44,13.44,0,0,0,7.31,7.31l2.07-2.53,3.64,1.57Z"/></svg>