<svg id="Layer_1" data-name="Layer 1" xmlns="http://www.w3.org/2000/svg" width="30" height="30" viewBox="0 0 30 30"><defs><style>.cls-1{fill:none;}.cls-2{fill:#c7c7c7;}</style></defs><title>menu-video_chat_gray</title><path class="cls-1" d="M24.17,20.62l-4-2.75V12.13l4-2.76a1.17,1.17,0,0,1,1.84.94v9.37a1.17,1.17,0,0,1-1.84.94Z"/><path class="cls-2" d="M24.2,18.46V11.54L22,13.08v3.85l2.23,1.54m.63,2.37a1.17,1.17,0,0,1-.67-.21l-4-2.75V12.13l4-2.76a1.17,1.17,0,0,1,1.84.94v9.37a1.16,1.16,0,0,1-1.17,1.15h0Z"/><path class="cls-1" d="M5,20.26V9.74A1.74,1.74,0,0,1,6.74,8H17.26A1.74,1.74,0,0,1,19,9.74V20.26A1.74,1.74,0,0,1,17.26,22H6.74A1.74,1.74,0,0,1,5,20.26Z"/><path class="cls-2" d="M17.2,20.2V9.8H6.8V20.2H17.2m.06,1.8H6.74A1.74,1.74,0,0,1,5,20.26V9.74A1.74,1.74,0,0,1,6.74,8H17.26A1.74,1.74,0,0,1,19,9.74V20.26A1.74,1.74,0,0,1,17.26,22Z"/><path class="cls-1" d="M15,0h0A15,15,0,0,1,30,15h0A15,15,0,0,1,15,30h0A15,15,0,0,1,0,15H0A15,15,0,0,1,15,0Z"/></svg>