<svg xmlns="http://www.w3.org/2000/svg" width="28" height="32" viewBox="0 0 28 32"><defs><style>.a{fill:none;}.b{fill:#c7c7c7;}</style></defs><rect class="a" width="28" height="32" rx="5"/><path class="b" d="M17.679,32H1.607A1.608,1.608,0,0,0,0,33.607V45.393A1.608,1.608,0,0,0,1.607,47H17.679a1.608,1.608,0,0,0,1.607-1.607V33.607A1.608,1.608,0,0,0,17.679,32Zm0,13.393H1.607V33.607H17.679ZM6.964,39.5a2.143,2.143,0,1,0-2.143-2.143A2.145,2.145,0,0,0,6.964,39.5Zm-3,4.286h6a.7.7,0,0,0,.75-.643V42.5a2.109,2.109,0,0,0-2.25-1.929,8.083,8.083,0,0,1-1.5.268,7.966,7.966,0,0,1-1.5-.268A2.109,2.109,0,0,0,3.214,42.5v.643A.7.7,0,0,0,3.964,43.786Zm8.089-2.143H15.8a.269.269,0,0,0,.268-.268v-.536a.269.269,0,0,0-.268-.268h-3.75a.269.269,0,0,0-.268.268v.536A.269.269,0,0,0,12.054,41.643Zm0-2.143H15.8a.269.269,0,0,0,.268-.268V38.7a.269.269,0,0,0-.268-.268h-3.75a.269.269,0,0,0-.268.268v.536A.269.269,0,0,0,12.054,39.5Zm0-2.143H15.8a.269.269,0,0,0,.268-.268v-.536a.269.269,0,0,0-.268-.268h-3.75a.269.269,0,0,0-.268.268v.536A.269.269,0,0,0,12.054,37.357Z" transform="translate(4 -23)"/></svg>