<svg xmlns="http://www.w3.org/2000/svg" width="30" height="30" viewBox="0 0 30 30"><defs><style>.a{fill:none;}.b{fill:#43425d;}</style></defs><rect class="a" width="30" height="30"/><path class="b" d="M15.5,35.5l-3-3A1.714,1.714,0,0,0,11.29,32H1.714A1.714,1.714,0,0,0,0,33.714V46.286A1.714,1.714,0,0,0,1.714,48H14.286A1.714,1.714,0,0,0,16,46.286V36.71a1.714,1.714,0,0,0-.5-1.212ZM8,45.714a2.286,2.286,0,1,1,2.286-2.286A2.286,2.286,0,0,1,8,45.714Zm3.429-10.876v3.59a.429.429,0,0,1-.429.429H2.714a.429.429,0,0,1-.429-.429V34.714a.429.429,0,0,1,.429-.429h8.161a.428.428,0,0,1,.3.126l.124.124a.428.428,0,0,1,.126.3Z" transform="translate(7 -25)"/></svg>