<svg xmlns="http://www.w3.org/2000/svg" width="30" height="30" viewBox="0 0 30 30"><defs><style>.a,.b{fill:none;}.b{stroke-linejoin:round;mix-blend-mode:multiply;isolation:isolate;}.c,.d{stroke:none;}.d{fill:#c7c7c7;}</style></defs><rect class="a" width="30" height="30"/><g class="b" transform="translate(6 -58.998)"><path class="c" d="M10.639,65.347l-4.4,4.4H1.187A1.187,1.187,0,0,0,0,70.936v7.125a1.187,1.187,0,0,0,1.187,1.187h5.05l4.4,4.4a1.188,1.188,0,0,0,2.027-.84V66.187A1.188,1.188,0,0,0,10.639,65.347Zm6.1,5.348a1.188,1.188,0,0,0-1.146,2.081,1.951,1.951,0,0,1,0,3.445A1.188,1.188,0,1,0,16.735,78.3a4.326,4.326,0,0,0,0-7.607Z"/><path class="d" d="M 10.66633987426758 68.14845275878906 L 7.651309967041016 71.16313934326172 C 7.276249885559082 71.53816986083984 6.767569541931152 71.74885559082031 6.237179756164551 71.74885559082031 L 2 71.74885559082031 L 2 77.24860382080078 L 6.237179756164551 77.24860382080078 C 6.767539978027344 77.24860382080078 7.276169776916504 77.45925140380859 7.651229858398438 77.834228515625 L 10.66633987426758 80.84866333007812 L 10.66633987426758 68.14845275878906 M 11.46940231323242 64.99892425537109 C 12.07919883728027 64.99899291992188 12.66633987426758 65.46930694580078 12.66633987426758 66.18743896484375 L 12.66633987426758 82.81002044677734 C 12.66633987426758 83.52734375 12.07950210571289 83.99850463867188 11.46951484680176 83.99850463867188 C 11.17743301391602 83.99850463867188 10.88001728057861 83.89044952392578 10.6392297744751 83.649658203125 L 6.237179756164551 79.24860382080078 L 1.187469482421875 79.24860382080078 C 0.5313892364501953 79.24860382080078 0 78.71672058105469 0 78.06111907958984 L 0 70.93633270263672 C 0 70.28025054931641 0.5313892364501953 69.74885559082031 1.187469482421875 69.74885559082031 L 6.237179756164551 69.74885559082031 L 10.6392297744751 65.34730529785156 C 10.87983322143555 65.10685729980469 11.17716693878174 64.99889373779297 11.46940231323242 64.99892425537109 Z M 16.16439437866211 70.54882049560547 C 16.35782051086426 70.54883575439453 16.55389404296875 70.59593200683594 16.73489952087402 70.69486999511719 C 18.13216018676758 71.46424865722656 19 72.92087554931641 19 74.49824523925781 C 19 76.07558441162109 18.13216018676758 77.53271484375 16.73539924621582 78.30209350585938 C 16.55414581298828 78.40165710449219 16.35770606994629 78.4490966796875 16.16375732421875 78.4490966796875 C 15.745680809021 78.4490966796875 15.3392505645752 78.22862243652344 15.12191963195801 77.83451843261719 C 14.80575942993164 77.26007843017578 15.01504993438721 76.53820037841797 15.58948993682861 76.22105407714844 C 16.22776031494141 75.87025451660156 16.62456893920898 75.21021270751953 16.62456893920898 74.49871826171875 C 16.62456893920898 73.78723907470703 16.22776031494141 73.12721252441406 15.58899974822998 72.77590179443359 C 15.01455974578857 72.45875549316406 14.80527019500732 71.73688507080078 15.12142944335938 71.16244506835938 C 15.33872890472412 70.76947784423828 15.74555206298828 70.54878234863281 16.16439437866211 70.54882049560547 Z"/></g></svg>