<svg xmlns="http://www.w3.org/2000/svg" width="40" height="40" viewBox="0 0 40 40"><defs><style>.a{fill:none;}.b{fill:#a09fad;}</style></defs><rect class="a" width="40" height="40"/><path class="b" d="M17.857,32H2.143A2.143,2.143,0,0,0,0,34.143V49.857A2.143,2.143,0,0,0,2.143,52H17.857A2.143,2.143,0,0,0,20,49.857V34.143A2.143,2.143,0,0,0,17.857,32Zm-2.183,7.089c.009.125.009.254.009.379a8.274,8.274,0,0,1-8.33,8.33,8.292,8.292,0,0,1-4.5-1.312,6.169,6.169,0,0,0,.705.036A5.87,5.87,0,0,0,7.2,45.272,2.932,2.932,0,0,1,4.46,43.241a3.156,3.156,0,0,0,1.321-.054,2.928,2.928,0,0,1-2.344-2.875v-.036a2.926,2.926,0,0,0,1.321.371,2.922,2.922,0,0,1-1.3-2.437,2.891,2.891,0,0,1,.4-1.478,8.314,8.314,0,0,0,6.036,3.063,2.934,2.934,0,0,1,5-2.674,5.737,5.737,0,0,0,1.857-.705,2.92,2.92,0,0,1-1.286,1.612,5.827,5.827,0,0,0,1.688-.455A6.163,6.163,0,0,1,15.674,39.089Z" transform="translate(10 -22)"/></svg>