<svg xmlns="http://www.w3.org/2000/svg" width="28" height="32" viewBox="0 0 28 32"><defs><style>.a,.b{fill:none;}.b{stroke-linejoin:round;}.c,.d{stroke:none;}.d{fill:#c7c7c7;}</style></defs><rect class="a" width="28" height="32" rx="5"/><g class="b" transform="translate(5 -38.082)"><path class="c" d="M16.15,51.725c.011.16.011.32.011.48a10.424,10.424,0,0,1-10.5,10.5A10.425,10.425,0,0,1,0,61.045a7.631,7.631,0,0,0,.891.046,7.388,7.388,0,0,0,4.58-1.576,3.7,3.7,0,0,1-3.449-2.558,4.652,4.652,0,0,0,.7.057,3.9,3.9,0,0,0,.971-.126A3.69,3.69,0,0,1,.731,53.267v-.046A3.715,3.715,0,0,0,2.4,53.69a3.695,3.695,0,0,1-1.142-4.934,10.486,10.486,0,0,0,7.607,3.86,4.165,4.165,0,0,1-.091-.845,3.693,3.693,0,0,1,6.385-2.524,7.263,7.263,0,0,0,2.341-.891,3.679,3.679,0,0,1-1.622,2.033A7.4,7.4,0,0,0,18,49.818a7.93,7.93,0,0,1-1.85,1.907Z"/><path class="d" d="M 12.46064949035645 48.08202362060547 C 10.41624069213867 48.08202362060547 8.771550178527832 49.73809432983398 8.771550178527832 51.77112579345703 C 8.771550178527832 52.05666732788086 8.805830001831055 52.3421745300293 8.862930297851562 52.61629486083984 C 5.802029609680176 52.45635604858398 3.072319984436035 50.99444580078125 1.256309509277344 48.75586700439453 C 0.9365005493164062 49.30409622192383 0.7537899017333984 49.93227386474609 0.7537899017333984 50.61754608154297 C 0.7537899017333984 51.89673614501953 1.404779434204102 53.02743530273438 2.398440361022949 53.68989562988281 C 1.793149948120117 53.66707611083984 1.222040176391602 53.49575424194336 0.7309398651123047 53.22164535522461 L 0.7309398651123047 53.26731491088867 C 0.7309398651123047 55.06046676635742 1.998750686645508 56.54522705078125 3.68910026550293 56.88789367675781 C 3.380740165710449 56.96779632568359 3.049500465393066 57.01350402832031 2.718290328979492 57.01350402832031 C 2.478420257568359 57.01350402832031 2.250009536743164 56.99065399169922 2.021559715270996 56.95641708374023 C 2.489839553833008 58.41835403442383 3.848990440368652 59.48053359985352 5.470829963684082 59.51481628417969 C 4.203049659729004 60.50847625732422 2.615460395812988 61.09094619750977 0.8908596038818359 61.09094619750977 C 0.5824699401855469 61.09094619750977 0.2969703674316406 61.07952499389648 0 61.0452766418457 C 1.633260726928711 62.09599685668945 3.57487964630127 62.70135498046875 5.664999961853027 62.70135498046875 C 12.44929981231689 62.70135498046875 16.16120910644531 57.08202362060547 16.16120910644531 52.20512390136719 C 16.16120910644531 52.04523468017578 16.16120910644531 51.88531494140625 16.14978981018066 51.72542572021484 C 16.86932945251465 51.20000457763672 17.49755096435547 50.54902648925781 18 49.81808471679688 C 17.33757972717285 50.10358428955078 16.61804008483887 50.3092155456543 15.87563991546631 50.38912582397461 C 16.64085006713867 49.93230438232422 17.22332000732422 49.21276473999023 17.49747085571289 48.35613632202148 C 16.78931999206543 48.77872467041016 15.98983001708984 49.08711624145508 15.15608978271484 49.24700546264648 C 14.48221969604492 48.5274543762207 13.52283000946045 48.08202362060547 12.46064949035645 48.08202362060547 M 12.46064949035645 46.68202209472656 C 13.57385635375977 46.68202209472656 14.65535831451416 47.04973220825195 15.53257656097412 47.71052551269531 C 15.9691686630249 47.57364273071289 16.39222145080566 47.38536071777344 16.78005027770996 47.15392684936523 C 17.00200462341309 47.02147674560547 17.25015449523926 46.95614242553711 17.49728202819824 46.95612716674805 C 17.80678749084473 46.95610809326172 18.11474227905273 47.05853652954102 18.36821937561035 47.2598762512207 C 18.80352783203125 47.60563278198242 18.99112892150879 48.1741828918457 18.8526611328125 48.70755004882812 C 18.93592262268066 48.77150344848633 19.0129337310791 48.84560775756836 19.08173942565918 48.92935562133789 C 19.47771072387695 49.41132736206055 19.50706100463867 50.09711456298828 19.15370941162109 50.61114501953125 C 18.69702529907227 51.27551651000977 18.16262054443359 51.8723258972168 17.55965232849121 52.39217376708984 C 17.51272392272949 55.2154541015625 16.40619659423828 58.05417633056641 14.50736045837402 60.20792388916016 C 13.44746971130371 61.41010665893555 12.18517017364502 62.35538482666016 10.7555103302002 63.01750564575195 C 9.202630043029785 63.7366943359375 7.489930152893066 64.10135650634766 5.664999961853027 64.10135650634766 C 3.373849868774414 64.10135650634766 1.152999877929688 63.45171737670898 -0.7574501037597656 62.22267532348633 C -1.305000305175781 61.87042617797852 -1.537450790405273 61.18719482421875 -1.318330764770508 60.57410430908203 C -1.117542266845703 60.01229095458984 -0.5860061645507812 59.64525604248047 -0.00081634521484375 59.64521026611328 C 0.052581787109375 59.64520645141602 0.1063175201416016 59.64825820922852 0.160400390625 59.65449523925781 C 0.3789806365966797 59.67970657348633 0.6042594909667969 59.69094467163086 0.8908596038818359 59.69094467163086 C 1.299449920654297 59.69094467163086 1.700960159301758 59.65130996704102 2.091575622558594 59.57334518432617 C 1.454685211181641 58.99011993408203 0.9635429382324219 58.2428092956543 0.6882896423339844 57.38348388671875 C 0.6150550842285156 57.15485000610352 0.6029796600341797 56.91547012329102 0.6476726531982422 56.68729400634766 C 0.5964336395263672 56.63081359863281 0.5464305877685547 56.5731315612793 0.4976806640625 56.51423645019531 C -0.2547092437744141 55.60529708862305 -0.6690597534179688 54.45218658447266 -0.6690597534179688 53.26731491088867 L -0.6690597534179688 53.22164535522461 C -0.6690597534179688 52.89209365844727 -0.5531940460205078 52.57888793945312 -0.3500823974609375 52.33201599121094 C -0.5436553955078125 51.78974533081055 -0.646209716796875 51.21109390258789 -0.646209716796875 50.61754608154297 C -0.646209716796875 49.70268630981445 -0.4129695892333984 48.83897399902344 0.04702949523925781 48.05043411254883 C 0.2786903381347656 47.65330505371094 0.6905803680419922 47.39522552490234 1.148990631103516 47.3599853515625 C 1.184886932373047 47.35722732543945 1.22077751159668 47.35586166381836 1.256460189819336 47.35585784912109 C 1.676433563232422 47.35583877563477 2.076572418212891 47.54477691650391 2.343540191650391 47.87386703491211 C 3.638016700744629 49.46955871582031 5.438539505004883 50.56935501098633 7.427988052368164 51.01235580444336 C 7.795392036437988 48.56475448608398 9.912276268005371 46.68202209472656 12.46064949035645 46.68202209472656 Z"/></g></svg>