<svg xmlns="http://www.w3.org/2000/svg" width="30" height="30" viewBox="0 0 30 30"><defs><style>.a,.b,.c{fill:none;}.b,.c{stroke-linejoin:round;}.b{opacity:0.999;}.d,.e{stroke:none;}.e{fill:#1f1e34;}</style></defs><rect class="a" width="30" height="30" rx="15"/><g transform="translate(2 3)"><g transform="translate(3 6)"><g class="b" transform="translate(-403 -94.971)"><path class="d" d="M419.425,105.789,416,103.43V98.511l3.425-2.362a1,1,0,0,1,1.575.806v8.028A1,1,0,0,1,419.425,105.789Z"/><path class="e" d="M 419.5999755859375 104.2098388671875 L 419.5999755859375 97.72867584228516 L 417.3998718261719 99.24622344970703 L 417.3998718261719 102.6942901611328 L 419.5999755859375 104.2098388671875 M 419.9954528808594 105.968864440918 C 419.8023376464844 105.968864440918 419.6044616699219 105.9129257202148 419.4249267578125 105.7892761230469 L 415.9998779296875 103.4299087524414 L 415.9998779296875 98.51116180419922 L 419.4249267578125 96.14866638183594 C 419.6048278808594 96.02536010742188 419.8026428222656 95.96958923339844 419.9953918457031 95.96958923339844 C 420.5158081054688 95.96958923339844 420.9999694824219 96.37567901611328 420.9999694824219 96.95491027832031 L 420.9999694824219 104.9830474853516 C 420.9999694824219 105.5639724731445 420.5149536132812 105.968864440918 419.9954528808594 105.968864440918 Z"/></g><g class="c" transform="translate(0 -64)"><path class="d" d="M0,74.506V65.494A1.494,1.494,0,0,1,1.494,64h9.013A1.494,1.494,0,0,1,12,65.494v9.012A1.494,1.494,0,0,1,10.506,76H1.494A1.494,1.494,0,0,1,0,74.506Z"/><path class="e" d="M 10.50624847412109 74.59999084472656 C 10.55793762207031 74.59999084472656 10.59999847412109 74.55792999267578 10.59999847412109 74.50624084472656 L 10.59999847412109 65.49375915527344 C 10.59999847412109 65.44204711914062 10.55793762207031 65.39997863769531 10.50624847412109 65.39997863769531 L 1.493748068809509 65.39997863769531 C 1.442058086395264 65.39997863769531 1.399998068809509 65.44204711914062 1.399998068809509 65.49375915527344 L 1.399998068809509 74.50624084472656 C 1.399998068809509 74.55792999267578 1.442058086395264 74.59999084472656 1.493748068809509 74.59999084472656 L 10.50624847412109 74.59999084472656 M 10.50624847412109 75.99998474121094 L 1.493748068809509 75.99998474121094 C 0.668778121471405 75.99998474121094 -1.9073486328125e-06 75.33121490478516 -1.9073486328125e-06 74.50624084472656 L -1.9073486328125e-06 65.49375915527344 C -1.9073486328125e-06 64.66876983642578 0.668778121471405 63.99997711181641 1.493748068809509 63.99997711181641 L 10.50624847412109 63.99997711181641 C 11.33122825622559 63.99997711181641 11.99999809265137 64.66876983642578 11.99999809265137 65.49375915527344 L 11.99999809265137 74.50624084472656 C 11.99999809265137 75.33121490478516 11.33122825622559 75.99998474121094 10.50624847412109 75.99998474121094 Z"/></g></g></g></svg>