<svg xmlns="http://www.w3.org/2000/svg" width="28" height="32" viewBox="0 0 28 32"><defs><style>.a{fill:none;}.b{fill:#c7c7c7;}</style></defs><rect class="a" width="28" height="32" rx="5"/><path class="b" d="M14.817,14.381l-2.07-4.569c.147-.38.276-.47.742-.936a1.485,1.485,0,0,0,.384-1.434,2.318,2.318,0,0,1,0-1.913A1.485,1.485,0,0,0,13.488,4.1a2.319,2.319,0,0,1-.957-1.657,1.484,1.484,0,0,0-1.05-1.05A2.317,2.317,0,0,1,9.825.432,1.485,1.485,0,0,0,8.391.048a2.322,2.322,0,0,1-1.913,0A1.485,1.485,0,0,0,5.044.432a2.318,2.318,0,0,1-1.657.957,1.484,1.484,0,0,0-1.05,1.05,2.317,2.317,0,0,1-.957,1.657A1.484,1.484,0,0,0,1,5.529,2.318,2.318,0,0,1,1,7.442a1.485,1.485,0,0,0,.384,1.434c.5.5.6.566.742.936L.052,14.381a.671.671,0,0,0,.679.911H.76l2.419-.083L4.844,16.79A.77.77,0,0,0,5.376,17a.737.737,0,0,0,.682-.412l1.376-3.037,1.376,3.037A.737.737,0,0,0,9.493,17a.767.767,0,0,0,.532-.207l1.664-1.582,2.419.083h.029A.672.672,0,0,0,14.817,14.381ZM5.1,14.835,3.793,13.592l-1.66.057.987-2.178a1.464,1.464,0,0,0,.267.111c.835.224.89.189,1.43.729a1.483,1.483,0,0,0,1.05.435,1.53,1.53,0,0,0,.193-.027L5.1,14.835Zm.782-3.711A3.482,3.482,0,0,0,3.86,10.059,3.6,3.6,0,0,0,2.552,7.793a3.608,3.608,0,0,0,0-2.616A3.6,3.6,0,0,0,3.861,2.912,3.641,3.641,0,0,0,6.127,1.6a3.619,3.619,0,0,0,2.616,0,3.644,3.644,0,0,0,2.266,1.308,3.6,3.6,0,0,0,1.308,2.266,3.6,3.6,0,0,0,0,2.617,3.645,3.645,0,0,0-1.308,2.266,3.477,3.477,0,0,0-2.023,1.065A3.082,3.082,0,0,0,5.883,11.125Zm5.861,2.491-.668-.023L9.768,14.835,8.809,12.72A1.472,1.472,0,0,0,9,12.747a1.483,1.483,0,0,0,1.05-.435c.545-.545.591-.5,1.43-.729a1.46,1.46,0,0,0,.267-.111l.987,2.177-.992-.034ZM10.622,6.372A3.187,3.187,0,1,0,7.434,9.56,3.187,3.187,0,0,0,10.622,6.372ZM7.434,7.966A1.594,1.594,0,1,1,9.028,6.372,1.6,1.6,0,0,1,7.434,7.966Z" transform="translate(7.004 8.003)"/></svg>